<?xml version="1.0" encoding="utf-8"?>
<!-- Generator: Adobe Illustrator 25.0.1, SVG Export Plug-In . SVG Version: 6.00 Build 0)  -->
<svg version="1.1" id="Layer_1" xmlns="http://www.w3.org/2000/svg" xmlns:xlink="http://www.w3.org/1999/xlink" x="0px" y="0px"
	 viewBox="0 0 1016.8 173.1" style="enable-background:new 0 0 1016.8 173.1;" xml:space="preserve">
<style type="text/css">
	.st0{clip-path:url(#SVGID_2_);}
	.st1{fill:#F26322;}
	.st2{fill:#008FB4;}
	.st3{fill:#004165;}
	.st4{fill:none;stroke:#F26322;stroke-width:1.41;stroke-miterlimit:10;}
</style>
<g id="Layer_2_1_">
	<g id="Text">
		<g>
			<defs>
				<rect id="SVGID_1_" x="83.5" width="229.2" height="87.7"/>
			</defs>
			<clipPath id="SVGID_2_">
				<use xlink:href="#SVGID_1_"  style="overflow:visible;"/>
			</clipPath>
			<g class="st0">
				<path class="st1" d="M376.3-50.5l-7.8,15.9c-0.4,0.8-1,1.3-1.8,1.7L92.7,78.7c-0.1,0-0.2,0.1-0.3,0.1h-5.7L375.8-51
					c0.2-0.1,0.4,0,0.5,0.2C376.4-50.7,376.4-50.6,376.3-50.5z"/>
				<path class="st2" d="M365.7-28.7l-2.3,4.7c-0.2,0.5-0.6,0.8-1.1,1L102.5,78.7c-0.2,0.1-0.3,0.1-0.5,0.1h-3.9l267.1-108
					c0.2-0.1,0.4,0,0.5,0.3C365.7-28.9,365.7-28.8,365.7-28.7z"/>
			</g>
		</g>
		<path class="st3" d="M101.3,147.2c-4.2,0-8.3-0.8-12.1-2.4l1.4-6.5c3.5,1.2,7.1,1.8,10.8,1.8c4.3,0,5.2-0.8,5.2-4
			c0-3.4-0.2-3.8-6.3-5.1c-9.1-2-10.4-3.8-10.4-11.9c0-7.5,2.6-10.5,12.9-10.5c3.8,0,7.6,0.4,11.4,1.2l-0.8,7.1
			c-3.4-0.7-6.9-1-10.4-1.1c-3.8,0-4.6,0.7-4.6,3.4c0,3.6,0.2,3.7,6.1,5.1c10.1,2.4,10.6,4.4,10.6,11.8S112.6,147.2,101.3,147.2z"/>
		<path class="st3" d="M147.4,109.2v26.6c0,5.7-3.6,11.5-14.1,11.5s-14.1-5.8-14.1-11.5v-26.6h8.4v25.8c0,3,1.5,4.8,5.7,4.8
			s5.7-1.7,5.7-4.8v-25.8H147.4z"/>
		<path class="st3" d="M169.1,146.6h-16v-37.5h14.8c7.8,0,10.7,3.2,10.7,8.2v3.8c0,2.7-1.2,4.6-4.2,5.9c3.2,0.7,5.5,3.6,5.5,6.9v3.7
			C179.9,143,176.5,146.6,169.1,146.6z M170.1,118.6c0-1.6-1-2.6-3.4-2.6h-5.2v8.6h5.2c2.2,0,3.4-1.1,3.4-2.7V118.6z M171.5,134.3
			c0-2.1-1.3-3.1-3.6-3.1h-6.4v8.7h5.2c2.6,0,4.7-0.6,4.7-3.3L171.5,134.3z"/>
		<path class="st3" d="M191.4,134.4c0,3.3,1.1,5.2,5.2,5.2c3.2,0,6.5-0.3,9.7-0.9l1.2,7.4c-3.6,0.8-7.2,1.2-10.9,1.2
			c-9.4,0-13.7-4.7-13.7-11.5v-15.6c0-6.8,4.2-11.5,13.7-11.5c3.6,0,7.3,0.4,10.9,1.2l-1.2,7.4c-3.2-0.6-6.4-0.9-9.7-0.9
			c-4.2,0-5.2,1.9-5.2,5.2V134.4z"/>
		<path class="st3" d="M239.7,109.2v26.6c0,5.7-3.6,11.5-14.1,11.5s-14.1-5.8-14.1-11.5v-26.6h8.4v25.8c0,3,1.5,4.8,5.7,4.8
			s5.7-1.7,5.7-4.8v-25.8H239.7z"/>
		<path class="st3" d="M260.9,116.7v30h-8.4v-30h-10.1v-7.5h28.6v7.5L260.9,116.7z"/>
		<path class="st3" d="M304.9,146.6h-8.8l-2-7.3h-12.6l-2,7.3h-8.8l11.4-37.5h11.2L304.9,146.6z M283.5,132.3h8.6l-4.3-15.7
			L283.5,132.3z"/>
		<path class="st3" d="M315.8,122v24.6h-8v-37.5h10.4l12.3,25.8v-25.8h8v37.5H328L315.8,122z"/>
		<path class="st3" d="M344.3,146.6v-37.5h23.6v7.5h-15.1v6.9h14v7.5h-14v8.2h15.1v7.5L344.3,146.6z"/>
		<path class="st3" d="M401.1,135.7c0,5.7-3.9,11.5-14.5,11.5s-14.5-5.8-14.5-11.5v-15.6c0-5.7,3.9-11.5,14.5-11.5
			s14.5,5.8,14.5,11.5V135.7z M392.7,120.8c0-2.9-1.9-4.7-6.1-4.7s-6.1,1.8-6.1,4.7V135c0,2.9,1.9,4.7,6.1,4.7s6.1-1.8,6.1-4.7
			V120.8z"/>
		<path class="st3" d="M434.1,109.2v26.6c0,5.7-3.5,11.5-14.1,11.5s-14.1-5.8-14.1-11.5v-26.6h8.4v25.8c0,3,1.5,4.8,5.7,4.8
			s5.7-1.7,5.7-4.8v-25.8H434.1z"/>
		<path class="st3" d="M450.8,147.2c-4.2,0-8.3-0.8-12.1-2.4l1.4-6.5c3.5,1.2,7.1,1.8,10.8,1.8c4.3,0,5.2-0.8,5.2-4
			c0-3.4-0.2-3.8-6.3-5.1c-9-2-10.4-3.8-10.4-11.9c0-7.5,2.6-10.5,12.9-10.5c3.8,0,7.6,0.4,11.4,1.2l-0.9,7.1
			c-3.4-0.7-6.9-1-10.4-1.1c-3.8,0-4.6,0.7-4.6,3.4c0,3.6,0.2,3.7,6.1,5.1c10.1,2.4,10.6,4.4,10.6,11.8S462,147.2,450.8,147.2z"/>
		<path class="st3" d="M479.7,146.6v-37.5h8.4v37.5H479.7z"/>
		<path class="st3" d="M502.3,122v24.6h-8v-37.5h10.4L517,135v-25.8h8v37.5h-10.4L502.3,122z"/>
		<path class="st3" d="M526.3,152.5c4.1-3.3,4.5-3.9,4.5-5.9v-37.5h8.4v38.8c0,3.6-3,6.7-8,10.6L526.3,152.5z"/>
		<path class="st3" d="M545,146.6v-37.5h23.6v7.5h-15.2v6.9h14v7.5h-14v8.2h15.1v7.5L545,146.6z"/>
		<path class="st3" d="M581.2,134.4c0,3.3,1.1,5.2,5.2,5.2c3.2,0,6.5-0.3,9.7-0.9l1.2,7.4c-3.6,0.8-7.2,1.2-10.8,1.2
			c-9.5,0-13.7-4.7-13.7-11.5v-15.6c0-6.8,4.2-11.5,13.7-11.5c3.6,0,7.3,0.4,10.8,1.2l-1.2,7.4c-3.2-0.6-6.4-0.9-9.7-0.9
			c-4.2,0-5.2,1.9-5.2,5.2V134.4z"/>
		<path class="st3" d="M617,116.7v30h-8.4v-30h-10v-7.5h28.6v7.5L617,116.7z"/>
		<path class="st3" d="M630.3,146.6v-37.5h8.4v37.5H630.3z"/>
		<path class="st3" d="M673.1,135.7c0,5.7-3.9,11.5-14.5,11.5s-14.5-5.8-14.5-11.5v-15.6c0-5.7,3.9-11.5,14.5-11.5
			s14.5,5.8,14.5,11.5V135.7z M664.7,120.8c0-2.9-1.8-4.7-6.1-4.7s-6.1,1.8-6.1,4.7V135c0,2.9,1.9,4.7,6.1,4.7s6.1-1.8,6.1-4.7
			V120.8z"/>
		<path class="st3" d="M686.2,122v24.6h-8v-37.5h10.3l12.3,25.8v-25.8h8v37.5h-10.4L686.2,122z"/>
		<path class="st3" d="M740.7,116.7v30h-8.4v-30h-10.1v-7.5h28.6v7.5L740.7,116.7z"/>
		<path class="st3" d="M753.7,146.6v-37.5h23.6v7.5h-15.1v6.9h14v7.5h-14v8.2h15.1v7.5L753.7,146.6z"/>
		<path class="st3" d="M789.9,134.4c0,3.3,1.1,5.2,5.2,5.2c3.2,0,6.5-0.3,9.7-0.9l1.2,7.4c-3.6,0.8-7.2,1.2-10.9,1.2
			c-9.5,0-13.7-4.7-13.7-11.5v-15.6c0-6.8,4.2-11.5,13.7-11.5c3.7,0,7.3,0.4,10.9,1.2l-1.2,7.4c-3.2-0.6-6.4-0.9-9.7-0.9
			c-4.2,0-5.2,1.9-5.2,5.2L789.9,134.4z"/>
		<path class="st3" d="M830.8,146.6v-15.1h-12.1v15.1h-8.4v-37.5h8.4v14.9h12.1v-14.9h8.4v37.5H830.8z"/>
		<path class="st3" d="M853.2,122v24.6h-8v-37.5h10.3l12.3,25.8v-25.8h8v37.5h-10.4L853.2,122z"/>
		<path class="st3" d="M882,146.6v-37.5h8.4v37.5H882z"/>
		<path class="st3" d="M907.8,147.1c-8.7-0.8-12-6.1-12-11.4v-15.6c0-5.7,3.9-11.5,14.5-11.5s14.5,5.8,14.5,11.5v15.6
			c0,4.4-2.4,8.8-8.3,10.6l3,7l-7.7,3.2L907.8,147.1z M916.4,120.8c0-2.9-1.9-4.7-6.1-4.7s-6.1,1.8-6.1,4.7V135
			c0,2.9,1.9,4.7,6.1,4.7s6.1-1.8,6.1-4.7V120.8z"/>
		<path class="st3" d="M957.8,109.2v26.6c0,5.7-3.5,11.5-14.1,11.5s-14.1-5.8-14.1-11.5v-26.6h8.4v25.8c0,3,1.5,4.8,5.7,4.8
			s5.7-1.7,5.7-4.8v-25.8H957.8z"/>
		<path class="st3" d="M963.5,146.6v-37.5H987v7.5h-15.1v6.9h14v7.5h-14v8.2H987v7.5L963.5,146.6z"/>
		<path class="st3" d="M1003.1,147.2c-4.1,0-8.2-0.8-12.1-2.4l1.4-6.5c3.5,1.2,7.1,1.8,10.8,1.8c4.3,0,5.2-0.8,5.2-4
			c0-3.4-0.2-3.8-6.3-5.1c-9.1-2-10.4-3.8-10.4-11.9c0-7.5,2.6-10.5,12.9-10.5c3.8,0,7.6,0.4,11.4,1.2l-0.8,7.1
			c-3.4-0.7-6.9-1-10.4-1.1c-3.8,0-4.6,0.7-4.6,3.4c0,3.6,0.2,3.7,6.1,5.1c10.1,2.4,10.6,4.4,10.6,11.8S1014.4,147.2,1003.1,147.2z"
			/>
		<path class="st4" d="M22.4,116.9c9,0,11.5-2.5,11.5-8.7v-5.8c0-5.9-2.5-7.2-11.4-7.2c-6.5,0.1-13,0.8-19.4,2L1.1,81.3
			c7.7-1.7,15.5-2.5,23.3-2.5c23.5,0,29.8,7,29.8,21.1v6.6c0,8.3-2.8,14.6-9.4,18.7c7.9,3.5,11.1,8.4,11.1,17.3v7.2
			c0,13.8-6.5,22.8-32.1,22.8c-8.6,0-15.8-0.7-23.1-3.1l2.1-15.6c6.7,1.3,13.5,1.9,20.2,1.8c9.9,0,12.5-2,12.5-7.4v-6.5
			c0-5.2-3.2-7.4-10.3-7.4H6.8v-17.3H22.4z"/>
	</g>
</g>
</svg>
