<?xml version="1.0" encoding="utf-8"?>
<!-- Generator: Adobe Illustrator 25.0.1, SVG Export Plug-In . SVG Version: 6.00 Build 0)  -->
<svg version="1.1" id="Layer_1" xmlns="http://www.w3.org/2000/svg" xmlns:xlink="http://www.w3.org/1999/xlink" x="0px" y="0px"
	 viewBox="0 0 499.4 173.1" style="enable-background:new 0 0 499.4 173.1;" xml:space="preserve">
<style type="text/css">
	.st0{clip-path:url(#SVGID_2_);}
	.st1{fill:#F26322;}
	.st2{fill:#008FB4;}
	.st3{fill:#004165;}
	.st4{fill:none;stroke:#F26322;stroke-width:1.41;stroke-miterlimit:10;}
</style>
<g id="Layer_2_1_">
	<g id="Text">
		<g>
			<defs>
				<rect id="SVGID_1_" x="83.5" width="229.2" height="87.7"/>
			</defs>
			<clipPath id="SVGID_2_">
				<use xlink:href="#SVGID_1_"  style="overflow:visible;"/>
			</clipPath>
			<g class="st0">
				<path class="st1" d="M376.3-50.5l-7.8,15.9c-0.4,0.8-1,1.3-1.8,1.7L92.7,78.7c-0.1,0-0.2,0.1-0.3,0.1h-5.7L375.8-51
					c0.2-0.1,0.4,0,0.5,0.2C376.4-50.7,376.4-50.6,376.3-50.5z"/>
				<path class="st2" d="M365.7-28.7l-2.3,4.7c-0.2,0.5-0.6,0.8-1.1,1L102.5,78.7c-0.2,0.1-0.3,0.1-0.5,0.1h-3.9l267.1-108
					c0.2-0.1,0.4,0,0.5,0.3C365.7-28.9,365.7-28.8,365.7-28.7z"/>
			</g>
		</g>
		<path class="st3" d="M121.3,146.6h-8.8l-2-7.3H98l-2,7.3h-8.8l11.4-37.5h11.2L121.3,146.6z M99.9,132.3h8.6l-4.3-15.7L99.9,132.3z
			"/>
		<path class="st3" d="M138.7,146.6h-14.5v-37.5h14.5c9.2,0,12.6,4.7,12.6,9.7v18C151.3,141.9,147.9,146.6,138.7,146.6z
			 M142.9,121.2c0-2.9-1-4.6-5.2-4.6h-5.1v22.5h5.1c4.2,0,5.2-1.6,5.2-4.6V121.2z"/>
		<path class="st3" d="M164.6,125.8l-0.6,20.8h-8.2l1.6-37.5h8.4l9,23.8l9-23.8h8.4l1.6,37.5h-8.2l-0.6-20.8l-6.5,16h-7.5
			L164.6,125.8z"/>
		<path class="st3" d="M199.5,146.6v-37.5h8.4v37.5H199.5z"/>
		<path class="st3" d="M222.1,122v24.6h-8v-37.5h10.4l12.3,25.8v-25.8h8v37.5h-10.4L222.1,122z"/>
		<path class="st3" d="M251,146.6v-37.5h8.4v37.5H251z"/>
		<path class="st3" d="M276.6,147.2c-4.2,0-8.3-0.8-12.1-2.4l1.4-6.5c3.5,1.2,7.1,1.8,10.8,1.8c4.3,0,5.2-0.8,5.2-4
			c0-3.4-0.2-3.8-6.3-5.1c-9.1-2-10.4-3.8-10.4-11.9c0-7.5,2.6-10.5,12.9-10.5c3.8,0,7.6,0.4,11.4,1.2l-0.8,7.1
			c-3.4-0.7-6.9-1-10.4-1.1c-3.8,0-4.6,0.7-4.6,3.4c0,3.6,0.2,3.7,6.1,5.1c10.1,2.4,10.6,4.4,10.6,11.8S287.9,147.2,276.6,147.2z"/>
		<path class="st3" d="M310.4,116.7v30h-8.4v-30h-10.1v-7.5h28.6v7.5L310.4,116.7z"/>
		<path class="st3" d="M336.7,135h-5v11.6h-8.4v-37.5h15.6c9.1,0,12.5,3.6,12.5,10.6v4.6c0,4.7-1.7,7.8-5.5,9.4l9.1,12.8h-10
			L336.7,135z M343,120.6c0-2.8-1.1-3.9-4.5-3.9h-6.7v11h6.7c3.6,0,4.5-1.3,4.5-4.1V120.6z"/>
		<path class="st3" d="M389.1,146.6h-8.8l-2-7.3h-12.6l-2,7.3H355l11.4-37.5h11.2L389.1,146.6z M367.7,132.3h8.6l-4.3-15.7
			L367.7,132.3z"/>
		<path class="st3" d="M407.5,116.7v30H399v-30h-10v-7.5h28.6v7.5L407.5,116.7z"/>
		<path class="st3" d="M420.8,146.6v-37.5h8.4v37.5H420.8z"/>
		<path class="st3" d="M463.6,135.7c0,5.7-3.9,11.5-14.5,11.5s-14.5-5.8-14.5-11.5v-15.6c0-5.7,3.9-11.5,14.5-11.5
			s14.5,5.8,14.5,11.5V135.7z M455.1,120.8c0-2.9-1.9-4.7-6.1-4.7s-6.1,1.8-6.1,4.7V135c0,2.9,1.9,4.7,6.1,4.7s6.1-1.8,6.1-4.7
			V120.8z"/>
		<path class="st3" d="M476.7,122v24.6h-8v-37.5H479l12.3,25.8v-25.8h8v37.5h-10.4L476.7,122z"/>
		<path class="st4" d="M22.4,116.9c9,0,11.5-2.5,11.5-8.7v-5.8c0-5.9-2.5-7.2-11.4-7.2c-6.5,0.1-13,0.7-19.4,2L1.1,81.3
			c7.7-1.7,15.5-2.5,23.3-2.5c23.5,0,29.8,7,29.8,21.1v6.6c0,8.3-2.8,14.6-9.4,18.7c7.9,3.5,11.1,8.4,11.1,17.3v7.2
			c0,13.8-6.5,22.8-32.1,22.8c-8.6,0-15.8-0.7-23.1-3.1l2.1-15.6c6.7,1.3,13.5,1.9,20.2,1.8c9.9,0,12.5-2,12.5-7.4v-6.5
			c0-5.2-3.2-7.5-10.3-7.5H6.8v-17.3H22.4z"/>
	</g>
</g>
</svg>
