<?xml version="1.0" encoding="utf-8"?>
<!-- Generator: Adobe Illustrator 25.0.1, SVG Export Plug-In . SVG Version: 6.00 Build 0)  -->
<svg version="1.1" id="Layer_1" xmlns="http://www.w3.org/2000/svg" xmlns:xlink="http://www.w3.org/1999/xlink" x="0px" y="0px"
	 viewBox="0 0 1376.4 956.4" style="enable-background:new 0 0 1376.4 956.4;" xml:space="preserve">
<style type="text/css">
	.st0{opacity:0.8;}
	.st1{clip-path:url(#SVGID_2_);}
	.st2{clip-path:url(#SVGID_4_);}
	.st3{clip-path:url(#SVGID_6_);}
	.st4{opacity:0.8;fill:url(#SVGID_7_);enable-background:new    ;}
	.st5{opacity:0.8;fill:url(#SVGID_8_);enable-background:new    ;}
	.st6{fill:url(#SVGID_9_);}
	.st7{fill:url(#SVGID_10_);}
	.st8{fill:url(#SVGID_11_);}
	.st9{fill:#F7F7F7;}
	.st10{opacity:0.1;}
	.st11{fill:#0099C9;}
	.st12{fill:none;stroke:#F26322;stroke-width:1.51;stroke-miterlimit:10;}
	.st13{fill:#004165;}
</style>
<g>
	<g id="Layer_2_1_">
		<g id="Text">
			<g class="st0">
				<g>
					<defs>
						<rect id="SVGID_1_" x="-543.6" y="-123.6" width="1920" height="1080"/>
					</defs>
					<clipPath id="SVGID_2_">
						<use xlink:href="#SVGID_1_"  style="overflow:visible;"/>
					</clipPath>
					<g class="st1">
						<g>
							<defs>
								<rect id="SVGID_3_" x="-566.7" y="-139.5" width="1966.2" height="1110.6"/>
							</defs>
							<clipPath id="SVGID_4_">
								<use xlink:href="#SVGID_3_"  style="overflow:visible;"/>
							</clipPath>
							<g class="st2">
								<g>
									<defs>
										<rect id="SVGID_5_" x="-569.1" y="-139.7" width="1971.2" height="1110.8"/>
									</defs>
									<clipPath id="SVGID_6_">
										<use xlink:href="#SVGID_5_"  style="overflow:visible;"/>
									</clipPath>
									<g class="st3">
										
											<linearGradient id="SVGID_7_" gradientUnits="userSpaceOnUse" x1="1042.5411" y1="535.511" x2="249.1312" y2="1328.9312" gradientTransform="matrix(1 0 0 -1 0 1578)">
											<stop  offset="0" style="stop-color:#00385D"/>
											<stop  offset="0.44" style="stop-color:#0090B7"/>
											<stop  offset="1" style="stop-color:#0090B7;stop-opacity:0"/>
										</linearGradient>
										<polygon class="st4" points="1579,876.7 876.7,1578.9 65.3,767.5 157.7,426.3 364.7,361.9 425.6,191.4 767.6,65.3 
																					"/>
										
											<linearGradient id="SVGID_8_" gradientUnits="userSpaceOnUse" x1="1178.5775" y1="399.4775" x2="711.5975" y2="866.4575" gradientTransform="matrix(1 0 0 -1 0 1578)">
											<stop  offset="0" style="stop-color:#00385D"/>
											<stop  offset="0.44" style="stop-color:#0090B7"/>
											<stop  offset="1" style="stop-color:#0090B7;stop-opacity:0"/>
										</linearGradient>
										<polygon class="st5" points="1246.5,1024 1024,1246.5 610.6,833 669.2,798 747.1,767.8 790.6,676 833.1,610.5 										
											"/>
									</g>
								</g>
							</g>
						</g>
					</g>
				</g>
			</g>
			
				<radialGradient id="SVGID_9_" cx="751.31" cy="1213.77" r="201.63" gradientTransform="matrix(1 0 0 -1 -543.58 1415.05)" gradientUnits="userSpaceOnUse">
				<stop  offset="0" style="stop-color:#FFE1CD"/>
				<stop  offset="0.12" style="stop-color:#FFD8C0"/>
				<stop  offset="0.33" style="stop-color:#FFC09D"/>
				<stop  offset="0.63" style="stop-color:#FF9A65"/>
				<stop  offset="0.98" style="stop-color:#FF6618"/>
				<stop  offset="1" style="stop-color:#FF6314"/>
			</radialGradient>
			<path class="st6" d="M58.5,222.8H0C0,100,100,0,222.8,0v58.5C132.2,58.5,58.5,132.2,58.5,222.8z"/>
			
				<linearGradient id="SVGID_10_" gradientUnits="userSpaceOnUse" x1="1250.7695" y1="1444.9554" x2="692.4895" y2="585.8354" gradientTransform="matrix(1 0 0 -1 -543.58 1415.05)">
				<stop  offset="0" style="stop-color:#008FB6"/>
				<stop  offset="5.000000e-02" style="stop-color:#0083AA"/>
				<stop  offset="0.2" style="stop-color:#00688E"/>
				<stop  offset="0.35" style="stop-color:#005378"/>
				<stop  offset="0.52" style="stop-color:#004469"/>
				<stop  offset="0.71" style="stop-color:#003C60"/>
				<stop  offset="1" style="stop-color:#00395D"/>
			</linearGradient>
			<path class="st7" d="M767.6,65.3C725.9,23.4,669.1-0.1,610,0.1c-122.9,0-222.8,100-222.8,222.8l0,0
				c0,90.7-73.6,164.3-164.3,164.3C99.8,388,0.7,488.4,1.5,611.5C2.3,733.4,100.9,832,222.8,832.8l0,0
				c123.1,0,222.8-99.8,222.8-222.8c0,0,0,0,0,0l0,0c0-90.7,73.6-164.3,164.3-164.3l0,0v-58.5l0,0c-123.1,0-222.8,99.8-222.8,222.8
				l0,0c0,90.7-73.6,164.3-164.3,164.3l0,0C132.1,775,58,702,57.3,611.3c-0.7-90.7,72.3-164.9,163-165.6c0.9,0,1.7,0,2.6,0l0,0
				c123.1,0,222.8-99.8,222.8-222.8c0-90.6,73.7-164.3,164.3-164.3c90.7-0.7,164.9,72.3,165.6,163c0.7,90.7-72.3,164.9-163,165.6
				c-0.9,0-1.7,0-2.6,0v58.5l0,0c123.1,0,222.8-99.8,222.8-222.8C832.8,163.7,809.4,107.1,767.6,65.3L767.6,65.3z"/>
			
				<radialGradient id="SVGID_11_" cx="1164.9301" cy="795.52" r="210.2" gradientTransform="matrix(1 0 0 -1 -543.58 1415.05)" gradientUnits="userSpaceOnUse">
				<stop  offset="0" style="stop-color:#FFE1CD"/>
				<stop  offset="0.12" style="stop-color:#FFD8C0"/>
				<stop  offset="0.33" style="stop-color:#FFC09D"/>
				<stop  offset="0.63" style="stop-color:#FF9A65"/>
				<stop  offset="0.98" style="stop-color:#FF6618"/>
				<stop  offset="1" style="stop-color:#FF6314"/>
			</radialGradient>
			<path class="st8" d="M610,832.8v-58.5c90.6,0,164.3-73.7,164.3-164.3h58.5C832.8,732.9,732.9,832.8,610,832.8z"/>
			<path class="st9" d="M774.9,610c0,91.1-73.8,164.9-164.9,164.9c-91.1,0-164.9-73.8-164.9-164.9S518.9,445.1,610,445
				C701.1,445,774.9,518.9,774.9,610L774.9,610z"/>
			<path class="st9" d="M774.9,222.8c0,91.1-73.8,164.9-164.9,164.9c-91.1,0-164.9-73.8-164.9-164.9S518.9,57.9,610,57.9l0,0
				C701.1,57.9,774.9,131.7,774.9,222.8C774.9,222.8,774.9,222.8,774.9,222.8z"/>
			<circle class="st9" cx="222.8" cy="610" r="164.9"/>
			<path class="st9" d="M387.8,222.8c0,91.1-73.9,164.9-164.9,164.8S58,313.8,58,222.7S131.9,57.9,222.9,57.9
				c54.8,0,106,27.3,136.7,72.7C378,157.9,387.8,190,387.8,222.8z"/>
			<g class="st10">
				<path class="st11" d="M608.8,290.4h70.1v43.1H540.8v-42c24.6-25.3,29.1-29.4,49.6-52.6c33.5-38.3,37.2-40.3,37.2-63.6v-6.2
					c0-12-7.9-16.1-27-16.1c-16.4,0-41.7,2.7-56.4,6.5l-6.5-41.4c21.2-5.5,45.4-8.9,65.3-8.9c52.6,0,73.8,16.4,73.8,53.7v8.9
					c0,32.5-0.3,38.6-31.4,76.2C629,267.8,618.7,279.8,608.8,290.4z"/>
			</g>
			<path class="st12" d="M609.6,214.4h23.2v14.3h-45.7v-13.9c8.2-8.4,9.6-9.7,16.4-17.4c11.1-12.7,12.3-13.4,12.3-21v-2
				c0-4-2.6-5.3-8.9-5.3c-6.3,0.1-12.5,0.8-18.7,2.1l-2.2-13.7c7.1-1.8,14.3-2.8,21.6-2.9c17.4,0,24.4,5.4,24.4,17.8v3
				c0,10.8-0.1,12.8-10.4,25.2C616.3,207,612.9,210.9,609.6,214.4z"/>
			<path class="st13" d="M496.7,246.9h9.8c5.8,0,8,2.4,8,6.8v3.4c0,4.4-2.3,6.8-8.2,6.8h-4.9v8.1h-4.8V246.9z M506.2,251.1h-4.8v8.6
				h4.8c2.7,0,3.5-1,3.5-3.1v-2.6C509.7,252.1,508.8,251.1,506.2,251.1z"/>
			<path class="st13" d="M532.5,272l-5.8-8.3h-4.5v8.3h-4.8v-25.1h10.3c5.8,0,8,2.4,8,6.8v3.3c0,3-1.1,5.1-3.8,6.1l6.2,9L532.5,272z
				 M527.6,251.1h-5.3v8.5h5.3c2.6,0,3.4-0.9,3.4-3v-2.5C531,252,530.1,251.1,527.6,251.1z"/>
			<path class="st13" d="M541,246.9h15.4v4.2h-10.6v6.1h9.8v4.2h-9.8v6.5h10.6v4.2H541V246.9z"/>
			<path class="st13" d="M560.4,246.9h9.8c5.8,0,8,2.4,8,6.8v3.4c0,4.4-2.3,6.8-8.2,6.8h-4.8v8.1h-4.8V246.9z M570,251.1h-4.8v8.6
				h4.8c2.7,0,3.5-1,3.5-3.1v-2.6C573.4,252.1,572.5,251.1,570,251.1L570,251.1z"/>
			<path class="st13" d="M595.1,266.8h-9.3l-1.6,5.2h-5l7.9-25.1h6.6l7.9,25.1h-5L595.1,266.8z M587,262.7h6.9l-3.4-11.9L587,262.7z
				"/>
			<path class="st13" d="M619.6,272l-5.8-8.3h-4.5v8.3h-4.8v-25.1h10.3c5.8,0,8,2.4,8,6.8v3.3c0,3-1.1,5.1-3.8,6.1l6.2,9L619.6,272z
				 M614.7,251.1h-5.3v8.5h5.3c2.6,0,3.4-0.9,3.4-3v-2.5C618.1,252,617.2,251.1,614.7,251.1z"/>
			<path class="st13" d="M642.1,266.8h-9.3l-1.6,5.2h-5l7.9-25.1h6.6l7.9,25.1h-5L642.1,266.8z M634,262.7h6.9l-3.4-11.9L634,262.7z
				"/>
			<path class="st13" d="M656.7,251.1h-7v-4.2h18.8v4.2h-7V272h-4.8L656.7,251.1z"/>
			<path class="st13" d="M676.2,272h-4.8v-25.1h4.8V272z"/>
			<path class="st13" d="M699.6,264.7c0,4.2-2.4,7.7-9.5,7.7s-9.5-3.5-9.5-7.7v-10.4c0-4.2,2.4-7.7,9.5-7.7s9.5,3.5,9.5,7.7V264.7z
				 M685.3,264.4c0,2.4,1.2,3.8,4.8,3.8s4.8-1.4,4.8-3.8v-9.9c0-2.4-1.2-3.8-4.8-3.8s-4.8,1.4-4.8,3.8V264.4z"/>
			<path class="st13" d="M708.4,253.1v19h-4.6v-25.1h6.3l9.5,19.1v-19.1h4.6V272h-6.3L708.4,253.1z"/>
			<g class="st10">
				<path class="st11" d="M216.2,333.4V169.7l-38.6,20.9l-21.2-40.7l64.6-37.2h44.4v220.8H216.2z"/>
			</g>
			<path class="st12" d="M220.6,228.7v-54.2l-12.8,6.9l-7-13.5l21.4-12.3h14.7v73.1H220.6z"/>
			<path class="st13" d="M193.4,246.9c6.2,0,8.3,3.1,8.3,6.8v11.6c0,3.6-2.2,6.8-8.3,6.8h-9.4v-25.1H193.4z M188.8,267.9h4.1
				c3.2,0,4.1-1.3,4.1-3.7v-9.4c0-2.4-0.9-3.7-4.1-3.7h-4.1L188.8,267.9z"/>
			<path class="st13" d="M224.4,264.7c0,4.2-2.4,7.7-9.5,7.7s-9.5-3.5-9.5-7.7v-10.4c0-4.2,2.4-7.7,9.5-7.7s9.5,3.5,9.5,7.7V264.7z
				 M210.1,264.4c0,2.4,1.2,3.8,4.8,3.8s4.8-1.4,4.8-3.8v-9.9c0-2.4-1.2-3.8-4.8-3.8s-4.8,1.4-4.8,3.8V264.4z"/>
			<path class="st13" d="M235.3,272.4c-2.7,0-5.3-0.5-7.8-1.5l0.8-3.7c2.3,0.7,4.7,1.1,7.1,1.2c3.4,0,4-0.7,4-3.1c0-2.8-0.1-3-4.6-4
				c-6.1-1.4-6.9-2.5-6.9-7.8c0-4.6,2.1-6.8,8.5-6.8c2.5,0,4.9,0.3,7.3,0.8l-0.5,4c-2.2-0.5-4.5-0.7-6.7-0.8c-3.2,0-3.8,0.7-3.8,2.9
				c0,2.9,0.1,3,4.4,4c6.8,1.6,7.1,2.7,7.1,7.7C244.2,270,242.8,272.4,235.3,272.4z"/>
			<path class="st13" d="M247.9,246.9h15.4v4.2h-10.6v6.1h9.8v4.2h-9.8v6.5h10.6v4.2h-15.4V246.9z"/>
			<g class="st10">
				<path class="st11" d="M668.1,673.8v46.8h-48.5v-46.8H519.1V631l84.4-131.2h64.6v134h27.7v40L668.1,673.8z M619.6,548.7
					l-52.3,85.1h52.3V548.7z"/>
			</g>
			<path class="st12" d="M629.2,600.3v15.5h-16.1v-15.5h-33.3v-14.1l28-43.5h21.4v44.4h9.1v13.2H629.2z M613.2,558.9l-17.3,28.2
				h17.3V558.9z"/>
			<path class="st13" d="M545.1,659.6c-2.7,0-5.3-0.5-7.8-1.5l0.8-3.7c2.3,0.8,4.7,1.1,7.1,1.2c3.4,0,4-0.7,4-3.1c0-2.8-0.1-3-4.6-4
				c-6.1-1.3-6.9-2.5-6.9-7.8c0-4.6,2.1-6.8,8.4-6.8c2.5,0,4.9,0.3,7.3,0.8l-0.5,4c-2.2-0.5-4.5-0.7-6.7-0.8c-3.2,0-3.8,0.7-3.8,2.9
				c0,2.9,0.1,2.9,4.4,4c6.8,1.6,7.1,2.7,7.1,7.7C553.9,657.1,552.5,659.6,545.1,659.6z"/>
			<path class="st13" d="M562.8,638.3h-7V634h18.8v4.2h-7v20.9h-4.8L562.8,638.3z"/>
			<path class="st13" d="M595.8,651.8c0,4.2-2.4,7.7-9.5,7.7s-9.5-3.5-9.5-7.7v-10.4c0-4.2,2.4-7.7,9.5-7.7s9.5,3.5,9.5,7.7V651.8z
				 M581.6,651.6c0,2.4,1.2,3.8,4.8,3.8s4.8-1.4,4.8-3.8v-9.9c0-2.4-1.2-3.8-4.8-3.8s-4.8,1.4-4.8,3.8V651.6z"/>
			<path class="st13" d="M615,659.2l-5.8-8.3h-4.5v8.3H600V634h10.3c5.8,0,8,2.4,8,6.8v3.3c0,3-1.1,5.1-3.8,6.1l6.2,9L615,659.2z
				 M610.1,638.3h-5.4v8.5h5.4c2.6,0,3.4-0.9,3.4-3.1v-2.5C613.5,639.1,612.6,638.3,610.1,638.3z"/>
			<path class="st13" d="M637.5,654h-9.3l-1.6,5.2h-5l7.9-25.1h6.6l7.9,25.1h-5L637.5,654z M629.4,649.9h6.9l-3.4-11.8L629.4,649.9z
				"/>
			<path class="st13" d="M651.2,651.4c0,2.5,1,3.9,4.4,3.9c1.3,0,2.6-0.1,3.9-0.3v-7.6h4.5v11c-2.7,0.8-5.6,1.1-8.4,1.1
				c-6.1,0-9.1-2.6-9.1-7.6v-10.7c0-5.2,3-7.6,9.6-7.6c2.4,0,4.8,0.3,7.2,0.8l-0.5,4.2c-2.3-0.5-4.6-0.7-7-0.7
				c-3.3,0-4.4,1.4-4.4,3.9L651.2,651.4z"/>
			<path class="st13" d="M668.1,634h15.4v4.2h-10.6v6.1h9.8v4.2h-9.8v6.6h10.6v4.2H668L668.1,634z"/>
			<g class="st10">
				<path class="st11" d="M207.6,589c21.9,0,28-6.2,28-21.2v-14c0-14.3-6.2-17.4-27.7-17.4c-15,0-30.1,1.7-47.2,4.8l-5.1-38.6
					c18.6-4.1,37.7-6.2,56.8-6.2c57.1,0,72.5,17.1,72.5,51.3v16.1c0,20.2-6.8,35.5-22.9,45.5c19.1,8.5,27,20.5,27,42v17.4
					c0,33.5-15.7,55.4-77.9,55.4c-20.8,0-38.3-1.7-56-7.5l5.1-37.9c16.2,3.2,32.7,4.7,49.2,4.5c23.9,0,30.4-4.8,30.4-18.1v-15.8
					c0-12.6-7.9-18.1-24.9-18.1h-45.1v-42H207.6z"/>
			</g>
			<path class="st12" d="M217.8,572.3c7.2,0,9.3-2,9.3-7v-4.6c0-4.8-2-5.8-9.2-5.8c-5.2,0.1-10.5,0.6-15.6,1.6l-1.7-12.8
				c6.2-1.3,12.5-2,18.8-2c18.9,0,24,5.7,24,17v5.3c0,6.7-2.3,11.8-7.6,15c6.3,2.8,8.9,6.8,8.9,13.9v5.8c0,11.1-5.2,18.3-25.8,18.3
				c-6.9,0-12.7-0.6-18.6-2.5l1.7-12.6c5.4,1,10.8,1.5,16.3,1.5c7.9,0,10.1-1.6,10.1-6v-5.2c0-4.2-2.6-6-8.3-6h-15v-13.9H217.8z"/>
			<path class="st13" d="M99.1,654h-9.3l-1.6,5.2h-5l7.9-25.2h6.6l7.9,25.1h-5L99.1,654z M91,649.9h6.9L94.5,638L91,649.9z"/>
			<path class="st13" d="M117.7,634c6.2,0,8.3,3.1,8.3,6.8v11.7c0,3.6-2.2,6.8-8.3,6.8h-9.4V634H117.7z M113.1,655h4.1
				c3.2,0,4.1-1.3,4.1-3.7V642c0-2.4-0.9-3.7-4.1-3.7h-4.1V655z"/>
			<path class="st13" d="M145.6,656h-6l-4.6-13l-0.4,16.3h-4.9l1.1-25.2h5.3l6.5,17.8L149,634h5.4l1.1,25.1h-4.9l-0.4-16.3
				L145.6,656z"/>
			<path class="st13" d="M164.6,659.2h-4.8V634h4.8V659.2z"/>
			<path class="st13" d="M174,640.1v19h-4.6V634h6.3l9.5,19.1V634h4.6v25.1h-6.3L174,640.1z"/>
			<path class="st13" d="M199.3,659.2h-4.8V634h4.8V659.2z"/>
			<path class="st13" d="M210.8,659.6c-2.7,0-5.3-0.5-7.8-1.5l0.8-3.7c2.3,0.8,4.7,1.1,7.1,1.2c3.4,0,4-0.7,4-3.1c0-2.8-0.1-3-4.6-4
				c-6.1-1.3-6.9-2.5-6.9-7.8c0-4.6,2.1-6.8,8.5-6.8c2.5,0,4.9,0.3,7.3,0.8l-0.5,4c-2.2-0.5-4.5-0.7-6.7-0.8c-3.2,0-3.8,0.7-3.8,2.9
				c0,2.9,0.1,2.9,4.4,4c6.8,1.6,7.1,2.7,7.1,7.7C219.7,657.1,218.3,659.6,210.8,659.6z"/>
			<path class="st13" d="M228.4,638.3h-7V634h18.8v4.2h-7v20.9h-4.8V638.3z"/>
			<path class="st13" d="M257.8,659.2l-5.8-8.3h-4.5v8.3h-4.8V634h10.3c5.8,0,8,2.4,8,6.8v3.3c0,3-1.1,5.1-3.8,6.1l6.2,9
				L257.8,659.2z M252.9,638.3h-5.4v8.5h5.4c2.6,0,3.4-0.9,3.4-3.1v-2.5C256.3,639.1,255.4,638.3,252.9,638.3z"/>
			<path class="st13" d="M280.2,654h-9.3l-1.6,5.2h-5l7.9-25.2h6.6l7.9,25.1h-5L280.2,654z M272,649.9h6.9l-3.4-11.8L272,649.9z"/>
			<path class="st13" d="M294.5,638.3h-7V634h18.8v4.2h-7v20.9h-4.8L294.5,638.3z"/>
			<path class="st13" d="M313.9,659.2h-4.8V634h4.8V659.2z"/>
			<path class="st13" d="M337,651.8c0,4.2-2.4,7.7-9.5,7.7s-9.5-3.5-9.5-7.7v-10.4c0-4.2,2.4-7.7,9.5-7.7s9.5,3.5,9.5,7.7V651.8z
				 M322.8,651.6c0,2.4,1.2,3.8,4.8,3.8s4.8-1.4,4.8-3.8v-9.9c0-2.4-1.2-3.8-4.8-3.8s-4.8,1.4-4.8,3.8V651.6z"/>
			<path class="st13" d="M345.6,640.1v19H341V634h6.3l9.5,19.1V634h4.6v25.1h-6.3L345.6,640.1z"/>
		</g>
	</g>
</g>
</svg>
