<svg xmlns="http://www.w3.org/2000/svg" viewBox="0 0 309.38 42.59"><defs><style>.cls-1{fill:#fff;}</style></defs><g id="Layer_2" data-name="Layer 2"><g id="Logos"><path class="cls-1" d="M269.34,14.12c0,1.39-.64,2.05-1.75,2.05s-1.75-.66-1.75-2.05.64-2.1,1.75-2.1,1.75.7,1.75,2.1M300.12,28.4c0,4.3-1.49,5.7-4,5.7s-4-1.4-4-5.7V26.07c0-4.3,1.51-5.7,4-5.7s4,1.4,4,5.7Zm-3.61-10.56a4.36,4.36,0,0,0-4.14,2.53h-.14v-8h-2.86V36.3h2.86V34.11h.14a4.37,4.37,0,0,0,4.14,2.52c4.48,0,6.53-3.07,6.53-8.06V25.91c0-5-2.05-8.06-6.53-8.06M283.65,28.41c0,4.3-1.51,5.7-4,5.7s-4-1.41-4-5.7V26.08c0-4.31,1.5-5.7,4-5.7s4,1.4,4,5.7ZM280,17.85a4.35,4.35,0,0,0-4.13,2.53h-.14v-8h-2.87V36.31h2.87V34.12h.14A4.35,4.35,0,0,0,280,36.64c4.48,0,6.53-3.07,6.53-8.06V25.92c0-5-2.05-8.06-6.53-8.06m-13.86.34H269V36.31h-2.87Zm-6.55,0h2.87V36.31h-2.87V34h-.14A4.66,4.66,0,0,1,255,36.65c-3.38,0-5.46-1.91-5.46-6.18V18.2h2.9V30.06c0,2.9,1.2,4.17,3.35,4.17s3.79-1.4,3.79-4.92V18.21Zm-20,15.93c-2.46,0-4-1.41-4-5.71V26.1c0-4.31,1.51-5.7,4-5.7s4,1.4,4,5.7v2.32c0,4.31-1.51,5.71-4,5.71m3.93-13.74h-.14a4.38,4.38,0,0,0-4.13-2.53c-4.48,0-6.53,3.07-6.53,8.06v2.66c0,5,2.05,8.06,6.53,8.06a4.39,4.39,0,0,0,4.13-2.52h.14v8h2.87V18.19h-2.87v2.19Zm-13,9.6c0,4.27-2.94,6.67-7.45,6.67-4.24,0-7.73-2-8.17-6.63h3.18c.38,2.69,2.29,4,5,4,3,0,4.41-1.81,4.41-3.83,0-6.8-12.16-2.86-12.16-11.79,0-3.82,3-6.32,7.28-6.32s7.52,2,7.73,6.73h-3.18c-.28-2.91-2.12-4.07-4.57-4.07-2.91,0-4.17,1.71-4.17,3.52,0,6,12.16,2.47,12.16,11.76m-22.82,1.34c0,3.49-2.59,5.33-6.39,5.33S195,35,194.82,31.33h2.87c.1,2.22,1.74,2.93,3.68,2.93s3.52-.85,3.52-2.73c0-4.41-9.87-1.37-9.87-8.51,0-3,2.19-5.16,6.19-5.16,3.65,0,6.08,1.81,6.35,5.34H204.7c-.18-2.12-1.64-2.94-3.49-2.94-2.09,0-3.39.95-3.39,2.76,0,4.28,9.94,1.64,9.94,8.31M192.39,18.21h.89V21h-.72c-2.87,0-4.75,1.44-4.75,5.23V36.31H185V18.2h2.86v3.25H188a4.41,4.41,0,0,1,4.45-3.25m-17.17,2.19c2.33,0,3.58,1.37,3.62,5.54h-7.58c0-4.17,1.53-5.54,4-5.54m0-2.53c-4.48,0-6.86,3.21-6.86,8.06v2.66c0,5,2.39,8.06,6.86,8.06,3.59,0,5.71-2,6.43-5.36h-2.94a3.21,3.21,0,0,1-3.49,2.83c-2.46,0-4-1.41-4-5.7v-.24h10.49V25.91c0-4.85-2-8.06-6.53-8.06m-10.61.34h2.9l-8,23.92h-3l2-5.68-5.88-18.24h3L160,32.3h.14l4.45-14.11Zm-18.83-5.8h4.88V36.31h-3V15.7h-.17l-6.11,16.64h-3.72L131.57,15.7h-.17V36.31h-3V12.37h5.11l6,16.61h.17l6.1-16.61Zm-30.56,0h2.87V36.31h-2.87V12.39Zm-5.93,16c0,4.3-1.51,5.7-4,5.7s-4-1.41-4-5.7V26.09c0-4.31,1.5-5.7,4-5.7s4,1.4,4,5.7Zm-4-10.56c-4.48,0-6.86,3.07-6.86,8.06v2.66c0,5,2.39,8.06,6.86,8.06s6.87-3.07,6.87-8.06V25.92c0-5-2.4-8.06-6.87-8.06M93,18.2h3.89v2.53H93v10c0,2.63.68,3.18,2.42,3.18.48,0,1-.07,1.48-.1v2.46a11.14,11.14,0,0,1-1.78.17c-3.55,0-5-1.4-5-5.26V20.73h-3V18.2h3V12.39H93V18.2ZM86.33,31.32c0,3.49-2.6,5.33-6.39,5.33S73.58,35,73.38,31.32h2.87c.1,2.22,1.74,2.94,3.68,2.94s3.52-.86,3.52-2.74c0-4.41-9.87-1.36-9.87-8.51,0-3,2.18-5.15,6.18-5.15,3.66,0,6.08,1.8,6.36,5.33H83.25c-.17-2.12-1.64-2.94-3.49-2.94-2.08,0-3.39,1-3.39,2.76,0,4.28,9.94,1.64,9.94,8.31M70.71,14.13c0,1.4-.64,2-1.75,2s-1.75-.65-1.75-2S67.85,12,69,12s1.75.7,1.75,2.09M67.52,18.2h2.87V36.31H67.52Zm-3.45,0H65V21h-.71c-2.87,0-4.75,1.44-4.75,5.23V36.31H56.63V18.19H59.5v3.25h.14a4.4,4.4,0,0,1,4.44-3.25M50.88,29.57c0,3-2.34,4.07-5.74,4.07H41.23V25h4c3.35,0,5.68,1.11,5.68,4.18v.38ZM41.23,15.08h3.52c3.35,0,5,1.27,5,3.54v.24c0,2.74-2.37,3.63-5.48,3.63H41.23Zm7.5,8.43v-.12c2.49-.85,4-2.35,4-5V18c0-3.07-2.49-5.58-7.57-5.58h-7V36.3h7.53c4.94,0,8.33-2.48,8.33-6.46V29.6c0-3.11-1.82-5.38-5.29-6.09"/><path class="cls-1" d="M24.44,27.13a1.92,1.92,0,0,0,3.83,0V14.28a1.92,1.92,0,0,0-3.83,0Zm-6.11-2.51a2,2,0,1,0,3.94,0V5.6a2,2,0,0,0-3.94,0Zm-6.12-1.46a2,2,0,0,0,3.95,0V2a2,2,0,0,0-3.95,0V23.15Zm-6.11.46a2,2,0,1,0,3.94,0V7.86a2,2,0,0,0-3.94,0Zm5.69,17.89a1.93,1.93,0,0,1-1.73,1.08,1.88,1.88,0,0,1-.84-.19C3.2,39.48,0,34.31,0,27.48V19.76a1.92,1.92,0,0,1,3.84,0v7.72c0,5.33,2.38,9.19,7.06,11.45a1.93,1.93,0,0,1,.89,2.58"/><path class="cls-1" d="M306,18.46a3.36,3.36,0,1,1,3.36-3.36A3.36,3.36,0,0,1,306,18.46Zm0-6.31A3,3,0,1,0,309,15.1,3,3,0,0,0,306,12.15Z"/><path class="cls-1" d="M306.11,15.5h-.69v1.36h-.61V13.32h1.25a1.51,1.51,0,0,1,.95.28,1,1,0,0,1,.33.79,1,1,0,0,1-.17.6,1.25,1.25,0,0,1-.47.37l.79,1.47v0h-.66l-.71-1.36Zm-.69-.5h.63a.69.69,0,0,0,.48-.15.53.53,0,0,0,.17-.43.58.58,0,0,0-.16-.44.69.69,0,0,0-.48-.16h-.65V15Z"/></g></g></svg>