<svg xmlns="http://www.w3.org/2000/svg" xmlns:xlink="http://www.w3.org/1999/xlink" viewBox="0 0 1197.55 747.59"><defs><style>.cls-1{isolation:isolate;}.cls-12,.cls-13,.cls-2,.cls-21,.cls-22,.cls-23,.cls-3,.cls-4,.cls-5,.cls-6,.cls-7{fill:none;}.cls-2,.cls-21,.cls-22,.cls-23,.cls-3,.cls-4,.cls-5,.cls-6,.cls-7{stroke-miterlimit:10;stroke-width:1.56px;}.cls-10,.cls-11,.cls-14,.cls-16,.cls-17,.cls-19,.cls-2,.cls-21,.cls-22,.cls-23,.cls-3,.cls-4,.cls-5,.cls-6,.cls-7{opacity:0.9;}.cls-11,.cls-14,.cls-16,.cls-17,.cls-19,.cls-2,.cls-21,.cls-22,.cls-23,.cls-3,.cls-4,.cls-5,.cls-6,.cls-7{mix-blend-mode:multiply;}.cls-2{stroke:url(#linear-gradient);}.cls-3{stroke:url(#linear-gradient-2);}.cls-4{stroke:url(#linear-gradient-3);}.cls-5{stroke:url(#linear-gradient-4);}.cls-6{stroke:url(#linear-gradient-5);}.cls-7{stroke:url(#linear-gradient-6);}.cls-8{fill:url(#radial-gradient);}.cls-9{fill:#e7f9e9;}.cls-10{fill:#fff;}.cls-11{fill:url(#Sky);}.cls-12,.cls-13{stroke:#004164;stroke-linejoin:round;stroke-width:2.83px;}.cls-13{stroke-linecap:round;}.cls-14{fill:url(#Sky-2);}.cls-15{fill:url(#radial-gradient-2);}.cls-16{fill:url(#Sky-3);}.cls-17{fill:url(#Sky-4);}.cls-18{fill:url(#radial-gradient-3);}.cls-19{fill:url(#Sky-5);}.cls-20{fill:#004165;}.cls-21{stroke:url(#linear-gradient-7);}.cls-22{stroke:url(#linear-gradient-8);}.cls-23{stroke:url(#linear-gradient-9);}.cls-24{fill:#004164;}.cls-25{fill:#4d4d4d;}.cls-26{fill:#0090b7;}.cls-27{fill:#f26322;}</style><linearGradient id="linear-gradient" x1="371.82" y1="161.98" x2="0" y2="161.98" gradientUnits="userSpaceOnUse"><stop offset="0" stop-color="#29abe2"/><stop offset="1" stop-color="#fff"/></linearGradient><linearGradient id="linear-gradient-2" x1="371.82" y1="56.77" y2="56.77" xlink:href="#linear-gradient"/><linearGradient id="linear-gradient-3" x1="371.82" y1="417.82" y2="417.82" xlink:href="#linear-gradient"/><linearGradient id="linear-gradient-4" x1="371.82" y1="312.61" y2="312.61" xlink:href="#linear-gradient"/><linearGradient id="linear-gradient-5" x1="371.82" y1="673.66" y2="673.66" xlink:href="#linear-gradient"/><linearGradient id="linear-gradient-6" x1="371.82" y1="568.45" y2="568.45" xlink:href="#linear-gradient"/><radialGradient id="radial-gradient" cx="522.51" cy="365.21" r="109.38" gradientUnits="userSpaceOnUse"><stop offset="0" stop-color="#ffe1cd"/><stop offset="0.12" stop-color="#ffd8c0"/><stop offset="0.33" stop-color="#ffc09d"/><stop offset="0.63" stop-color="#ff9a65"/><stop offset="0.98" stop-color="#ff6618"/><stop offset="1" stop-color="#ff6314"/></radialGradient><linearGradient id="Sky" x1="454.51" y1="444.61" x2="540.1" y2="444.61" gradientUnits="userSpaceOnUse"><stop offset="0" stop-color="#cce0f4"/><stop offset="0.06" stop-color="#c3dcf2"/><stop offset="0.17" stop-color="#a9d2ee"/><stop offset="0.31" stop-color="#80c2e7"/><stop offset="0.46" stop-color="#47acde"/><stop offset="0.57" stop-color="#1e9cd7"/><stop offset="0.87" stop-color="#0075be"/><stop offset="0.99" stop-color="#005b97"/></linearGradient><linearGradient id="Sky-2" x1="527.81" y1="456.43" x2="613.4" y2="456.43" xlink:href="#Sky"/><radialGradient id="radial-gradient-2" cx="522.51" cy="621.05" r="109.37" xlink:href="#radial-gradient"/><linearGradient id="Sky-3" x1="454.51" y1="700.44" x2="540.1" y2="700.44" xlink:href="#Sky"/><linearGradient id="Sky-4" x1="527.81" y1="700.44" x2="613.4" y2="700.44" xlink:href="#Sky"/><radialGradient id="radial-gradient-3" cx="522.51" cy="109.37" r="109.37" xlink:href="#radial-gradient"/><linearGradient id="Sky-5" x1="491.16" y1="188.77" x2="576.75" y2="188.77" xlink:href="#Sky"/><linearGradient id="linear-gradient-7" x1="1197.55" y1="109.38" x2="686.8" y2="109.38" gradientUnits="userSpaceOnUse"><stop offset="0" stop-color="#dcf1fa"/><stop offset="0.36" stop-color="#29abe2"/><stop offset="1" stop-color="#fff"/></linearGradient><linearGradient id="linear-gradient-8" x1="1197.55" y1="365.27" x2="686.8" y2="365.27" xlink:href="#linear-gradient-7"/><linearGradient id="linear-gradient-9" x1="1197.55" y1="621.17" x2="686.8" y2="621.17" xlink:href="#linear-gradient-7"/></defs><g class="cls-1"><g id="Layer_2" data-name="Layer 2"><g id="Text"><line class="cls-2" y1="161.98" x2="371.82" y2="161.98"/><line class="cls-3" x1="371.82" y1="56.77" y2="56.77"/><line class="cls-4" y1="417.82" x2="371.82" y2="417.82"/><line class="cls-5" x1="371.82" y1="312.61" y2="312.61"/><line class="cls-6" y1="673.66" x2="371.82" y2="673.66"/><line class="cls-7" x1="371.82" y1="568.45" y2="568.45"/><circle class="cls-8" cx="522.51" cy="365.21" r="109.37"/><path class="cls-9" d="M507.72,361.29H464a2.57,2.57,0,0,1-2.57-2.57V347.15a2.57,2.57,0,0,1,2.57-2.57h43.72a2.57,2.57,0,0,1,2.57,2.57v11.57A2.57,2.57,0,0,1,507.72,361.29Z"/><path class="cls-10" d="M518,490.33H456.29a2.57,2.57,0,0,1-2.57-2.57v-94a15.42,15.42,0,0,1,3.13-9.31l9.2-12.15a2.57,2.57,0,0,0,.53-1.55v-9.43h38.57v9.43a2.56,2.56,0,0,0,.52,1.55l9.2,12.15a15.42,15.42,0,0,1,3.13,9.31v96.6Z"/><path class="cls-11" d="M514.68,490.33H456.77a3,3,0,0,1-3-3V398.88H518V487A3.32,3.32,0,0,1,514.68,490.33Z"/><path class="cls-12" d="M507.72,361.29H464a2.57,2.57,0,0,1-2.57-2.57V347.15a2.57,2.57,0,0,1,2.57-2.57h43.72a2.57,2.57,0,0,1,2.57,2.57v11.57A2.57,2.57,0,0,1,507.72,361.29Z"/><path class="cls-13" d="M453.72,415.7v-22a15.42,15.42,0,0,1,3.13-9.31l9.2-12.15a2.57,2.57,0,0,0,.53-1.55v-9.43"/><path class="cls-13" d="M505.15,361.29v9.43a2.59,2.59,0,0,0,.52,1.56l9.21,12.14a15.41,15.41,0,0,1,3.12,9.31V487a3.35,3.35,0,0,1-3.35,3.35H457.07a3.35,3.35,0,0,1-3.35-3.35V436.27"/><line class="cls-13" x1="453.72" y1="425.99" x2="453.72" y2="425.99"/><line class="cls-12" x1="485.86" y1="344.58" x2="485.86" y2="361.29"/><line class="cls-12" x1="473.65" y1="344.58" x2="473.65" y2="361.29"/><line class="cls-12" x1="498.07" y1="344.58" x2="498.07" y2="361.29"/><path class="cls-9" d="M581,361.29H537.3a2.57,2.57,0,0,1-2.57-2.57V347.15a2.57,2.57,0,0,1,2.57-2.57H581a2.57,2.57,0,0,1,2.57,2.57v11.57A2.57,2.57,0,0,1,581,361.29Z"/><path class="cls-10" d="M591.31,490.33H529.59a2.57,2.57,0,0,1-2.57-2.57v-94a15.42,15.42,0,0,1,3.13-9.31q4.61-6.07,9.21-12.15a2.63,2.63,0,0,0,.52-1.55v-9.43h38.57v9.43a2.56,2.56,0,0,0,.52,1.55l9.2,12.15a15.43,15.43,0,0,1,3.14,9.31v96.6Z"/><path class="cls-14" d="M588,490.33H530.07a3,3,0,0,1-3.05-3V440.84H591.3c0-32.07,0-12.28,0-12.28V487A3.33,3.33,0,0,1,588,490.33Z"/><path class="cls-12" d="M581,361.29H537.3a2.57,2.57,0,0,1-2.57-2.57V347.15a2.57,2.57,0,0,1,2.57-2.57H581a2.57,2.57,0,0,1,2.57,2.57v11.57A2.57,2.57,0,0,1,581,361.29Z"/><path class="cls-13" d="M527,415.7v-22a15.42,15.42,0,0,1,3.13-9.31q4.61-6.07,9.21-12.15a2.63,2.63,0,0,0,.52-1.55v-9.43"/><path class="cls-13" d="M578.45,361.29v9.43a2.59,2.59,0,0,0,.52,1.56l9.21,12.14a15.42,15.42,0,0,1,3.13,9.31V487a3.36,3.36,0,0,1-3.36,3.35H530.37A3.35,3.35,0,0,1,527,487V436.27"/><line class="cls-13" x1="527.02" y1="425.99" x2="527.02" y2="425.99"/><line class="cls-12" x1="559.16" y1="344.58" x2="559.16" y2="361.29"/><line class="cls-12" x1="546.95" y1="344.58" x2="546.95" y2="361.29"/><line class="cls-12" x1="571.38" y1="344.58" x2="571.38" y2="361.29"/><circle class="cls-15" cx="522.51" cy="621.05" r="109.37"/><path class="cls-9" d="M507.72,617.13H464a2.57,2.57,0,0,1-2.57-2.57V603a2.57,2.57,0,0,1,2.57-2.57h43.72a2.57,2.57,0,0,1,2.57,2.57v11.57A2.57,2.57,0,0,1,507.72,617.13Z"/><path class="cls-10" d="M518,746.17H456.29a2.57,2.57,0,0,1-2.57-2.57v-94a15.42,15.42,0,0,1,3.13-9.31l9.2-12.15a2.57,2.57,0,0,0,.53-1.55v-9.43h38.57v9.43a2.56,2.56,0,0,0,.52,1.55l9.2,12.15a15.42,15.42,0,0,1,3.13,9.31v96.6Z"/><path class="cls-16" d="M514.68,746.17H456.77a3,3,0,0,1-3-3V654.72H518v88.13A3.32,3.32,0,0,1,514.68,746.17Z"/><path class="cls-12" d="M507.72,617.13H464a2.57,2.57,0,0,1-2.57-2.57V603a2.57,2.57,0,0,1,2.57-2.57h43.72a2.57,2.57,0,0,1,2.57,2.57v11.57A2.57,2.57,0,0,1,507.72,617.13Z"/><path class="cls-13" d="M453.72,671.54v-22a15.42,15.42,0,0,1,3.13-9.31l9.2-12.15a2.57,2.57,0,0,0,.53-1.55v-9.43"/><path class="cls-13" d="M505.15,617.13v9.43a2.54,2.54,0,0,0,.52,1.55l9.21,12.15a15.41,15.41,0,0,1,3.12,9.31v93.25a3.35,3.35,0,0,1-3.35,3.35H457.07a3.35,3.35,0,0,1-3.35-3.35V692.11"/><line class="cls-13" x1="453.72" y1="681.83" x2="453.72" y2="681.83"/><line class="cls-12" x1="485.86" y1="600.42" x2="485.86" y2="617.13"/><line class="cls-12" x1="473.65" y1="600.42" x2="473.65" y2="617.13"/><line class="cls-12" x1="498.07" y1="600.42" x2="498.07" y2="617.13"/><path class="cls-9" d="M581,617.13H537.3a2.57,2.57,0,0,1-2.57-2.57V603a2.57,2.57,0,0,1,2.57-2.57H581a2.57,2.57,0,0,1,2.57,2.57v11.57A2.57,2.57,0,0,1,581,617.13Z"/><path class="cls-10" d="M591.31,746.17H529.59A2.57,2.57,0,0,1,527,743.6v-94a15.42,15.42,0,0,1,3.13-9.31q4.61-6.07,9.21-12.15a2.63,2.63,0,0,0,.52-1.55v-9.43h38.57v9.43a2.56,2.56,0,0,0,.52,1.55l9.2,12.15a15.43,15.43,0,0,1,3.14,9.31v96.6Z"/><path class="cls-17" d="M588,746.17H530.07a3,3,0,0,1-3.05-3V654.72H591.3c0,9.89,0,29.68,0,29.68v58.45A3.33,3.33,0,0,1,588,746.17Z"/><path class="cls-12" d="M581,617.13H537.3a2.57,2.57,0,0,1-2.57-2.57V603a2.57,2.57,0,0,1,2.57-2.57H581a2.57,2.57,0,0,1,2.57,2.57v11.57A2.57,2.57,0,0,1,581,617.13Z"/><path class="cls-13" d="M527,671.54v-22a15.42,15.42,0,0,1,3.13-9.31q4.61-6.07,9.21-12.15a2.63,2.63,0,0,0,.52-1.55v-9.43"/><path class="cls-13" d="M578.45,617.13v9.43a2.54,2.54,0,0,0,.52,1.55l9.21,12.15a15.42,15.42,0,0,1,3.13,9.31v93.25a3.36,3.36,0,0,1-3.36,3.35H530.37a3.35,3.35,0,0,1-3.35-3.35V692.11"/><line class="cls-13" x1="527.02" y1="681.83" x2="527.02" y2="681.83"/><line class="cls-12" x1="559.16" y1="600.42" x2="559.16" y2="617.13"/><line class="cls-12" x1="546.95" y1="600.42" x2="546.95" y2="617.13"/><line class="cls-12" x1="571.38" y1="600.42" x2="571.38" y2="617.13"/><circle class="cls-18" cx="522.51" cy="109.37" r="109.37"/><path class="cls-9" d="M544.37,105.45H500.65a2.57,2.57,0,0,1-2.57-2.57V91.31a2.57,2.57,0,0,1,2.57-2.57h43.72a2.57,2.57,0,0,1,2.57,2.57v11.57A2.57,2.57,0,0,1,544.37,105.45Z"/><path class="cls-10" d="M554.65,234.49H492.94a2.57,2.57,0,0,1-2.57-2.57v-94a15.42,15.42,0,0,1,3.13-9.31l9.2-12.15a2.57,2.57,0,0,0,.53-1.55v-9.43H541.8v9.43a2.56,2.56,0,0,0,.52,1.55l9.2,12.15a15.42,15.42,0,0,1,3.13,9.31v96.6Z"/><path class="cls-19" d="M551.33,234.49H493.42a3,3,0,0,1-3.05-3V143h64.28v88.13A3.32,3.32,0,0,1,551.33,234.49Z"/><path class="cls-12" d="M544.37,105.45H500.65a2.57,2.57,0,0,1-2.57-2.57V91.31a2.57,2.57,0,0,1,2.57-2.57h43.72a2.57,2.57,0,0,1,2.57,2.57v11.57A2.57,2.57,0,0,1,544.37,105.45Z"/><path class="cls-13" d="M490.37,159.86v-22a15.42,15.42,0,0,1,3.13-9.31l9.2-12.15a2.57,2.57,0,0,0,.53-1.55v-9.43"/><path class="cls-13" d="M541.8,105.45v9.43a2.59,2.59,0,0,0,.52,1.56l9.21,12.14a15.41,15.41,0,0,1,3.12,9.31v93.25a3.35,3.35,0,0,1-3.35,3.35H493.72a3.35,3.35,0,0,1-3.35-3.35V180.43"/><line class="cls-13" x1="490.37" y1="170.15" x2="490.37" y2="170.15"/><line class="cls-12" x1="522.51" y1="88.74" x2="522.51" y2="105.45"/><line class="cls-12" x1="510.3" y1="88.74" x2="510.3" y2="105.45"/><line class="cls-12" x1="534.73" y1="88.74" x2="534.73" y2="105.45"/><polygon class="cls-20" points="670.39 109.38 649.95 97.42 654.64 109.38 649.95 121.33 670.39 109.38"/><polygon class="cls-20" points="670.39 365.21 649.95 353.26 654.64 365.21 649.95 377.17 670.39 365.21"/><polygon class="cls-20" points="670.39 621.05 649.95 609.1 654.64 621.05 649.95 633.01 670.39 621.05"/><line class="cls-21" x1="686.8" y1="109.38" x2="1197.55" y2="109.38"/><line class="cls-22" x1="686.8" y1="365.27" x2="1197.55" y2="365.27"/><line class="cls-23" x1="686.8" y1="621.17" x2="1197.55" y2="621.17"/><path class="cls-24" d="M116.73,91.7a11.72,11.72,0,0,1,3.72-.56c3.78,0,5.31,1.56,5.31,5.16v1.5c0,3.25-1.5,5.68-6.41,5.68-5.37,0-6.44-2.37-6.44-6v-7.6c0-5.5,2.94-7.25,8.63-7.25a17.89,17.89,0,0,1,3.59.38l-.25,3.18A18.53,18.53,0,0,0,122,86c-3.69,0-5.22.63-5.22,3.82Zm0,3.38v2.84c0,1.72.65,2.28,2.62,2.28s2.6-.68,2.6-2.28V96.39c0-1.5-.72-2-2.1-2A8.07,8.07,0,0,0,116.73,95.08Z"/><path class="cls-24" d="M142.38,97.89c0,3.13-1.65,5.59-6.75,5.59s-6.75-2.46-6.75-5.59V88.27c0-3.13,1.66-5.6,6.75-5.6s6.75,2.47,6.75,5.6Zm-9.69-.37c0,1.81.54,2.62,2.94,2.62s2.94-.81,2.94-2.62V88.64c0-1.81-.53-2.62-2.94-2.62s-2.94.81-2.94,2.62Z"/><path class="cls-24" d="M159.32,97.89c0,3.13-1.66,5.59-6.75,5.59s-6.75-2.46-6.75-5.59V88.27c0-3.13,1.66-5.6,6.75-5.6s6.75,2.47,6.75,5.6Zm-9.69-.37c0,1.81.53,2.62,2.94,2.62s2.94-.81,2.94-2.62V88.64c0-1.81-.53-2.62-2.94-2.62s-2.94.81-2.94,2.62Z"/><path class="cls-24" d="M171.91,103.17V92.55c0-.82-.34-1.22-1.22-1.22a10.47,10.47,0,0,0-4,1.28v10.56h-3.82V88h2.91l.37,1.28a15.41,15.41,0,0,1,6.1-1.59,2.87,2.87,0,0,1,2.87,1.63,14.92,14.92,0,0,1,6.13-1.63c2.53,0,3.44,1.78,3.44,4.5v11h-3.82V92.55c0-.82-.34-1.22-1.22-1.22a10,10,0,0,0-4,1.28v10.56Z"/><path class="cls-24" d="M192.63,99.08a1.62,1.62,0,0,0-.9,1.22c0,.4.25.59.84.65l4.41.47c2.46.28,3.25,1.5,3.25,3.69,0,3.25-1.19,4.53-6.88,4.53a22.13,22.13,0,0,1-5.87-.78l.46-2.84a21.52,21.52,0,0,0,5.13.65c3,0,3.62-.22,3.62-1.22s-.28-1.09-1.43-1.22c-1.75-.18-2.47-.28-4.41-.5-2.16-.25-3-1-3-2.9a3.25,3.25,0,0,1,1.59-2.6,4.42,4.42,0,0,1-2.06-4.09V92.7c.06-3.15,1.72-5.06,6.13-5.06a10.68,10.68,0,0,1,2.59.31h4.69v1.91c-.53.16-1.16.31-1.69.47a5.24,5.24,0,0,1,.53,2.37v1.44c0,3.09-1.87,5-6.12,5A8.24,8.24,0,0,1,192.63,99.08Zm.88-8.38c-1.88,0-2.53.69-2.53,2.13V94c0,1.5.75,2.07,2.53,2.07s2.56-.6,2.56-2.07V92.83C196.07,91.39,195.41,90.7,193.51,90.7Z"/><path class="cls-24" d="M212.91,87.39v15.78h-3.84V82.36h5.25l7.91,15.81V82.36h3.84v20.81h-5.25Z"/><path class="cls-24" d="M230,85.8V81.39h3.82V85.8Zm0,17.37V88h3.82v15.22Z"/><path class="cls-24" d="M245.41,103.17h-5L235.51,88h3.9l3.47,11.57L246.38,88h3.91Z"/><path class="cls-24" d="M257.94,103.48c-5.22,0-6.62-2.87-6.62-6V93.64c0-3.12,1.4-6,6.62-6s6.63,2.88,6.63,6v3.84C264.57,100.61,263.16,103.48,257.94,103.48Zm0-12.59c-2,0-2.81.91-2.81,2.63v4.09c0,1.72.78,2.62,2.81,2.62s2.82-.9,2.82-2.62V93.52C260.76,91.8,260,90.89,257.94,90.89Z"/><path class="cls-24" d="M267.63,103.17V81.73l3.81-.53v22Z"/><path class="cls-24" d="M278.85,88V98.58c0,.81.34,1.22,1.22,1.22a10.69,10.69,0,0,0,4-1.28V88h3.81v15.22h-2.91l-.37-1.28a15.2,15.2,0,0,1-6.1,1.59c-2.53,0-3.43-1.78-3.43-4.5V88Z"/><path class="cls-24" d="M300.6,103.17V92.55c0-.82-.34-1.22-1.22-1.22a10.51,10.51,0,0,0-4,1.28v10.56H291.6V88h2.91l.37,1.28A15.37,15.37,0,0,1,301,87.64a2.89,2.89,0,0,1,2.88,1.63A14.88,14.88,0,0,1,310,87.64c2.54,0,3.44,1.78,3.44,4.5v11H309.6V92.55c0-.82-.34-1.22-1.22-1.22a10,10,0,0,0-4,1.28v10.56Z"/><path class="cls-24" d="M328.29,103.17h-3.13l-.28-1a8.27,8.27,0,0,1-4.53,1.34c-2.78,0-4-1.9-4-4.53,0-3.09,1.34-4.28,4.44-4.28h3.65V93.08c0-1.69-.46-2.28-2.9-2.28a20.59,20.59,0,0,0-4.22.47l-.47-2.91a19.77,19.77,0,0,1,5.22-.72c4.78,0,6.19,1.69,6.19,5.5Zm-3.82-5.75h-2.81c-1.25,0-1.59.35-1.59,1.5s.34,1.53,1.53,1.53a5.92,5.92,0,0,0,2.87-.78Z"/><path class="cls-24" d="M344.63,97.33c0,3.69-1.12,6.15-7,6.15a34,34,0,0,1-5.91-.53V81.73l3.82-.53v7.35a12.42,12.42,0,0,1,4.5-.91c3.28,0,4.59,2,4.59,5.22Zm-9.09,2.78a18,18,0,0,0,2.28.12c2.5,0,3-1,3-2.78V92.77c0-1.22-.53-1.88-1.94-1.88a8.76,8.76,0,0,0-3.34.88Z"/><path class="cls-24" d="M367.38,94.39v8.06a24.63,24.63,0,0,1-7.25,1c-5,0-6.59-2.06-6.59-5.12V96.61c0-1.94.71-3.47,2.53-4.13a3.79,3.79,0,0,1-2.16-3.78V87.08c0-3,1.63-5,6.59-5a29.09,29.09,0,0,1,6.19.62l-.34,3.13a35.29,35.29,0,0,0-6-.5c-1.94,0-2.6.59-2.6,1.93v1.88c0,1.25.57,2.06,2.16,2.06h10.5v3.22Zm-3.63,5.66V94.39h-3.53c-1.84,0-2.84.69-2.84,2.25V98c0,1.63.56,2.38,2.84,2.38A20.84,20.84,0,0,0,363.75,100.05Z"/><path class="cls-24" d="M32.7,123.67l-1.6-3,5.75-3.31h3.44v20.19H36.48v-16Z"/><path class="cls-24" d="M57.7,132.27c0,3.12-1.66,5.59-6.75,5.59s-6.75-2.47-6.75-5.59v-9.63c0-3.12,1.65-5.59,6.75-5.59s6.75,2.47,6.75,5.59ZM48,131.89c0,1.81.53,2.63,2.94,2.63s2.93-.82,2.93-2.63V123c0-1.82-.53-2.63-2.93-2.63S48,121.2,48,123Z"/><path class="cls-24" d="M61.45,133.17h3.87v4.63l-2.44,4.09-1.75-1,1.75-3.37H61.45Z"/><path class="cls-24" d="M82.57,132.27c0,3.12-1.66,5.59-6.75,5.59s-6.75-2.47-6.75-5.59v-9.63c0-3.12,1.66-5.59,6.75-5.59s6.75,2.47,6.75,5.59Zm-9.69-.38c0,1.81.53,2.63,2.94,2.63s2.94-.82,2.94-2.63V123c0-1.82-.53-2.63-2.94-2.63s-2.94.81-2.94,2.63Z"/><path class="cls-24" d="M99.51,132.27c0,3.12-1.66,5.59-6.75,5.59S86,135.39,86,132.27v-9.63c0-3.12,1.65-5.59,6.75-5.59s6.75,2.47,6.75,5.59Zm-9.69-.38c0,1.81.53,2.63,2.94,2.63s2.94-.82,2.94-2.63V123c0-1.82-.54-2.63-2.94-2.63s-2.94.81-2.94,2.63Z"/><path class="cls-24" d="M116.45,132.27c0,3.12-1.66,5.59-6.75,5.59s-6.75-2.47-6.75-5.59v-9.63c0-3.12,1.65-5.59,6.75-5.59s6.75,2.47,6.75,5.59Zm-9.69-.38c0,1.81.53,2.63,2.94,2.63s2.93-.82,2.93-2.63V123c0-1.82-.53-2.63-2.93-2.63s-2.94.81-2.94,2.63Z"/><path class="cls-24" d="M129.63,122.33V133c0,.82.35,1.22,1.22,1.22a10.51,10.51,0,0,0,4-1.28V122.33h3.81v15.22h-2.9l-.38-1.28a15.37,15.37,0,0,1-6.09,1.59c-2.53,0-3.44-1.78-3.44-4.5v-11Z"/><path class="cls-24" d="M151.38,137.55V126.92c0-.81-.34-1.22-1.22-1.22a10.75,10.75,0,0,0-4,1.28v10.57h-3.81V122.33h2.91l.37,1.28a15.24,15.24,0,0,1,6.1-1.59c2.53,0,3.43,1.78,3.43,4.5v11Z"/><path class="cls-24" d="M158.79,120.17v-4.4h3.81v4.4Zm0,17.38V122.33h3.81v15.22Z"/><path class="cls-24" d="M174.44,137.27a10.64,10.64,0,0,1-3.34.59c-2.78,0-4.19-1.31-4.19-4v-8.47h-2.28v-3h2.28v-3.78l3.82-.53v4.31h3.9l-.25,3h-3.65v8a1.2,1.2,0,0,0,1.37,1.34,7.29,7.29,0,0,0,1.91-.31Z"/><path class="cls-24" d="M181.54,137.86a17.88,17.88,0,0,1-5.25-.88l.53-2.9a17.25,17.25,0,0,0,4.53.65c1.69,0,1.94-.37,1.94-1.53,0-.93-.19-1.4-2.66-2-3.72-.9-4.15-1.84-4.15-4.78s1.34-4.4,5.68-4.4a19.77,19.77,0,0,1,4.57.53l-.38,3a26.7,26.7,0,0,0-4.19-.44c-1.65,0-1.93.38-1.93,1.31,0,1.22.09,1.32,2.15,1.85,4.25,1.12,4.66,1.68,4.66,4.81C187,136.05,186.13,137.86,181.54,137.86Z"/><path class="cls-24" d="M205.1,137.55V126.92c0-.81-.34-1.22-1.22-1.22a10.69,10.69,0,0,0-4,1.28v10.57H196.1V116.11l3.81-.53v7.9a13.51,13.51,0,0,1,5.57-1.46c2.53,0,3.43,1.78,3.43,4.5v11Z"/><path class="cls-24" d="M220.38,137.55l-2,6.15h-3.62l1.9-6.15h-1.34l-4.81-15.22h3.9l3.47,11.56,3.5-11.56h3.91Z"/><path class="cls-24" d="M238.1,137.55H235l-.29-1a8.36,8.36,0,0,1-4.53,1.34c-2.78,0-4-1.91-4-4.53,0-3.1,1.35-4.28,4.44-4.28h3.66v-1.6c0-1.68-.47-2.28-2.91-2.28a21.48,21.48,0,0,0-4.22.47l-.47-2.91a20.25,20.25,0,0,1,5.22-.71c4.78,0,6.19,1.68,6.19,5.5Zm-3.81-5.75h-2.81c-1.25,0-1.6.34-1.6,1.5s.35,1.53,1.53,1.53a6.08,6.08,0,0,0,2.88-.78Z"/><path class="cls-24" d="M241.54,137.55V116.11l3.81-.53v22Z"/><path class="cls-24" d="M252.76,122.33V133c0,.82.34,1.22,1.22,1.22a10.47,10.47,0,0,0,4-1.28V122.33h3.82v15.22h-2.91l-.37-1.28a15.41,15.41,0,0,1-6.1,1.59c-2.53,0-3.44-1.78-3.44-4.5v-11Z"/><path class="cls-24" d="M273.35,125.52a29.27,29.27,0,0,0-4,2.21v9.82h-3.81V122.33h3.22L269,124a16.4,16.4,0,0,1,4-2Z"/><path class="cls-24" d="M281.22,137.86c-5.21,0-6.62-2.88-6.62-6V128c0-3.13,1.41-6,6.62-6s6.63,2.87,6.63,6v3.84C287.85,135,286.44,137.86,281.22,137.86Zm0-12.59c-2,0-2.81.9-2.81,2.62V132c0,1.72.78,2.63,2.81,2.63S284,133.7,284,132v-4.09C284,126.17,283.26,125.27,281.22,125.27Z"/><path class="cls-24" d="M299.91,137.55V126.92c0-.81-.34-1.22-1.22-1.22a10.75,10.75,0,0,0-4,1.28v10.57h-3.81V122.33h2.91l.37,1.28a15.24,15.24,0,0,1,6.1-1.59c2.53,0,3.43,1.78,3.43,4.5v11Z"/><path class="cls-24" d="M307.32,120.17v-4.4h3.81v4.4Zm0,17.38V122.33h3.81v15.22Z"/><path class="cls-24" d="M314.26,127.39c0-3.37,1.5-5.37,5-5.37a21.05,21.05,0,0,1,4.06.43v-6.34l3.81-.53v22h-3l-.37-1.28a8.09,8.09,0,0,1-4.82,1.59c-3.06,0-4.68-1.81-4.68-5.28Zm9.09-1.72a16.81,16.81,0,0,0-3.38-.4c-1.37,0-1.9.65-1.9,2v5.37c0,1.25.47,1.94,1.87,1.94a5.4,5.4,0,0,0,3.41-1.38Z"/><path class="cls-24" d="M342.19,137.55h-3.12l-.28-1a8.38,8.38,0,0,1-4.53,1.34c-2.79,0-4-1.91-4-4.53,0-3.1,1.34-4.28,4.43-4.28h3.66v-1.6c0-1.68-.47-2.28-2.91-2.28a21.29,21.29,0,0,0-4.21.47l-.47-2.91A20.13,20.13,0,0,1,336,122c4.78,0,6.18,1.68,6.18,5.5Zm-3.81-5.75h-2.81c-1.25,0-1.6.34-1.6,1.5s.35,1.53,1.54,1.53a6.07,6.07,0,0,0,2.87-.78Z"/><path class="cls-24" d="M350.35,137.86a17.93,17.93,0,0,1-5.25-.88l.53-2.9a17.25,17.25,0,0,0,4.53.65c1.69,0,1.94-.37,1.94-1.53,0-.93-.19-1.4-2.66-2-3.72-.9-4.15-1.84-4.15-4.78s1.34-4.4,5.68-4.4a19.77,19.77,0,0,1,4.57.53l-.38,3a26.58,26.58,0,0,0-4.19-.44c-1.65,0-1.93.38-1.93,1.31,0,1.22.09,1.32,2.15,1.85,4.25,1.12,4.66,1.68,4.66,4.81C355.85,136.05,354.94,137.86,350.35,137.86Z"/><path class="cls-24" d="M365.07,134.73a15.85,15.85,0,0,0,4.65-.71l.6,2.87a16.26,16.26,0,0,1-5.6,1c-4.78,0-6.43-2.22-6.43-5.88v-4c0-3.22,1.43-5.93,6.31-5.93s6,2.84,6,6.12v3.25H362.1v.78C362.1,134,362.75,134.73,365.07,134.73Zm-3-6.4h4.84v-.75c0-1.44-.44-2.44-2.31-2.44s-2.53,1-2.53,2.44Z"/><path class="cls-24" d="M121.79,350.29a11.53,11.53,0,0,1-3.72.56c-3.78,0-5.31-1.56-5.31-5.15v-1.5c0-3.5,1.65-5.69,6.4-5.69,5.38,0,6.44,2.38,6.44,6v7.59c0,5.5-2.94,7.25-8.62,7.25a18.1,18.1,0,0,1-3.6-.37l.35-3.19a16.36,16.36,0,0,0,2.84.28c4,0,5.22-.94,5.22-3.81Zm0-3.37v-2.85c0-1.72-.66-2.28-2.63-2.28s-2.59.69-2.59,2.28v1.53c0,1.5.72,2,2.09,2A8.31,8.31,0,0,0,121.79,346.92Z"/><path class="cls-24" d="M142.38,353.73c0,3.12-1.65,5.59-6.75,5.59s-6.75-2.47-6.75-5.59V344.1c0-3.12,1.66-5.59,6.75-5.59s6.75,2.47,6.75,5.59Zm-9.69-.38c0,1.82.54,2.63,2.94,2.63s2.94-.81,2.94-2.63v-8.87c0-1.81-.53-2.63-2.94-2.63s-2.94.82-2.94,2.63Z"/><path class="cls-24" d="M159.32,353.73c0,3.12-1.66,5.59-6.75,5.59s-6.75-2.47-6.75-5.59V344.1c0-3.12,1.66-5.59,6.75-5.59s6.75,2.47,6.75,5.59Zm-9.69-.38c0,1.82.53,2.63,2.94,2.63s2.94-.81,2.94-2.63v-8.87c0-1.81-.53-2.63-2.94-2.63s-2.94.82-2.94,2.63Z"/><path class="cls-24" d="M171.91,359V348.39c0-.82-.34-1.22-1.22-1.22a10.47,10.47,0,0,0-4,1.28V359h-3.82V343.79h2.91l.37,1.28a15.41,15.41,0,0,1,6.1-1.59,2.88,2.88,0,0,1,2.87,1.62,15.06,15.06,0,0,1,6.13-1.62c2.53,0,3.44,1.78,3.44,4.5v11h-3.82V348.39c0-.82-.34-1.22-1.22-1.22a10,10,0,0,0-4,1.28V359Z"/><path class="cls-24" d="M192.63,354.92a1.62,1.62,0,0,0-.9,1.22c0,.4.25.59.84.65l4.41.47c2.46.28,3.25,1.5,3.25,3.69,0,3.25-1.19,4.53-6.88,4.53a22.13,22.13,0,0,1-5.87-.78l.46-2.85a21,21,0,0,0,5.13.66c3,0,3.62-.22,3.62-1.22s-.28-1.09-1.43-1.22c-1.75-.18-2.47-.28-4.41-.5-2.16-.25-3-1-3-2.9a3.23,3.23,0,0,1,1.59-2.6,4.42,4.42,0,0,1-2.06-4.09v-1.44c.06-3.15,1.72-5.06,6.13-5.06a10.21,10.21,0,0,1,2.59.31h4.69v1.91c-.53.15-1.16.31-1.69.47a5.24,5.24,0,0,1,.53,2.37V350c0,3.09-1.87,5-6.12,5A8.24,8.24,0,0,1,192.63,354.92Zm.88-8.38c-1.88,0-2.53.69-2.53,2.13v1.15c0,1.5.75,2.07,2.53,2.07s2.56-.6,2.56-2.07v-1.15C196.07,347.23,195.41,346.54,193.51,346.54Z"/><path class="cls-24" d="M212.91,343.23V359h-3.84V338.2h5.25L222.23,354V338.2h3.84V359h-5.25Z"/><path class="cls-24" d="M230,341.64v-4.41h3.82v4.41ZM230,359V343.79h3.82V359Z"/><path class="cls-24" d="M245.41,359h-5l-4.87-15.22h3.9l3.47,11.56,3.5-11.56h3.91Z"/><path class="cls-24" d="M257.94,359.32c-5.22,0-6.62-2.87-6.62-6v-3.84c0-3.13,1.4-6,6.62-6s6.63,2.87,6.63,6v3.84C264.57,356.45,263.16,359.32,257.94,359.32Zm0-12.59c-2,0-2.81.91-2.81,2.62v4.1c0,1.72.78,2.62,2.81,2.62s2.82-.9,2.82-2.62v-4.1C260.76,347.64,260,346.73,257.94,346.73Z"/><path class="cls-24" d="M267.63,359V337.57l3.81-.53v22Z"/><path class="cls-24" d="M278.85,343.79v10.63c0,.81.34,1.22,1.22,1.22a10.55,10.55,0,0,0,4-1.29V343.79h3.81V359h-2.91l-.37-1.28a15.2,15.2,0,0,1-6.1,1.59c-2.53,0-3.43-1.78-3.43-4.5v-11Z"/><path class="cls-24" d="M300.6,359V348.39c0-.82-.34-1.22-1.22-1.22a10.51,10.51,0,0,0-4,1.28V359H291.6V343.79h2.91l.37,1.28a15.37,15.37,0,0,1,6.09-1.59,2.89,2.89,0,0,1,2.88,1.62,15,15,0,0,1,6.12-1.62c2.54,0,3.44,1.78,3.44,4.5v11H309.6V348.39c0-.82-.34-1.22-1.22-1.22a10,10,0,0,0-4,1.28V359Z"/><path class="cls-24" d="M328.29,359h-3.13l-.28-1a8.27,8.27,0,0,1-4.53,1.34c-2.78,0-4-1.9-4-4.53,0-3.09,1.34-4.28,4.44-4.28h3.65v-1.59c0-1.69-.46-2.28-2.9-2.28a21.3,21.3,0,0,0-4.22.46l-.47-2.9a19.77,19.77,0,0,1,5.22-.72c4.78,0,6.19,1.69,6.19,5.5Zm-3.82-5.75h-2.81c-1.25,0-1.59.34-1.59,1.5s.34,1.53,1.53,1.53a5.92,5.92,0,0,0,2.87-.78Z"/><path class="cls-24" d="M344.63,353.17c0,3.68-1.12,6.15-7,6.15a34,34,0,0,1-5.91-.53V337.57l3.82-.53v7.35a12.42,12.42,0,0,1,4.5-.91c3.28,0,4.59,2,4.59,5.22ZM335.54,356a18,18,0,0,0,2.28.12c2.5,0,3-1,3-2.78V348.6c0-1.21-.53-1.87-1.94-1.87a8.93,8.93,0,0,0-3.34.87Z"/><path class="cls-24" d="M367.38,350.23v8.06a24.63,24.63,0,0,1-7.25,1c-5,0-6.59-2.06-6.59-5.12v-1.75c0-1.94.71-3.47,2.53-4.13a3.79,3.79,0,0,1-2.16-3.78v-1.62c0-3,1.63-5,6.59-5a29.09,29.09,0,0,1,6.19.62l-.34,3.13a35.29,35.29,0,0,0-6-.5c-1.94,0-2.6.59-2.6,1.93V345c0,1.25.57,2.06,2.16,2.06h10.5v3.22Zm-3.63,5.66v-5.66h-3.53c-1.84,0-2.84.69-2.84,2.25v1.31c0,1.63.56,2.38,2.84,2.38A21.93,21.93,0,0,0,363.75,355.89Z"/><path class="cls-24" d="M19.51,379.51l-1.59-3,5.75-3.31H27.1v20.19H23.29v-16Z"/><path class="cls-24" d="M31.48,373.2H42.6v3.31H35.29v5c1.12,0,1.62.06,2.81.13,3.66.18,4.85,2,4.85,4.78v1.9c0,3.29-1.19,5.35-6.79,5.35a19.38,19.38,0,0,1-5.31-.75l.47-3.13a22.44,22.44,0,0,0,4.78.53c2.85,0,3-.68,3-2.34v-1c0-1.47-.47-2.09-2.68-2.19s-3.32-.12-5-.15Z"/><path class="cls-24" d="M46.38,389h3.88v4.63l-2.44,4.09-1.75-1,1.75-3.37H46.38Z"/><path class="cls-24" d="M67.51,388.1c0,3.13-1.66,5.6-6.75,5.6S54,391.23,54,388.1v-9.62c0-3.13,1.65-5.59,6.75-5.59s6.75,2.46,6.75,5.59Zm-9.69-.37c0,1.81.53,2.62,2.94,2.62s2.94-.81,2.94-2.62v-8.88c0-1.81-.54-2.62-2.94-2.62s-2.94.81-2.94,2.62Z"/><path class="cls-24" d="M84.45,388.1c0,3.13-1.66,5.6-6.75,5.6S71,391.23,71,388.1v-9.62c0-3.13,1.65-5.59,6.75-5.59s6.75,2.46,6.75,5.59Zm-9.69-.37c0,1.81.53,2.62,2.94,2.62s2.93-.81,2.93-2.62v-8.88c0-1.81-.53-2.62-2.93-2.62s-2.94.81-2.94,2.62Z"/><path class="cls-24" d="M101.38,388.1c0,3.13-1.65,5.6-6.75,5.6s-6.75-2.47-6.75-5.6v-9.62c0-3.13,1.66-5.59,6.75-5.59s6.75,2.46,6.75,5.59Zm-9.68-.37c0,1.81.53,2.62,2.93,2.62s2.94-.81,2.94-2.62v-8.88c0-1.81-.53-2.62-2.94-2.62s-2.93.81-2.93,2.62Z"/><path class="cls-24" d="M114.57,378.17v10.62c0,.81.34,1.22,1.22,1.22a10.51,10.51,0,0,0,4-1.28V378.17h3.81v15.22h-2.91l-.37-1.29a15.22,15.22,0,0,1-6.1,1.6c-2.53,0-3.43-1.78-3.43-4.5v-11Z"/><path class="cls-24" d="M136.32,393.39V382.76c0-.81-.34-1.22-1.22-1.22a10.51,10.51,0,0,0-4,1.28v10.57h-3.81V378.17h2.91l.37,1.28a15.22,15.22,0,0,1,6.09-1.6c2.54,0,3.44,1.79,3.44,4.5v11Z"/><path class="cls-24" d="M143.73,376V371.6h3.81V376Zm0,17.38V378.17h3.81v15.22Z"/><path class="cls-24" d="M159.38,393.1a10.36,10.36,0,0,1-3.34.6c-2.78,0-4.19-1.31-4.19-4V381.2h-2.28v-3h2.28v-3.78l3.81-.54v4.32h3.91l-.25,3h-3.66v8a1.2,1.2,0,0,0,1.38,1.34,7.16,7.16,0,0,0,1.9-.31Z"/><path class="cls-24" d="M166.48,393.7a17.88,17.88,0,0,1-5.25-.88l.53-2.9a17.25,17.25,0,0,0,4.53.65c1.69,0,1.94-.37,1.94-1.53,0-.94-.19-1.4-2.66-2-3.72-.9-4.16-1.84-4.16-4.78s1.35-4.41,5.69-4.41a19.63,19.63,0,0,1,4.56.54l-.37,3a26.7,26.7,0,0,0-4.19-.44c-1.66,0-1.94.37-1.94,1.31,0,1.22.1,1.31,2.16,1.85,4.25,1.12,4.66,1.68,4.66,4.81C172,391.89,171.07,393.7,166.48,393.7Z"/><path class="cls-24" d="M190,393.39V382.76c0-.81-.35-1.22-1.22-1.22a10.51,10.51,0,0,0-4,1.28v10.57H181V372l3.81-.53v7.9a13.53,13.53,0,0,1,5.56-1.47c2.53,0,3.44,1.79,3.44,4.5v11Z"/><path class="cls-24" d="M205.32,393.39l-2,6.15h-3.63l1.91-6.15h-1.34l-4.82-15.22h3.91l3.47,11.56,3.5-11.56h3.9Z"/><path class="cls-24" d="M223,393.39h-3.13l-.28-1a8.28,8.28,0,0,1-4.53,1.35c-2.78,0-4-1.91-4-4.53,0-3.1,1.35-4.28,4.44-4.28h3.66v-1.6c0-1.69-.47-2.28-2.91-2.28a21.31,21.31,0,0,0-4.22.47l-.47-2.91a20.19,20.19,0,0,1,5.22-.72c4.78,0,6.19,1.69,6.19,5.5Zm-3.81-5.75h-2.82c-1.25,0-1.59.34-1.59,1.5s.34,1.53,1.53,1.53a6.08,6.08,0,0,0,2.88-.78Z"/><path class="cls-24" d="M226.48,393.39V372l3.81-.53v22Z"/><path class="cls-24" d="M237.69,378.17v10.62c0,.81.35,1.22,1.22,1.22a10.45,10.45,0,0,0,4-1.28V378.17h3.81v15.22h-2.9l-.38-1.29a15.18,15.18,0,0,1-6.09,1.6c-2.53,0-3.44-1.78-3.44-4.5v-11Z"/><path class="cls-24" d="M258.29,381.35a30.43,30.43,0,0,0-4,2.22v9.82h-3.82V378.17h3.22l.25,1.68a17.55,17.55,0,0,1,4-2Z"/><path class="cls-24" d="M266.16,393.7c-5.22,0-6.62-2.88-6.62-6v-3.85c0-3.12,1.4-6,6.62-6s6.63,2.88,6.63,6v3.85C272.79,390.82,271.38,393.7,266.16,393.7Zm0-12.6c-2,0-2.81.91-2.81,2.63v4.09c0,1.72.78,2.63,2.81,2.63s2.81-.91,2.81-2.63v-4.09C269,382,268.19,381.1,266.16,381.1Z"/><path class="cls-24" d="M284.85,393.39V382.76c0-.81-.34-1.22-1.22-1.22a10.51,10.51,0,0,0-4,1.28v10.57h-3.81V378.17h2.91l.37,1.28a15.22,15.22,0,0,1,6.09-1.6c2.54,0,3.44,1.79,3.44,4.5v11Z"/><path class="cls-24" d="M292.26,376V371.6h3.81V376Zm0,17.38V378.17h3.81v15.22Z"/><path class="cls-24" d="M299.19,383.23c0-3.38,1.5-5.38,5-5.38a21.06,21.06,0,0,1,4.07.44V372l3.81-.53v22h-3l-.38-1.29a8,8,0,0,1-4.81,1.6c-3.06,0-4.69-1.81-4.69-5.28Zm9.1-1.72a16.81,16.81,0,0,0-3.38-.41c-1.37,0-1.9.66-1.9,2v5.37c0,1.25.46,1.94,1.87,1.94a5.42,5.42,0,0,0,3.41-1.38Z"/><path class="cls-24" d="M327.13,393.39H324l-.29-1a8.28,8.28,0,0,1-4.53,1.35c-2.78,0-4-1.91-4-4.53,0-3.1,1.35-4.28,4.44-4.28h3.66v-1.6c0-1.69-.47-2.28-2.91-2.28a21.48,21.48,0,0,0-4.22.47l-.47-2.91a20.25,20.25,0,0,1,5.22-.72c4.78,0,6.19,1.69,6.19,5.5Zm-3.81-5.75h-2.81c-1.25,0-1.6.34-1.6,1.5s.35,1.53,1.53,1.53a6.08,6.08,0,0,0,2.88-.78Z"/><path class="cls-24" d="M335.29,393.7a17.88,17.88,0,0,1-5.25-.88l.53-2.9a17.25,17.25,0,0,0,4.53.65c1.69,0,1.94-.37,1.94-1.53,0-.94-.19-1.4-2.66-2-3.72-.9-4.16-1.84-4.16-4.78s1.35-4.41,5.69-4.41a19.63,19.63,0,0,1,4.56.54l-.37,3a26.7,26.7,0,0,0-4.19-.44c-1.65,0-1.94.37-1.94,1.31,0,1.22.1,1.31,2.16,1.85,4.25,1.12,4.66,1.68,4.66,4.81C340.79,391.89,339.88,393.7,335.29,393.7Z"/><path class="cls-24" d="M350,390.57a16,16,0,0,0,4.66-.72l.59,2.88a16.2,16.2,0,0,1-5.59,1c-4.78,0-6.44-2.22-6.44-5.88v-4c0-3.22,1.44-5.94,6.32-5.94s6,2.85,6,6.13v3.25H347V388C347,389.85,347.69,390.57,350,390.57Zm-3-6.4h4.84v-.75c0-1.44-.44-2.44-2.31-2.44s-2.53,1-2.53,2.44Z"/><path class="cls-24" d="M362.19,378.14H358v-1.85h4.25l-2.31-3.65,1.53-1,2.47,3.81,2.47-3.81,1.56,1-2.37,3.65h4.34v1.85h-4.25l2.28,3.53-1.59,1-2.44-3.78-2.44,3.78-1.59-1Z"/><path class="cls-25" d="M1014.76,76.07V73.61h1.71v2.46Zm0,11.47V77.65h1.71v9.89Z"/><path class="cls-25" d="M1025.28,87.54V80c0-.65-.32-.92-1-.92a9.17,9.17,0,0,0-3.31,1v7.47h-1.71V77.65h1.38l.17.86a10.66,10.66,0,0,1,4-1.06c1.58,0,2.15,1,2.15,2.52v7.57Z"/><path class="cls-25" d="M1034.89,87.38a6.24,6.24,0,0,1-2.07.37c-1.67,0-2.46-.61-2.46-2.26V79.07h-1.75V77.65h1.75V75.22l1.71-.25v2.68h2.8l-.14,1.42h-2.66v6.14c0,.73.1,1.09,1,1.09a6.4,6.4,0,0,0,1.59-.24Z"/><path class="cls-25" d="M1040.33,87.75c-2.88,0-4-1.65-4-3.72V81.17c0-2.08,1.14-3.72,4-3.72s4,1.64,4,3.72V84C1044.36,86.1,1043.22,87.75,1040.33,87.75Zm0-8.82c-1.54,0-2.31.73-2.31,2.18v3c0,1.44.77,2.17,2.31,2.17s2.32-.73,2.32-2.17v-3C1042.65,79.66,1041.88,78.93,1040.33,78.93Z"/><path class="cls-25" d="M1057.66,87.54h-1.44l-.1-.73a5.64,5.64,0,0,1-3.21.94c-1.85,0-2.62-1.1-2.62-2.85,0-2.05,1-2.78,3-2.78H1056V80.58c0-1.24-.55-1.67-2.15-1.67a15.66,15.66,0,0,0-3,.33l-.19-1.36a13.7,13.7,0,0,1,3.25-.43c2.83,0,3.76,1.1,3.76,3.21Zm-1.71-4h-2.51c-1.06,0-1.45.33-1.45,1.32s.19,1.42,1.4,1.42a4.9,4.9,0,0,0,2.56-.81Z"/><path class="cls-25" d="M1067,87.75a10.21,10.21,0,0,1-3.14-.53l.22-1.34a11.42,11.42,0,0,0,2.82.4c1.57,0,1.83-.28,1.83-1.34s-.08-1.17-2.07-1.66c-2.46-.61-2.68-1.12-2.68-3.17,0-1.83.81-2.66,3.41-2.66a11.31,11.31,0,0,1,2.8.34L1070,79.2a15.19,15.19,0,0,0-2.74-.29c-1.46,0-1.67.35-1.67,1.24,0,1.1,0,1.3,1.69,1.71,2.84.71,3.07,1,3.07,3S1069.79,87.75,1067,87.75Z"/><path class="cls-25" d="M1072.73,76.07V73.61h1.71v2.46Zm0,11.47V77.65h1.71v9.89Z"/><path class="cls-25" d="M1083.25,87.54V80c0-.65-.32-.92-1-.92a9.17,9.17,0,0,0-3.31,1v7.47h-1.71V77.65h1.38l.17.86a10.66,10.66,0,0,1,4-1.06c1.58,0,2.15,1,2.15,2.52v7.57Z"/><path class="cls-25" d="M1095.36,78.65l-1.18.22a3.49,3.49,0,0,1,.55,2v.45c0,2.13-1.3,3.37-3.88,3.37a8,8,0,0,1-1-.06c-.34.28-.71.63-.71,1.05s.21.53.65.57l2.81.29c1.78.18,2.47.87,2.47,2.37,0,2.16-.75,2.87-4.32,2.87a16.19,16.19,0,0,1-3.6-.47l.25-1.34a15.85,15.85,0,0,0,3.31.41c2.52,0,2.76-.35,2.76-1.39,0-.83-.3-1-1.46-1.07l-2.62-.25c-1.47-.12-1.93-.89-1.93-1.8a2.23,2.23,0,0,1,.93-1.75,3,3,0,0,1-1.38-2.8v-.45c0-2.15,1-3.39,3.86-3.39a6.59,6.59,0,0,1,1.67.2h2.84Zm-4.51.2c-1.65,0-2.25.55-2.25,2v.43c0,1.5.63,2,2.25,2s2.25-.67,2.25-2v-.43C1093.1,79.42,1092.5,78.85,1090.85,78.85Z"/><path class="cls-25" d="M1097.25,87.54V73.61l1.7-.24V87.54Z"/><path class="cls-25" d="M1105.35,86.28a12.75,12.75,0,0,0,3.13-.46l.22,1.36a10.85,10.85,0,0,1-3.49.57c-2.92,0-3.92-1.41-3.92-3.64v-3c0-2.06.94-3.7,3.88-3.7s3.72,1.68,3.72,3.74v2.07H1103v.83C1103,85.65,1103.42,86.28,1105.35,86.28ZM1103,81.84h4.24V81c0-1.38-.47-2.15-2.07-2.15S1103,79.64,1103,81Z"/><path class="cls-25" d="M1117.87,87.75a10.23,10.23,0,0,1-3.15-.53l.22-1.34a11.42,11.42,0,0,0,2.82.4c1.57,0,1.83-.28,1.83-1.34s-.08-1.17-2.07-1.66c-2.46-.61-2.68-1.12-2.68-3.17,0-1.83.81-2.66,3.41-2.66a11.25,11.25,0,0,1,2.8.34l-.12,1.41a15.19,15.19,0,0,0-2.74-.29c-1.46,0-1.67.35-1.67,1.24,0,1.1,0,1.3,1.69,1.71,2.84.71,3.07,1,3.07,3S1120.69,87.75,1117.87,87.75Z"/><path class="cls-25" d="M1126.09,87.54h-.71l-3.21-9.89h1.69l2.7,8.53,2.74-8.53H1131l-3.27,9.89-1.4,4h-1.61Z"/><path class="cls-25" d="M1136.86,79a22.15,22.15,0,0,0-2.83,1.71v6.82h-1.7V77.65h1.48l.1,1.38a12.78,12.78,0,0,1,2.72-1.58Z"/><path class="cls-25" d="M1138.18,76.07V73.61h1.7v2.46Zm0,11.47V77.65h1.7v9.89Z"/><path class="cls-25" d="M1148.7,87.54V80c0-.65-.33-.92-1-.92a9.23,9.23,0,0,0-3.31,1v7.47h-1.7V77.65h1.38l.16.86a10.71,10.71,0,0,1,4-1.06c1.59,0,2.15,1,2.15,2.52v7.57Z"/><path class="cls-25" d="M1160.8,78.65l-1.17.22a3.57,3.57,0,0,1,.54,2v.45c0,2.13-1.29,3.37-3.87,3.37a8,8,0,0,1-1-.06c-.34.28-.71.63-.71,1.05s.2.53.65.57l2.8.29c1.79.18,2.48.87,2.48,2.37,0,2.16-.75,2.87-4.33,2.87a16.18,16.18,0,0,1-3.59-.47l.24-1.34a16,16,0,0,0,3.31.41c2.52,0,2.77-.35,2.77-1.39,0-.83-.31-1-1.47-1.07l-2.62-.25c-1.46-.12-1.93-.89-1.93-1.8a2.24,2.24,0,0,1,.94-1.75,3,3,0,0,1-1.38-2.8v-.45c0-2.15,1-3.39,3.86-3.39a6.56,6.56,0,0,1,1.66.2h2.84Zm-4.5.2c-1.65,0-2.26.55-2.26,2v.43c0,1.5.63,2,2.26,2s2.25-.67,2.25-2v-.43C1158.55,79.42,1157.94,78.85,1156.3,78.85Z"/><path class="cls-25" d="M1166.25,86.28a12.81,12.81,0,0,0,3.13-.46l.22,1.36a10.85,10.85,0,0,1-3.49.57c-2.93,0-3.92-1.41-3.92-3.64v-3c0-2.06.93-3.7,3.88-3.7s3.71,1.68,3.71,3.74v2.07h-5.89v.83C1163.89,85.65,1164.32,86.28,1166.25,86.28Zm-2.36-4.44h4.25V81c0-1.38-.47-2.15-2.07-2.15s-2.18.77-2.18,2.15Z"/><path class="cls-26" d="M896.24,56.54h19.47v5.79h-12.8v8.81c2,0,2.84.11,4.92.22,6.4.32,8.48,3.55,8.48,8.36v3.34c0,5.74-2.08,9.35-11.87,9.35a34.32,34.32,0,0,1-9.3-1.31l.82-5.47a40.19,40.19,0,0,0,8.37.93c5,0,5.31-1.2,5.31-4.1V80.71c0-2.57-.82-3.67-4.71-3.83s-5.79-.22-8.69-.27Z"/><path class="cls-26" d="M942.72,91.86V73.27c0-1.42-.6-2.13-2.13-2.13a18.4,18.4,0,0,0-7,2.24V91.86H927V65.23h5.09l.65,2.24a26.72,26.72,0,0,1,10.67-2.79c2.57,0,4.15,1,5,2.85a26.15,26.15,0,0,1,10.72-2.85c4.43,0,6,3.12,6,7.88v19.3h-6.67V73.27c0-1.42-.6-2.13-2.13-2.13a17.72,17.72,0,0,0-7,2.24V91.86Z"/><path class="cls-26" d="M975.86,85.79h15v6.07H969V55.44h6.89Z"/><path class="cls-25" d="M748.47,76.8V87.62h-3.05V76.8h-3.64V74.1H752.1v2.7Z"/><path class="cls-25" d="M752.75,83.83v-2.3c0-2,1-4,4.47-4s4.47,2,4.47,4v2.3c0,2-1,4-4.47,4S752.75,85.86,752.75,83.83Zm6,.08V81.45c0-.93-.48-1.46-1.54-1.46s-1.54.53-1.54,1.46v2.46c0,.93.48,1.46,1.54,1.46S758.76,84.84,758.76,83.91Z"/><path class="cls-25" d="M766.73,87.83c-1.89,0-3-.71-3-2.54v-5.2H762.4V77.73h1.34V75.36l2.93-.41v2.78h2.25l-.16,2.36h-2.09v4.79c0,.41.24.55.61.55a4,4,0,0,0,1.21-.18l.35,2.21A6.69,6.69,0,0,1,766.73,87.83Z"/><path class="cls-25" d="M775.62,87.62l-.2-.63a6.08,6.08,0,0,1-2.82.84c-1.83,0-2.58-1.32-2.58-3,0-2,.91-2.78,2.94-2.78h2.13v-.75c0-1-.18-1.36-1.74-1.36a14,14,0,0,0-2.68.28L770.28,78a13.73,13.73,0,0,1,3.56-.49c3.43,0,4.18,1,4.18,3.78v6.31Zm-.53-3.55h-1.4c-.63,0-.87.16-.87.71s.22.77.79.77a3.33,3.33,0,0,0,1.48-.34Z"/><path class="cls-25" d="M780.05,87.62V73.69l2.93-.4V87.62Z"/><path class="cls-25" d="M794.7,87.62H791l-3.11-9.89h3l2,7,2-7h3Z"/><path class="cls-25" d="M798.31,83.83v-2.3c0-2,1-4,4.47-4s4.47,2,4.47,4v2.3c0,2-1,4-4.47,4S798.31,85.86,798.31,83.83Zm6,.08V81.45c0-.93-.48-1.46-1.54-1.46s-1.54.53-1.54,1.46v2.46c0,.93.48,1.46,1.54,1.46S804.32,84.84,804.32,83.91Z"/><path class="cls-25" d="M809,87.62V73.69l2.92-.4V87.62Z"/><path class="cls-25" d="M817,77.73v6.54a.62.62,0,0,0,.71.71,5.62,5.62,0,0,0,2.13-.71V77.73h2.93v9.89h-2.18l-.3-.75a10,10,0,0,1-3.94,1c-1.69,0-2.28-1.26-2.28-3.17V77.73Z"/><path class="cls-25" d="M830.73,87.62V81.08a.63.63,0,0,0-.71-.71,5.8,5.8,0,0,0-2.13.71v6.54H825V77.73h2.18l.3.75a10.13,10.13,0,0,1,3.94-1,1.94,1.94,0,0,1,1.81,1,9.58,9.58,0,0,1,4-1c1.68,0,2.27,1.26,2.27,3.17v6.92H836.5V81.08a.63.63,0,0,0-.71-.71,5.85,5.85,0,0,0-2.14.71v6.54Z"/><path class="cls-25" d="M844,83.7V84c0,1.14.45,1.44,1.79,1.44a11.34,11.34,0,0,0,3-.43l.42,2.2a11.86,11.86,0,0,1-3.71.63c-3.21,0-4.43-1.59-4.43-4V81.49c0-2.13,1-4,4.24-4s4,2,4,4.1V83.7Zm2.56-2.62c0-.69-.2-1.25-1.22-1.25s-1.34.56-1.34,1.25v.43h2.56Z"/><path class="cls-25" d="M854.37,83.83v-2.3c0-2,1-4,4.47-4s4.47,2,4.47,4v2.3c0,2-.95,4-4.47,4S854.37,85.86,854.37,83.83Zm6,.08V81.45c0-.93-.49-1.46-1.55-1.46s-1.54.53-1.54,1.46v2.46c0,.93.49,1.46,1.54,1.46S860.39,84.84,860.39,83.91Z"/><path class="cls-25" d="M870.85,75.86a7.91,7.91,0,0,0-1.3-.14c-.94,0-1,.41-1,1.06v1.16h2.34l-.21,2.39h-2.13v7.29h-2.92V80.33h-1.51V77.94h1.51V76.45c0-2,1-3.16,3.35-3.16a10.31,10.31,0,0,1,2.23.28Z"/><path class="cls-26" d="M834.27,139.42c0,3.47-2,6.4-7.87,6.4s-7.88-2.93-7.88-6.4v-8.63c0-3.47,2-6.4,7.88-6.4s7.87,2.93,7.87,6.4Zm-11.81-.22c0,2,1,3.16,3.94,3.16s3.93-1.19,3.93-3.16V131c0-2-1-3.15-3.93-3.15s-3.94,1.18-3.94,3.15Z"/><path class="cls-26" d="M846.71,145.51V134.89c0-.82-.35-1.22-1.22-1.22a10.51,10.51,0,0,0-4,1.28v10.56h-3.81V130.29h2.9l.38,1.28a15.37,15.37,0,0,1,6.09-1.59c2.53,0,3.44,1.78,3.44,4.5v11Z"/><path class="cls-26" d="M853.43,140v-4.16c0-4.09,1.78-5.84,6.56-5.84a13.33,13.33,0,0,1,3.72.56l-.47,3.13a14,14,0,0,0-3.16-.41c-2.18,0-2.84.66-2.84,2.53V140c0,1.88.66,2.53,2.84,2.53a12.91,12.91,0,0,0,3.16-.4l.47,3.12a12.36,12.36,0,0,1-3.72.56C855.21,145.82,853.43,144.07,853.43,140Z"/><path class="cls-26" d="M872.68,142.7a15.88,15.88,0,0,0,4.65-.72l.6,2.88a16.49,16.49,0,0,1-5.6,1c-4.78,0-6.43-2.21-6.43-5.87v-4c0-3.22,1.43-5.94,6.31-5.94s6,2.84,6,6.13v3.25h-8.47v.78C869.71,142,870.36,142.7,872.68,142.7Zm-3-6.41h4.84v-.75c0-1.43-.44-2.43-2.31-2.43s-2.53,1-2.53,2.43Z"/><path class="cls-26" d="M887.08,124.7h12.75v3.47H891v5h8.12v3.47H891V142h8.81v3.47H887.08Z"/><path class="cls-26" d="M911,145.51h-5l-4.88-15.22H905l3.47,11.57,3.5-11.57h3.9Z"/><path class="cls-26" d="M923.68,142.7a15.93,15.93,0,0,0,4.65-.72l.6,2.88a16.53,16.53,0,0,1-5.6,1c-4.78,0-6.44-2.21-6.44-5.87v-4c0-3.22,1.44-5.94,6.32-5.94s6,2.84,6,6.13v3.25h-8.47v.78C920.71,142,921.36,142.7,923.68,142.7Zm-3-6.41h4.84v-.75c0-1.43-.44-2.43-2.31-2.43s-2.53,1-2.53,2.43Z"/><path class="cls-26" d="M939.83,133.48a29.33,29.33,0,0,0-4,2.22v9.81H932V130.29h3.22l.25,1.69a17.14,17.14,0,0,1,4-2Z"/><path class="cls-26" d="M949.64,145.51l-2,6.16H944l1.9-6.16h-1.34l-4.81-15.22h3.9l3.47,11.57,3.5-11.57h3.91Z"/><path class="cls-26" d="M961.49,142.23c2.37-2.59,2.68-2.91,4.84-5.41,2.94-3.4,3.41-3.9,3.41-5.93v-.53c0-1.54-.63-2-2.91-2a26.17,26.17,0,0,0-4.91.62l-.53-3.19a21,21,0,0,1,5.66-.81c4.81,0,6.5,1.66,6.5,4.91v.72c0,2.87-.25,3.53-3.16,7.09-1.75,2.16-2.5,3-3.72,4.44h6.94v3.34H961.49Z"/><path class="cls-26" d="M1002,140.82l4-16.12h3.91l-5.16,20.81h-5.31l-3.81-16.75-3.81,16.75h-5.32l-5.15-20.81h3.9l4,16.12,3.78-16.12h5.25Z"/><path class="cls-26" d="M1018,142.7a16,16,0,0,0,4.66-.72l.59,2.88a16.43,16.43,0,0,1-5.59,1c-4.78,0-6.44-2.21-6.44-5.87v-4c0-3.22,1.44-5.94,6.32-5.94s6,2.84,6,6.13v3.25H1015v.78C1015,142,1015.64,142.7,1018,142.7Zm-3-6.41h4.84v-.75c0-1.43-.44-2.43-2.31-2.43s-2.53,1-2.53,2.43Z"/><path class="cls-26" d="M1032.36,142.7A16,16,0,0,0,1037,142l.59,2.88a16.47,16.47,0,0,1-5.59,1c-4.78,0-6.44-2.21-6.44-5.87v-4c0-3.22,1.44-5.94,6.31-5.94s6,2.84,6,6.13v3.25h-8.47v.78C1029.39,142,1030.05,142.7,1032.36,142.7Zm-3-6.41h4.85v-.75c0-1.43-.44-2.43-2.32-2.43s-2.53,1-2.53,2.43Z"/><path class="cls-26" d="M1040.67,145.51V124.07l3.81-.53v22Zm12.94-15.22-4.47,7.53,4.66,7.69h-4.19l-4.59-7.69,4.34-7.53Z"/><path class="cls-26" d="M1060.64,145.82a18,18,0,0,1-5.25-.87l.53-2.91a16.83,16.83,0,0,0,4.53.66c1.69,0,1.94-.38,1.94-1.53,0-.94-.19-1.41-2.66-2-3.71-.91-4.15-1.85-4.15-4.78s1.34-4.41,5.69-4.41a20.24,20.24,0,0,1,4.56.53l-.38,3a26.56,26.56,0,0,0-4.18-.43c-1.66,0-1.94.37-1.94,1.31,0,1.22.09,1.31,2.15,1.84,4.25,1.13,4.66,1.69,4.66,4.81C1066.14,144,1065.23,145.82,1060.64,145.82Z"/><path class="cls-25" d="M1014.76,332v-2.46h1.71V332Zm0,11.47v-9.89h1.71v9.89Z"/><path class="cls-25" d="M1025.28,343.44v-7.55c0-.65-.32-.92-1-.92a9.17,9.17,0,0,0-3.31,1v7.47h-1.71v-9.89h1.38l.17.85a10.84,10.84,0,0,1,4-1c1.58,0,2.15,1,2.15,2.52v7.57Z"/><path class="cls-25" d="M1034.89,343.28a6.24,6.24,0,0,1-2.07.37c-1.67,0-2.46-.61-2.46-2.26V335h-1.75v-1.42h1.75v-2.44l1.71-.24v2.68h2.8l-.14,1.42h-2.66v6.14c0,.73.1,1.09,1,1.09a6.4,6.4,0,0,0,1.59-.24Z"/><path class="cls-25" d="M1040.33,343.65c-2.88,0-4-1.65-4-3.72v-2.86c0-2.08,1.14-3.72,4-3.72s4,1.64,4,3.72v2.86C1044.36,342,1043.22,343.65,1040.33,343.65Zm0-8.82c-1.54,0-2.31.73-2.31,2.17v3c0,1.44.77,2.17,2.31,2.17s2.32-.73,2.32-2.17v-3C1042.65,335.56,1041.88,334.83,1040.33,334.83Z"/><path class="cls-25" d="M1057.66,343.44h-1.44l-.1-.73a5.64,5.64,0,0,1-3.21.94c-1.85,0-2.62-1.1-2.62-2.85,0-2.05,1-2.78,3-2.78H1056v-1.54c0-1.24-.55-1.67-2.15-1.67a15.66,15.66,0,0,0-3,.33l-.19-1.36a13.7,13.7,0,0,1,3.25-.43c2.83,0,3.76,1.1,3.76,3.21Zm-1.71-4h-2.51c-1.06,0-1.45.33-1.45,1.32s.19,1.42,1.4,1.42a4.9,4.9,0,0,0,2.56-.81Z"/><path class="cls-25" d="M1067,343.65a10.21,10.21,0,0,1-3.14-.53l.22-1.34a11.42,11.42,0,0,0,2.82.4c1.57,0,1.83-.28,1.83-1.34s-.08-1.18-2.07-1.66c-2.46-.61-2.68-1.12-2.68-3.17,0-1.83.81-2.66,3.41-2.66a11.31,11.31,0,0,1,2.8.34l-.12,1.41a15.19,15.19,0,0,0-2.74-.29c-1.46,0-1.67.35-1.67,1.24,0,1.1,0,1.3,1.69,1.71,2.84.71,3.07,1.05,3.07,3S1069.79,343.65,1067,343.65Z"/><path class="cls-25" d="M1072.73,332v-2.46h1.71V332Zm0,11.47v-9.89h1.71v9.89Z"/><path class="cls-25" d="M1083.25,343.44v-7.55c0-.65-.32-.92-1-.92a9.17,9.17,0,0,0-3.31,1v7.47h-1.71v-9.89h1.38l.17.85a10.84,10.84,0,0,1,4-1c1.58,0,2.15,1,2.15,2.52v7.57Z"/><path class="cls-25" d="M1095.36,334.55l-1.18.22a3.49,3.49,0,0,1,.55,2v.45c0,2.13-1.3,3.37-3.88,3.37a8,8,0,0,1-1-.06c-.34.28-.71.63-.71,1.05s.21.53.65.57l2.81.29c1.78.18,2.47.87,2.47,2.37,0,2.16-.75,2.87-4.32,2.87a16.19,16.19,0,0,1-3.6-.47l.25-1.34a15.83,15.83,0,0,0,3.31.4c2.52,0,2.76-.34,2.76-1.38,0-.83-.3-1-1.46-1.07l-2.62-.25c-1.47-.12-1.93-.89-1.93-1.8a2.22,2.22,0,0,1,.93-1.75,3,3,0,0,1-1.38-2.8v-.45c0-2.15,1-3.39,3.86-3.39a6.59,6.59,0,0,1,1.67.2h2.84Zm-4.51.2c-1.65,0-2.25.55-2.25,2v.43c0,1.5.63,2,2.25,2s2.25-.67,2.25-2v-.43C1093.1,335.32,1092.5,334.75,1090.85,334.75Z"/><path class="cls-25" d="M1097.25,343.44V329.51l1.7-.24v14.17Z"/><path class="cls-25" d="M1105.35,342.18a12.75,12.75,0,0,0,3.13-.46l.22,1.36a10.85,10.85,0,0,1-3.49.57c-2.92,0-3.92-1.41-3.92-3.64v-3c0-2.05.94-3.69,3.88-3.69s3.72,1.68,3.72,3.74v2.07H1103V340C1103,341.55,1103.42,342.18,1105.35,342.18Zm-2.35-4.44h4.24v-.82c0-1.38-.47-2.15-2.07-2.15s-2.17.77-2.17,2.15Z"/><path class="cls-25" d="M1117.87,343.65a10.23,10.23,0,0,1-3.15-.53l.22-1.34a11.42,11.42,0,0,0,2.82.4c1.57,0,1.83-.28,1.83-1.34s-.08-1.18-2.07-1.66c-2.46-.61-2.68-1.12-2.68-3.17,0-1.83.81-2.66,3.41-2.66a11.25,11.25,0,0,1,2.8.34l-.12,1.41a15.19,15.19,0,0,0-2.74-.29c-1.46,0-1.67.35-1.67,1.24,0,1.1,0,1.3,1.69,1.71,2.84.71,3.07,1.05,3.07,3S1120.69,343.65,1117.87,343.65Z"/><path class="cls-25" d="M1126.09,343.44h-.71l-3.21-9.89h1.69l2.7,8.53,2.74-8.53H1131l-3.27,9.89-1.4,4h-1.61Z"/><path class="cls-25" d="M1136.86,334.91a22.15,22.15,0,0,0-2.83,1.71v6.82h-1.7v-9.89h1.48l.1,1.38a12.37,12.37,0,0,1,2.72-1.58Z"/><path class="cls-25" d="M1138.18,332v-2.46h1.7V332Zm0,11.47v-9.89h1.7v9.89Z"/><path class="cls-25" d="M1148.7,343.44v-7.55c0-.65-.33-.92-1-.92a9.23,9.23,0,0,0-3.31,1v7.47h-1.7v-9.89h1.38l.16.85a10.89,10.89,0,0,1,4-1c1.59,0,2.15,1,2.15,2.52v7.57Z"/><path class="cls-25" d="M1160.8,334.55l-1.17.22a3.57,3.57,0,0,1,.54,2v.45c0,2.13-1.29,3.37-3.87,3.37a8,8,0,0,1-1-.06c-.34.28-.71.63-.71,1.05s.2.53.65.57l2.8.29c1.79.18,2.48.87,2.48,2.37,0,2.16-.75,2.87-4.33,2.87a16.18,16.18,0,0,1-3.59-.47l.24-1.34a16,16,0,0,0,3.31.4c2.52,0,2.77-.34,2.77-1.38,0-.83-.31-1-1.47-1.07l-2.62-.25c-1.46-.12-1.93-.89-1.93-1.8a2.23,2.23,0,0,1,.94-1.75,3,3,0,0,1-1.38-2.8v-.45c0-2.15,1-3.39,3.86-3.39a6.56,6.56,0,0,1,1.66.2h2.84Zm-4.5.2c-1.65,0-2.26.55-2.26,2v.43c0,1.5.63,2,2.26,2s2.25-.67,2.25-2v-.43C1158.55,335.32,1157.94,334.75,1156.3,334.75Z"/><path class="cls-25" d="M1166.25,342.18a12.81,12.81,0,0,0,3.13-.46l.22,1.36a10.85,10.85,0,0,1-3.49.57c-2.93,0-3.92-1.41-3.92-3.64v-3c0-2.05.93-3.69,3.88-3.69s3.71,1.68,3.71,3.74v2.07h-5.89V340C1163.89,341.55,1164.32,342.18,1166.25,342.18Zm-2.36-4.44h4.25v-.82c0-1.38-.47-2.15-2.07-2.15s-2.18.77-2.18,2.15Z"/><path class="cls-26" d="M877,312.43h22.15v5.64L886.5,347.76h-6.94l12.58-29.47H877Z"/><path class="cls-26" d="M901.05,340.11h6.78v7.65h-6.78Z"/><path class="cls-26" d="M912.48,312.43H932v5.8h-12.8V327c2,0,2.85.11,4.92.21,6.4.33,8.48,3.56,8.48,8.37V339c0,5.74-2.08,9.35-11.87,9.35a34.24,34.24,0,0,1-9.29-1.31l.82-5.47a40.1,40.1,0,0,0,8.36.93c5,0,5.31-1.21,5.31-4.1v-1.75c0-2.57-.82-3.67-4.71-3.83s-5.79-.22-8.69-.28Z"/><path class="cls-26" d="M959,347.76V329.17c0-1.42-.6-2.13-2.13-2.13a18.3,18.3,0,0,0-6.94,2.24v18.48h-6.68V321.13h5.09l.66,2.24a26.64,26.64,0,0,1,10.66-2.79c2.57,0,4.16,1,5,2.85a26.15,26.15,0,0,1,10.72-2.85c4.43,0,6,3.12,6,7.88v19.3h-6.68V329.17c0-1.42-.6-2.13-2.13-2.13a17.63,17.63,0,0,0-6.94,2.24v18.48Z"/><path class="cls-26" d="M992.1,341.69h15v6.07H985.21V311.34h6.89Z"/><path class="cls-25" d="M748.47,332.7v10.82h-3.05V332.7h-3.64V330H752.1v2.7Z"/><path class="cls-25" d="M752.75,339.73v-2.3c0-2,1-4,4.47-4s4.47,2,4.47,4v2.3c0,2-1,4-4.47,4S752.75,341.76,752.75,339.73Zm6,.08v-2.46c0-.94-.48-1.46-1.54-1.46s-1.54.52-1.54,1.46v2.46c0,.93.48,1.46,1.54,1.46S758.76,340.74,758.76,339.81Z"/><path class="cls-25" d="M766.73,343.73c-1.89,0-3-.71-3-2.54V336H762.4v-2.36h1.34v-2.37l2.93-.41v2.78h2.25l-.16,2.36h-2.09v4.79c0,.41.24.55.61.55a4,4,0,0,0,1.21-.18l.35,2.21A7,7,0,0,1,766.73,343.73Z"/><path class="cls-25" d="M775.62,343.52l-.2-.63a6.08,6.08,0,0,1-2.82.84c-1.83,0-2.58-1.32-2.58-3,0-2,.91-2.78,2.94-2.78h2.13v-.75c0-1-.18-1.36-1.74-1.36a14,14,0,0,0-2.68.28l-.39-2.19a13.73,13.73,0,0,1,3.56-.49c3.43,0,4.18,1,4.18,3.78v6.31Zm-.53-3.55h-1.4c-.63,0-.87.16-.87.71s.22.77.79.77a3.33,3.33,0,0,0,1.48-.34Z"/><path class="cls-25" d="M780.05,343.52V329.59l2.93-.41v14.34Z"/><path class="cls-25" d="M794.7,343.52H791l-3.11-9.89h3l2,7,2-7h3Z"/><path class="cls-25" d="M798.31,339.73v-2.3c0-2,1-4,4.47-4s4.47,2,4.47,4v2.3c0,2-1,4-4.47,4S798.31,341.76,798.31,339.73Zm6,.08v-2.46c0-.94-.48-1.46-1.54-1.46s-1.54.52-1.54,1.46v2.46c0,.93.48,1.46,1.54,1.46S804.32,340.74,804.32,339.81Z"/><path class="cls-25" d="M809,343.52V329.59l2.92-.41v14.34Z"/><path class="cls-25" d="M817,333.63v6.54a.62.62,0,0,0,.71.71,5.62,5.62,0,0,0,2.13-.71v-6.54h2.93v9.89h-2.18l-.3-.75a10,10,0,0,1-3.94,1c-1.69,0-2.28-1.26-2.28-3.17v-6.93Z"/><path class="cls-25" d="M830.73,343.52V337a.63.63,0,0,0-.71-.71,5.8,5.8,0,0,0-2.13.71v6.54H825v-9.89h2.18l.3.75a10.13,10.13,0,0,1,3.94-.95,1.92,1.92,0,0,1,1.81.95,9.58,9.58,0,0,1,4-.95c1.68,0,2.27,1.26,2.27,3.17v6.92H836.5V337a.63.63,0,0,0-.71-.71,5.85,5.85,0,0,0-2.14.71v6.54Z"/><path class="cls-25" d="M844,339.6v.29c0,1.14.45,1.44,1.79,1.44a11.34,11.34,0,0,0,3-.43l.42,2.2a11.86,11.86,0,0,1-3.71.63c-3.21,0-4.43-1.59-4.43-4v-2.32c0-2.13,1-4,4.24-4s4,1.95,4,4.1v2.07Zm2.56-2.62c0-.69-.2-1.26-1.22-1.26S844,336.29,844,337v.43h2.56Z"/><path class="cls-25" d="M854.37,339.73v-2.3c0-2,1-4,4.47-4s4.47,2,4.47,4v2.3c0,2-.95,4-4.47,4S854.37,341.76,854.37,339.73Zm6,.08v-2.46c0-.94-.49-1.46-1.55-1.46s-1.54.52-1.54,1.46v2.46c0,.93.49,1.46,1.54,1.46S860.39,340.74,860.39,339.81Z"/><path class="cls-25" d="M870.85,331.76a7.91,7.91,0,0,0-1.3-.14c-.94,0-1,.41-1,1.06v1.16h2.34l-.21,2.39h-2.13v7.29h-2.92v-7.29h-1.51v-2.39h1.51v-1.49c0-2,1-3.17,3.35-3.17a10.32,10.32,0,0,1,2.23.29Z"/><path class="cls-26" d="M834.41,395.32c0,3.47-2,6.4-7.87,6.4s-7.88-2.93-7.88-6.4v-8.63c0-3.47,2-6.4,7.88-6.4s7.87,2.93,7.87,6.4Zm-11.81-.22c0,2,1,3.15,3.94,3.15s3.93-1.18,3.93-3.15v-8.19c0-2-1-3.16-3.93-3.16s-3.94,1.19-3.94,3.16Z"/><path class="cls-26" d="M846.85,401.41V390.79c0-.82-.34-1.22-1.22-1.22a10.51,10.51,0,0,0-4,1.28v10.56h-3.81V386.19h2.91l.37,1.28a15.37,15.37,0,0,1,6.09-1.59c2.54,0,3.44,1.78,3.44,4.5v11Z"/><path class="cls-26" d="M853.57,395.88v-4.16c0-4.09,1.78-5.84,6.56-5.84a13.33,13.33,0,0,1,3.72.56l-.47,3.13a14,14,0,0,0-3.16-.41c-2.18,0-2.84.66-2.84,2.53v4.22c0,1.88.66,2.53,2.84,2.53a12.91,12.91,0,0,0,3.16-.4l.47,3.12a12.68,12.68,0,0,1-3.72.56C855.35,401.72,853.57,400,853.57,395.88Z"/><path class="cls-26" d="M872.82,398.6a15.88,15.88,0,0,0,4.65-.72l.6,2.87a16.26,16.26,0,0,1-5.6,1c-4.78,0-6.43-2.22-6.43-5.87v-4c0-3.22,1.43-5.94,6.31-5.94s6,2.84,6,6.12v3.25h-8.47V396C869.85,397.88,870.51,398.6,872.82,398.6Zm-3-6.41h4.84v-.75c0-1.44-.43-2.44-2.31-2.44s-2.53,1-2.53,2.44Z"/><path class="cls-26" d="M887.22,380.6H900v3.47h-8.81v5h8.13v3.47h-8.13v5.37H900v3.47H887.22Z"/><path class="cls-26" d="M911.13,401.41h-5l-4.88-15.22h3.91l3.47,11.56,3.5-11.56H916Z"/><path class="cls-26" d="M923.82,398.6a15.93,15.93,0,0,0,4.65-.72l.6,2.87a16.3,16.3,0,0,1-5.6,1c-4.78,0-6.44-2.22-6.44-5.87v-4c0-3.22,1.44-5.94,6.32-5.94s6,2.84,6,6.12v3.25h-8.47V396C920.85,397.88,921.5,398.6,923.82,398.6Zm-3-6.41h4.84v-.75c0-1.44-.44-2.44-2.31-2.44s-2.53,1-2.53,2.44Z"/><path class="cls-26" d="M940,389.38a29.93,29.93,0,0,0-4,2.22v9.81h-3.81V386.19h3.22l.25,1.69a16.76,16.76,0,0,1,4-2Z"/><path class="cls-26" d="M949.78,401.41l-2,6.16h-3.62l1.9-6.16h-1.34l-4.81-15.22h3.9l3.47,11.56,3.5-11.56h3.91Z"/><path class="cls-26" d="M961.94,397.91a22.35,22.35,0,0,0,4.47.47c2.75,0,3.25-.56,3.25-2.19V395c0-1.53-.69-2-2.25-2h-4.47v-3.4h3.78c2.1,0,2.56-.72,2.56-2.19v-1.22c0-1.5-.68-1.91-2.87-1.91a23.11,23.11,0,0,0-4.31.44l-.41-3.22a22.63,22.63,0,0,1,5.06-.56c4.91,0,6.35,1.63,6.35,4.59v1.94c0,2-.63,3.06-2.25,3.78a3.46,3.46,0,0,1,2.62,3.78v1.79c0,3.12-1.53,4.93-6.94,4.93a20.25,20.25,0,0,1-5-.65Z"/><path class="cls-26" d="M1001.81,396.72l4-16.12h3.91l-5.16,20.81h-5.31l-3.81-16.75-3.81,16.75h-5.32l-5.15-20.81H985l4,16.12,3.78-16.12H998Z"/><path class="cls-26" d="M1017.81,398.6a16,16,0,0,0,4.66-.72l.59,2.87a16.24,16.24,0,0,1-5.59,1c-4.78,0-6.44-2.22-6.44-5.87v-4c0-3.22,1.44-5.94,6.31-5.94s6,2.84,6,6.12v3.25h-8.47V396C1014.84,397.88,1015.5,398.6,1017.81,398.6Zm-3-6.41h4.85v-.75c0-1.44-.44-2.44-2.31-2.44s-2.54,1-2.54,2.44Z"/><path class="cls-26" d="M1032.22,398.6a16,16,0,0,0,4.66-.72l.59,2.87a16.24,16.24,0,0,1-5.59,1c-4.79,0-6.44-2.22-6.44-5.87v-4c0-3.22,1.44-5.94,6.31-5.94s6,2.84,6,6.12v3.25h-8.47V396C1029.25,397.88,1029.91,398.6,1032.22,398.6Zm-3-6.41h4.84v-.75c0-1.44-.43-2.44-2.31-2.44s-2.53,1-2.53,2.44Z"/><path class="cls-26" d="M1040.53,401.41V380l3.81-.53v22Zm12.94-15.22-4.47,7.53,4.66,7.69h-4.19l-4.59-7.69,4.34-7.53Z"/><path class="cls-26" d="M1060.5,401.72a18,18,0,0,1-5.25-.87l.53-2.91a16.83,16.83,0,0,0,4.53.66c1.69,0,1.94-.38,1.94-1.53,0-.94-.19-1.41-2.66-2-3.71-.91-4.15-1.85-4.15-4.78s1.34-4.41,5.69-4.41a20.24,20.24,0,0,1,4.56.53l-.38,3a26.58,26.58,0,0,0-4.18-.44c-1.66,0-1.94.38-1.94,1.32,0,1.22.09,1.31,2.15,1.84,4.25,1.13,4.66,1.69,4.66,4.81C1066,399.91,1065.09,401.72,1060.5,401.72Z"/><path class="cls-25" d="M1014.76,587.87v-2.46h1.71v2.46Zm0,11.47v-9.89h1.71v9.89Z"/><path class="cls-25" d="M1025.28,599.34v-7.55c0-.65-.32-.92-1-.92a9.17,9.17,0,0,0-3.31,1v7.47h-1.71v-9.89h1.38l.17.85a10.84,10.84,0,0,1,4-1c1.58,0,2.15,1,2.15,2.52v7.57Z"/><path class="cls-25" d="M1034.89,599.18a6.24,6.24,0,0,1-2.07.36c-1.67,0-2.46-.6-2.46-2.25v-6.42h-1.75v-1.42h1.75V587l1.71-.24v2.68h2.8l-.14,1.42h-2.66V597c0,.73.1,1.09,1,1.09a6.4,6.4,0,0,0,1.59-.24Z"/><path class="cls-25" d="M1040.33,599.54c-2.88,0-4-1.64-4-3.71V593c0-2.07,1.14-3.71,4-3.71s4,1.64,4,3.71v2.87C1044.36,597.9,1043.22,599.54,1040.33,599.54Zm0-8.81c-1.54,0-2.31.73-2.31,2.17v3c0,1.44.77,2.17,2.31,2.17s2.32-.73,2.32-2.17v-3C1042.65,591.46,1041.88,590.73,1040.33,590.73Z"/><path class="cls-25" d="M1057.66,599.34h-1.44l-.1-.73a5.64,5.64,0,0,1-3.21.93c-1.85,0-2.62-1.09-2.62-2.84,0-2.05,1-2.78,3-2.78H1056v-1.54c0-1.24-.55-1.67-2.15-1.67a16.57,16.57,0,0,0-3,.32l-.19-1.36a14.24,14.24,0,0,1,3.25-.42c2.83,0,3.76,1.09,3.76,3.21Zm-1.71-4h-2.51c-1.06,0-1.45.33-1.45,1.32s.19,1.42,1.4,1.42a4.9,4.9,0,0,0,2.56-.81Z"/><path class="cls-25" d="M1067,599.54a10.22,10.22,0,0,1-3.14-.52l.22-1.34a11.42,11.42,0,0,0,2.82.4c1.57,0,1.83-.28,1.83-1.34s-.08-1.18-2.07-1.66c-2.46-.61-2.68-1.12-2.68-3.17,0-1.83.81-2.66,3.41-2.66a11.31,11.31,0,0,1,2.8.34L1070,591a16.12,16.12,0,0,0-2.74-.28c-1.46,0-1.67.35-1.67,1.24,0,1.1,0,1.3,1.69,1.7,2.84.72,3.07,1.06,3.07,3S1069.79,599.54,1067,599.54Z"/><path class="cls-25" d="M1072.73,587.87v-2.46h1.71v2.46Zm0,11.47v-9.89h1.71v9.89Z"/><path class="cls-25" d="M1083.25,599.34v-7.55c0-.65-.32-.92-1-.92a9.17,9.17,0,0,0-3.31,1v7.47h-1.71v-9.89h1.38l.17.85a10.84,10.84,0,0,1,4-1c1.58,0,2.15,1,2.15,2.52v7.57Z"/><path class="cls-25" d="M1095.36,590.45l-1.18.22a3.49,3.49,0,0,1,.55,2v.45c0,2.13-1.3,3.37-3.88,3.37a8,8,0,0,1-1-.06c-.34.28-.71.63-.71,1.05s.21.53.65.57l2.81.29c1.78.18,2.47.87,2.47,2.37,0,2.15-.75,2.87-4.32,2.87a16.19,16.19,0,0,1-3.6-.47l.25-1.34a15.83,15.83,0,0,0,3.31.4c2.52,0,2.76-.34,2.76-1.38,0-.83-.3-1-1.46-1.07s-1.46-.15-2.62-.25c-1.47-.12-1.93-.89-1.93-1.8a2.22,2.22,0,0,1,.93-1.75,3,3,0,0,1-1.38-2.8v-.45c0-2.15,1-3.39,3.86-3.39a6.59,6.59,0,0,1,1.67.2h2.84Zm-4.51.2c-1.65,0-2.25.55-2.25,2v.43c0,1.5.63,2,2.25,2s2.25-.67,2.25-2v-.43C1093.1,591.22,1092.5,590.65,1090.85,590.65Z"/><path class="cls-25" d="M1097.25,599.34V585.41l1.7-.24v14.17Z"/><path class="cls-25" d="M1105.35,598.08a12.75,12.75,0,0,0,3.13-.46l.22,1.36a10.86,10.86,0,0,1-3.49.56c-2.92,0-3.92-1.4-3.92-3.63v-3c0-2.05.94-3.69,3.88-3.69s3.72,1.68,3.72,3.73v2.08H1103v.83C1103,597.45,1103.42,598.08,1105.35,598.08Zm-2.35-4.45h4.24v-.81c0-1.38-.47-2.15-2.07-2.15s-2.17.77-2.17,2.15Z"/><path class="cls-25" d="M1117.87,599.54a10.23,10.23,0,0,1-3.15-.52l.22-1.34a11.42,11.42,0,0,0,2.82.4c1.57,0,1.83-.28,1.83-1.34s-.08-1.18-2.07-1.66c-2.46-.61-2.68-1.12-2.68-3.17,0-1.83.81-2.66,3.41-2.66a11.25,11.25,0,0,1,2.8.34l-.12,1.4a16.12,16.12,0,0,0-2.74-.28c-1.46,0-1.67.35-1.67,1.24,0,1.1,0,1.3,1.69,1.7,2.84.72,3.07,1.06,3.07,3S1120.69,599.54,1117.87,599.54Z"/><path class="cls-25" d="M1126.09,599.34h-.71l-3.21-9.89h1.69l2.7,8.53,2.74-8.53H1131l-3.27,9.89-1.4,4h-1.61Z"/><path class="cls-25" d="M1136.86,590.81a22.15,22.15,0,0,0-2.83,1.71v6.82h-1.7v-9.89h1.48l.1,1.38a12.37,12.37,0,0,1,2.72-1.58Z"/><path class="cls-25" d="M1138.18,587.87v-2.46h1.7v2.46Zm0,11.47v-9.89h1.7v9.89Z"/><path class="cls-25" d="M1148.7,599.34v-7.55c0-.65-.33-.92-1-.92a9.23,9.23,0,0,0-3.31,1v7.47h-1.7v-9.89h1.38l.16.85a10.89,10.89,0,0,1,4-1c1.59,0,2.15,1,2.15,2.52v7.57Z"/><path class="cls-25" d="M1160.8,590.45l-1.17.22a3.57,3.57,0,0,1,.54,2v.45c0,2.13-1.29,3.37-3.87,3.37a8,8,0,0,1-1-.06c-.34.28-.71.63-.71,1.05s.2.53.65.57l2.8.29c1.79.18,2.48.87,2.48,2.37,0,2.15-.75,2.87-4.33,2.87a16.18,16.18,0,0,1-3.59-.47l.24-1.34a16,16,0,0,0,3.31.4c2.52,0,2.77-.34,2.77-1.38,0-.83-.31-1-1.47-1.07s-1.46-.15-2.62-.25c-1.46-.12-1.93-.89-1.93-1.8a2.23,2.23,0,0,1,.94-1.75,3,3,0,0,1-1.38-2.8v-.45c0-2.15,1-3.39,3.86-3.39a6.56,6.56,0,0,1,1.66.2h2.84Zm-4.5.2c-1.65,0-2.26.55-2.26,2v.43c0,1.5.63,2,2.26,2s2.25-.67,2.25-2v-.43C1158.55,591.22,1157.94,590.65,1156.3,590.65Z"/><path class="cls-25" d="M1166.25,598.08a12.81,12.81,0,0,0,3.13-.46l.22,1.36a10.86,10.86,0,0,1-3.49.56c-2.93,0-3.92-1.4-3.92-3.63v-3c0-2.05.93-3.69,3.88-3.69s3.71,1.68,3.71,3.73v2.08h-5.89v.83C1163.89,597.45,1164.32,598.08,1166.25,598.08Zm-2.36-4.45h4.25v-.81c0-1.38-.47-2.15-2.07-2.15s-2.18.77-2.18,2.15Z"/><path class="cls-26" d="M885,579.38l-2.79-5.25,10.07-5.8h6v35.33h-6.67V575.72Z"/><path class="cls-26" d="M926,594.42c0,5.47-2.9,9.79-11.81,9.79s-11.82-4.32-11.82-9.79V577.58c0-5.47,2.9-9.79,11.82-9.79S926,572.11,926,577.58Zm-17-.66c0,3.18.92,4.6,5.14,4.6s5.14-1.42,5.14-4.6V578.23c0-3.17-.93-4.59-5.14-4.59s-5.14,1.42-5.14,4.59Z"/><path class="cls-26" d="M953,603.66V585.07c0-1.42-.6-2.13-2.13-2.13a18.4,18.4,0,0,0-7,2.24v18.48H937.2V577h5.08l.66,2.24a26.72,26.72,0,0,1,10.67-2.79c2.57,0,4.15,1,5,2.85a26.11,26.11,0,0,1,10.72-2.85c4.42,0,6,3.12,6,7.88v19.3H968.7V585.07c0-1.42-.6-2.13-2.13-2.13a17.56,17.56,0,0,0-7,2.24v18.48Z"/><path class="cls-26" d="M986.09,597.59h15v6.07H979.2V567.24h6.89Z"/><path class="cls-25" d="M748.47,588.6v10.82h-3.05V588.6h-3.64v-2.7H752.1v2.7Z"/><path class="cls-25" d="M752.75,595.63v-2.3c0-2,1-4,4.47-4s4.47,2,4.47,4v2.3c0,2-1,4-4.47,4S752.75,597.66,752.75,595.63Zm6,.08v-2.46c0-.94-.48-1.46-1.54-1.46s-1.54.52-1.54,1.46v2.46c0,.93.48,1.46,1.54,1.46S758.76,596.64,758.76,595.71Z"/><path class="cls-25" d="M766.73,599.63c-1.89,0-3-.71-3-2.54v-5.2H762.4v-2.36h1.34v-2.37l2.93-.41v2.78h2.25l-.16,2.36h-2.09v4.79c0,.41.24.55.61.55a4,4,0,0,0,1.21-.18l.35,2.21A7,7,0,0,1,766.73,599.63Z"/><path class="cls-25" d="M775.62,599.42l-.2-.63a6.08,6.08,0,0,1-2.82.84c-1.83,0-2.58-1.32-2.58-3,0-2,.91-2.78,2.94-2.78h2.13v-.75c0-1-.18-1.36-1.74-1.36a14,14,0,0,0-2.68.28l-.39-2.19a13.73,13.73,0,0,1,3.56-.49c3.43,0,4.18,1,4.18,3.78v6.31Zm-.53-3.55h-1.4c-.63,0-.87.16-.87.71s.22.77.79.77a3.33,3.33,0,0,0,1.48-.34Z"/><path class="cls-25" d="M780.05,599.42V585.49l2.93-.41v14.34Z"/><path class="cls-25" d="M794.7,599.42H791l-3.11-9.89h3l2,7,2-7h3Z"/><path class="cls-25" d="M798.31,595.63v-2.3c0-2,1-4,4.47-4s4.47,2,4.47,4v2.3c0,2-1,4-4.47,4S798.31,597.66,798.31,595.63Zm6,.08v-2.46c0-.94-.48-1.46-1.54-1.46s-1.54.52-1.54,1.46v2.46c0,.93.48,1.46,1.54,1.46S804.32,596.64,804.32,595.71Z"/><path class="cls-25" d="M809,599.42V585.49l2.92-.41v14.34Z"/><path class="cls-25" d="M817,589.53v6.54a.62.62,0,0,0,.71.71,5.62,5.62,0,0,0,2.13-.71v-6.54h2.93v9.89h-2.18l-.3-.75a10,10,0,0,1-3.94,1c-1.69,0-2.28-1.26-2.28-3.17v-6.93Z"/><path class="cls-25" d="M830.73,599.42v-6.54a.63.63,0,0,0-.71-.71,5.8,5.8,0,0,0-2.13.71v6.54H825v-9.89h2.18l.3.75a10,10,0,0,1,3.94-.95,1.92,1.92,0,0,1,1.81.95,9.58,9.58,0,0,1,4-.95c1.68,0,2.27,1.26,2.27,3.17v6.92H836.5v-6.54a.63.63,0,0,0-.71-.71,5.85,5.85,0,0,0-2.14.71v6.54Z"/><path class="cls-25" d="M844,595.5v.29c0,1.13.45,1.44,1.79,1.44a11.34,11.34,0,0,0,3-.43l.42,2.2a11.86,11.86,0,0,1-3.71.63c-3.21,0-4.43-1.59-4.43-4v-2.31c0-2.13,1-4,4.24-4s4,1.95,4,4.1v2.07Zm2.56-2.62c0-.69-.2-1.26-1.22-1.26s-1.34.57-1.34,1.26v.43h2.56Z"/><path class="cls-25" d="M854.37,595.63v-2.3c0-2,1-4,4.47-4s4.47,2,4.47,4v2.3c0,2-.95,4-4.47,4S854.37,597.66,854.37,595.63Zm6,.08v-2.46c0-.94-.49-1.46-1.55-1.46s-1.54.52-1.54,1.46v2.46c0,.93.49,1.46,1.54,1.46S860.39,596.64,860.39,595.71Z"/><path class="cls-25" d="M870.85,587.66a7.91,7.91,0,0,0-1.3-.14c-.94,0-1,.41-1,1.06v1.16h2.34l-.21,2.39h-2.13v7.29h-2.92v-7.29h-1.51v-2.39h1.51v-1.49c0-2,1-3.17,3.35-3.17a10.32,10.32,0,0,1,2.23.29Z"/><path class="cls-26" d="M833.27,651.22c0,3.46-2,6.4-7.87,6.4s-7.88-2.94-7.88-6.4v-8.63c0-3.47,2-6.41,7.88-6.41s7.87,2.94,7.87,6.41ZM821.46,651c0,2,1,3.15,3.94,3.15s3.93-1.18,3.93-3.15v-8.19c0-2-1-3.16-3.93-3.16s-3.94,1.19-3.94,3.16Z"/><path class="cls-26" d="M845.71,657.31V646.68c0-.81-.35-1.21-1.22-1.21a10.51,10.51,0,0,0-4,1.28v10.56h-3.81V642.09h2.9l.38,1.28a15.2,15.2,0,0,1,6.09-1.59c2.53,0,3.44,1.78,3.44,4.5v11Z"/><path class="cls-26" d="M852.43,651.78v-4.16c0-4.09,1.78-5.84,6.56-5.84a13.33,13.33,0,0,1,3.72.56l-.47,3.13a13.43,13.43,0,0,0-3.16-.41c-2.18,0-2.84.66-2.84,2.53v4.22c0,1.87.66,2.53,2.84,2.53a12.47,12.47,0,0,0,3.16-.41l.47,3.13a12.68,12.68,0,0,1-3.72.56C854.21,657.62,852.43,655.87,852.43,651.78Z"/><path class="cls-26" d="M871.68,654.5a15.88,15.88,0,0,0,4.65-.72l.6,2.87a16.26,16.26,0,0,1-5.6,1c-4.78,0-6.43-2.22-6.43-5.87v-4c0-3.22,1.43-5.94,6.31-5.94s6,2.84,6,6.12v3.25h-8.47v.78C868.71,653.78,869.36,654.5,871.68,654.5Zm-3-6.41h4.84v-.75c0-1.44-.44-2.44-2.31-2.44s-2.53,1-2.53,2.44Z"/><path class="cls-26" d="M886.08,636.5h12.75V640H890v5h8.12v3.47H890v5.37h8.81v3.47H886.08Z"/><path class="cls-26" d="M910,657.31h-5l-4.88-15.22H904l3.47,11.56,3.5-11.56h3.9Z"/><path class="cls-26" d="M922.68,654.5a15.93,15.93,0,0,0,4.65-.72l.6,2.87a16.3,16.3,0,0,1-5.6,1c-4.78,0-6.44-2.22-6.44-5.87v-4c0-3.22,1.44-5.94,6.32-5.94s6,2.84,6,6.12v3.25h-8.47v.78C919.71,653.78,920.36,654.5,922.68,654.5Zm-3-6.41h4.84v-.75c0-1.44-.44-2.44-2.31-2.44s-2.53,1-2.53,2.44Z"/><path class="cls-26" d="M938.83,645.28a28.31,28.31,0,0,0-4,2.22v9.81H931V642.09h3.22l.25,1.69a16.76,16.76,0,0,1,4-2Z"/><path class="cls-26" d="M948.64,657.31l-2,6.16H943l1.9-6.16h-1.34l-4.81-15.22h3.9l3.47,11.56,3.5-11.56h3.91Z"/><path class="cls-26" d="M972.89,652.87v4.44h-3.75v-4.44h-9.43v-3.53l8.09-12.22h5.09v12.5h2.66v3.25Zm-3.75-3.25V640.9l-5.62,8.72Z"/><path class="cls-26" d="M1003,652.62l4-16.12h3.91l-5.16,20.81h-5.31l-3.81-16.75-3.81,16.75h-5.32l-5.15-20.81h3.9l4,16.12,3.78-16.12h5.25Z"/><path class="cls-26" d="M1019,654.5a16,16,0,0,0,4.66-.72l.59,2.87a16.2,16.2,0,0,1-5.59,1c-4.78,0-6.44-2.22-6.44-5.87v-4c0-3.22,1.44-5.94,6.32-5.94s6,2.84,6,6.12v3.25H1016v.78C1016,653.78,1016.64,654.5,1019,654.5Zm-3-6.41h4.84v-.75c0-1.44-.44-2.44-2.31-2.44s-2.53,1-2.53,2.44Z"/><path class="cls-26" d="M1033.36,654.5a16,16,0,0,0,4.66-.72l.59,2.87a16.24,16.24,0,0,1-5.59,1c-4.78,0-6.44-2.22-6.44-5.87v-4c0-3.22,1.44-5.94,6.31-5.94s6,2.84,6,6.12v3.25h-8.47v.78C1030.39,653.78,1031.05,654.5,1033.36,654.5Zm-3-6.41h4.85v-.75c0-1.44-.44-2.44-2.32-2.44s-2.53,1-2.53,2.44Z"/><path class="cls-26" d="M1041.67,657.31V635.87l3.81-.53v22Zm12.94-15.22-4.47,7.53,4.66,7.69h-4.19l-4.59-7.69,4.34-7.53Z"/><path class="cls-26" d="M1061.64,657.62a18,18,0,0,1-5.25-.87l.53-2.91a16.83,16.83,0,0,0,4.53.66c1.69,0,1.94-.38,1.94-1.53,0-.94-.19-1.41-2.66-2-3.71-.91-4.15-1.85-4.15-4.79s1.34-4.4,5.69-4.4a20.24,20.24,0,0,1,4.56.53l-.38,3a26.58,26.58,0,0,0-4.18-.44c-1.66,0-1.94.38-1.94,1.32,0,1.21.09,1.31,2.15,1.84,4.25,1.12,4.66,1.69,4.66,4.81C1067.14,655.81,1066.23,657.62,1061.64,657.62Z"/><path class="cls-24" d="M94.41,601l-1.59-3,5.75-3.32H102v20.19H98.2v-16Z"/><path class="cls-24" d="M106.23,610.48h3.87v4.62l-2.44,4.09-1.75-1,1.75-3.38h-1.43Z"/><path class="cls-24" d="M113.48,611.57c2.37-2.59,2.68-2.91,4.84-5.41,2.94-3.4,3.41-3.9,3.41-5.93v-.54c0-1.53-.63-2-2.91-2a26.07,26.07,0,0,0-4.91.62l-.53-3.19a21,21,0,0,1,5.66-.81c4.81,0,6.5,1.66,6.5,4.91V600c0,2.87-.25,3.53-3.16,7.09-1.75,2.16-2.5,3-3.72,4.44h6.94v3.34H113.48Z"/><path class="cls-24" d="M142.38,609.57c0,3.12-1.65,5.59-6.75,5.59s-6.75-2.47-6.75-5.59v-9.63c0-3.12,1.66-5.59,6.75-5.59s6.75,2.47,6.75,5.59Zm-9.69-.38c0,1.82.54,2.63,2.94,2.63s2.94-.81,2.94-2.63v-8.87c0-1.81-.53-2.63-2.94-2.63s-2.94.82-2.94,2.63Z"/><path class="cls-24" d="M159.32,609.57c0,3.12-1.66,5.59-6.75,5.59s-6.75-2.47-6.75-5.59v-9.63c0-3.12,1.66-5.59,6.75-5.59s6.75,2.47,6.75,5.59Zm-9.69-.38c0,1.82.53,2.63,2.94,2.63s2.94-.81,2.94-2.63v-8.87c0-1.81-.53-2.63-2.94-2.63s-2.94.82-2.94,2.63Z"/><path class="cls-24" d="M171.91,614.85V604.23c0-.82-.34-1.22-1.22-1.22a10.47,10.47,0,0,0-4,1.28v10.56h-3.82V599.63h2.91l.37,1.28a15.41,15.41,0,0,1,6.1-1.59,2.88,2.88,0,0,1,2.87,1.62,15.06,15.06,0,0,1,6.13-1.62c2.53,0,3.44,1.78,3.44,4.5v11h-3.82V604.23c0-.82-.34-1.22-1.22-1.22a10,10,0,0,0-4,1.28v10.56Z"/><path class="cls-24" d="M192.63,610.76a1.62,1.62,0,0,0-.9,1.22c0,.4.25.59.84.65l4.41.47c2.46.28,3.25,1.5,3.25,3.69,0,3.25-1.19,4.53-6.88,4.53a22.13,22.13,0,0,1-5.87-.78l.46-2.85a21,21,0,0,0,5.13.66c3,0,3.62-.22,3.62-1.22s-.28-1.09-1.43-1.22c-1.75-.18-2.47-.28-4.41-.5-2.16-.25-3-1-3-2.9a3.23,3.23,0,0,1,1.59-2.6,4.42,4.42,0,0,1-2.06-4.09v-1.44c.06-3.15,1.72-5.06,6.13-5.06a10.21,10.21,0,0,1,2.59.31h4.69v1.91c-.53.15-1.16.31-1.69.47a5.24,5.24,0,0,1,.53,2.37v1.44c0,3.09-1.87,5-6.12,5A8.24,8.24,0,0,1,192.63,610.76Zm.88-8.38c-1.88,0-2.53.69-2.53,2.13v1.15c0,1.5.75,2.07,2.53,2.07s2.56-.6,2.56-2.07v-1.15C196.07,603.07,195.41,602.38,193.51,602.38Z"/><path class="cls-24" d="M212.91,599.07v15.78h-3.84V594h5.25l7.91,15.81V594h3.84v20.81h-5.25Z"/><path class="cls-24" d="M230,597.48v-4.41h3.82v4.41Zm0,17.37V599.63h3.82v15.22Z"/><path class="cls-24" d="M245.41,614.85h-5l-4.87-15.22h3.9l3.47,11.56,3.5-11.56h3.91Z"/><path class="cls-24" d="M257.94,615.16c-5.22,0-6.62-2.87-6.62-6v-3.84c0-3.13,1.4-6,6.62-6s6.63,2.87,6.63,6v3.84C264.57,612.29,263.16,615.16,257.94,615.16Zm0-12.59c-2,0-2.81.91-2.81,2.62v4.1c0,1.72.78,2.62,2.81,2.62s2.82-.9,2.82-2.62v-4.1C260.76,603.48,260,602.57,257.94,602.57Z"/><path class="cls-24" d="M267.63,614.85V593.41l3.81-.53v22Z"/><path class="cls-24" d="M278.85,599.63v10.63c0,.81.34,1.22,1.22,1.22a10.55,10.55,0,0,0,4-1.29V599.63h3.81v15.22h-2.91l-.37-1.28a15.2,15.2,0,0,1-6.1,1.59c-2.53,0-3.43-1.78-3.43-4.5v-11Z"/><path class="cls-24" d="M300.6,614.85V604.23c0-.82-.34-1.22-1.22-1.22a10.51,10.51,0,0,0-4,1.28v10.56H291.6V599.63h2.91l.37,1.28a15.37,15.37,0,0,1,6.09-1.59,2.89,2.89,0,0,1,2.88,1.62,15,15,0,0,1,6.12-1.62c2.54,0,3.44,1.78,3.44,4.5v11H309.6V604.23c0-.82-.34-1.22-1.22-1.22a10,10,0,0,0-4,1.28v10.56Z"/><path class="cls-24" d="M328.29,614.85h-3.13l-.28-1a8.27,8.27,0,0,1-4.53,1.34c-2.78,0-4-1.9-4-4.53,0-3.09,1.34-4.28,4.44-4.28h3.65v-1.59c0-1.69-.46-2.28-2.9-2.28a21.3,21.3,0,0,0-4.22.46l-.47-2.9a19.77,19.77,0,0,1,5.22-.72c4.78,0,6.19,1.69,6.19,5.5Zm-3.82-5.75h-2.81c-1.25,0-1.59.34-1.59,1.5s.34,1.53,1.53,1.53a5.92,5.92,0,0,0,2.87-.78Z"/><path class="cls-24" d="M344.63,609c0,3.68-1.12,6.15-7,6.15a34,34,0,0,1-5.91-.53V593.41l3.82-.53v7.35a12.42,12.42,0,0,1,4.5-.91c3.28,0,4.59,2,4.59,5.22Zm-9.09,2.78a18,18,0,0,0,2.28.12c2.5,0,3-1,3-2.78v-4.69c0-1.21-.53-1.87-1.94-1.87a8.93,8.93,0,0,0-3.34.87Z"/><path class="cls-24" d="M367.38,606.07v8.06a24.63,24.63,0,0,1-7.25,1c-5,0-6.59-2.06-6.59-5.12v-1.75c0-1.94.71-3.47,2.53-4.13a3.79,3.79,0,0,1-2.16-3.78v-1.62c0-3,1.63-5,6.59-5a29.09,29.09,0,0,1,6.19.62l-.34,3.13a35.29,35.29,0,0,0-6-.5c-1.94,0-2.6.59-2.6,1.93v1.88c0,1.25.57,2.06,2.16,2.06h10.5v3.22Zm-3.63,5.66v-5.66h-3.53c-1.84,0-2.84.69-2.84,2.25v1.31c0,1.63.56,2.38,2.84,2.38A21.93,21.93,0,0,0,363.75,611.73Z"/><path class="cls-24" d="M28.79,645.94c2.38-2.59,2.69-2.9,4.84-5.4,2.94-3.41,3.41-3.91,3.41-5.94v-.53c0-1.53-.62-2-2.91-2a25.22,25.22,0,0,0-4.9.63l-.53-3.19a20.51,20.51,0,0,1,5.65-.81c4.82,0,6.5,1.65,6.5,4.9v.72c0,2.88-.25,3.53-3.15,7.09-1.75,2.16-2.5,3-3.72,4.44h6.94v3.35H28.79Z"/><path class="cls-24" d="M57.7,643.94c0,3.13-1.66,5.6-6.75,5.6s-6.75-2.47-6.75-5.6v-9.62c0-3.13,1.65-5.59,6.75-5.59s6.75,2.46,6.75,5.59ZM48,643.57c0,1.81.53,2.62,2.94,2.62s2.93-.81,2.93-2.62v-8.88c0-1.81-.53-2.62-2.93-2.62s-2.94.81-2.94,2.62Z"/><path class="cls-24" d="M61.45,644.85h3.87v4.63l-2.44,4.09-1.75-1,1.75-3.37H61.45Z"/><path class="cls-24" d="M82.57,643.94c0,3.13-1.66,5.6-6.75,5.6s-6.75-2.47-6.75-5.6v-9.62c0-3.13,1.66-5.59,6.75-5.59s6.75,2.46,6.75,5.59Zm-9.69-.37c0,1.81.53,2.62,2.94,2.62s2.94-.81,2.94-2.62v-8.88c0-1.81-.53-2.62-2.94-2.62s-2.94.81-2.94,2.62Z"/><path class="cls-24" d="M99.51,643.94c0,3.13-1.66,5.6-6.75,5.6S86,647.07,86,643.94v-9.62c0-3.13,1.65-5.59,6.75-5.59s6.75,2.46,6.75,5.59Zm-9.69-.37c0,1.81.53,2.62,2.94,2.62s2.94-.81,2.94-2.62v-8.88c0-1.81-.54-2.62-2.94-2.62s-2.94.81-2.94,2.62Z"/><path class="cls-24" d="M116.45,643.94c0,3.13-1.66,5.6-6.75,5.6s-6.75-2.47-6.75-5.6v-9.62c0-3.13,1.65-5.59,6.75-5.59s6.75,2.46,6.75,5.59Zm-9.69-.37c0,1.81.53,2.62,2.94,2.62s2.93-.81,2.93-2.62v-8.88c0-1.81-.53-2.62-2.93-2.62s-2.94.81-2.94,2.62Z"/><path class="cls-24" d="M129.63,634v10.62c0,.81.35,1.22,1.22,1.22a10.51,10.51,0,0,0,4-1.28V634h3.81v15.22h-2.9l-.38-1.29a15.22,15.22,0,0,1-6.09,1.6c-2.53,0-3.44-1.78-3.44-4.5V634Z"/><path class="cls-24" d="M151.38,649.23V638.6c0-.81-.34-1.22-1.22-1.22a10.56,10.56,0,0,0-4,1.28v10.57h-3.81V634h2.91l.37,1.28a15.27,15.27,0,0,1,6.1-1.6c2.53,0,3.43,1.79,3.43,4.5v11Z"/><path class="cls-24" d="M158.79,631.85v-4.41h3.81v4.41Zm0,17.38V634h3.81v15.22Z"/><path class="cls-24" d="M174.44,648.94a10.36,10.36,0,0,1-3.34.6c-2.78,0-4.19-1.31-4.19-4V637h-2.28v-3h2.28v-3.78l3.82-.54V634h3.9l-.25,3h-3.65v8a1.2,1.2,0,0,0,1.37,1.34A7.29,7.29,0,0,0,174,646Z"/><path class="cls-24" d="M181.54,649.54a17.88,17.88,0,0,1-5.25-.88l.53-2.9a17.25,17.25,0,0,0,4.53.65c1.69,0,1.94-.37,1.94-1.53,0-.94-.19-1.4-2.66-2-3.72-.9-4.15-1.84-4.15-4.78s1.34-4.41,5.68-4.41a19.78,19.78,0,0,1,4.57.54l-.38,3a26.7,26.7,0,0,0-4.19-.44c-1.65,0-1.93.37-1.93,1.31,0,1.22.09,1.31,2.15,1.85,4.25,1.12,4.66,1.68,4.66,4.81C187,647.73,186.13,649.54,181.54,649.54Z"/><path class="cls-24" d="M205.1,649.23V638.6c0-.81-.34-1.22-1.22-1.22a10.51,10.51,0,0,0-4,1.28v10.57H196.1V627.79l3.81-.53v7.9a13.53,13.53,0,0,1,5.57-1.47c2.53,0,3.43,1.79,3.43,4.5v11Z"/><path class="cls-24" d="M220.38,649.23l-2,6.15h-3.62l1.9-6.15h-1.34L210.48,634h3.9l3.47,11.56,3.5-11.56h3.91Z"/><path class="cls-24" d="M238.1,649.23H235l-.29-1a8.28,8.28,0,0,1-4.53,1.35c-2.78,0-4-1.91-4-4.53,0-3.1,1.35-4.28,4.44-4.28h3.66v-1.6c0-1.69-.47-2.28-2.91-2.28a21.48,21.48,0,0,0-4.22.47l-.47-2.91a20.25,20.25,0,0,1,5.22-.72c4.78,0,6.19,1.69,6.19,5.5Zm-3.81-5.75h-2.81c-1.25,0-1.6.34-1.6,1.5s.35,1.53,1.53,1.53a6.08,6.08,0,0,0,2.88-.78Z"/><path class="cls-24" d="M241.54,649.23V627.79l3.81-.53v22Z"/><path class="cls-24" d="M252.76,634v10.62c0,.81.34,1.22,1.22,1.22a10.47,10.47,0,0,0,4-1.28V634h3.82v15.22h-2.91l-.37-1.29a15.27,15.27,0,0,1-6.1,1.6c-2.53,0-3.44-1.78-3.44-4.5V634Z"/><path class="cls-24" d="M273.35,637.19a30.43,30.43,0,0,0-4,2.22v9.82h-3.81V634h3.22l.25,1.68a17.14,17.14,0,0,1,4-2Z"/><path class="cls-24" d="M281.22,649.54c-5.21,0-6.62-2.88-6.62-6v-3.85c0-3.12,1.41-6,6.62-6s6.63,2.88,6.63,6v3.85C287.85,646.66,286.44,649.54,281.22,649.54Zm0-12.6c-2,0-2.81.91-2.81,2.63v4.09c0,1.72.78,2.63,2.81,2.63s2.82-.91,2.82-2.63v-4.09C284,637.85,283.26,636.94,281.22,636.94Z"/><path class="cls-24" d="M299.91,649.23V638.6c0-.81-.34-1.22-1.22-1.22a10.56,10.56,0,0,0-4,1.28v10.57h-3.81V634h2.91l.37,1.28a15.27,15.27,0,0,1,6.1-1.6c2.53,0,3.43,1.79,3.43,4.5v11Z"/><path class="cls-24" d="M307.32,631.85v-4.41h3.81v4.41Zm0,17.38V634h3.81v15.22Z"/><path class="cls-24" d="M314.26,639.07c0-3.38,1.5-5.38,5-5.38a21,21,0,0,1,4.06.44v-6.34l3.81-.53v22h-3l-.37-1.29a8,8,0,0,1-4.82,1.6c-3.06,0-4.68-1.81-4.68-5.28Zm9.09-1.72a16.81,16.81,0,0,0-3.38-.41c-1.37,0-1.9.66-1.9,2v5.37c0,1.25.47,1.94,1.87,1.94a5.4,5.4,0,0,0,3.41-1.38Z"/><path class="cls-24" d="M342.19,649.23h-3.12l-.28-1a8.31,8.31,0,0,1-4.53,1.35c-2.79,0-4-1.91-4-4.53,0-3.1,1.34-4.28,4.43-4.28h3.66v-1.6c0-1.69-.47-2.28-2.91-2.28a21.29,21.29,0,0,0-4.21.47l-.47-2.91a20.13,20.13,0,0,1,5.22-.72c4.78,0,6.18,1.69,6.18,5.5Zm-3.81-5.75h-2.81c-1.25,0-1.6.34-1.6,1.5s.35,1.53,1.54,1.53a6.07,6.07,0,0,0,2.87-.78Z"/><path class="cls-24" d="M350.35,649.54a17.93,17.93,0,0,1-5.25-.88l.53-2.9a17.25,17.25,0,0,0,4.53.65c1.69,0,1.94-.37,1.94-1.53,0-.94-.19-1.4-2.66-2-3.72-.9-4.15-1.84-4.15-4.78s1.34-4.41,5.68-4.41a19.78,19.78,0,0,1,4.57.54l-.38,3a26.58,26.58,0,0,0-4.19-.44c-1.65,0-1.93.37-1.93,1.31,0,1.22.09,1.31,2.15,1.85,4.25,1.12,4.66,1.68,4.66,4.81C355.85,647.73,354.94,649.54,350.35,649.54Z"/><path class="cls-24" d="M365.07,646.41a15.88,15.88,0,0,0,4.65-.72l.6,2.88a16.26,16.26,0,0,1-5.6,1c-4.78,0-6.43-2.22-6.43-5.88v-4c0-3.22,1.43-5.94,6.31-5.94s6,2.85,6,6.13v3.25H362.1v.78C362.1,645.69,362.75,646.41,365.07,646.41Zm-3-6.4h4.84v-.75c0-1.44-.44-2.44-2.31-2.44s-2.53,1-2.53,2.44Z"/><path class="cls-27" d="M300.36,43.21c-6.3-.57-8.7-4.43-8.7-8.21V23.71c0-4.1,2.85-8.28,10.48-8.28s10.48,4.18,10.48,8.28V35c0,3.17-1.7,6.38-6,7.68l2.15,5L303.24,50Zm6.17-19c0-2.11-1.34-3.41-4.39-3.41s-4.38,1.3-4.38,3.41V34.48c0,2.11,1.34,3.41,4.38,3.41s4.39-1.3,4.39-3.41Z"/><path class="cls-27" d="M323.92,37.77h8.33v5.11H315.84v-5c2.92-3,3.45-3.5,5.89-6.26,4-4.55,4.42-4.79,4.42-7.55v-.73c0-1.43-.93-1.91-3.21-1.91a32.34,32.34,0,0,0-6.7.77l-.77-4.92a32.92,32.92,0,0,1,7.76-1.05c6.25,0,8.77,2,8.77,6.38v1.05c0,3.86,0,4.59-3.73,9.06C326.32,35.09,325.1,36.51,323.92,37.77Z"/><path class="cls-27" d="M365,42.88h-7.76l-4.55-20.55-4.59,20.55h-7.76l-6.66-27.05h6l4.59,19.34L349,15.83h7.44l4.63,19.34,4.55-19.34h6Z"/><path class="cls-27" d="M301,299.05c-6.3-.57-8.7-4.43-8.7-8.21V279.55c0-4.1,2.85-8.28,10.48-8.28s10.48,4.18,10.48,8.28v11.29c0,3.17-1.7,6.38-6,7.68l2.15,5-5.52,2.31Zm6.17-19c0-2.11-1.34-3.41-4.39-3.41s-4.38,1.3-4.38,3.41v10.24c0,2.11,1.34,3.41,4.38,3.41s4.39-1.3,4.39-3.41Z"/><path class="cls-27" d="M322.58,283.09c2.6,0,3.33-.74,3.33-2.52V278.9c0-1.7-.73-2.07-3.29-2.07a30.85,30.85,0,0,0-5.61.57l-.61-4.59a31.09,31.09,0,0,1,6.75-.73c6.78,0,8.61,2,8.61,6.09v1.91a5.82,5.82,0,0,1-2.72,5.4,4.81,4.81,0,0,1,3.21,5v2.07c0,4-1.87,6.58-9.27,6.58a20.73,20.73,0,0,1-6.66-.89l.61-4.51a29.44,29.44,0,0,0,5.85.53c2.84,0,3.62-.57,3.62-2.16v-1.87c0-1.5-.94-2.15-3-2.15h-5.36v-5Z"/><path class="cls-27" d="M365,298.72h-7.76l-4.55-20.55-4.59,20.55h-7.76l-6.66-27.05h6L344.27,291,349,271.67h7.44L361.05,291l4.55-19.34h6Z"/><path class="cls-27" d="M298,554.89c-6.3-.57-8.69-4.43-8.69-8.21V535.39c0-4.1,2.84-8.28,10.48-8.28s10.48,4.18,10.48,8.28v11.29c0,3.17-1.71,6.38-6,7.68l2.16,5-5.53,2.31Zm6.17-19c0-2.11-1.34-3.41-4.38-3.41s-4.39,1.3-4.39,3.41v10.24c0,2.11,1.34,3.41,4.39,3.41s4.38-1.3,4.38-3.41Z"/><path class="cls-27" d="M329.77,549v5.56H324V549H312.06v-5.08l10-15.6h7.68v15.93h3.29V549ZM324,534.13l-6.22,10.12H324Z"/><path class="cls-27" d="M365,554.56h-7.76L352.68,534l-4.59,20.55h-7.76l-6.66-27h6l4.59,19.34L349,527.51h7.44l4.63,19.34,4.55-19.34h6Z"/></g></g></g></svg>