<?xml version="1.0" encoding="utf-8"?>
<!-- Generator: Adobe Illustrator 25.0.1, SVG Export Plug-In . SVG Version: 6.00 Build 0)  -->
<svg version="1.1" id="Layer_1" xmlns="http://www.w3.org/2000/svg" xmlns:xlink="http://www.w3.org/1999/xlink" x="0px" y="0px"
	 viewBox="0 0 303.3 170.3" style="enable-background:new 0 0 303.3 170.3;" xml:space="preserve">
<style type="text/css">
	.st0{clip-path:url(#SVGID_2_);}
	.st1{fill:#F26322;}
	.st2{fill:#008FB4;}
	.st3{fill:#004165;}
	.st4{fill:none;stroke:#F26322;stroke-width:1.41;stroke-miterlimit:10;}
</style>
<g id="Layer_2_1_">
	<g id="Text">
		<g>
			<defs>
				<rect id="SVGID_1_" x="83.1" y="0" width="229.2" height="87.7"/>
			</defs>
			<clipPath id="SVGID_2_">
				<use xlink:href="#SVGID_1_"  style="overflow:visible;"/>
			</clipPath>
			<g class="st0">
				<path class="st1" d="M375.9-50.4l-7.8,15.9c-0.4,0.8-1,1.3-1.8,1.7L92.3,78.8c-0.1,0-0.2,0.1-0.3,0.1h-5.7L375.4-51
					c0.2-0.1,0.4,0,0.5,0.2C376-50.7,376-50.6,375.9-50.4z"/>
				<path class="st2" d="M365.3-28.7l-2.3,4.7c-0.2,0.5-0.6,0.8-1.1,1L102.1,78.7c-0.2,0.1-0.3,0.1-0.5,0.1h-3.9l267.1-108
					c0.2-0.1,0.4,0,0.5,0.3C365.3-28.8,365.3-28.8,365.3-28.7z"/>
			</g>
		</g>
		<path class="st3" d="M104.4,146.7H89.9v-37.5h14.5c9.2,0,12.7,4.7,12.7,9.7v18C117.1,141.9,113.6,146.7,104.4,146.7z M108.6,121.2
			c0-2.9-1-4.6-5.2-4.6h-5.1v22.5h5.1c4.2,0,5.2-1.6,5.2-4.6L108.6,121.2z"/>
		<path class="st3" d="M150.3,135.7c0,5.7-3.9,11.5-14.5,11.5s-14.5-5.8-14.5-11.5v-15.6c0-5.7,3.9-11.5,14.5-11.5
			s14.5,5.8,14.5,11.5V135.7z M141.9,120.8c0-2.9-1.9-4.7-6.1-4.7s-6.1,1.8-6.1,4.7V135c0,2.9,1.9,4.7,6.1,4.7s6.1-1.8,6.1-4.7
			V120.8z"/>
		<path class="st3" d="M166.3,147.2c-4.2,0-8.3-0.8-12.1-2.4l1.4-6.5c3.5,1.2,7.1,1.8,10.8,1.8c4.3,0,5.2-0.8,5.2-4
			c0-3.4-0.2-3.8-6.3-5.1c-9.1-2-10.4-3.8-10.4-11.9c0-7.5,2.6-10.5,12.9-10.5c3.8,0,7.6,0.4,11.4,1.2l-0.8,7.1
			c-3.4-0.7-6.9-1-10.4-1.1c-3.8,0-4.6,0.7-4.6,3.4c0,3.6,0.2,3.6,6.1,5.1c10.1,2.4,10.6,4.4,10.6,11.8S177.6,147.2,166.3,147.2z"/>
		<path class="st3" d="M184.6,146.7v-37.5h23.6v7.5H193v6.9h14v7.5h-14v8.2h15.1v7.5L184.6,146.7z"/>
		<path class="st4" d="M25.5,169.6v-67.4l-15.9,8.6L0.9,94.1l26.6-15.3h18.3v90.8H25.5z"/>
	</g>
</g>
</svg>
