<svg xmlns="http://www.w3.org/2000/svg" xmlns:xlink="http://www.w3.org/1999/xlink" viewBox="0 0 1657.48 956.63"><defs><style>.cls-1{isolation:isolate;}.cls-2,.cls-3,.cls-4{opacity:0.8;}.cls-3,.cls-4{mix-blend-mode:multiply;}.cls-3{fill:url(#linear-gradient);}.cls-4{fill:url(#linear-gradient-2);}.cls-5{fill:url(#radial-gradient);}.cls-6{fill:url(#linear-gradient-3);}.cls-7{fill:url(#radial-gradient-2);}.cls-8{fill:#f7f7f7;}.cls-9{opacity:0.1;}.cls-10{fill:#0099c9;}.cls-11{fill:none;stroke:#f26322;stroke-miterlimit:10;stroke-width:1.51px;}.cls-12{fill:#004165;}</style><linearGradient id="linear-gradient" x1="1105.51" y1="1105.46" x2="245.53" y2="245.47" gradientUnits="userSpaceOnUse"><stop offset="0" stop-color="#00385d"/><stop offset="0.44" stop-color="#0090b7"/><stop offset="1" stop-color="#0090b7" stop-opacity="0"/></linearGradient><linearGradient id="linear-gradient-2" x1="1104.2" y1="1104.15" x2="713.27" y2="713.21" xlink:href="#linear-gradient"/><radialGradient id="radial-gradient" cx="207.72" cy="201.27" r="201.63" gradientUnits="userSpaceOnUse"><stop offset="0" stop-color="#ffe1cd"/><stop offset="0.12" stop-color="#ffd8c0"/><stop offset="0.33" stop-color="#ffc09d"/><stop offset="0.63" stop-color="#ff9a65"/><stop offset="0.98" stop-color="#ff6618"/><stop offset="1" stop-color="#ff6314"/></radialGradient><linearGradient id="linear-gradient-3" x1="706.68" y1="-30.23" x2="148.41" y2="828.89" gradientUnits="userSpaceOnUse"><stop offset="0" stop-color="#008fb6"/><stop offset="0.05" stop-color="#0083aa"/><stop offset="0.2" stop-color="#00688e"/><stop offset="0.35" stop-color="#005378"/><stop offset="0.52" stop-color="#004469"/><stop offset="0.71" stop-color="#003c60"/><stop offset="1" stop-color="#00395d"/></linearGradient><radialGradient id="radial-gradient-2" cx="621.35" cy="619.53" r="210.2" xlink:href="#radial-gradient"/></defs><g class="cls-1"><g id="Layer_2" data-name="Layer 2"><g id="Text"><g class="cls-2"><polygon class="cls-3" points="1657.48 955.19 1376.42 956.41 254.22 956.41 65.32 767.51 157.7 426.29 364.71 361.92 425.6 191.44 767.56 65.27 1657.48 955.19"/><polygon class="cls-4" points="1179.22 956.63 733.93 956.41 610.57 833.05 669.23 797.95 747.1 767.77 790.56 676.02 833.1 610.51 1179.22 956.63"/></g><path class="cls-5" d="M58.52,222.84H0C0,100,100,0,222.84,0V58.52C132.23,58.52,58.52,132.23,58.52,222.84Z"/><path class="cls-6" d="M767.56,65.27A221.36,221.36,0,0,0,610,0C487.12,0,387.15,100,387.15,222.84h0A164.31,164.31,0,0,1,222.84,387.15a222.84,222.84,0,0,0,0,445.67h0A222.85,222.85,0,0,0,445.68,610h0A164.31,164.31,0,0,1,610,445.67h0V387.15h0A222.83,222.83,0,0,0,387.15,610h0A164.31,164.31,0,0,1,222.85,774.3h0a164.32,164.32,0,1,1,0-328.63h0A222.83,222.83,0,0,0,445.68,222.84c0-90.61,73.71-164.32,164.31-164.32a164.32,164.32,0,0,1,0,328.63v58.52h0A222.83,222.83,0,0,0,767.56,65.27Z"/><path class="cls-7" d="M610,832.82V774.3c90.61,0,164.32-73.71,164.32-164.32h58.52C832.83,732.85,732.86,832.82,610,832.82Z"/><path class="cls-8" d="M774.92,610A164.93,164.93,0,1,1,610,445.06,164.93,164.93,0,0,1,774.92,610Z"/><path class="cls-8" d="M774.92,222.84A164.93,164.93,0,1,1,610,57.91,164.92,164.92,0,0,1,774.92,222.84Z"/><circle class="cls-8" cx="222.84" cy="609.98" r="164.93" transform="translate(-78.61 34.78) rotate(-7.59)"/><circle class="cls-8" cx="222.84" cy="222.84" r="164.93"/><g class="cls-9"><path class="cls-10" d="M608.8,290.38h70.06v43.06H540.79v-42c24.61-25.29,29.05-29.39,49.55-52.63,33.5-38.27,37.26-40.32,37.26-63.56v-6.15c0-12-7.86-16.07-27-16.07-16.41,0-41.7,2.74-56.39,6.5l-6.5-41.35c21.19-5.47,45.46-8.89,65.28-8.89,52.63,0,73.82,16.4,73.82,53.65v8.89c0,32.47-.34,38.62-31.44,76.21C629,267.82,618.71,279.78,608.8,290.38Z"/></g><path class="cls-11" d="M609.6,214.44h23.19V228.7H587.08V214.78c8.15-8.37,9.62-9.73,16.41-17.43,11.09-12.67,12.33-13.35,12.33-21v-2c0-4-2.6-5.32-8.94-5.32a91.07,91.07,0,0,0-18.67,2.15l-2.15-13.69a91.84,91.84,0,0,1,21.61-2.94c17.43,0,24.45,5.43,24.45,17.76v2.94c0,10.75-.12,12.79-10.41,25.24C616.27,207,612.88,210.93,609.6,214.44Z"/><path class="cls-12" d="M496.67,246.93h9.8c5.81,0,8,2.37,8,6.79v3.43c0,4.38-2.34,6.75-8.18,6.75h-4.83v8.15h-4.75Zm9.54,4.19h-4.79v8.6h4.79c2.68,0,3.47-1,3.47-3.06V254.1C509.68,252,508.81,251.12,506.21,251.12Z"/><path class="cls-12" d="M532.5,272.05l-5.77-8.3H522.2v8.3h-4.75V246.93h10.3c5.84,0,8,2.37,8,6.79V257c0,3-1.13,5.13-3.77,6.07l6.23,9Zm-4.94-20.93H522.2v8.52h5.36c2.6,0,3.43-.94,3.43-3.06V254.1C531,252,530.08,251.12,527.56,251.12Z"/><path class="cls-12" d="M541,246.93h15.39v4.19H545.78v6.07h9.8v4.19h-9.8v6.48h10.63v4.19H541Z"/><path class="cls-12" d="M560.37,246.93h9.81c5.81,0,8,2.37,8,6.79v3.43c0,4.38-2.34,6.75-8.19,6.75h-4.82v8.15h-4.76Zm9.55,4.19h-4.79v8.6h4.79c2.67,0,3.47-1,3.47-3.06V254.1C573.39,252,572.52,251.12,569.92,251.12Z"/><path class="cls-12" d="M595.15,266.84h-9.32l-1.58,5.21h-5l7.92-25.12h6.64l7.92,25.12h-5ZM587,262.73h6.94l-3.43-11.88Z"/><path class="cls-12" d="M619.63,272.05l-5.77-8.3h-4.53v8.3h-4.75V246.93h10.3c5.84,0,8,2.37,8,6.79V257c0,3-1.13,5.13-3.77,6.07l6.23,9Zm-4.94-20.93h-5.36v8.52h5.36c2.6,0,3.43-.94,3.43-3.06V254.1C618.12,252,617.22,251.12,614.69,251.12Z"/><path class="cls-12" d="M642.15,266.84h-9.32l-1.58,5.21h-5l7.92-25.12h6.64l7.92,25.12h-5ZM634,262.73h6.94l-3.43-11.88Z"/><path class="cls-12" d="M656.71,251.12h-7v-4.19h18.78v4.19h-7v20.93h-4.75Z"/><path class="cls-12" d="M676.24,272.05h-4.75V246.93h4.75Z"/><path class="cls-12" d="M699.59,264.69c0,4.19-2.41,7.74-9.5,7.74s-9.51-3.55-9.51-7.74V254.28c0-4.18,2.42-7.73,9.51-7.73s9.5,3.55,9.5,7.73Zm-14.26-.26c0,2.38,1.21,3.81,4.76,3.81s4.75-1.43,4.75-3.81v-9.88c0-2.38-1.21-3.81-4.75-3.81s-4.76,1.43-4.76,3.81Z"/><path class="cls-12" d="M708.38,253v19.05h-4.64V246.93h6.34L719.62,266V246.93h4.64v25.12h-6.34Z"/><g class="cls-9"><path class="cls-10" d="M216.18,333.44V169.74l-38.62,20.85-21.19-40.67L221,112.67h44.43V333.44Z"/></g><path class="cls-11" d="M220.64,228.7V174.5l-12.79,6.9-7-13.47,21.39-12.33h14.71v73.1Z"/><path class="cls-12" d="M193.42,246.93c6.19,0,8.34,3.13,8.34,6.75V265.3c0,3.58-2.15,6.75-8.34,6.75h-9.35V246.93Zm-4.6,20.93h4.11c3.21,0,4.07-1.28,4.07-3.69v-9.36c0-2.41-.86-3.69-4.07-3.69h-4.11Z"/><path class="cls-12" d="M224.35,264.69c0,4.19-2.41,7.74-9.5,7.74s-9.51-3.55-9.51-7.74V254.28c0-4.18,2.41-7.73,9.51-7.73s9.5,3.55,9.5,7.73Zm-14.26-.26c0,2.38,1.21,3.81,4.76,3.81s4.75-1.43,4.75-3.81v-9.88c0-2.38-1.21-3.81-4.75-3.81s-4.76,1.43-4.76,3.81Z"/><path class="cls-12" d="M235.33,272.43a21.2,21.2,0,0,1-7.85-1.51l.83-3.74a23.56,23.56,0,0,0,7.09,1.17c3.43,0,4-.71,4-3.13,0-2.79-.07-3-4.6-4-6.07-1.35-6.9-2.52-6.9-7.84,0-4.57,2.07-6.83,8.44-6.83a34.67,34.67,0,0,1,7.32.83l-.53,4a33.08,33.08,0,0,0-6.71-.75c-3.21,0-3.77.67-3.77,2.86,0,2.87.07,2.94,4.41,4,6.75,1.62,7.09,2.72,7.09,7.73C244.15,270,242.76,272.43,235.33,272.43Z"/><path class="cls-12" d="M247.92,246.93h15.39v4.19H252.68v6.07h9.8v4.19h-9.8v6.48h10.63v4.19H247.92Z"/><g class="cls-9"><path class="cls-10" d="M668.09,673.77v46.82H619.56V673.77H519.09V631.05L603.5,499.81h64.59v134h27.68v40ZM619.56,548.69l-52.28,85.09h52.28Z"/></g><path class="cls-11" d="M629.23,600.34v15.51H613.16V600.34H579.89V586.2l28-43.45h21.39V587.1h9.17v13.24Zm-16.07-41.41L595.85,587.1h17.31Z"/><path class="cls-12" d="M545.06,659.57a21.22,21.22,0,0,1-7.85-1.5l.83-3.74a23.63,23.63,0,0,0,7.1,1.17c3.43,0,4-.72,4-3.13,0-2.79-.07-3-4.6-4-6.07-1.36-6.9-2.53-6.9-7.84,0-4.57,2.07-6.83,8.45-6.83a34,34,0,0,1,7.32.83l-.53,4a32.56,32.56,0,0,0-6.72-.76c-3.2,0-3.77.68-3.77,2.87,0,2.87.08,2.94,4.41,4,6.76,1.62,7.1,2.71,7.1,7.73C553.89,657.12,552.49,659.57,545.06,659.57Z"/><path class="cls-12" d="M562.79,638.26h-7v-4.18h18.79v4.18h-7V659.2h-4.75Z"/><path class="cls-12" d="M595.83,651.84c0,4.19-2.42,7.73-9.51,7.73s-9.5-3.54-9.5-7.73V641.43c0-4.19,2.41-7.73,9.5-7.73s9.51,3.54,9.51,7.73Zm-14.26-.26c0,2.37,1.21,3.81,4.75,3.81s4.76-1.44,4.76-3.81V641.7c0-2.38-1.21-3.81-4.76-3.81s-4.75,1.43-4.75,3.81Z"/><path class="cls-12" d="M615,659.2l-5.77-8.3h-4.53v8.3H600V634.08h10.29c5.85,0,8,2.37,8,6.79v3.28c0,3-1.13,5.13-3.77,6.07l6.22,9Zm-4.94-20.94h-5.36v8.53h5.36c2.6,0,3.43-.95,3.43-3.06v-2.49C613.52,639.13,612.61,638.26,610.09,638.26Z"/><path class="cls-12" d="M637.55,654h-9.32l-1.59,5.21h-5l7.93-25.12h6.64l7.92,25.12h-5Zm-8.15-4.11h6.94L632.91,638Z"/><path class="cls-12" d="M651.16,651.43c0,2.45,1.06,3.88,4.38,3.88a26.68,26.68,0,0,0,3.88-.3v-7.62h4.49v11.05a32,32,0,0,1-8.41,1.13c-6.15,0-9.09-2.6-9.09-7.58V641.28c0-5.17,3-7.58,9.54-7.58a30.37,30.37,0,0,1,7.21.83l-.53,4.15a33.39,33.39,0,0,0-7-.68c-3.33,0-4.42,1.36-4.42,3.92Z"/><path class="cls-12" d="M668.06,634.08h15.39v4.18H672.81v6.08h9.81v4.18h-9.81V655h10.64v4.19H668.06Z"/><g class="cls-9"><path class="cls-10" d="M207.64,589c21.87,0,28-6.15,28-21.19v-14c0-14.35-6.15-17.43-27.68-17.43-15,0-30.08,1.71-47.16,4.79l-5.13-38.62a262.35,262.35,0,0,1,56.73-6.15c57.07,0,72.45,17.09,72.45,51.26v16.06c0,20.17-6.83,35.54-22.9,45.46,19.14,8.54,27,20.5,27,42v17.43c0,33.49-15.72,55.36-77.92,55.36-20.84,0-38.27-1.71-56-7.51l5.12-37.94A243.59,243.59,0,0,0,209.34,683c23.93,0,30.42-4.78,30.42-18.11V649.16c0-12.64-7.86-18.11-24.95-18.11H169.7V589Z"/></g><path class="cls-11" d="M217.81,572.28c7.24,0,9.28-2,9.28-7v-4.64c0-4.75-2-5.77-9.17-5.77a86.93,86.93,0,0,0-15.62,1.59l-1.69-12.79a86.65,86.65,0,0,1,18.78-2c18.9,0,24,5.66,24,17v5.32c0,6.67-2.26,11.76-7.58,15.05,6.34,2.83,8.94,6.79,8.94,13.92v5.77c0,11.09-5.21,18.33-25.8,18.33-6.9,0-12.68-.57-18.56-2.49l1.7-12.56a80.58,80.58,0,0,0,16.29,1.47c7.92,0,10.07-1.59,10.07-6v-5.2c0-4.19-2.6-6-8.26-6H205.25V572.28Z"/><path class="cls-12" d="M99.11,654H89.79l-1.58,5.21h-5l7.92-25.12h6.64l7.92,25.12h-5ZM91,649.88H97.9L94.47,638Z"/><path class="cls-12" d="M117.7,634.08c6.19,0,8.34,3.13,8.34,6.75v11.62c0,3.58-2.15,6.75-8.34,6.75h-9.35V634.08ZM113.1,655h4.11c3.21,0,4.08-1.28,4.08-3.7V642c0-2.41-.87-3.7-4.08-3.7H113.1Z"/><path class="cls-12" d="M145.58,656h-6l-4.64-13-.41,16.26h-4.87l1.13-25.12h5.32l6.49,17.84,6.49-17.84h5.32l1.13,25.12h-4.87l-.41-16.26Z"/><path class="cls-12" d="M164.59,659.2h-4.76V634.08h4.76Z"/><path class="cls-12" d="M173.94,640.15V659.2H169.3V634.08h6.34l9.54,19.08V634.08h4.64V659.2h-6.34Z"/><path class="cls-12" d="M199.29,659.2h-4.76V634.08h4.76Z"/><path class="cls-12" d="M210.83,659.57a21.22,21.22,0,0,1-7.85-1.5l.83-3.74a23.56,23.56,0,0,0,7.09,1.17c3.44,0,4-.72,4-3.13,0-2.79-.07-3-4.6-4-6.07-1.36-6.9-2.53-6.9-7.84,0-4.57,2.07-6.83,8.45-6.83a34,34,0,0,1,7.31.83l-.52,4a32.56,32.56,0,0,0-6.72-.76c-3.2,0-3.77.68-3.77,2.87,0,2.87.08,2.94,4.41,4,6.76,1.62,7.1,2.71,7.1,7.73C219.66,657.12,218.26,659.57,210.83,659.57Z"/><path class="cls-12" d="M228.37,638.26h-7v-4.18h18.79v4.18h-7V659.2h-4.75Z"/><path class="cls-12" d="M257.83,659.2l-5.78-8.3h-4.52v8.3h-4.75V634.08h10.29c5.85,0,8,2.37,8,6.79v3.28c0,3-1.13,5.13-3.77,6.07l6.22,9Zm-4.95-20.94h-5.35v8.53h5.35c2.61,0,3.44-.95,3.44-3.06v-2.49C256.32,639.13,255.41,638.26,252.88,638.26Z"/><path class="cls-12" d="M280.16,654h-9.32l-1.59,5.21h-5l7.93-25.12h6.63l7.93,25.12h-5ZM272,649.88H279L275.52,638Z"/><path class="cls-12" d="M294.53,638.26h-7v-4.18h18.78v4.18h-7V659.2h-4.75Z"/><path class="cls-12" d="M313.88,659.2h-4.76V634.08h4.76Z"/><path class="cls-12" d="M337,651.84c0,4.19-2.41,7.73-9.5,7.73S318,656,318,651.84V641.43c0-4.19,2.42-7.73,9.51-7.73s9.5,3.54,9.5,7.73Zm-14.25-.26c0,2.37,1.2,3.81,4.75,3.81s4.75-1.44,4.75-3.81V641.7c0-2.38-1.2-3.81-4.75-3.81s-4.75,1.43-4.75,3.81Z"/><path class="cls-12" d="M345.63,640.15V659.2H341V634.08h6.33l9.54,19.08V634.08h4.64V659.2h-6.33Z"/></g></g></g></svg>