<svg xmlns="http://www.w3.org/2000/svg" xmlns:xlink="http://www.w3.org/1999/xlink" viewBox="0 0 56.25 56.25"><defs><style>.cls-1{isolation:isolate;}.cls-2,.cls-6{fill:#fff;}.cls-2{mix-blend-mode:hard-light;}.cls-3{fill:#e6e6e6;}.cls-4{fill:url(#linear-gradient);}.cls-5{mix-blend-mode:multiply;fill:url(#radial-gradient);}</style><linearGradient id="linear-gradient" x1="28.13" y1="57.58" x2="28.13" y2="-1.8" gradientUnits="userSpaceOnUse"><stop offset="0" stop-color="#fff"/><stop offset="1" stop-color="#c4c3c3"/></linearGradient><radialGradient id="radial-gradient" cx="12.03" cy="-0.77" r="58.91" gradientUnits="userSpaceOnUse"><stop offset="0" stop-color="#ffe1cd"/><stop offset="0.07" stop-color="#ffc2a0"/><stop offset="0.15" stop-color="#ffa778"/><stop offset="0.22" stop-color="#ff9057"/><stop offset="0.3" stop-color="#ff7e3d"/><stop offset="0.38" stop-color="#ff722a"/><stop offset="0.47" stop-color="#ff6a20"/><stop offset="0.56" stop-color="#ff681c"/><stop offset="0.66" stop-color="#ff6416"/><stop offset="0.95" stop-color="#ff6314"/></radialGradient></defs><g class="cls-1"><g id="Layer_2" data-name="Layer 2"><g id="Buttons"><path class="cls-2" d="M28.13,56.25A28.13,28.13,0,1,1,56.25,28.12,28.16,28.16,0,0,1,28.13,56.25Z"/><path class="cls-3" d="M28.13,56.25A28.13,28.13,0,1,1,56.25,28.12,28.16,28.16,0,0,1,28.13,56.25Zm0-47.19A19.07,19.07,0,1,0,47.19,28.12,19.08,19.08,0,0,0,28.13,9.06Z"/><path class="cls-4" d="M28.13,51.47A23.35,23.35,0,1,1,51.47,28.12,23.37,23.37,0,0,1,28.13,51.47ZM28.13,6A22.13,22.13,0,1,0,50.25,28.12,22.16,22.16,0,0,0,28.13,6Z"/><path class="cls-3" d="M50.86,28.12A22.74,22.74,0,1,1,28.13,5.39,22.74,22.74,0,0,1,50.86,28.12Z"/><path class="cls-5" d="M28.13,56.25A28.13,28.13,0,1,1,56.25,28.12,28.16,28.16,0,0,1,28.13,56.25Z"/><path class="cls-6" d="M30.77,22.56,28.29,20.8a.25.25,0,0,0-.34,0l-3.24,2.29c-2,1.39-3.93,2.78-5.91,4.16a.68.68,0,0,0-.34.66c0,3,0,6,0,8.94,0,.31,0,.63,0,.94a1,1,0,0,0,1,1h5V30.05c0-.1,0-.13.13-.13h7v8.85h5.14a.93.93,0,0,0,.9-.77,2.56,2.56,0,0,0,0-.39c0-3.31,0-6.62,0-9.93a.36.36,0,0,0-.18-.34Z"/><path class="cls-6" d="M40.26,24.28l-3.59-2.53L29,16.33a1.47,1.47,0,0,0-1.71,0L22.07,20l-6.13,4.32a1.45,1.45,0,0,0-.64,1.22,1.41,1.41,0,0,0,.83,1.32,1.48,1.48,0,0,0,1.6-.18l3.87-2.73,4.88-3.44L28,19.42a.18.18,0,0,1,.22,0l.84.6,6.3,4.44,3.16,2.23A1.49,1.49,0,0,0,41,25.51,1.54,1.54,0,0,0,40.26,24.28Z"/></g></g></g></svg>