<svg xmlns="http://www.w3.org/2000/svg" xmlns:xlink="http://www.w3.org/1999/xlink" viewBox="0 0 56.25 56.25"><defs><style>.cls-1{isolation:isolate;}.cls-2,.cls-6{fill:#fff;}.cls-2{mix-blend-mode:hard-light;}.cls-3{fill:#e6e6e6;}.cls-4{fill:url(#linear-gradient);}.cls-5{mix-blend-mode:multiply;fill:url(#radial-gradient);}</style><linearGradient id="linear-gradient" x1="28.13" y1="57.58" x2="28.13" y2="-1.8" gradientUnits="userSpaceOnUse"><stop offset="0" stop-color="#fff"/><stop offset="1" stop-color="#c4c3c3"/></linearGradient><radialGradient id="radial-gradient" cx="12.03" cy="-0.77" r="58.91" gradientUnits="userSpaceOnUse"><stop offset="0" stop-color="#ffe1cd"/><stop offset="0.07" stop-color="#ffc2a0"/><stop offset="0.15" stop-color="#ffa778"/><stop offset="0.22" stop-color="#ff9057"/><stop offset="0.3" stop-color="#ff7e3d"/><stop offset="0.38" stop-color="#ff722a"/><stop offset="0.47" stop-color="#ff6a20"/><stop offset="0.56" stop-color="#ff681c"/><stop offset="0.66" stop-color="#ff6416"/><stop offset="0.95" stop-color="#ff6314"/></radialGradient></defs><g class="cls-1"><g id="Layer_2" data-name="Layer 2"><g id="Buttons"><path class="cls-2" d="M28.13,56.25A28.13,28.13,0,1,1,56.25,28.12,28.16,28.16,0,0,1,28.13,56.25Z"/><path class="cls-3" d="M28.13,56.25A28.13,28.13,0,1,1,56.25,28.12,28.16,28.16,0,0,1,28.13,56.25Zm0-47.19A19.07,19.07,0,1,0,47.19,28.12,19.08,19.08,0,0,0,28.13,9.06Z"/><path class="cls-4" d="M28.13,51.47A23.35,23.35,0,1,1,51.47,28.12,23.37,23.37,0,0,1,28.13,51.47ZM28.13,6A22.13,22.13,0,1,0,50.25,28.12,22.16,22.16,0,0,0,28.13,6Z"/><path class="cls-3" d="M50.86,28.12A22.74,22.74,0,1,1,28.13,5.39,22.74,22.74,0,0,1,50.86,28.12Z"/><path class="cls-5" d="M28.13,56.25A28.13,28.13,0,1,1,56.25,28.12,28.16,28.16,0,0,1,28.13,56.25Z"/><path class="cls-6" d="M25.91,20.59V15.47h4.43v5.12Zm0,20.19V23.1h4.43V40.78Z"/></g></g></g></svg>