<svg xmlns="http://www.w3.org/2000/svg" viewBox="0 0 732.7 147.41"><defs><style>.cls-1{fill:#fff;}.cls-2{fill:#ec6526;}</style></defs><g id="Layer_2" data-name="Layer 2"><g id="Text"><path class="cls-1" d="M13.86,146.31H0V73.05H13.86Z"/><path class="cls-1" d="M42.57,85.26H22.11V73.05H76.89V85.26H56.43v61.05H42.57Z"/><path class="cls-1" d="M82.94,98V70.85h9.57V98Z"/><path class="cls-1" d="M124,147.41c-8.36,0-18-2.09-22.88-4.4l2.42-10.89a69,69,0,0,0,20.68,3.41c10,0,11.66-2.09,11.66-9.13,0-8.14-.22-8.8-13.42-11.66-17.71-4-20.13-7.37-20.13-22.88,0-13.31,6-19.91,24.64-19.91a100,100,0,0,1,21.34,2.42L146.74,86a96.2,96.2,0,0,0-19.58-2.2c-9.35,0-11,2-11,8.36,0,8.36.22,8.58,12.87,11.66,19.69,4.73,20.68,7.92,20.68,22.55C149.71,140.26,145.64,147.41,124,147.41Z"/><path class="cls-1" d="M220.76,131.13H193.59L189,146.31H174.46l23.09-73.26h19.37L240,146.31H225.5Zm-23.76-12h20.25l-10-34.65Z"/><path class="cls-1" d="M247.71,146.31V73.05h28.83c13.85,0,19.46,5.72,19.46,15.62v7.59c0,6-2.53,9.46-8.13,11.88,6.71,1.43,10.67,6.38,10.67,13.53v7.81c0,10.34-6.71,16.83-20,16.83Zm34.43-55.88c0-4.07-2.19-5.94-7.26-5.94h-13.3v19.25h13.19c5.4,0,7.37-2.53,7.37-6.82Zm2.53,31.79c0-5-2.2-7.37-7.7-7.37H261.58v20h14.18c6.28,0,8.91-1.76,8.91-7.15Z"/><path class="cls-1" d="M361.67,124.86c0,12.21-7,22.55-27.72,22.55s-27.72-10.34-27.72-22.55V94.5c0-12.21,7-22.55,27.72-22.55s27.72,10.34,27.72,22.55Zm-41.58-.77c0,6.93,3.52,11.11,13.86,11.11s13.86-4.18,13.86-11.11V95.27c0-6.93-3.52-11.11-13.86-11.11s-13.86,4.18-13.86,11.11Z"/><path class="cls-1" d="M426.79,73.05v52c0,11.55-6.49,22.33-27.06,22.33s-27.06-10.78-27.06-22.33v-52h13.86V124c0,7.15,3.41,11.22,13.2,11.22s13.2-4.07,13.2-11.22V73.05Z"/><path class="cls-1" d="M454.4,85.26H433.94V73.05h54.78V85.26H468.26v61.05H454.4Z"/><path class="cls-1" d="M531.18,85.26H510.72V73.05H565.5V85.26H545v61.05H531.18Z"/><path class="cls-1" d="M587.61,146.31H573.75V73.05h13.86Z"/><path class="cls-1" d="M646.79,136.85h-17.6L615.66,98.9l-1.21,47.41H600.26l3.3-73.26h15.51l18.92,52,18.92-52h15.51l3.3,73.26H661.53L660.32,98.9Z"/><path class="cls-1" d="M687.82,73.05H732.7V85.26h-31V103h28.6v12.21h-28.6V134.1h31v12.21H687.82Z"/><path class="cls-2" d="M204.3,8.55V33.8h-6.15V.5h8.4L219.2,25.8V.5h6.15V33.8H217Z"/><path class="cls-2" d="M254.9,24.05c0,5.55-3.2,10.25-12.6,10.25s-12.6-4.7-12.6-10.25V10.25C229.7,4.7,232.9,0,242.3,0s12.6,4.7,12.6,10.25ZM236,23.7c0,3.15,1.6,5.05,6.3,5.05s6.3-1.9,6.3-5.05V10.6c0-3.15-1.6-5-6.3-5S236,7.45,236,10.6Z"/><path class="cls-2" d="M289.35,26.3,295.7.5H302L293.7,33.8h-8.5L279.1,7,273,33.8h-8.5L256.25.5h6.25l6.35,25.8,6-25.8h8.4Z"/><path class="cls-2" d="M330.7,26.9H318.35l-2.1,6.9h-6.6L320.15.5H329l10.5,33.3h-6.6Zm-10.8-5.45h9.2L324.55,5.7Z"/><path class="cls-2" d="M342.05.5h13c7.7,0,10.55,3.15,10.55,9v4.55c0,5.8-3.1,9-10.85,9h-6.4V33.8h-6.3ZM354.7,6.05h-6.35v11.4h6.35c3.55,0,4.6-1.3,4.6-4V10C359.3,7.25,358.15,6.05,354.7,6.05Z"/><path class="cls-2" d="M368.45.5h13c7.7,0,10.55,3.15,10.55,9v4.55c0,5.8-3.1,9-10.85,9h-6.4V33.8h-6.3ZM381.1,6.05h-6.35v11.4h6.35c3.55,0,4.6-1.3,4.6-4V10C385.7,7.25,384.55,6.05,381.1,6.05Z"/><path class="cls-2" d="M414.8,33.8l-7.65-11h-6v11h-6.3V.5H408.5c7.75,0,10.6,3.15,10.6,9v4.35c0,4-1.5,6.8-5,8l8.25,11.9ZM408.25,6.05h-7.1v11.3h7.1c3.45,0,4.55-1.25,4.55-4.05V10C412.8,7.2,411.6,6.05,408.25,6.05Z"/><path class="cls-2" d="M449.35,24.05c0,5.55-3.2,10.25-12.6,10.25s-12.6-4.7-12.6-10.25V10.25c0-5.55,3.2-10.25,12.6-10.25s12.6,4.7,12.6,10.25Zm-18.9-.35c0,3.15,1.6,5.05,6.3,5.05s6.3-1.9,6.3-5.05V10.6c0-3.15-1.6-5-6.3-5s-6.3,1.9-6.3,5.05Z"/><path class="cls-2" d="M473,.5h6.55L469.6,33.8h-9.3L450.35.5h6.55L465,28.25Z"/><path class="cls-2" d="M481.3.5h20.4V6.05H487.6V14.1h13v5.55h-13v8.6h14.1V33.8H481.3Z"/><path class="cls-2" d="M518.2.5c8.2,0,11,4.15,11,9v15.4c0,4.75-2.85,8.95-11,8.95H505.8V.5Zm-6.1,27.75h5.45c4.25,0,5.4-1.7,5.4-4.9V11c0-3.2-1.15-4.9-5.4-4.9H512.1Z"/></g></g></svg>