<svg xmlns="http://www.w3.org/2000/svg" viewBox="0 0 631.56 273.87"><defs><style>.cls-1{isolation:isolate;}.cls-2{fill:#064165;}.cls-3{fill:#80807f;}.cls-4{fill:#bdbdbf;}.cls-14,.cls-4,.cls-7{mix-blend-mode:multiply;}.cls-5{fill:#aeadad;}.cls-6{fill:#ed6525;}.cls-14,.cls-8{fill:#e5e6e6;}.cls-12,.cls-9{fill:none;}.cls-9{stroke:#434243;stroke-linecap:round;stroke-miterlimit:10;stroke-width:4.93px;}.cls-10{fill:#093d5f;}.cls-11{fill:#bbdfe8;}.cls-13{fill:#048db2;}.cls-15{fill:#083e60;}</style></defs><g class="cls-1"><g id="Layer_2" data-name="Layer 2"><g id="Text"><path class="cls-2" d="M314.74,132.08h2.57L306.9,161.59h-3.55l-10.41-29.51h2.57l9.61,27.17Z"/><path class="cls-2" d="M327.05,162a24.94,24.94,0,0,1-8.33-1.42l.49-2.13a27.71,27.71,0,0,0,7.93,1.2c5.05,0,6.43-1.51,6.43-5.27,0-4.57-.05-5.06-6.6-6.56-7.14-1.64-7.94-2.93-7.94-8.86,0-4.84,1.78-7.36,9.18-7.36a30.34,30.34,0,0,1,7.62,1l-.31,2.21a35.92,35.92,0,0,0-7.22-.88c-5.85,0-6.65,1.42-6.65,5.09,0,4.79.13,5,6.34,6.56,7.75,2,8.19,3.06,8.19,8.64C336.18,159.11,334.54,162,327.05,162Z"/><rect class="cls-3" x="404.49" y="24.08" width="21.06" height="19.38" transform="translate(68.81 265.11) rotate(-38.4)"/><rect class="cls-4" x="417.91" y="19.4" width="6" height="19.38" transform="translate(72.99 267.77) rotate(-38.4)"/><path class="cls-5" d="M494,136.94V268.16h0c72,0,131.23-59.24,131.23-131.22S566,5.71,494,5.71Z"/><path class="cls-6" d="M494.62,261.21A124.28,124.28,0,1,0,370.35,136.94,124.28,124.28,0,0,0,494.62,261.21m0-237.89A113.62,113.62,0,1,1,381,136.93,113.61,113.61,0,0,1,494.62,23.32"/><g class="cls-7"><path class="cls-8" d="M594.79,144.1A107.84,107.84,0,0,0,417.57,61.54a107.85,107.85,0,1,1,152,152,107.46,107.46,0,0,0,25.27-69.39"/></g><line class="cls-9" x1="405.68" y1="82.71" x2="417.86" y2="89.4"/><line class="cls-9" x1="407.24" y1="194.58" x2="419.42" y2="187.89"/><line class="cls-9" x1="441.05" y1="45.13" x2="447.71" y2="57.33"/><line class="cls-9" x1="449.64" y1="229.32" x2="456.3" y2="217.12"/><line class="cls-9" x1="389.47" y1="134.91" x2="403.37" y2="135.08"/><line class="cls-9" x1="494.61" y1="39.15" x2="494.78" y2="25.26"/><line class="cls-9" x1="596.07" y1="134.91" x2="582.17" y2="135.08"/><path class="cls-10" d="M514.51,113.73c4.58,0,5.87-1.17,5.87-4V107c0-2.73-1.29-3.31-5.79-3.31a59.68,59.68,0,0,0-9.87.91l-1.07-7.35a60.08,60.08,0,0,1,11.86-1.17c12,0,15.16,3.25,15.16,9.75v3.06c0,3.84-1.43,6.76-4.79,8.65,4,1.62,5.65,3.9,5.65,8v3.32c0,6.37-3.29,10.53-16.3,10.53A40,40,0,0,1,503.5,138l1.07-7.22a55.6,55.6,0,0,0,10.3.85c5,0,6.37-.91,6.37-3.45v-3c0-2.4-1.65-3.44-5.22-3.44h-9.44v-8Z"/><path class="cls-10" d="M568.5,127.9c0,6.5-3.72,11.51-15.8,11.51s-15.8-5-15.8-11.51V107.62c0-6.5,3.72-11.51,15.8-11.51s15.8,5,15.8,11.51Zm-21.31-1.3c0,3.25,1,4.62,5.51,4.62s5.51-1.37,5.51-4.62V108.92c0-3.25-1-4.62-5.51-4.62s-5.51,1.37-5.51,4.62Z"/><path class="cls-10" d="M517,166V157.3c0-.75-.41-1.06-1.21-1.06a12,12,0,0,0-4.2,1.15V166h-2.16V157.3c0-.75-.41-1.06-1.21-1.06a12.63,12.63,0,0,0-4.2,1.15V166H501.9v-11.4h1.75l.2,1a14.71,14.71,0,0,1,5-1.22,2.36,2.36,0,0,1,2.4,1.22,14.36,14.36,0,0,1,5.17-1.22c2,0,2.73,1.15,2.73,2.9V166Z"/><path class="cls-10" d="M522.42,152.78V150h2.16v2.83Zm0,13.23v-11.4h2.16V166Z"/><path class="cls-10" d="M535.5,166V157.3c0-.75-.41-1.06-1.21-1.06a12.63,12.63,0,0,0-4.2,1.15V166h-2.16v-11.4h1.75l.21,1a14.66,14.66,0,0,1,5-1.22c2,0,2.74,1.15,2.74,2.9V166Z"/><path class="cls-10" d="M542.92,154.61v8.7c0,.75.41,1.06,1.21,1.06a12.7,12.7,0,0,0,4.2-1.15v-8.61h2.16V166h-1.75l-.21-1a14.66,14.66,0,0,1-5,1.22c-2,0-2.73-1.15-2.73-2.9v-8.73Z"/><path class="cls-10" d="M560.38,165.82a8.48,8.48,0,0,1-2.63.42c-2.11,0-3.12-.7-3.12-2.6v-7.4h-2.21v-1.63h2.21V151.8l2.17-.28v3.09h3.55l-.18,1.63H556.8v7.07c0,.85.12,1.27,1.28,1.27a9.08,9.08,0,0,0,2-.28Z"/><path class="cls-10" d="M567.07,164.55a17.86,17.86,0,0,0,4-.53l.28,1.56a14.85,14.85,0,0,1-4.43.66c-3.71,0-5-1.62-5-4.19v-3.42c0-2.36,1.18-4.26,4.92-4.26s4.71,1.94,4.71,4.31v2.39h-7.47v1C564.08,163.83,564.62,164.55,567.07,164.55Zm-3-5.12h5.39v-.94c0-1.59-.6-2.48-2.63-2.48s-2.76.89-2.76,2.48Z"/><path class="cls-10" d="M504.37,193.25h-2.22V177.66h2.22Z"/><path class="cls-10" d="M506.38,177.66h2.13l5,13.83,5-13.83h2.14L515,193.25h-3Z"/><path class="cls-10" d="M521.13,184.4c1.12-1.14,1.4-1.44,2.59-2.71,1.53-1.65,1.63-2,1.63-2.65v-.39c0-.86-.25-1.12-1.77-1.12a10.09,10.09,0,0,0-2.22.3l-.18-1a10.27,10.27,0,0,1,2.51-.35c2.31,0,2.92.74,2.92,2.13v.3c0,1.08-.21,1.54-1.71,3.17-1.08,1.17-1.23,1.35-2.2,2.34h4v1h-5.58Z"/><line class="cls-9" x1="494.61" y1="244.23" x2="494.78" y2="230.33"/><path class="cls-11" d="M419.21,19.15,399.83,34.51a7.27,7.27,0,0,1-10.22-1.18l-2.15-2.72a7.27,7.27,0,0,1,1.18-10.21L408,5a7.27,7.27,0,0,1,10.22,1.18l2.15,2.71a7.27,7.27,0,0,1-1.18,10.22"/><path class="cls-12" d="M494.62,273.87A136.89,136.89,0,0,1,397.79,40.11a136.93,136.93,0,1,1,150.14,223A136,136,0,0,1,494.62,273.87Z"/><path class="cls-13" d="M136.34,136.94V5.71s31.92-4.17,68.81,17.61Z"/><rect class="cls-3" x="46.8" y="24.08" width="21.06" height="19.38" transform="translate(-8.57 42.92) rotate(-38.4)"/><rect class="cls-4" x="60.23" y="19.4" width="6" height="19.38" transform="translate(-4.39 45.57) rotate(-38.4)"/><path class="cls-11" d="M61.52,19.15,42.14,34.51a7.26,7.26,0,0,1-10.21-1.18l-2.16-2.72A7.28,7.28,0,0,1,31,20.4L50.33,5A7.27,7.27,0,0,1,60.55,6.22L62.7,8.93a7.27,7.27,0,0,1-1.18,10.22"/><path class="cls-6" d="M136.94,261.21A124.28,124.28,0,1,0,12.66,136.94,124.27,124.27,0,0,0,136.94,261.21m0-237.89A113.62,113.62,0,1,1,23.33,136.93,113.62,113.62,0,0,1,136.94,23.32"/><path class="cls-14" d="M237.11,144.1A107.84,107.84,0,0,0,59.89,61.54a107.85,107.85,0,1,1,151.94,152,107.46,107.46,0,0,0,25.28-69.39"/><line class="cls-9" x1="48" y1="82.71" x2="60.18" y2="89.4"/><line class="cls-9" x1="49.55" y1="194.58" x2="61.73" y2="187.89"/><line class="cls-9" x1="83.36" y1="45.13" x2="90.02" y2="57.33"/><line class="cls-9" x1="91.96" y1="229.32" x2="98.62" y2="217.12"/><line class="cls-9" x1="227.25" y1="82.71" x2="215.07" y2="89.4"/><line class="cls-9" x1="225.7" y1="194.58" x2="213.52" y2="187.89"/><line class="cls-9" x1="191.89" y1="45.13" x2="185.23" y2="57.33"/><line class="cls-9" x1="183.29" y1="229.32" x2="176.63" y2="217.12"/><line class="cls-9" x1="31.78" y1="134.91" x2="45.68" y2="135.08"/><line class="cls-9" x1="136.92" y1="39.15" x2="137.1" y2="25.26"/><line class="cls-9" x1="238.38" y1="134.91" x2="224.49" y2="135.08"/><line class="cls-9" x1="136.92" y1="244.23" x2="137.1" y2="230.33"/><path class="cls-13" d="M86,196.08a12.86,12.86,0,0,1-4.47-.79l.32-1.58a14.25,14.25,0,0,0,4.2.65c2.41,0,2.91-.63,2.91-2.34,0-2,0-2.21-3.11-2.91-3.64-.82-4.07-1.52-4.07-4.63,0-2.62,1.09-3.88,4.81-3.88a17.36,17.36,0,0,1,4.06.49l-.16,1.65a18.32,18.32,0,0,0-3.85-.43c-2.46,0-2.92.5-2.92,2.24,0,2.07,0,2.16,3,2.91,4,1,4.2,1.58,4.2,4.51C90.85,194.59,90.08,196.08,86,196.08Z"/><path class="cls-13" d="M95.84,191.54c0,2.1.81,2.78,3.27,2.78a22.19,22.19,0,0,0,3.52-.32l.21,1.67a19.31,19.31,0,0,1-3.8.41c-3.67,0-5.14-1.58-5.14-4.42V185c0-2.84,1.47-4.42,5.14-4.42a20.08,20.08,0,0,1,3.8.4l-.21,1.67a23.32,23.32,0,0,0-3.52-.31c-2.46,0-3.27.68-3.27,2.77Z"/><path class="cls-13" d="M110.62,183.1v-2.73h1.9v2.73Zm0,12.75v-11h1.9v11Z"/><path class="cls-13" d="M122.77,195.85v-8.39c0-.72-.36-1-1.06-1a10.19,10.19,0,0,0-3.68,1.11v8.3h-1.9v-11h1.54l.18.95a11.85,11.85,0,0,1,4.42-1.17c1.76,0,2.39,1.1,2.39,2.8v8.41Z"/><path class="cls-13" d="M130.06,184.86v11.69c0,1.56-.16,1.76-2.55,3.86l-1.15-1.33c1.8-1.6,1.8-1.71,1.8-2.64V184.86Zm-1.9-1.76v-2.73h1.9v2.73Z"/><path class="cls-13" d="M137.51,194.45a14.14,14.14,0,0,0,3.47-.51l.25,1.51a12,12,0,0,1-3.88.63c-3.25,0-4.36-1.56-4.36-4v-3.29c0-2.28,1-4.11,4.31-4.11s4.13,1.87,4.13,4.15v2.3h-6.54V192C134.89,193.76,135.36,194.45,137.51,194.45Zm-2.62-4.94h4.72v-.9c0-1.53-.52-2.39-2.31-2.39s-2.41.86-2.41,2.39Z"/><path class="cls-13" d="M143.74,192.09v-3.46c0-2.53.95-4,4.38-4a9.9,9.9,0,0,1,2.61.34l-.15,1.58a11.64,11.64,0,0,0-2.42-.25c-1.9,0-2.53.54-2.53,2.25v3.59c0,1.72.63,2.26,2.53,2.26a11.64,11.64,0,0,0,2.42-.25l.18,1.58a10.22,10.22,0,0,1-2.64.34C144.59,196.08,143.74,194.61,143.74,192.09Z"/><path class="cls-13" d="M159.38,195.67a6.81,6.81,0,0,1-2.3.41c-1.85,0-2.73-.68-2.73-2.51v-7.13H152.4v-1.58h1.95v-2.7l1.89-.28v3h3.12l-.16,1.58h-3v6.82c0,.81.11,1.22,1.13,1.22a7,7,0,0,0,1.76-.27Z"/><path class="cls-13" d="M162,183.1v-2.73h1.9v2.73Zm0,12.75v-11h1.9v11Z"/><path class="cls-13" d="M171.39,196.08c-3.21,0-4.47-1.83-4.47-4.13v-3.18c0-2.3,1.26-4.13,4.47-4.13s4.47,1.83,4.47,4.13V192C175.86,194.25,174.59,196.08,171.39,196.08Zm0-9.79c-1.72,0-2.58.81-2.58,2.41V192c0,1.6.86,2.41,2.58,2.41S174,193.62,174,192V188.7C174,187.1,173.1,186.29,171.39,186.29Z"/><path class="cls-13" d="M185.54,195.85v-8.39c0-.72-.36-1-1.06-1a10.24,10.24,0,0,0-3.68,1.11v8.3h-1.9v-11h1.54l.18.95a11.85,11.85,0,0,1,4.42-1.17c1.76,0,2.39,1.1,2.39,2.8v8.41Z"/><path class="cls-13" d="M189.75,182.05l-.49-.88,2.3-1.33h1v8.5h-1.11V181.1Z"/><path class="cls-13" d="M91.28,172.35V161.07c0-.86-.37-1.29-1.29-1.29a11.22,11.22,0,0,0-4.22,1.36v11.21h-4V156.2h3.08l.4,1.36a16.12,16.12,0,0,1,6.47-1.7,3.06,3.06,0,0,1,3,1.73,15.77,15.77,0,0,1,6.5-1.73c2.69,0,3.65,1.89,3.65,4.78v11.71h-4V161.07c0-.86-.36-1.29-1.29-1.29a10.66,10.66,0,0,0-4.21,1.36v11.21Z"/><path class="cls-13" d="M109.36,153.91v-4.68h4v4.68Zm0,18.44V156.2h4v16.15Z"/><path class="cls-13" d="M127.61,172.35V161.07c0-.86-.37-1.29-1.3-1.29a11.24,11.24,0,0,0-4.21,1.36v11.21h-4V156.2h3.09l.4,1.36a16.07,16.07,0,0,1,6.47-1.7c2.68,0,3.64,1.89,3.64,4.78v11.71Z"/><path class="cls-13" d="M140,156.2v11.27c0,.87.36,1.3,1.29,1.3a11.18,11.18,0,0,0,4.21-1.36V156.2h4v16.15h-3.08l-.4-1.36a16.14,16.14,0,0,1-6.47,1.69c-2.69,0-3.65-1.89-3.65-4.77V156.2Z"/><path class="cls-13" d="M162.81,172.05a11.07,11.07,0,0,1-3.55.63c-2.95,0-4.44-1.39-4.44-4.28v-9h-2.43V156.2h2.43v-4l4-.56v4.58H163l-.27,3.21h-3.88v8.46a1.28,1.28,0,0,0,1.46,1.43,7.79,7.79,0,0,0,2-.33Z"/><path class="cls-13" d="M172.46,169.36a17,17,0,0,0,4.95-.76l.63,3.05a17.31,17.31,0,0,1-5.94,1c-5.08,0-6.83-2.35-6.83-6.23v-4.28c0-3.42,1.52-6.31,6.7-6.31s6.33,3,6.33,6.51v3.45h-9v.82C169.31,168.6,170,169.36,172.46,169.36Zm-3.15-6.8h5.15v-.79c0-1.53-.47-2.59-2.46-2.59s-2.69,1.06-2.69,2.59Z"/><path class="cls-13" d="M187,172.68a19.06,19.06,0,0,1-5.57-.93l.56-3.08a18.07,18.07,0,0,0,4.81.69c1.8,0,2.06-.39,2.06-1.62,0-1-.2-1.49-2.82-2.12-3.95-1-4.41-2-4.41-5.08s1.43-4.68,6-4.68a21,21,0,0,1,4.84.57l-.4,3.22a27.52,27.52,0,0,0-4.44-.47c-1.76,0-2.06.4-2.06,1.39,0,1.3.1,1.4,2.29,2,4.51,1.2,4.94,1.79,4.94,5.11C192.8,170.76,191.84,172.68,187,172.68Z"/><path class="cls-15" d="M95.38,102.65c5.8,0,7.44-1.63,7.44-5.63V93.3c0-3.81-1.64-4.62-7.35-4.62A69.49,69.49,0,0,0,82.94,90L81.58,79.69a69.64,69.64,0,0,1,15.07-1.63c15.15,0,19.23,4.54,19.23,13.61v4.27c0,5.35-1.81,9.43-6.08,12.06,5.09,2.27,7.17,5.45,7.17,11.17v4.62c0,8.9-4.17,14.7-20.69,14.7a46.25,46.25,0,0,1-14.88-2l1.36-10.07a65.32,65.32,0,0,0,13.07,1.18c6.35,0,8.08-1.28,8.08-4.81v-4.18c0-3.36-2.09-4.81-6.63-4.81h-12V102.65Z"/><path class="cls-15" d="M125.14,117.62V106.73h23.41v10.89Z"/><path class="cls-15" d="M172.5,113.72c-6.53-.27-9.52-.36-14.42-.45V79H191.2V90.31H171.14v12.34c3.09.09,4.72.18,8.17.36,10.44.64,13.16,5.72,13.16,12.89v6.44c-.09,10.35-3.9,16.15-20.42,16.15a63.46,63.46,0,0,1-16.15-2.26l1.9-10.53A69.33,69.33,0,0,0,172,127.15c6.17,0,7.44-1.72,7.44-5.53v-2.45C179.4,115.08,178.31,114,172.5,113.72Z"/><path class="cls-12" d="M136.94,273.87A136.89,136.89,0,0,1,40.11,40.11a136.93,136.93,0,1,1,150.13,223A136,136,0,0,1,136.94,273.87Z"/></g></g></g></svg>