<svg xmlns="http://www.w3.org/2000/svg" xmlns:xlink="http://www.w3.org/1999/xlink" viewBox="0 0 705.92 56.25"><defs><style>.cls-1{fill:url(#linear-gradient);}.cls-2{fill:url(#linear-gradient-2);}.cls-3{fill:#e6e6e6;}.cls-4{fill:#004165;}.cls-5{fill:none;stroke:#004165;stroke-miterlimit:10;stroke-width:0.7px;}</style><linearGradient id="linear-gradient" x1="352.96" y1="-2.38" x2="352.96" y2="61.36" gradientUnits="userSpaceOnUse"><stop offset="0" stop-color="#fff"/><stop offset="1" stop-color="#c4c3c3"/></linearGradient><linearGradient id="linear-gradient-2" x1="352.96" y1="64.88" x2="352.96" y2="1.98" xlink:href="#linear-gradient"/></defs><g id="Layer_2" data-name="Layer 2"><g id="Buttons"><path class="cls-1" d="M677.8,56.25H28.12A28.13,28.13,0,0,1,28.12,0H677.8a28.13,28.13,0,0,1,0,56.25Zm-649.68-42a13.84,13.84,0,0,0,0,27.67H677.8a13.84,13.84,0,1,0,0-27.67Z"/><path class="cls-2" d="M677.8,50.3H28.12A22.18,22.18,0,0,1,28.12,6H677.8a22.18,22.18,0,0,1,0,44.35ZM28.12,8.33a19.8,19.8,0,0,0,0,39.59H677.8a19.8,19.8,0,0,0,0-39.59Z"/><path class="cls-3" d="M698.78,28.12a21,21,0,0,1-21,21H28.12a21,21,0,0,1-21-21h0a21,21,0,0,1,21-21H677.8a21,21,0,0,1,21,21Z"/><path class="cls-4" d="M80.55,21.88c3.21,0,4.22,1.68,4.22,3.76v5.59c0,2.09-1,3.76-4.22,3.76H76V21.88Zm-2.89,11.6h2.83c2,0,2.58-.83,2.58-2.36V25.76c0-1.53-.59-2.36-2.58-2.36H77.66Z"/><path class="cls-4" d="M90.54,35.19c-2.8,0-3.9-1.59-3.9-3.6V28.81c0-2,1.1-3.6,3.9-3.6s3.89,1.6,3.89,3.6v2.78C94.43,33.6,93.33,35.19,90.54,35.19Zm0-8.54c-1.5,0-2.25.71-2.25,2.1v2.9c0,1.39.75,2.1,2.25,2.1s2.24-.71,2.24-2.1v-2.9C92.78,27.36,92,26.65,90.54,26.65Z"/><path class="cls-4" d="M99.26,35.19a9.88,9.88,0,0,1-3.05-.51l.21-1.3a10.79,10.79,0,0,0,2.74.39c1.51,0,1.77-.27,1.77-1.3s-.08-1.14-2-1.61c-2.38-.59-2.6-1.08-2.6-3.07,0-1.77.79-2.58,3.31-2.58a10.66,10.66,0,0,1,2.72.34l-.12,1.35a16.21,16.21,0,0,0-2.66-.27c-1.42,0-1.61.33-1.61,1.2,0,1.06,0,1.26,1.63,1.65,2.76.69,3,1,3,2.93S102,35.19,99.26,35.19Z"/><path class="cls-4" d="M108.19,33.77a12,12,0,0,0,3-.45l.21,1.32a10.5,10.5,0,0,1-3.38.55c-2.84,0-3.8-1.36-3.8-3.52V28.79c0-2,.9-3.58,3.76-3.58s3.6,1.63,3.6,3.62v2h-5.71v.81C105.91,33.16,106.32,33.77,108.19,33.77Zm-2.28-4.31H110v-.78c0-1.34-.45-2.09-2-2.09s-2.11.75-2.11,2.09Z"/><path class="cls-4" d="M222.81,21.88h4.75c2.81,0,3.79,1.22,3.79,3.23v1.95c0,2-1,3.25-3.79,3.25h-3.05V35h-1.7Zm4.69,1.52h-3v5.39h3c1.61,0,2.16-.45,2.16-1.73V25.13C229.66,23.83,229.11,23.4,227.5,23.4Z"/><path class="cls-4" d="M237.58,26.73a20.73,20.73,0,0,0-2.74,1.65V35h-1.65V25.41h1.43l.1,1.34a11.89,11.89,0,0,1,2.64-1.54Z"/><path class="cls-4" d="M242.2,33.77a11.9,11.9,0,0,0,3-.45l.22,1.32a10.5,10.5,0,0,1-3.38.55c-2.84,0-3.8-1.36-3.8-3.52V28.79c0-2,.9-3.58,3.76-3.58s3.6,1.63,3.6,3.62v2h-5.71v.81C239.92,33.16,240.33,33.77,242.2,33.77Zm-2.28-4.31H244v-.78c0-1.34-.45-2.09-2-2.09s-2.11.75-2.11,2.09Z"/><path class="cls-4" d="M255.24,32.06c0,1.91-.87,3.13-3.11,3.13a15.12,15.12,0,0,1-2.74-.3v4l-1.65.24V25.41h1.39l.14.86a5.11,5.11,0,0,1,3.17-1.06c1.89,0,2.8,1,2.8,2.93Zm-5.85,1.38a15.14,15.14,0,0,0,2.64.29c1.1,0,1.55-.51,1.55-1.67V28.14c0-1-.31-1.47-1.47-1.47a4.43,4.43,0,0,0-2.72,1.14Z"/><path class="cls-4" d="M264.33,35h-1.4l-.09-.7a5.47,5.47,0,0,1-3.11.9c-1.8,0-2.54-1.06-2.54-2.76,0-2,1-2.69,2.93-2.69h2.56v-1.5c0-1.2-.53-1.61-2.09-1.61a16.6,16.6,0,0,0-2.87.31l-.18-1.32a13.92,13.92,0,0,1,3.15-.41c2.74,0,3.64,1.06,3.64,3.11Zm-1.65-3.87h-2.44c-1,0-1.4.31-1.4,1.28s.18,1.37,1.36,1.37a4.83,4.83,0,0,0,2.48-.78Z"/><path class="cls-4" d="M271.14,26.73a21.28,21.28,0,0,0-2.73,1.65V35h-1.65V25.41h1.43l.1,1.34a11.67,11.67,0,0,1,2.64-1.54Z"/><path class="cls-4" d="M279.12,35h-1.4l-.1-.7a5.47,5.47,0,0,1-3.11.9c-1.79,0-2.54-1.06-2.54-2.76,0-2,1-2.69,2.93-2.69h2.56v-1.5c0-1.2-.53-1.61-2.08-1.61a16.61,16.61,0,0,0-2.88.31l-.17-1.32a13.78,13.78,0,0,1,3.15-.41c2.73,0,3.64,1.06,3.64,3.11Zm-1.66-3.87H275c-1,0-1.39.31-1.39,1.28s.17,1.37,1.35,1.37a4.77,4.77,0,0,0,2.48-.78Z"/><path class="cls-4" d="M286.54,34.84a6.14,6.14,0,0,1-2,.35c-1.61,0-2.38-.59-2.38-2.18V26.79h-1.69V25.41h1.69V23.05l1.65-.24v2.6h2.72l-.14,1.38H283.8v5.94c0,.71.1,1.06,1,1.06a6.38,6.38,0,0,0,1.53-.23Z"/><path class="cls-4" d="M288.31,23.87V21.49H290v2.38Zm0,11.12V25.41H290V35Z"/><path class="cls-4" d="M296,35.19c-2.8,0-3.9-1.59-3.9-3.6V28.81c0-2,1.1-3.6,3.9-3.6s3.9,1.6,3.9,3.6v2.78C299.93,33.6,298.82,35.19,296,35.19Zm0-8.54c-1.5,0-2.24.71-2.24,2.1v2.9c0,1.39.74,2.1,2.24,2.1s2.24-.71,2.24-2.1v-2.9C298.27,27.36,297.52,26.65,296,26.65Z"/><path class="cls-4" d="M307.88,35V27.67c0-.63-.31-.88-.92-.88a8.92,8.92,0,0,0-3.21,1V35h-1.66V25.41h1.34l.16.82a10.44,10.44,0,0,1,3.86-1c1.53,0,2.08,1,2.08,2.44V35Z"/><path class="cls-4" d="M392,35H390.3l-1.08-3.15h-5.58L382.58,35h-1.71l4.43-13.11h2.28ZM386.44,23.1l-2.34,7.27h4.68Z"/><path class="cls-4" d="M393.29,28.34c0-1.91.87-3.13,3.11-3.13a15.12,15.12,0,0,1,2.74.3v-4l1.65-.24V35h-1.4l-.13-.86a5.11,5.11,0,0,1-3.17,1.06c-1.89,0-2.8-1-2.8-2.93ZM399.14,27a16.17,16.17,0,0,0-2.64-.29c-1.1,0-1.56.51-1.56,1.67v3.92c0,1,.32,1.47,1.48,1.47a4.43,4.43,0,0,0,2.72-1.14Z"/><path class="cls-4" d="M415,35V27.67c0-.63-.31-.88-.92-.88a8.49,8.49,0,0,0-3.21,1V35h-1.65V27.67c0-.63-.32-.88-.93-.88a9,9,0,0,0-3.21,1V35h-1.65V25.41h1.34l.16.82a10.39,10.39,0,0,1,3.85-1,1.77,1.77,0,0,1,1.84,1,10.23,10.23,0,0,1,3.95-1c1.54,0,2.09,1,2.09,2.44V35Z"/><path class="cls-4" d="M419.24,23.87V21.49h1.65v2.38Zm0,11.12V25.41h1.65V35Z"/><path class="cls-4" d="M429.34,35V27.67c0-.63-.32-.88-.93-.88a9,9,0,0,0-3.21,1V35h-1.65V25.41h1.34l.16.82a10.39,10.39,0,0,1,3.85-1c1.54,0,2.09,1,2.09,2.44V35Z"/><path class="cls-4" d="M433.55,23.87V21.49h1.66v2.38Zm0,11.12V25.41h1.66V35Z"/><path class="cls-4" d="M440.52,35.19a10,10,0,0,1-3-.51l.22-1.3a10.71,10.71,0,0,0,2.73.39c1.52,0,1.77-.27,1.77-1.3s-.08-1.14-2-1.61c-2.39-.59-2.6-1.08-2.6-3.07,0-1.77.79-2.58,3.3-2.58a10.66,10.66,0,0,1,2.72.34l-.12,1.35a16.09,16.09,0,0,0-2.65-.27c-1.42,0-1.62.33-1.62,1.2,0,1.06,0,1.26,1.63,1.65,2.76.69,3,1,3,2.93S443.26,35.19,440.52,35.19Z"/><path class="cls-4" d="M451,34.84a6.12,6.12,0,0,1-2,.35c-1.62,0-2.39-.59-2.39-2.18V26.79h-1.69V25.41h1.69V23.05l1.66-.24v2.6H451l-.13,1.38h-2.58v5.94c0,.71.1,1.06,1,1.06a6.45,6.45,0,0,0,1.54-.23Z"/><path class="cls-4" d="M457.18,26.73a20.73,20.73,0,0,0-2.74,1.65V35h-1.65V25.41h1.43l.1,1.34A11.67,11.67,0,0,1,457,25.21Z"/><path class="cls-4" d="M465.15,35h-1.4l-.1-.7a5.45,5.45,0,0,1-3.11.9c-1.79,0-2.54-1.06-2.54-2.76,0-2,1-2.69,2.94-2.69h2.55v-1.5c0-1.2-.53-1.61-2.08-1.61a16.61,16.61,0,0,0-2.88.31l-.17-1.32a13.78,13.78,0,0,1,3.15-.41c2.73,0,3.64,1.06,3.64,3.11Zm-1.66-3.87h-2.44c-1,0-1.39.31-1.39,1.28s.17,1.37,1.35,1.37a4.77,4.77,0,0,0,2.48-.78Z"/><path class="cls-4" d="M472.57,34.84a6.14,6.14,0,0,1-2,.35c-1.61,0-2.38-.59-2.38-2.18V26.79h-1.69V25.41h1.69V23.05l1.65-.24v2.6h2.72l-.14,1.38h-2.58v5.94c0,.71.1,1.06,1,1.06a6.38,6.38,0,0,0,1.53-.23Z"/><path class="cls-4" d="M474.34,23.87V21.49H476v2.38Zm0,11.12V25.41H476V35Z"/><path class="cls-4" d="M482.06,35.19c-2.8,0-3.9-1.59-3.9-3.6V28.81c0-2,1.1-3.6,3.9-3.6s3.9,1.6,3.9,3.6v2.78C486,33.6,484.86,35.19,482.06,35.19Zm0-8.54c-1.5,0-2.24.71-2.24,2.1v2.9c0,1.39.74,2.1,2.24,2.1s2.24-.71,2.24-2.1v-2.9C484.3,27.36,483.56,26.65,482.06,26.65Z"/><path class="cls-4" d="M493.91,35V27.67c0-.63-.31-.88-.92-.88a8.92,8.92,0,0,0-3.21,1V35h-1.66V25.41h1.34l.16.82a10.44,10.44,0,0,1,3.86-1c1.53,0,2.09,1,2.09,2.44V35Z"/><path class="cls-4" d="M586.47,35.19a11.27,11.27,0,0,1-3.9-.69l.28-1.38a12.25,12.25,0,0,0,3.66.57c2.1,0,2.54-.55,2.54-2,0-1.77,0-1.93-2.72-2.54-3.17-.71-3.54-1.32-3.54-4,0-2.28.94-3.38,4.19-3.38a14.67,14.67,0,0,1,3.54.43l-.13,1.44a15.9,15.9,0,0,0-3.37-.38c-2.14,0-2.54.44-2.54,1.95,0,1.81,0,1.89,2.6,2.54,3.48.87,3.66,1.38,3.66,3.94C590.74,33.89,590.07,35.19,586.47,35.19Z"/><path class="cls-4" d="M598.1,34.84a6.12,6.12,0,0,1-2,.35c-1.62,0-2.39-.59-2.39-2.18V26.79H592V25.41h1.69V23.05l1.66-.24v2.6h2.71L598,26.79h-2.58v5.94c0,.71.1,1.06,1,1.06a6.45,6.45,0,0,0,1.54-.23Z"/><path class="cls-4" d="M603.28,35.19c-2.79,0-3.89-1.59-3.89-3.6V28.81c0-2,1.1-3.6,3.89-3.6s3.9,1.6,3.9,3.6v2.78C607.18,33.6,606.08,35.19,603.28,35.19Zm0-8.54c-1.49,0-2.24.71-2.24,2.1v2.9c0,1.39.75,2.1,2.24,2.1s2.25-.71,2.25-2.1v-2.9C605.53,27.36,604.78,26.65,603.28,26.65Z"/><path class="cls-4" d="M613.74,26.73A20.73,20.73,0,0,0,611,28.38V35h-1.65V25.41h1.43l.1,1.34a11.67,11.67,0,0,1,2.64-1.54Z"/><path class="cls-4" d="M621.71,35h-1.4l-.1-.7a5.45,5.45,0,0,1-3.11.9c-1.79,0-2.54-1.06-2.54-2.76,0-2,1-2.69,2.94-2.69h2.55v-1.5c0-1.2-.53-1.61-2.08-1.61a16.38,16.38,0,0,0-2.87.31l-.18-1.32a13.78,13.78,0,0,1,3.15-.41c2.73,0,3.64,1.06,3.64,3.11Zm-1.66-3.87h-2.44c-1,0-1.39.31-1.39,1.28s.17,1.37,1.36,1.37a4.76,4.76,0,0,0,2.47-.78Z"/><path class="cls-4" d="M631.55,26.37l-1.14.22a3.44,3.44,0,0,1,.53,1.91v.43c0,2.07-1.26,3.27-3.76,3.27a7.37,7.37,0,0,1-1-.06,1.47,1.47,0,0,0-.69,1c0,.38.2.51.63.55l2.72.28c1.73.18,2.4.85,2.4,2.3,0,2.09-.73,2.78-4.2,2.78a15.68,15.68,0,0,1-3.48-.45l.24-1.3a15.54,15.54,0,0,0,3.2.39c2.45,0,2.68-.33,2.68-1.34,0-.81-.29-.94-1.42-1l-2.53-.24c-1.42-.12-1.87-.86-1.87-1.75a2.15,2.15,0,0,1,.9-1.69,2.89,2.89,0,0,1-1.34-2.72V28.5c0-2.09,1-3.29,3.74-3.29a6.2,6.2,0,0,1,1.62.2h2.75Zm-4.37.2c-1.59,0-2.18.53-2.18,1.95v.41c0,1.46.61,1.91,2.18,1.91s2.19-.65,2.19-1.91v-.41C629.37,27.12,628.78,26.57,627.18,26.57Z"/><path class="cls-4" d="M636.73,33.77a11.9,11.9,0,0,0,3-.45l.22,1.32a10.61,10.61,0,0,1-3.39.55c-2.83,0-3.8-1.36-3.8-3.52V28.79c0-2,.91-3.58,3.76-3.58s3.61,1.63,3.61,3.62v2h-5.71v.81C634.45,33.16,634.86,33.77,636.73,33.77Zm-2.28-4.31h4.11v-.78c0-1.34-.45-2.09-2-2.09s-2.1.75-2.1,2.09Z"/><line class="cls-5" x1="179.77" y1="17.13" x2="179.77" y2="41.96"/><line class="cls-5" x1="524.98" y1="17.13" x2="524.98" y2="41.96"/><line class="cls-5" x1="352.38" y1="17.13" x2="352.38" y2="41.96"/></g></g></svg>