<svg xmlns="http://www.w3.org/2000/svg" xmlns:xlink="http://www.w3.org/1999/xlink" viewBox="0 0 78.42 56.25"><defs><style>.cls-1{isolation:isolate;}.cls-2{fill:url(#linear-gradient);}.cls-3{fill:url(#linear-gradient-2);}.cls-4{fill:#ccc;}.cls-5{fill:url(#linear-gradient-3);}.cls-6{fill:url(#linear-gradient-4);}.cls-7{fill:url(#linear-gradient-5);}.cls-8{fill:#e6e6e6;}.cls-9{fill:url(#linear-gradient-6);}.cls-10{fill:#c0c2c4;mix-blend-mode:multiply;}.cls-11{mix-blend-mode:hard-light;fill:url(#linear-gradient-7);}.cls-12{fill:#fff;}</style><linearGradient id="linear-gradient" x1="39.21" y1="-2.38" x2="39.21" y2="61.36" gradientUnits="userSpaceOnUse"><stop offset="0" stop-color="#fff"/><stop offset="1" stop-color="#c4c3c3"/></linearGradient><linearGradient id="linear-gradient-2" x1="39.21" y1="-2.38" x2="39.21" y2="61.36" xlink:href="#linear-gradient"/><linearGradient id="linear-gradient-3" x1="39.21" y1="10.71" x2="39.21" y2="47.93" xlink:href="#linear-gradient"/><linearGradient id="linear-gradient-4" x1="39.21" y1="-2.38" x2="39.21" y2="61.36" xlink:href="#linear-gradient"/><linearGradient id="linear-gradient-5" x1="39.21" y1="-2.38" x2="39.21" y2="61.36" xlink:href="#linear-gradient"/><linearGradient id="linear-gradient-6" x1="41.8" y1="10.71" x2="41.8" y2="47.93" xlink:href="#linear-gradient"/><linearGradient id="linear-gradient-7" x1="-10.38" y1="-8.69" x2="58.77" y2="42.64" gradientUnits="userSpaceOnUse"><stop offset="0" stop-color="#008fb6"/><stop offset="0.05" stop-color="#0083aa"/><stop offset="0.2" stop-color="#00688e"/><stop offset="0.35" stop-color="#005378"/><stop offset="0.52" stop-color="#004469"/><stop offset="0.71" stop-color="#003c60"/><stop offset="1" stop-color="#00395d"/></linearGradient></defs><g class="cls-1"><g id="Layer_2" data-name="Layer 2"><g id="Buttons"><path class="cls-2" d="M50.3,0H28.12a28.13,28.13,0,0,0,0,56.25H50.3A28.13,28.13,0,0,0,50.3,0Zm0,50.3H28.12A22.18,22.18,0,0,1,28.12,6H50.3a22.18,22.18,0,0,1,0,44.35Z"/><path class="cls-3" d="M50.3,6H28.12a22.18,22.18,0,0,0,0,44.35H50.3A22.18,22.18,0,0,0,50.3,6Zm0,43.16H28.12a21,21,0,0,1,0-42H50.3a21,21,0,0,1,0,42Z"/><path class="cls-4" d="M28.12,50.3H50.3A22.18,22.18,0,0,0,50.3,6H28.12a22.18,22.18,0,0,0,0,44.35ZM50.3,49.11H28.12a21,21,0,0,1,0-42H50.3a21,21,0,0,1,0,42Z"/><path class="cls-5" d="M50.3,14.29H28.12a13.84,13.84,0,1,0,0,27.67H50.3a13.84,13.84,0,1,0,0-27.67ZM31.67,39.71V16.31L51.93,28Z"/><path class="cls-6" d="M50.3,8.33H28.12a19.8,19.8,0,0,0,0,39.59H50.3a19.8,19.8,0,0,0,0-39.59ZM50.3,42H28.12a13.84,13.84,0,1,1,0-27.67H50.3A13.84,13.84,0,1,1,50.3,42Z"/><path class="cls-7" d="M50.3,7.14H28.12a21,21,0,0,0,0,42H50.3a21,21,0,0,0,0-42Zm0,40.78H28.12a19.8,19.8,0,0,1,0-39.59H50.3a19.8,19.8,0,0,1,0,39.59Z"/><path class="cls-8" d="M50.3,7.14H28.12a21,21,0,0,0,0,42H50.3a21,21,0,0,0,0-42Z"/><polygon class="cls-9" points="31.66 39.71 51.93 28.01 31.66 16.31 31.66 39.71"/><polygon class="cls-10" points="31.66 39.71 51.93 28.01 31.66 16.31 31.66 39.71"/><path class="cls-11" d="M50.3,0H28.12a28.13,28.13,0,0,0,0,56.25H50.3A28.13,28.13,0,0,0,50.3,0Z"/><polygon class="cls-12" points="31.66 39.71 51.93 28.01 31.66 16.31 31.66 39.71"/></g></g></g></svg>