<?xml version="1.0" encoding="utf-8"?>
<!-- Generator: Adobe Illustrator 25.0.1, SVG Export Plug-In . SVG Version: 6.00 Build 0)  -->
<svg version="1.1" id="Layer_1" xmlns="http://www.w3.org/2000/svg" xmlns:xlink="http://www.w3.org/1999/xlink" x="0px" y="0px"
	 viewBox="0 0 428.3 172.5" style="enable-background:new 0 0 428.3 172.5;" xml:space="preserve">
<style type="text/css">
	.st0{clip-path:url(#SVGID_2_);}
	.st1{fill:#F26322;}
	.st2{fill:#008FB4;}
	.st3{fill:#004165;}
	.st4{fill:none;stroke:#F26322;stroke-width:1.41;stroke-miterlimit:10;}
</style>
<g id="Layer_2_1_">
	<g id="Text">
		<g>
			<defs>
				<rect id="SVGID_1_" x="85.4" y="0.8" width="229.2" height="87.7"/>
			</defs>
			<clipPath id="SVGID_2_">
				<use xlink:href="#SVGID_1_"  style="overflow:visible;"/>
			</clipPath>
			<g class="st0">
				<path class="st1" d="M378.2-49.7l-7.8,15.9c-0.4,0.7-1,1.3-1.8,1.7L94.5,79.5c-0.1,0-0.2,0.1-0.3,0.1h-5.7L377.7-50.2
					c0.2-0.1,0.4,0,0.5,0.2C378.2-49.9,378.2-49.8,378.2-49.7z"/>
				<path class="st2" d="M367.5-27.9l-2.3,4.7c-0.2,0.5-0.6,0.8-1.1,1L104.3,79.5c-0.2,0.1-0.3,0.1-0.5,0.1h-3.9L367-28.5
					c0.2-0.1,0.4,0,0.5,0.2C367.6-28.2,367.6-28,367.5-27.9z"/>
			</g>
		</g>
		<path class="st3" d="M107,136.1h-6.4v11.4h-8.4v-37.5h15.3c9.1,0,12.5,3.6,12.5,10.6v4.9C119.9,132.5,116.1,136.1,107,136.1z
			 M111.5,121.4c0-2.7-0.9-3.9-4.5-3.9h-6.4v11.3h6.4c3.7,0,4.5-1.4,4.5-4.1V121.4z"/>
		<path class="st3" d="M137,135.8h-5v11.6h-8.4v-37.5h15.6c9.1,0,12.5,3.6,12.5,10.6v4.6c0,4.7-1.7,7.8-5.5,9.4l9.1,12.8h-10
			L137,135.8z M143.2,121.4c0-2.8-1.1-3.9-4.5-3.9H132v11h6.7c3.6,0,4.5-1.3,4.5-4.1L143.2,121.4z"/>
		<path class="st3" d="M158.4,147.4v-37.5h23.6v7.5h-15.1v6.9h14v7.5h-14v8.2h15.1v7.5L158.4,147.4z"/>
		<path class="st3" d="M201.8,136.1h-6.4v11.4H187v-37.5h15.3c9.1,0,12.5,3.6,12.5,10.6v4.9C214.8,132.5,210.9,136.1,201.8,136.1z
			 M206.3,121.4c0-2.7-1-3.9-4.5-3.9h-6.4v11.3h6.4c3.7,0,4.5-1.4,4.5-4.1V121.4z"/>
		<path class="st3" d="M249.5,147.4h-8.8l-2-7.3h-12.6l-2,7.3h-8.8l11.4-37.5H238L249.5,147.4z M228.1,133.1h8.6l-4.3-15.7
			L228.1,133.1z"/>
		<path class="st3" d="M265.7,135.8h-5v11.6h-8.4v-37.5h15.6c9.1,0,12.5,3.6,12.5,10.6v4.6c0,4.7-1.7,7.8-5.5,9.4l9.1,12.8h-10
			L265.7,135.8z M271.9,121.4c0-2.8-1.1-3.9-4.5-3.9h-6.7v11h6.7c3.6,0,4.5-1.3,4.5-4.1V121.4z"/>
		<path class="st3" d="M318.1,147.4h-8.8l-2-7.3h-12.6l-2,7.3H284l11.4-37.5h11.2L318.1,147.4z M296.7,133.1h8.6l-4.3-15.7
			L296.7,133.1z"/>
		<path class="st3" d="M336.4,117.4v30H328v-30h-10.1v-7.5h28.6v7.5L336.4,117.4z"/>
		<path class="st3" d="M349.7,147.4v-37.5h8.4v37.5H349.7z"/>
		<path class="st3" d="M392.5,136.5c0,5.7-3.9,11.5-14.5,11.5s-14.5-5.8-14.5-11.5v-15.6c0-5.7,3.9-11.5,14.5-11.5
			s14.5,5.8,14.5,11.5V136.5z M384.1,121.6c0-2.9-1.9-4.7-6.1-4.7s-6.1,1.8-6.1,4.7v14.2c0,2.9,1.9,4.7,6.1,4.7s6.1-1.8,6.1-4.7
			V121.6z"/>
		<path class="st3" d="M405.6,122.8v24.6h-8v-37.5H408l12.3,25.8v-25.8h8v37.5h-10.4L405.6,122.8z"/>
		<path class="st4" d="M30,154.1h28.9v17.7H2.1v-17.3c10.1-10.4,11.9-12.1,20.4-21.7c13.8-15.8,15.3-16.6,15.3-26.2v-2.5
			c0-4.9-3.2-6.6-11.1-6.6c-7.8,0.1-15.6,1-23.2,2.7l-2.7-17c8.8-2.3,17.8-3.5,26.9-3.7c21.7,0,30.3,6.8,30.3,22.1v3.7
			c0,13.4-0.1,15.9-12.9,31.4C38.3,144.8,34.1,149.7,30,154.1z"/>
	</g>
</g>
</svg>
