<svg xmlns="http://www.w3.org/2000/svg" xmlns:xlink="http://www.w3.org/1999/xlink" viewBox="0 0 78.42 56.25"><defs><style>.cls-1{isolation:isolate;}.cls-2{fill:url(#linear-gradient);}.cls-3{fill:#ccc;}.cls-4{fill:url(#linear-gradient-3);}.cls-5{fill:url(#linear-gradient-4);}.cls-6{fill:url(#linear-gradient-5);}.cls-7{fill:#e6e6e6;}.cls-8{fill:url(#linear-gradient-6);}.cls-9{fill:#c0c2c4;mix-blend-mode:multiply;}.cls-10{mix-blend-mode:hard-light;fill:url(#linear-gradient-7);}.cls-11{fill:#fff;}</style><linearGradient id="linear-gradient" x1="7568.17" y1="-2.38" x2="7568.17" y2="61.36" gradientTransform="matrix(-1, 0, 0, 1, 7607.38, 0)" gradientUnits="userSpaceOnUse"><stop offset="0" stop-color="#fff"/><stop offset="1" stop-color="#c4c3c3"/></linearGradient><linearGradient id="linear-gradient-3" x1="7568.17" y1="10.71" x2="7568.17" y2="47.93" xlink:href="#linear-gradient"/><linearGradient id="linear-gradient-4" x1="7568.17" y1="-2.38" x2="7568.17" y2="61.36" xlink:href="#linear-gradient"/><linearGradient id="linear-gradient-5" x1="7568.17" y1="-2.38" x2="7568.17" y2="61.36" xlink:href="#linear-gradient"/><linearGradient id="linear-gradient-6" x1="7570.76" y1="10.71" x2="7570.76" y2="47.93" xlink:href="#linear-gradient"/><linearGradient id="linear-gradient-7" x1="7518.58" y1="7112.39" x2="7587.72" y2="7163.73" gradientTransform="translate(7607.38 7177.33) rotate(180)" gradientUnits="userSpaceOnUse"><stop offset="0" stop-color="#008fb6"/><stop offset="0.05" stop-color="#0083aa"/><stop offset="0.2" stop-color="#00688e"/><stop offset="0.35" stop-color="#005378"/><stop offset="0.52" stop-color="#004469"/><stop offset="0.71" stop-color="#003c60"/><stop offset="1" stop-color="#00395d"/></linearGradient></defs><g class="cls-1"><g id="Layer_2" data-name="Layer 2"><g id="Buttons"><path class="cls-2" d="M0,28.12A28.16,28.16,0,0,0,28.12,56.25H50.3A28.13,28.13,0,0,0,50.3,0H28.12A28.16,28.16,0,0,0,0,28.12Zm6,0A22.2,22.2,0,0,1,28.12,6H50.3a22.18,22.18,0,0,1,0,44.35H28.12A22.2,22.2,0,0,1,6,28.12Z"/><path class="cls-2" d="M6,28.12A22.2,22.2,0,0,0,28.12,50.3H50.3A22.18,22.18,0,0,0,50.3,6H28.12A22.2,22.2,0,0,0,6,28.12Zm1.2,0a21,21,0,0,1,21-21H50.3a21,21,0,0,1,0,42H28.12A21,21,0,0,1,7.15,28.12Z"/><path class="cls-3" d="M72.47,28.12A22.2,22.2,0,0,0,50.3,6H28.12a22.18,22.18,0,0,0,0,44.35H50.3A22.2,22.2,0,0,0,72.47,28.12Zm-65.32,0a21,21,0,0,1,21-21H50.3a21,21,0,0,1,0,42H28.12A21,21,0,0,1,7.15,28.12Z"/><path class="cls-4" d="M14.28,28.12A13.85,13.85,0,0,0,28.12,42H50.3a13.84,13.84,0,1,0,0-27.67H28.12A13.86,13.86,0,0,0,14.28,28.12ZM26.49,28l20.27-11.7v23.4Z"/><path class="cls-5" d="M8.34,28.12a19.81,19.81,0,0,0,19.78,19.8H50.3a19.8,19.8,0,0,0,0-39.59H28.12A19.81,19.81,0,0,0,8.34,28.12Zm5.94,0A13.86,13.86,0,0,1,28.12,14.29H50.3A13.84,13.84,0,1,1,50.3,42H28.12A13.85,13.85,0,0,1,14.28,28.12Z"/><path class="cls-6" d="M7.15,28.12a21,21,0,0,0,21,21H50.3a21,21,0,0,0,0-42H28.12A21,21,0,0,0,7.15,28.12Zm1.19,0A19.81,19.81,0,0,1,28.12,8.33H50.3a19.8,19.8,0,0,1,0,39.59H28.12A19.81,19.81,0,0,1,8.34,28.12Z"/><path class="cls-7" d="M7.15,28.12a21,21,0,0,0,21,21H50.3a21,21,0,0,0,0-42H28.12A21,21,0,0,0,7.15,28.12Z"/><polygon class="cls-8" points="46.76 39.71 26.49 28.01 46.76 16.31 46.76 39.71"/><polygon class="cls-9" points="46.76 39.71 26.49 28.01 46.76 16.31 46.76 39.71"/><path class="cls-10" d="M28.12,56.25H50.3A28.13,28.13,0,0,0,50.3,0H28.12a28.13,28.13,0,0,0,0,56.25Z"/><polygon class="cls-11" points="46.76 39.71 26.49 28.01 46.76 16.31 46.76 39.71"/></g></g></g></svg>