<svg xmlns="http://www.w3.org/2000/svg" xmlns:xlink="http://www.w3.org/1999/xlink" viewBox="0 0 209.45 57.66"><defs><style>.cls-1{isolation:isolate;}.cls-2{fill:none;stroke-miterlimit:10;stroke-width:1.41px;stroke:url(#linear-gradient);}.cls-2,.cls-4{mix-blend-mode:multiply;}.cls-3{mix-blend-mode:hard-light;}.cls-4{fill:url(#linear-gradient-2);}.cls-5{fill:#083e60;}</style><linearGradient id="linear-gradient" y1="28.83" x2="209.45" y2="28.83" gradientUnits="userSpaceOnUse"><stop offset="0" stop-color="#008fb6"/><stop offset="0.05" stop-color="#0083aa"/><stop offset="0.2" stop-color="#00688e"/><stop offset="0.35" stop-color="#005378"/><stop offset="0.52" stop-color="#004469"/><stop offset="0.71" stop-color="#003c60"/><stop offset="1" stop-color="#00395d"/></linearGradient><linearGradient id="linear-gradient-2" x1="151.11" y1="28.23" x2="171.38" y2="28.23" xlink:href="#linear-gradient"/></defs><g class="cls-1"><g id="Layer_2" data-name="Layer 2"><g id="Buttons"><path class="cls-2" d="M180.63.7H28.83a28.13,28.13,0,1,0,0,56.25h151.8a28.13,28.13,0,0,0,0-56.25Z"/><g class="cls-3"><polygon class="cls-4" points="151.11 39.93 171.38 28.22 151.11 16.52 151.11 39.93"/><polygon class="cls-4" points="151.11 39.93 171.38 28.22 151.11 16.52 151.11 39.93"/></g><path class="cls-5" d="M61.11,38.06A16.57,16.57,0,0,1,55,36.88L55.62,34a18.54,18.54,0,0,0,5.55.91c2.69,0,3.13-.56,3.13-2.45,0-2.18-.06-2.36-3.6-3.13-4.76-1.06-5.41-2-5.41-6.14,0-3.57,1.63-5.34,6.62-5.34a27.07,27.07,0,0,1,5.73.65l-.42,3.13A25.36,25.36,0,0,0,62,21c-2.51,0-3,.53-3,2.24,0,2.25.06,2.3,3.46,3.13C67.75,27.64,68,28.5,68,32.42,68,36.14,66.93,38.06,61.11,38.06Z"/><path class="cls-5" d="M75,21.38H69.5V18.1H84.2v3.28H78.71V37.77H75Z"/><path class="cls-5" d="M97.37,33.69H90.08l-1.24,4.08h-3.9l6.2-19.67h5.2l6.2,19.67h-3.9ZM91,30.48h5.43l-2.69-9.31Z"/><path class="cls-5" d="M116.54,37.77,112,31.27h-3.54v6.5h-3.72V18.1h8.06c4.58,0,6.26,1.86,6.26,5.32V26c0,2.36-.89,4-3,4.75l4.87,7Zm-3.87-16.39h-4.19v6.67h4.19c2,0,2.69-.73,2.69-2.39V23.71C115.36,22.06,114.65,21.38,112.67,21.38Z"/><path class="cls-5" d="M127.23,21.38h-5.49V18.1h14.7v3.28H131V37.77h-3.72Z"/></g></g></g></svg>