<svg xmlns="http://www.w3.org/2000/svg" viewBox="0 0 1288.83 331.71"><defs><style>.cls-1{isolation:isolate;}.cls-2{fill:#004165;}.cls-3{fill:#ffd385;}.cls-4{fill:#3b5c91;}.cls-5{fill:#ff9494;}.cls-6{fill:#a1e7ff;}.cls-7{fill:#b3b3b3;mix-blend-mode:color-burn;}.cls-8{fill:#fff;}.cls-9{fill:#f26322;}</style></defs><g class="cls-1"><g id="Layer_2" data-name="Layer 2"><g id="Text"><circle class="cls-2" cx="136.33" cy="163.57" r="136.33"/><path class="cls-3" d="M78.35,135.54V87a5.44,5.44,0,0,1,5.43-5.44H188.89A5.44,5.44,0,0,1,194.32,87v48.51Z"/><path class="cls-4" d="M188.89,80.16H83.78A6.88,6.88,0,0,0,76.91,87V137H195.76V87A6.88,6.88,0,0,0,188.89,80.16Zm4,53.94H79.78V87a4,4,0,0,1,4-4H188.89a4,4,0,0,1,4,4Z"/><path class="cls-5" d="M92.79,258.32a6,6,0,0,1-6.05-6v-5.66h18.94v5.66a6,6,0,0,1-6,6Z"/><path class="cls-4" d="M104.25,248.05v4.23a4.61,4.61,0,0,1-4.61,4.6H92.79a4.61,4.61,0,0,1-4.61-4.6v-4.23h16.07m2.87-2.87H85.31v7.1a7.49,7.49,0,0,0,7.48,7.48h6.85a7.49,7.49,0,0,0,7.48-7.48v-7.1Z"/><path class="cls-5" d="M173,258.32a6,6,0,0,1-6-6v-5.66h18.94v5.66a6,6,0,0,1-6.05,6Z"/><path class="cls-4" d="M184.49,248.05v4.23a4.61,4.61,0,0,1-4.61,4.6H173a4.61,4.61,0,0,1-4.61-4.6v-4.23h16.07m2.87-2.87H165.55v7.1a7.49,7.49,0,0,0,7.48,7.48h6.85a7.49,7.49,0,0,0,7.48-7.48v-7.1Z"/><path class="cls-6" d="M83.78,246.55a5.44,5.44,0,0,1-5.43-5.44V135.61h116v105.5a5.44,5.44,0,0,1-5.43,5.44Z"/><path class="cls-4" d="M76.91,134.18V241.11A6.88,6.88,0,0,0,83.78,248H188.89a6.87,6.87,0,0,0,5.73-3.09,6.79,6.79,0,0,0,1.14-3.78V134.18Zm116,106.93a4.09,4.09,0,0,1-.37,1.68,4,4,0,0,1-3.63,2.32H83.78a4,4,0,0,1-4-4V137.05H192.89Z"/><path class="cls-7" d="M195.76,188.89v40.38L89.59,123.1a5.43,5.43,0,0,1-1.48-3.73V94.44a5.47,5.47,0,0,1,9.24-4Z"/><path class="cls-7" d="M194.62,244.89a6.87,6.87,0,0,1-5.73,3.09H157.33L89.66,180.31a5.45,5.45,0,0,1-1.55-3.81V151.57a5.46,5.46,0,0,1,9.18-4l.31.31,94.92,94.92,1.06,1.06Z"/><path class="cls-5" d="M93.58,123.4a4,4,0,0,1-4-4V94.44a4,4,0,0,1,8.07,0v24.93A4,4,0,0,1,93.58,123.4Z"/><path class="cls-4" d="M97.54,90.67c-.06-.06-.12-.13-.19-.19a5.47,5.47,0,0,0-9.24,4v24.93a5.43,5.43,0,0,0,1.48,3.73l.26.27a5.47,5.47,0,0,0,9.2-4V94.44A5.43,5.43,0,0,0,97.54,90.67Zm-1.36,28.7a2.6,2.6,0,1,1-5.19,0V94.44a2.6,2.6,0,1,1,5.19,0Z"/><path class="cls-5" d="M93.58,180.54a4,4,0,0,1-4-4V151.57a4,4,0,0,1,8.07,0V176.5A4,4,0,0,1,93.58,180.54Z"/><path class="cls-4" d="M97.6,147.87c-.1-.11-.2-.21-.31-.31a5.46,5.46,0,0,0-9.18,4V176.5a5.45,5.45,0,0,0,1.55,3.81l.12.12a5.47,5.47,0,0,0,9.27-3.93V151.57A5.44,5.44,0,0,0,97.6,147.87ZM96.18,176.5a2.6,2.6,0,1,1-5.19,0V151.57a2.6,2.6,0,0,1,5.19,0Z"/><path class="cls-8" d="M194.32,226.93a2.54,2.54,0,0,1-2.56-2.56v-3.71l-1.88.8a2.66,2.66,0,0,1-1,.2,2.57,2.57,0,0,1-1-4.93l3.88-1.65V213.4L185.67,216a2.61,2.61,0,0,1-1,.2,2.57,2.57,0,0,1-2.38-3.54,2.53,2.53,0,0,1,1.39-1.39l8.07-3.38v-1.7l-.89.37a2.55,2.55,0,0,1-3.35-1.39,2.56,2.56,0,0,1,1.39-3.35l2.85-1.18v-1.87L189,197.1l-1.62.93.41,3.06a2.57,2.57,0,0,1-2.21,2.88l-.34,0a2.57,2.57,0,0,1-2.54-2.23l-.12-.95-1.47.85,1.11,8.68a2.58,2.58,0,0,1-2.22,2.87l-.33,0a2.57,2.57,0,0,1-2.54-2.25l-.84-6.54-1.46.84.52,4.18a2.6,2.6,0,0,1-.53,1.9,2.53,2.53,0,0,1-1.71,1,1.62,1.62,0,0,1-.31,0,2.57,2.57,0,0,1-2.55-2.25l-.24-2-3.22,1.85a2.51,2.51,0,0,1-1.28.35,2.59,2.59,0,0,1-2.22-1.29,2.56,2.56,0,0,1,.94-3.5l3.21-1.86-1.63-1.22a2.57,2.57,0,0,1-.5-3.59,2.59,2.59,0,0,1,2.05-1,2.53,2.53,0,0,1,1.54.52l3.37,2.54,1.46-.85-5.26-4a2.57,2.57,0,0,1-1-1.7,2.5,2.5,0,0,1,.5-1.9,2.55,2.55,0,0,1,2-1h0a2.56,2.56,0,0,1,1.55.52l7,5.3,1.47-.84-.76-.59a2.57,2.57,0,0,1,1.56-4.6,2.51,2.51,0,0,1,1.56.53l2.45,1.88,1.62-.94v-3.22l-1.62-.94-2.45,1.88a2.56,2.56,0,0,1-3.59-.47,2.57,2.57,0,0,1,.47-3.6l.76-.58-1.47-.85-7,5.3a2.57,2.57,0,0,1-3.59-.49,2.5,2.5,0,0,1-.5-1.9,2.57,2.57,0,0,1,1-1.7l5.26-4-1.46-.84-3.37,2.53a2.53,2.53,0,0,1-1.54.52,2.57,2.57,0,0,1-1.55-4.62l1.63-1.22-3.21-1.86a2.57,2.57,0,0,1-.94-3.5,2.58,2.58,0,0,1,2.22-1.28h0a2.61,2.61,0,0,1,1.28.34L170,174l.24-2a2.57,2.57,0,0,1,2.55-2.25l.31,0a2.57,2.57,0,0,1,2.24,2.86l-.52,4.18,1.46.84.84-6.54a2.56,2.56,0,0,1,2.54-2.24h0a1.83,1.83,0,0,1,.33,0,2.52,2.52,0,0,1,1.7,1,2.55,2.55,0,0,1,.53,1.7c0,.07,0,.13,0,.2l-1.11,8.67,1.47.85.12-1a2.57,2.57,0,0,1,2.54-2.23h0l.34,0a2.58,2.58,0,0,1,2.21,2.88l-.41,3.06L189,185l2.81-1.61v-1.88l-2.85-1.17a2.57,2.57,0,0,1,1-4.94h0a2.75,2.75,0,0,1,1,.19l.89.37v-1.69l-8.07-3.38a2.56,2.56,0,0,1,1-4.93,2.43,2.43,0,0,1,1,.2l6.09,2.55V167l-3.88-1.65a2.56,2.56,0,0,1,1-4.92h0a2.66,2.66,0,0,1,1,.2l1.88.8v-3.71a2.49,2.49,0,0,1,0-.47,2.56,2.56,0,0,1,5,0,2.5,2.5,0,0,1,0,.47v3.71l1.87-.8a2.66,2.66,0,0,1,1-.2,2.56,2.56,0,0,1,1,4.92L196.89,167v1.69l6.08-2.55a2.43,2.43,0,0,1,1-.2,2.57,2.57,0,0,1,1,4.93l-8.07,3.38v1.69l.88-.37a2.8,2.8,0,0,1,1-.19,2.57,2.57,0,0,1,1,4.94l-2.85,1.17v1.88l2.8,1.61,1.62-.93L200.9,181a2.58,2.58,0,0,1,2.21-2.88l.34,0a2.57,2.57,0,0,1,2.54,2.23l.13,1,1.46-.85-1.1-8.67a2.55,2.55,0,0,1,2.22-2.87,1.67,1.67,0,0,1,.32,0,2.58,2.58,0,0,1,2.55,2.24l.83,6.54,1.46-.84-.51-4.18a2.55,2.55,0,0,1,2.23-2.86l.31,0a2.57,2.57,0,0,1,2.55,2.25l.25,2,3.21-1.85a2.61,2.61,0,0,1,1.28-.34,2.57,2.57,0,0,1,2.22,1.28,2.55,2.55,0,0,1-.94,3.5l-3.21,1.86,1.63,1.22a2.59,2.59,0,0,1,1,1.69,2.58,2.58,0,0,1-2.55,2.93,2.53,2.53,0,0,1-1.54-.52l-3.37-2.53-1.45.84,5.25,4a2.57,2.57,0,0,1-3.11,4.09l-7-5.3-1.47.85.76.58a2.56,2.56,0,0,1-1.56,4.6,2.51,2.51,0,0,1-1.56-.53l-2.45-1.88-1.62.94v3.22l1.62.94,2.45-1.88a2.51,2.51,0,0,1,1.56-.53,2.56,2.56,0,0,1,1.56,4.6l-.76.59,1.47.84,7-5.3a2.58,2.58,0,0,1,3.6.49,2.59,2.59,0,0,1,.5,1.9,2.62,2.62,0,0,1-1,1.7L215,200l1.45.85,3.37-2.54a2.53,2.53,0,0,1,1.54-.52,2.57,2.57,0,0,1,2,1,2.55,2.55,0,0,1-.5,3.59l-1.63,1.22,3.21,1.86a2.57,2.57,0,0,1-1.28,4.79,2.51,2.51,0,0,1-1.28-.35l-3.21-1.85-.25,2a2.57,2.57,0,0,1-2.55,2.25,1.62,1.62,0,0,1-.31,0,2.55,2.55,0,0,1-2.23-2.86l.51-4.18-1.46-.84-.83,6.54a2.59,2.59,0,0,1-2.55,2.25,1.66,1.66,0,0,1-.32,0,2.55,2.55,0,0,1-2.22-2.86l1.1-8.68-1.46-.85-.13.95a2.57,2.57,0,0,1-2.54,2.23l-.34,0a2.58,2.58,0,0,1-2.21-2.88l.41-3.06-1.62-.93-2.8,1.62v1.87l2.85,1.18a2.59,2.59,0,0,1,1.39,3.35,2.57,2.57,0,0,1-2.38,1.59,2.6,2.6,0,0,1-1-.2l-.88-.37v1.7l8.07,3.38a2.57,2.57,0,0,1-1,4.93,2.61,2.61,0,0,1-1-.2l-6.08-2.55v1.68l3.88,1.65a2.54,2.54,0,0,1,1.37,1.4,2.56,2.56,0,0,1-2.38,3.53,2.66,2.66,0,0,1-1-.2l-1.87-.8v3.71a2.59,2.59,0,0,1,0,.47A2.55,2.55,0,0,1,194.32,226.93Z"/><path class="cls-4" d="M194.32,156.06a1.67,1.67,0,0,1,1.64,1.36,2.83,2.83,0,0,1,0,.3v5.07l3.13-1.33a1.64,1.64,0,0,1,.65-.13,1.66,1.66,0,0,1,.65,3.19L196,166.4V170l7.34-3.07a1.59,1.59,0,0,1,.64-.13,1.66,1.66,0,0,1,.65,3.19L196,173.65v3.64l2.14-.88a1.73,1.73,0,0,1,.63-.13,1.67,1.67,0,0,1,1.54,1,1.66,1.66,0,0,1-.9,2.17L196,180.89v3l3.71,2.14,2.59-1.5-.48-3.66a1.66,1.66,0,0,1,1.43-1.86l.22,0a1.67,1.67,0,0,1,1.65,1.45l.3,2.29,3.16-1.82-1.19-9.28a1.67,1.67,0,0,1,1.44-1.86H209a1.66,1.66,0,0,1,1.65,1.45l1,7.89,3.15-1.82-.59-4.77a1.67,1.67,0,0,1,1.45-1.86h.2a1.66,1.66,0,0,1,1.65,1.46l.42,3.38,4.39-2.54a1.72,1.72,0,0,1,.83-.22,1.67,1.67,0,0,1,1.61,2.09,1.65,1.65,0,0,1-.78,1l-4.39,2.54,2.72,2a1.67,1.67,0,0,1,.64,1.1,1.66,1.66,0,0,1-1.65,1.89,1.62,1.62,0,0,1-1-.33l-3.85-2.9L213.34,182l6.33,4.82a1.67,1.67,0,0,1,.32,2.33,1.66,1.66,0,0,1-2.33.32l-7.44-5.66-3.16,1.82,1.83,1.41a1.66,1.66,0,0,1-1,3,1.61,1.61,0,0,1-1-.35l-2.93-2.24-2.59,1.5v4.27l2.59,1.49,2.93-2.24a1.61,1.61,0,0,1,1-.35,1.66,1.66,0,0,1,1,3l-1.83,1.41,3.16,1.83,7.44-5.67a1.66,1.66,0,0,1,2,2.65l-6.33,4.82,3.15,1.82,3.85-2.9a1.62,1.62,0,0,1,1-.33,1.66,1.66,0,0,1,1,3l-2.72,2,4.39,2.54a1.66,1.66,0,0,1,.61,2.27,1.68,1.68,0,0,1-1.44.83,1.72,1.72,0,0,1-.83-.22L218,206.6l-.42,3.38a1.66,1.66,0,0,1-1.65,1.46h-.2a1.7,1.7,0,0,1-1.11-.63,1.68,1.68,0,0,1-.34-1.23l.59-4.77L211.68,203l-1,7.89a1.66,1.66,0,0,1-1.65,1.45h-.21a1.67,1.67,0,0,1-1.44-1.86l1.19-9.28-3.16-1.82-.3,2.29a1.67,1.67,0,0,1-1.65,1.45l-.22,0a1.66,1.66,0,0,1-1.43-1.86l.48-3.66-2.59-1.49L196,198.2v3l3.41,1.4a1.66,1.66,0,0,1-.64,3.2,1.72,1.72,0,0,1-.63-.12l-2.14-.89v3.65l8.63,3.61a1.68,1.68,0,0,1,.89,2.18,1.66,1.66,0,0,1-1.54,1,1.78,1.78,0,0,1-.64-.13L196,212v3.64l4.43,1.88a1.71,1.71,0,0,1,.9.91,1.66,1.66,0,0,1-2.2,2.15L196,219.29v5.08c0,.1,0,.2,0,.3a1.68,1.68,0,0,1-1.64,1.36,1.66,1.66,0,0,1-1.63-1.36,1.53,1.53,0,0,1,0-.3v-5.08l-3.13,1.33a1.64,1.64,0,0,1-2.18-.88,1.6,1.6,0,0,1,0-1.27,1.65,1.65,0,0,1,.89-.91l4.43-1.88V212l-7.34,3.08a1.78,1.78,0,0,1-.64.13,1.67,1.67,0,0,1-.65-3.2l8.63-3.61v-3.65l-2.14.89a1.68,1.68,0,0,1-.63.12,1.66,1.66,0,0,1-1.54-1,1.68,1.68,0,0,1,.9-2.18l3.41-1.4v-3L189,196.06l-2.59,1.49.48,3.66a1.66,1.66,0,0,1-.33,1.23,1.62,1.62,0,0,1-1.1.63l-.22,0a1.66,1.66,0,0,1-1.64-1.45l-.31-2.29-3.15,1.82,1.18,9.28a1.64,1.64,0,0,1-.33,1.23,1.7,1.7,0,0,1-1.11.63h-.21a1.67,1.67,0,0,1-1.65-1.45L177,203l-3.16,1.82.59,4.77a1.67,1.67,0,0,1-1.45,1.86h-.2A1.66,1.66,0,0,1,171.1,210l-.41-3.38-4.4,2.54a1.72,1.72,0,0,1-.83.22,1.66,1.66,0,0,1-.83-3.1l4.39-2.54-2.71-2a1.66,1.66,0,0,1,2-2.66l3.84,2.9,3.15-1.82L169,195.28a1.66,1.66,0,1,1,2-2.65l7.44,5.67,3.16-1.83-1.83-1.41a1.66,1.66,0,0,1,1-3,1.61,1.61,0,0,1,1,.35l2.93,2.24,2.59-1.49v-4.27l-2.59-1.5-2.93,2.24a1.61,1.61,0,0,1-1,.35,1.66,1.66,0,0,1-1-3l1.83-1.41-3.16-1.82L171,189.45a1.66,1.66,0,0,1-2.33-.32,1.67,1.67,0,0,1,.32-2.33L175.3,182l-3.15-1.82-3.84,2.9a1.66,1.66,0,1,1-2-2.66l2.71-2-4.39-2.54a1.62,1.62,0,0,1-.78-1,1.64,1.64,0,0,1,.17-1.22,1.68,1.68,0,0,1,1.44-.83,1.72,1.72,0,0,1,.83.22l3.17,1.83,1.23.71.08-.71.33-2.67a1.76,1.76,0,0,1,.19-.6,1.69,1.69,0,0,1,1.46-.86h.2a1.69,1.69,0,0,1,1.26.85,1.73,1.73,0,0,1,.19,1l-.28,2.26-.31,2.51L177,179.1l.55-4.33.42-3.27,0-.29a1.67,1.67,0,0,1,1.65-1.45h.21a1.65,1.65,0,0,1,1.45,1.73.53.53,0,0,1,0,.13l-.4,3.14-.78,6.14,3.15,1.82.31-2.29a1.66,1.66,0,0,1,1.64-1.45l.22,0a1.66,1.66,0,0,1,1.43,1.86l-.48,3.66L189,186l3.71-2.14v-3l-3.41-1.41a1.66,1.66,0,0,1,.64-3.2,1.69,1.69,0,0,1,.63.13l2.14.88v-3.64l-5.12-2.15L184,170a1.66,1.66,0,0,1,.65-3.19,1.59,1.59,0,0,1,.64.13l7.34,3.07V166.4l-4.43-1.88a1.66,1.66,0,0,1,1.3-3.06l3.13,1.33v-5.07a1.45,1.45,0,0,1,0-.3,1.65,1.65,0,0,1,1.63-1.36m0-1.81a3.47,3.47,0,0,0-3.41,2.84,3.36,3.36,0,0,0-.06.63v2.34l-.62-.26a3.44,3.44,0,0,0-4.54,1.84,3.45,3.45,0,0,0,.78,3.85l-.45-.19a3.47,3.47,0,0,0-4.54,1.86,3.55,3.55,0,0,0-.27,1.18,3.22,3.22,0,0,0-1.15-.36,3.15,3.15,0,0,0-.44,0,3.47,3.47,0,0,0-3.44,3l0,.3,0,.19a3.34,3.34,0,0,0-.33-.84,3.52,3.52,0,0,0-2.62-1.77,3,3,0,0,0-.42,0,3.45,3.45,0,0,0-3.44,3l-.08.67-2-1.17a3.44,3.44,0,0,0-1.74-.47,3.49,3.49,0,0,0-3,1.74,3.44,3.44,0,0,0-.37,2.55,3.49,3.49,0,0,0,1.64,2.19l2,1.17-.54.4a3.47,3.47,0,0,0,2.09,6.24,3.42,3.42,0,0,0,1-.13l-.39.29a3.47,3.47,0,0,0-.66,4.87,3.51,3.51,0,0,0,.87.81,3.56,3.56,0,0,0-.87.82,3.46,3.46,0,0,0,.66,4.86l.39.29a3.83,3.83,0,0,0-1-.13,3.49,3.49,0,0,0-2.77,1.38,3.46,3.46,0,0,0,.68,4.86l.54.4-2,1.18a3.47,3.47,0,1,0,3.47,6l2-1.17.08.67a3.47,3.47,0,0,0,3.44,3.05,3,3,0,0,0,.42,0,3.5,3.5,0,0,0,3-2.61l.06.49a3.47,3.47,0,0,0,3.44,3,3.15,3.15,0,0,0,.44,0,3.42,3.42,0,0,0,1.15-.35,3.49,3.49,0,0,0,.27,1.17,3.47,3.47,0,0,0,4.54,1.86l.45-.19a3.48,3.48,0,0,0-.81,1.21,3.39,3.39,0,0,0,0,2.65,3.48,3.48,0,0,0,4.54,1.84l.62-.27v2.35a3.36,3.36,0,0,0,.06.63,3.47,3.47,0,0,0,6.82,0,3.36,3.36,0,0,0,.06-.63V222l.62.27a3.49,3.49,0,0,0,4.55-1.84,3.43,3.43,0,0,0,0-2.65,3.58,3.58,0,0,0-.81-1.21l.45.19a3.47,3.47,0,0,0,4.54-1.86,3.27,3.27,0,0,0,.27-1.17,3.49,3.49,0,0,0,1.15.35l.44,0a3.47,3.47,0,0,0,3.44-3l.06-.49a3.5,3.5,0,0,0,2.95,2.61,3,3,0,0,0,.42,0,3.49,3.49,0,0,0,3.45-3.05l.08-.67,2,1.17a3.38,3.38,0,0,0,1.73.47,3.47,3.47,0,0,0,1.73-6.47l-2-1.18.53-.4a3.48,3.48,0,0,0,.69-4.86,3.52,3.52,0,0,0-2.78-1.38,3.9,3.9,0,0,0-1,.13l.4-.29a3.45,3.45,0,0,0,1.33-2.3,3.4,3.4,0,0,0-.67-2.56,3.6,3.6,0,0,0-.88-.82,3.35,3.35,0,0,0,.87-.81,3.39,3.39,0,0,0,.68-2.57,3.48,3.48,0,0,0-1.33-2.3l-.4-.29a3.47,3.47,0,0,0,1,.13,3.52,3.52,0,0,0,2.78-1.38,3.48,3.48,0,0,0-.69-4.86l-.53-.4,2-1.17a3.46,3.46,0,0,0,1.62-2.11,3.41,3.41,0,0,0-.35-2.63,3.46,3.46,0,0,0-3-1.74,3.38,3.38,0,0,0-1.73.47l-2,1.17-.08-.67a3.48,3.48,0,0,0-3.45-3,3,3,0,0,0-.42,0,3.5,3.5,0,0,0-2.95,2.61l-.06-.49a3.48,3.48,0,0,0-3.44-3l-.44,0a3.29,3.29,0,0,0-1.15.36,3.32,3.32,0,0,0-.27-1.18,3.47,3.47,0,0,0-4.54-1.86l-.45.19a3.47,3.47,0,0,0-3.76-5.69l-.62.26v-2.34a3.36,3.36,0,0,0-.06-.63,3.46,3.46,0,0,0-3.41-2.84ZM182.15,179l.51-4,.4-3.14,0-.26v0a1.15,1.15,0,0,0,.25.12l3.5,1.47,3.12,1.31h-.07a3.46,3.46,0,0,0-3.21,2.14,3.28,3.28,0,0,0-.22.8,3.2,3.2,0,0,0-.81-.2,3.44,3.44,0,0,0-.46,0,3.49,3.49,0,0,0-3,1.8Zm16.53-4.51,6.63-2.78.25-.12a2.46,2.46,0,0,0,0,.28l.91,7.13a3.49,3.49,0,0,0-3-1.8,3.55,3.55,0,0,0-.46,0,3,3,0,0,0-.8.2,3.83,3.83,0,0,0-.23-.8,3.46,3.46,0,0,0-3.21-2.14Zm-.89,7.62,2.23-.92.31,2.39-.64.37-1.9-1.1v-.74Zm-9.48,1.47.32-2.39,2.22.92v.74l-1.9,1.1-.64-.37ZM171.86,191l.22-.15,5.72-4.36a3.48,3.48,0,0,0,.21,3.92,3.6,3.6,0,0,0,.58.59,3.6,3.6,0,0,0-.58.59,3.48,3.48,0,0,0-.21,3.92l-5.72-4.35-.22-.16Zm38.19,0a3.24,3.24,0,0,0,.58-.59,3.48,3.48,0,0,0,.22-3.92l5.71,4.36.22.15-.22.16-5.71,4.35a3.48,3.48,0,0,0-.22-3.92,3.24,3.24,0,0,0-.58-.59ZM203.16,190l.64-.37,1.91,1.46-1.91,1.47-.64-.38V190ZM182.93,191l1.91-1.46.65.37v2.18l-.65.38L182.93,191Zm5.38,7.47.64-.37,1.9,1.1V200l-2.22.92-.32-2.4Zm9.48.73,1.9-1.1.64.37-.31,2.4-2.23-.92v-.75Zm5.66,5.66a3.5,3.5,0,0,0,3-1.81l-.91,7.13a2.64,2.64,0,0,0,0,.28l-.25-.12-6.63-2.77h.07a3.46,3.46,0,0,0,3.21-2.14,4.1,4.1,0,0,0,.23-.81,3.49,3.49,0,0,0,.8.21l.46,0Zm-20.36,5.6,0-.28-.91-7.13a3.5,3.5,0,0,0,3,1.81c.16,0,.31,0,.46,0a3.71,3.71,0,0,0,.81-.21,3.44,3.44,0,0,0,3.43,3H190l-6.62,2.77-.25.12Z"/><polygon class="cls-8" points="191.52 192.66 191.52 189.43 194.32 187.81 197.12 189.43 197.12 192.66 194.32 194.28 191.52 192.66"/><path class="cls-4" d="M194.32,188.85l.73.42,1.17.68v2.19l-1.17.67-.73.42-.73-.42-1.17-.67V190l1.17-.68.73-.42m0-2.08-1.63.94-2.07,1.19v4.28l2.07,1.2,1.63.94,1.64-.94,2.06-1.2V188.9L196,187.71l-1.64-.94Z"/><path class="cls-2" d="M339.28,81.81V95.38h-2V79.44h2.83l6.94,13.64V79.44h2V95.38h-2.83Z"/><path class="cls-2" d="M354.81,95.38h-2.06V79.44h2.06Z"/><path class="cls-2" d="M356.91,79.44h2l4.66,14.14,4.67-14.14h2L365,95.38h-2.77Z"/><path class="cls-2" d="M383.38,90.78c0,2.66-1.65,4.84-5.77,4.84s-5.76-2.18-5.76-4.84V84c0-2.66,1.65-4.84,5.76-4.84s5.77,2.18,5.77,4.84Zm-9.48,0c0,2,1.2,3.06,3.71,3.06s3.71-1.1,3.71-3.06V84.09c0-2-1.2-3.07-3.71-3.07s-3.71,1.1-3.71,3.07Z"/><path class="cls-2" d="M390.68,88.73h4v-4h1.77v4h4V90.4h-4v4h-1.77v-4h-4Z"/><path class="cls-2" d="M413.27,85.33a26.27,26.27,0,0,0-3.33,2v8h-2V83.73h1.75l.12,1.62A14.85,14.85,0,0,1,413,83.49Z"/><path class="cls-2" d="M424.06,95.38V88.15H417v7.23h-2.06V79.44H417v6.87h7.06V79.44h2.06V95.38Z"/><path class="cls-2" d="M431.48,83.73v8.9c0,.76.38,1.07,1.13,1.07a10.81,10.81,0,0,0,3.9-1.17v-8.8h2V95.38h-1.62l-.19-1A12.59,12.59,0,0,1,432,95.62c-1.87,0-2.54-1.17-2.54-3V83.73Z"/><path class="cls-2" d="M442,79.44h5.76c3.42,0,4.62,1.49,4.62,3.93v2.37c0,2.46-1.2,3.94-4.62,3.94H444v5.7H442Zm5.69,1.85H444v6.55h3.64c2,0,2.63-.55,2.63-2.1V83.39C450.31,81.81,449.64,81.29,447.68,81.29Z"/><path class="cls-2" d="M464,95.38V88.15H456.9v7.23h-2.06V79.44h2.06v6.87H464V79.44H466V95.38Z"/><path class="cls-2" d="M468.77,93.54c1.77-2,2.22-2.54,4.11-4.76,2.44-2.9,2.61-3.52,2.61-4.65v-.69c0-1.51-.41-2-2.82-2a14.87,14.87,0,0,0-3.55.52l-.28-1.72a15.15,15.15,0,0,1,4-.6c3.69,0,4.67,1.3,4.67,3.74v.52c0,1.89-.34,2.71-2.73,5.55-1.72,2.06-2,2.37-3.52,4.12h6.39v1.77h-8.87Z"/><path class="cls-2" d="M490.25,91.48c0,2.39-1.22,4.14-4.92,4.14s-4.93-1.75-4.93-4.14V83.82c0-2.39,1.22-4.14,4.93-4.14s4.92,1.75,4.92,4.14Zm-4.92-10c-2.21,0-2.92.84-2.92,2.59v7.22c0,1.75.71,2.59,2.92,2.59s2.91-.84,2.91-2.59V84C488.24,82.29,487.53,81.45,485.33,81.45Z"/><path class="cls-2" d="M504.71,83.73h2l-3.85,11.65h-2.68l-3.85-11.65h2l3.2,10Z"/><path class="cls-2" d="M508.32,81.86V79h2v2.89Zm0,13.52V83.73h2V95.38Z"/><path class="cls-2" d="M521.94,95.38h-1.7l-.12-.86a6.62,6.62,0,0,1-3.78,1.1c-2.18,0-3.09-1.29-3.09-3.35,0-2.42,1.22-3.28,3.57-3.28h3.11V87.17c0-1.46-.65-2-2.54-2a19.42,19.42,0,0,0-3.49.38l-.22-1.6a16.32,16.32,0,0,1,3.83-.5c3.33,0,4.43,1.29,4.43,3.78Zm-2-4.71h-3c-1.24,0-1.7.38-1.7,1.55s.22,1.68,1.65,1.68a5.88,5.88,0,0,0,3-1Z"/><path class="cls-2" d="M525,95.38V79l2-.29v16.7Z"/><path class="cls-2" d="M533.59,95.62a12.14,12.14,0,0,1-3.7-.62l.26-1.58a13.59,13.59,0,0,0,3.32.48c1.85,0,2.16-.34,2.16-1.58s-.1-1.39-2.44-2c-2.9-.71-3.16-1.31-3.16-3.73,0-2.15,1-3.13,4-3.13a13.32,13.32,0,0,1,3.3.4l-.14,1.66a18,18,0,0,0-3.23-.34c-1.73,0-2,.41-2,1.46,0,1.29,0,1.53,2,2,3.35.84,3.61,1.24,3.61,3.56S536.92,95.62,533.59,95.62Z"/><path class="cls-2" d="M551.42,80.38a11.89,11.89,0,0,0-1.94-.22c-1.24,0-1.55.43-1.55,1.6v2h3.32l-.16,1.67h-3.16v10h-2v-10h-2.06V83.73h2.06V81.57c0-2,1.15-3.08,3.3-3.08a8.17,8.17,0,0,1,2.37.33Z"/><path class="cls-2" d="M557.17,95.62c-3.4,0-4.74-1.94-4.74-4.38V87.87c0-2.44,1.34-4.38,4.74-4.38s4.73,1.94,4.73,4.38v3.37C561.9,93.68,560.56,95.62,557.17,95.62Zm0-10.39c-1.82,0-2.73.87-2.73,2.56v3.52c0,1.7.91,2.56,2.73,2.56s2.72-.86,2.72-2.56V87.79C559.89,86.1,559,85.23,557.17,85.23Z"/><path class="cls-2" d="M570,85.33a25.46,25.46,0,0,0-3.32,2v8h-2V83.73h1.74l.12,1.62a14.85,14.85,0,0,1,3.21-1.86Z"/><path class="cls-2" d="M576.22,81.86V79h2v2.89Zm0,13.52V83.73h2V95.38Z"/><path class="cls-2" d="M588.61,95.38v-8.9c0-.77-.38-1.08-1.12-1.08a10.9,10.9,0,0,0-3.9,1.17v8.81h-2V83.73h1.62l.19,1a12.77,12.77,0,0,1,4.69-1.24c1.87,0,2.54,1.17,2.54,3v8.93Z"/><path class="cls-2" d="M595.86,83.73V96.12c0,1.65-.17,1.87-2.7,4.09l-1.22-1.41c1.91-1.7,1.91-1.82,1.91-2.8V83.73Zm-2-1.87V79h2v2.89Z"/><path class="cls-2" d="M603.28,93.9a14.5,14.5,0,0,0,3.68-.56l.27,1.61a12.88,12.88,0,0,1-4.12.67c-3.44,0-4.62-1.65-4.62-4.28v-3.5c0-2.41,1.11-4.35,4.57-4.35s4.38,2,4.38,4.4v2.44H600.5v1C600.5,93.15,601,93.9,603.28,93.9Zm-2.78-5.24h5v-1c0-1.63-.55-2.54-2.44-2.54s-2.56.91-2.56,2.54Z"/><path class="cls-2" d="M609.41,91.38V87.72c0-2.68,1-4.23,4.64-4.23a10.12,10.12,0,0,1,2.77.36l-.16,1.67a12.35,12.35,0,0,0-2.56-.26c-2,0-2.68.57-2.68,2.39v3.8c0,1.82.67,2.4,2.68,2.4a11.74,11.74,0,0,0,2.56-.27l.19,1.68a10.84,10.84,0,0,1-2.8.36C610.32,95.62,609.41,94.06,609.41,91.38Z"/><path class="cls-2" d="M625.51,95.19a7.35,7.35,0,0,1-2.44.43c-2,0-2.89-.72-2.89-2.66V85.4h-2.06V83.73h2.06V80.86l2-.29v3.16h3.3l-.17,1.67h-3.13v7.23c0,.86.12,1.29,1.19,1.29a7.5,7.5,0,0,0,1.87-.29Z"/><path class="cls-2" d="M627.79,81.86V79h2v2.89Zm0,13.52V83.73h2V95.38Z"/><path class="cls-2" d="M637.28,95.62c-3.39,0-4.73-1.94-4.73-4.38V87.87c0-2.44,1.34-4.38,4.73-4.38S642,85.43,642,87.87v3.37C642,93.68,640.68,95.62,637.28,95.62Zm0-10.39c-1.81,0-2.72.87-2.72,2.56v3.52c0,1.7.91,2.56,2.72,2.56S640,93,640,91.31V87.79C640,86.1,639.1,85.23,637.28,85.23Z"/><path class="cls-2" d="M651.81,95.38v-8.9c0-.77-.38-1.08-1.12-1.08a11,11,0,0,0-3.9,1.17v8.81h-2V83.73h1.62l.2,1a12.67,12.67,0,0,1,4.68-1.24c1.87,0,2.54,1.17,2.54,3v8.93Z"/><path class="cls-2" d="M665,95.62a12.15,12.15,0,0,1-3.71-.62l.26-1.58a13.74,13.74,0,0,0,3.33.48c1.84,0,2.15-.34,2.15-1.58s-.09-1.39-2.44-2c-2.89-.71-3.16-1.31-3.16-3.73,0-2.15,1-3.13,4-3.13a13.34,13.34,0,0,1,3.31.4l-.15,1.66a17.9,17.9,0,0,0-3.23-.34c-1.72,0-2,.41-2,1.46,0,1.29,0,1.53,2,2,3.35.84,3.61,1.24,3.61,3.56S668.28,95.62,665,95.62Z"/><path class="cls-2" d="M678.78,95.38v-8.9c0-.77-.38-1.08-1.12-1.08a10.88,10.88,0,0,0-3.9,1.2v8.78h-2V79l2-.29v6a11.81,11.81,0,0,1,4.49-1.22c1.87,0,2.54,1.17,2.54,3v8.93Z"/><path class="cls-2" d="M688.16,95.62c-3.4,0-4.73-1.94-4.73-4.38V87.87c0-2.44,1.33-4.38,4.73-4.38s4.74,1.94,4.74,4.38v3.37C692.9,93.68,691.56,95.62,688.16,95.62Zm0-10.39c-1.82,0-2.73.87-2.73,2.56v3.52c0,1.7.91,2.56,2.73,2.56s2.73-.86,2.73-2.56V87.79C690.89,86.1,690,85.23,688.16,85.23Z"/><path class="cls-2" d="M697.54,83.73v8.9c0,.76.39,1.07,1.13,1.07a10.81,10.81,0,0,0,3.9-1.17v-8.8h2V95.38H703l-.19-1a12.49,12.49,0,0,1-4.69,1.25c-1.87,0-2.54-1.17-2.54-3V83.73Z"/><path class="cls-2" d="M707.93,95.38V79l2-.29v16.7Z"/><path class="cls-2" d="M712.86,87.29c0-2.32,1-3.8,3.78-3.8a18,18,0,0,1,3.33.36V79l2-.29v16.7h-1.7l-.17-1a6.25,6.25,0,0,1-3.85,1.29c-2.3,0-3.4-1.22-3.4-3.57ZM720,85.62a18.4,18.4,0,0,0-3.21-.36c-1.34,0-1.89.62-1.89,2v4.76c0,1.2.38,1.8,1.79,1.8A5.4,5.4,0,0,0,720,92.46Z"/><path class="cls-2" d="M739.11,91.26c0,2.66-1,4.36-5,4.36a21,21,0,0,1-4.17-.46V79l2-.29V84.3a8.48,8.48,0,0,1,3.69-.81c2.42,0,3.42,1.41,3.42,3.63ZM732,93.68a15.49,15.49,0,0,0,2.3.17c2.37,0,2.8-1,2.8-2.51V87.05c0-1.19-.53-1.79-1.89-1.79a8.66,8.66,0,0,0-3.21.88Z"/><path class="cls-2" d="M746.12,93.9a14.64,14.64,0,0,0,3.69-.56l.26,1.61a12.82,12.82,0,0,1-4.11.67c-3.45,0-4.62-1.65-4.62-4.28v-3.5c0-2.41,1.1-4.35,4.57-4.35s4.38,2,4.38,4.4v2.44h-6.94v1C743.35,93.15,743.85,93.9,746.12,93.9Zm-2.77-5.24h5v-1c0-1.63-.55-2.54-2.44-2.54s-2.56.91-2.56,2.54Z"/><path class="cls-2" d="M763,85.33a26.27,26.27,0,0,0-3.33,2v8h-2V83.73h1.75l.12,1.62a14.85,14.85,0,0,1,3.21-1.86Z"/><path class="cls-2" d="M768.71,93.9a14.64,14.64,0,0,0,3.69-.56l.26,1.61a12.82,12.82,0,0,1-4.11.67c-3.45,0-4.62-1.65-4.62-4.28v-3.5c0-2.41,1.1-4.35,4.57-4.35s4.38,2,4.38,4.4v2.44h-6.94v1C765.94,93.15,766.44,93.9,768.71,93.9Zm-2.77-5.24h5v-1c0-1.63-.55-2.54-2.44-2.54s-2.56.91-2.56,2.54Z"/><path class="cls-2" d="M781.92,80.38a11.9,11.9,0,0,0-1.93-.22c-1.25,0-1.56.43-1.56,1.6v2h3.33l-.17,1.67h-3.16v10h-2v-10h-2.06V83.73h2.06V81.57c0-2,1.15-3.08,3.3-3.08a8.17,8.17,0,0,1,2.37.33Z"/><path class="cls-2" d="M788.86,85.33a25.46,25.46,0,0,0-3.32,2v8h-2V83.73h1.74l.12,1.62a15.1,15.1,0,0,1,3.21-1.86Z"/><path class="cls-2" d="M790.42,81.86V79h2v2.89Zm0,13.52V83.73h2V95.38Z"/><path class="cls-2" d="M804.8,84.9l-1.39.26a4.2,4.2,0,0,1,.65,2.32V88c0,2.51-1.53,4-4.57,4a8.92,8.92,0,0,1-1.2-.07c-.4.33-.84.74-.84,1.24s.24.63.77.67l3.3.34c2.11.21,2.92,1,2.92,2.8,0,2.53-.88,3.37-5.09,3.37a18.7,18.7,0,0,1-4.24-.55l.29-1.58a18.24,18.24,0,0,0,3.9.48c3,0,3.25-.41,3.25-1.63,0-1-.36-1.15-1.72-1.26l-3.09-.29c-1.72-.15-2.27-1-2.27-2.13a2.64,2.64,0,0,1,1.1-2.06,3.5,3.5,0,0,1-1.63-3.3v-.53c0-2.53,1.22-4,4.55-4a7.47,7.47,0,0,1,2,.24h3.35Zm-5.31.24c-1.94,0-2.66.64-2.66,2.37V88c0,1.77.74,2.32,2.66,2.32s2.65-.79,2.65-2.32v-.5C802.14,85.81,801.43,85.14,799.49,85.14Z"/><path class="cls-2" d="M811.21,93.9a14.64,14.64,0,0,0,3.69-.56l.26,1.61a12.82,12.82,0,0,1-4.11.67c-3.45,0-4.62-1.65-4.62-4.28v-3.5c0-2.41,1.1-4.35,4.57-4.35s4.38,2,4.38,4.4v2.44h-6.94v1C808.44,93.15,808.94,93.9,811.21,93.9Zm-2.77-5.24h5v-1c0-1.63-.55-2.54-2.44-2.54s-2.56.91-2.56,2.54Z"/><path class="cls-2" d="M823.4,85.33a25.58,25.58,0,0,0-3.33,2v8h-2V83.73h1.75l.12,1.62a14.77,14.77,0,0,1,3.2-1.86Z"/><path class="cls-2" d="M833.21,95.38h-1.7l-.12-.86a6.62,6.62,0,0,1-3.78,1.1c-2.18,0-3.09-1.29-3.09-3.35,0-2.42,1.22-3.28,3.57-3.28h3.11V87.17c0-1.46-.65-2-2.54-2a19.42,19.42,0,0,0-3.49.38L825,84a16.32,16.32,0,0,1,3.83-.5c3.33,0,4.43,1.29,4.43,3.78Zm-2-4.71h-3c-1.24,0-1.7.38-1.7,1.55s.22,1.68,1.65,1.68a5.88,5.88,0,0,0,3-1Z"/><path class="cls-2" d="M842.35,95.19a7.35,7.35,0,0,1-2.44.43c-2,0-2.9-.72-2.9-2.66V85.4H835V83.73H837V80.86l2-.29v3.16h3.3l-.16,1.67H839v7.23c0,.86.12,1.29,1.2,1.29a7.43,7.43,0,0,0,1.86-.29Z"/><path class="cls-2" d="M848.81,93.9a14.5,14.5,0,0,0,3.68-.56l.27,1.61a12.88,12.88,0,0,1-4.12.67c-3.44,0-4.62-1.65-4.62-4.28v-3.5c0-2.41,1.11-4.35,4.57-4.35s4.38,2,4.38,4.4v2.44H846v1C846,93.15,846.54,93.9,848.81,93.9ZM846,88.66h5v-1c0-1.63-.55-2.54-2.44-2.54S846,86.07,846,87.7Z"/><path class="cls-2" d="M855.22,87.29c0-2.32,1.06-3.8,3.78-3.8a17.88,17.88,0,0,1,3.33.36V79l2-.29v16.7h-1.7l-.17-1a6.22,6.22,0,0,1-3.85,1.29c-2.29,0-3.4-1.22-3.4-3.57Zm7.11-1.67a18.3,18.3,0,0,0-3.21-.36c-1.34,0-1.89.62-1.89,2v4.76c0,1.2.39,1.8,1.8,1.8a5.35,5.35,0,0,0,3.3-1.39Z"/><path class="cls-2" d="M880.61,95.38h-1.7l-.12-.86a6.58,6.58,0,0,1-3.78,1.1c-2.17,0-3.08-1.29-3.08-3.35,0-2.42,1.22-3.28,3.56-3.28h3.11V87.17c0-1.46-.64-2-2.53-2a19.44,19.44,0,0,0-3.5.38l-.21-1.6a16.25,16.25,0,0,1,3.83-.5c3.32,0,4.42,1.29,4.42,3.78Zm-2-4.71h-3c-1.25,0-1.7.38-1.7,1.55s.21,1.68,1.65,1.68a5.85,5.85,0,0,0,3-1Z"/><path class="cls-2" d="M889.76,95.19a7.36,7.36,0,0,1-2.45.43c-2,0-2.89-.72-2.89-2.66V85.4h-2.06V83.73h2.06V80.86l2-.29v3.16h3.3l-.17,1.67h-3.13v7.23c0,.86.12,1.29,1.2,1.29a7.43,7.43,0,0,0,1.86-.29Z"/><path class="cls-2" d="M896,93.54c1.77-2,2.22-2.54,4.11-4.76,2.44-2.9,2.61-3.52,2.61-4.65v-.69c0-1.51-.4-2-2.82-2a14.79,14.79,0,0,0-3.54.52l-.29-1.72a15.17,15.17,0,0,1,4-.6c3.68,0,4.66,1.3,4.66,3.74v.52c0,1.89-.33,2.71-2.73,5.55-1.72,2.06-2,2.37-3.51,4.12h6.39v1.77H896Z"/><path class="cls-2" d="M907.37,87.89h8.76v1.65h-8.76Z"/><path class="cls-2" d="M925.65,87.48c2.18,1,2.9,2,2.9,3.64v.69c0,2.68-1.44,3.81-5,3.81s-5-1.13-5-3.81v-.69c0-1.63.69-2.63,2.82-3.64-1.91-.93-2.41-1.91-2.41-3.42v-.62c0-2.18,1.07-3.76,4.54-3.76s4.55,1.58,4.55,3.76v.62C928.14,85.57,927.61,86.55,925.65,87.48Zm-2.06.91c-2.41,1-3,1.44-3,2.8v.55c0,1.63.77,2.16,3,2.16s3-.53,3-2.16v-.55C926.58,89.83,926,89.37,923.59,88.39Zm0-1.72c2.06-.84,2.59-1.34,2.59-2.56v-.77c0-1.24-.6-2-2.59-2s-2.58.72-2.58,2v.77C921,85.33,921.54,85.83,923.59,86.67Z"/><path class="cls-2" d="M933.79,85.14a2.73,2.73,0,1,1,2.73-2.73A2.58,2.58,0,0,1,933.79,85.14Zm0-4.38a1.66,1.66,0,1,0,1.51,1.65A1.47,1.47,0,0,0,933.79,80.76Z"/><path class="cls-2" d="M941.21,90.81c0,2.22.86,2.94,3.47,2.94a25.16,25.16,0,0,0,3.73-.33l.21,1.77a20.6,20.6,0,0,1-4,.43c-3.9,0-5.46-1.68-5.46-4.69v-7c0-3,1.56-4.69,5.46-4.69a19.86,19.86,0,0,1,4,.44l-.21,1.77a24,24,0,0,0-3.73-.34c-2.61,0-3.47.72-3.47,2.94Z"/><path class="cls-2" d="M960.81,78.1a17.65,17.65,0,0,0,0,20l-1.44,1a18.15,18.15,0,0,1,0-21.91Z"/><path class="cls-2" d="M962.22,93.46a15.24,15.24,0,0,0,3.49.39c2.25,0,3.06-.53,3.06-2.06v-1.2c0-1.55-.86-2.08-2.41-2.08h-3.28V86.74h3c1.86,0,2.39-.72,2.39-2V83.37c0-1.44-.67-1.92-2.59-1.92a18.66,18.66,0,0,0-3.37.36l-.22-1.7a16.9,16.9,0,0,1,3.64-.43c3.38,0,4.55,1.18,4.55,3.4v1.41a2.91,2.91,0,0,1-1.82,3.09,2.59,2.59,0,0,1,2.1,2.85V92c0,2.49-1.48,3.64-5.07,3.64a13.57,13.57,0,0,1-3.71-.48Z"/><path class="cls-2" d="M975.64,87.08a10.57,10.57,0,0,1,3.19-.55c3,0,4.09,1.26,4.09,3.8v.77c0,2.8-.77,4.52-4.6,4.52-3.44,0-4.66-1.44-4.66-3.69V85.09c0-4,1.77-5.41,6.27-5.41a12.61,12.61,0,0,1,2.63.29l-.22,1.68a12.47,12.47,0,0,0-2.1-.22c-3.71,0-4.6.79-4.6,3.68Zm0,1.84v2.73c0,1.69.87,2.2,2.68,2.2,2.06,0,2.61-.62,2.61-2.2V90.33c0-1.46-.55-2.06-2.3-2.06A8.11,8.11,0,0,0,975.64,88.92Z"/><path class="cls-2" d="M985.19,87.89H994v1.65h-8.76Z"/><path class="cls-2" d="M1004.81,91.57v3.81h-2V91.57h-7.37v-2l6.68-9.67h2.7v9.93H1007v1.72Zm-2-1.72V82l-5.38,7.89Z"/><path class="cls-2" d="M1010.94,87.08a10.56,10.56,0,0,1,3.18-.55c3,0,4.09,1.26,4.09,3.8v.77c0,2.8-.76,4.52-4.59,4.52-3.44,0-4.66-1.44-4.66-3.69V85.09c0-4,1.77-5.41,6.26-5.41a12.63,12.63,0,0,1,2.64.29l-.22,1.68a12.48,12.48,0,0,0-2.11-.22c-3.7,0-4.59.79-4.59,3.68Zm0,1.84v2.73c0,1.69.86,2.2,2.68,2.2,2.06,0,2.61-.62,2.61-2.2V90.33c0-1.46-.55-2.06-2.3-2.06A8.11,8.11,0,0,0,1010.94,88.92Z"/><path class="cls-2" d="M1023.22,85.14a2.73,2.73,0,1,1,2.73-2.73A2.58,2.58,0,0,1,1023.22,85.14Zm0-4.38a1.66,1.66,0,1,0,1.5,1.65A1.47,1.47,0,0,0,1023.22,80.76Z"/><path class="cls-2" d="M1028.94,95.38V79.44h9.47v1.85H1031V86.6h6.91v1.84H1031v6.94Z"/><path class="cls-2" d="M1040.81,77.15a18.15,18.15,0,0,1,0,21.91l-1.44-1a17.65,17.65,0,0,0,0-20Z"/><path class="cls-2" d="M1047.68,92.63h2v2.75l-1.43,2.87-.94-.45,1-2.42h-.69Z"/><path class="cls-2" d="M1067,91.81c0,2.32-1.06,3.81-3.78,3.81a18.76,18.76,0,0,1-3.33-.36v4.83l-2,.29V83.73h1.7l.17,1a6.16,6.16,0,0,1,3.85-1.29c2.3,0,3.4,1.22,3.4,3.56Zm-7.11,1.68a19.3,19.3,0,0,0,3.21.36c1.34,0,1.89-.62,1.89-2V87.05c0-1.19-.39-1.79-1.8-1.79a5.35,5.35,0,0,0-3.3,1.39Z"/><path class="cls-2" d="M1075.24,85.33a25.46,25.46,0,0,0-3.32,2v8h-2V83.73h1.74l.12,1.62a15.1,15.1,0,0,1,3.21-1.86Z"/><path class="cls-2" d="M1080.94,95.62c-3.4,0-4.74-1.94-4.74-4.38V87.87c0-2.44,1.34-4.38,4.74-4.38s4.74,1.94,4.74,4.38v3.37C1085.68,93.68,1084.34,95.62,1080.94,95.62Zm0-10.39c-1.82,0-2.73.87-2.73,2.56v3.52c0,1.7.91,2.56,2.73,2.56s2.73-.86,2.73-2.56V87.79C1083.67,86.1,1082.76,85.23,1080.94,85.23Z"/><path class="cls-2" d="M1094.51,95.19a7.35,7.35,0,0,1-2.44.43c-2,0-2.9-.72-2.9-2.66V85.4h-2.06V83.73h2.06V80.86l2-.29v3.16h3.3l-.16,1.67h-3.14v7.23c0,.86.12,1.29,1.2,1.29a7.43,7.43,0,0,0,1.86-.29Z"/><path class="cls-2" d="M1101,93.9a14.5,14.5,0,0,0,3.68-.56l.27,1.61a12.88,12.88,0,0,1-4.12.67c-3.44,0-4.62-1.65-4.62-4.28v-3.5c0-2.41,1.1-4.35,4.57-4.35s4.38,2,4.38,4.4v2.44h-6.94v1C1098.19,93.15,1098.7,93.9,1101,93.9Zm-2.78-5.24h5v-1c0-1.63-.55-2.54-2.44-2.54s-2.56.91-2.56,2.54Z"/><path class="cls-2" d="M1107.1,91.38V87.72c0-2.68,1-4.23,4.64-4.23a10.12,10.12,0,0,1,2.77.36l-.16,1.67a12.35,12.35,0,0,0-2.56-.26c-2,0-2.68.57-2.68,2.39v3.8c0,1.82.67,2.4,2.68,2.4a11.74,11.74,0,0,0,2.56-.27l.19,1.68a10.84,10.84,0,0,1-2.8.36C1108,95.62,1107.1,94.06,1107.1,91.38Z"/><path class="cls-2" d="M1123.2,95.19a7.35,7.35,0,0,1-2.44.43c-2,0-2.89-.72-2.89-2.66V85.4h-2.06V83.73h2.06V80.86l2-.29v3.16h3.31L1123,85.4h-3.14v7.23c0,.86.12,1.29,1.2,1.29a7.5,7.5,0,0,0,1.87-.29Z"/><path class="cls-2" d="M1129.66,93.9a14.64,14.64,0,0,0,3.69-.56l.26,1.61a12.88,12.88,0,0,1-4.12.67c-3.44,0-4.61-1.65-4.61-4.28v-3.5c0-2.41,1.1-4.35,4.57-4.35s4.38,2,4.38,4.4v2.44h-6.94v1C1126.89,93.15,1127.39,93.9,1129.66,93.9Zm-2.77-5.24h5v-1c0-1.63-.55-2.54-2.44-2.54s-2.56.91-2.56,2.54Z"/><path class="cls-2" d="M1136.08,87.29c0-2.32,1.05-3.8,3.78-3.8a17.77,17.77,0,0,1,3.32.36V79l2-.29v16.7h-1.7l-.16-1a6.25,6.25,0,0,1-3.86,1.29c-2.29,0-3.39-1.22-3.39-3.57Zm7.1-1.67a18.19,18.19,0,0,0-3.2-.36c-1.34,0-1.89.62-1.89,2v4.76c0,1.2.38,1.8,1.79,1.8a5.35,5.35,0,0,0,3.3-1.39Z"/><path class="cls-2" d="M1159.58,80.38a12.13,12.13,0,0,0-1.94-.22c-1.25,0-1.56.43-1.56,1.6v2h3.33l-.17,1.67h-3.16v10h-2v-10H1152V83.73h2.06V81.57c0-2,1.15-3.08,3.3-3.08a8.17,8.17,0,0,1,2.37.33Z"/><path class="cls-2" d="M1166.52,85.33a26.27,26.27,0,0,0-3.33,2v8h-2V83.73h1.75l.12,1.62a14.77,14.77,0,0,1,3.2-1.86Z"/><path class="cls-2" d="M1172.21,95.62c-3.4,0-4.74-1.94-4.74-4.38V87.87c0-2.44,1.34-4.38,4.74-4.38s4.74,1.94,4.74,4.38v3.37C1177,93.68,1175.61,95.62,1172.21,95.62Zm0-10.39c-1.82,0-2.73.87-2.73,2.56v3.52c0,1.7.91,2.56,2.73,2.56s2.73-.86,2.73-2.56V87.79C1174.94,86.1,1174,85.23,1172.21,85.23Z"/><path class="cls-2" d="M1193.77,95.38v-8.9c0-.77-.38-1.08-1.12-1.08a10.41,10.41,0,0,0-3.9,1.17v8.81h-2v-8.9c0-.77-.39-1.08-1.13-1.08a11,11,0,0,0-3.9,1.17v8.81h-2V83.73h1.63l.19,1a12.67,12.67,0,0,1,4.69-1.24,2.15,2.15,0,0,1,2.23,1.24,12.42,12.42,0,0,1,4.81-1.24c1.86,0,2.53,1.17,2.53,3v8.93Z"/><path class="cls-2" d="M1203.68,95.38V79l2-.29v16.7Z"/><path class="cls-2" d="M1209,81.86V79h2v2.89Zm0,13.52V83.73h2V95.38Z"/><path class="cls-2" d="M1223.42,84.9l-1.39.26a4,4,0,0,1,.65,2.32V88c0,2.51-1.53,4-4.57,4a8.92,8.92,0,0,1-1.2-.07,1.82,1.82,0,0,0-.83,1.24c0,.46.24.63.76.67l3.3.34c2.11.21,2.92,1,2.92,2.8,0,2.53-.88,3.37-5.09,3.37a18.7,18.7,0,0,1-4.24-.55l.29-1.58a18.32,18.32,0,0,0,3.9.48c3,0,3.25-.41,3.25-1.63,0-1-.36-1.15-1.72-1.26l-3.09-.29c-1.72-.15-2.27-1-2.27-2.13a2.64,2.64,0,0,1,1.1-2.06,3.49,3.49,0,0,1-1.62-3.3v-.53c0-2.53,1.22-4,4.54-4a7.47,7.47,0,0,1,2,.24h3.35Zm-5.31.24c-1.94,0-2.65.64-2.65,2.37V88c0,1.77.74,2.32,2.65,2.32s2.66-.79,2.66-2.32v-.5C1220.77,85.81,1220.05,85.14,1218.11,85.14Z"/><path class="cls-2" d="M1232.68,95.38v-8.9c0-.77-.38-1.08-1.12-1.08a10.88,10.88,0,0,0-3.9,1.2v8.78h-2V79l2-.29v6a11.81,11.81,0,0,1,4.5-1.22c1.86,0,2.53,1.17,2.53,3v8.93Z"/><path class="cls-2" d="M1244,95.19a7.3,7.3,0,0,1-2.44.43c-2,0-2.89-.72-2.89-2.66V85.4h-2.06V83.73h2.06V80.86l2-.29v3.16h3.3l-.17,1.67h-3.13v7.23c0,.86.12,1.29,1.19,1.29a7.5,7.5,0,0,0,1.87-.29Z"/><path class="cls-2" d="M1246.35,92.63h2.06v2.75L1247,98.25l-.93-.45,1-2.42h-.69Z"/><path class="cls-2" d="M1264.8,95.38h-1.7l-.12-.86a6.62,6.62,0,0,1-3.78,1.1c-2.18,0-3.09-1.29-3.09-3.35,0-2.42,1.22-3.28,3.57-3.28h3.11V87.17c0-1.46-.65-2-2.54-2a19.42,19.42,0,0,0-3.49.38l-.21-1.6a16.23,16.23,0,0,1,3.82-.5c3.33,0,4.43,1.29,4.43,3.78Zm-2-4.71h-3c-1.24,0-1.7.38-1.7,1.55s.22,1.68,1.66,1.68a5.88,5.88,0,0,0,3-1Z"/><path class="cls-2" d="M1274.9,95.38v-8.9c0-.77-.38-1.08-1.13-1.08a11,11,0,0,0-3.9,1.17v8.81h-2V83.73h1.63l.19,1a12.67,12.67,0,0,1,4.69-1.24c1.87,0,2.54,1.17,2.54,3v8.93Z"/><path class="cls-2" d="M1279.71,87.29c0-2.32,1-3.8,3.78-3.8a18,18,0,0,1,3.33.36V79l2-.29v16.7h-1.7l-.17-1a6.25,6.25,0,0,1-3.85,1.29c-2.3,0-3.4-1.22-3.4-3.57Zm7.11-1.67a18.4,18.4,0,0,0-3.21-.36c-1.34,0-1.89.62-1.89,2v4.76c0,1.2.38,1.8,1.79,1.8a5.4,5.4,0,0,0,3.31-1.39Z"/><path class="cls-2" d="M339,122.74a11.86,11.86,0,0,1-3.71-.62l.26-1.58a13.2,13.2,0,0,0,3.33.48c1.84,0,2.15-.34,2.15-1.58s-.09-1.39-2.44-2c-2.89-.72-3.16-1.32-3.16-3.74,0-2.15,1-3.13,4-3.13a12.75,12.75,0,0,1,3.3.41l-.14,1.65a18.85,18.85,0,0,0-3.23-.34c-1.72,0-2,.41-2,1.46,0,1.29,0,1.53,2,2,3.35.84,3.62,1.25,3.62,3.57S342.31,122.74,339,122.74Z"/><path class="cls-2" d="M352.82,122.5v-8.9c0-.77-.38-1.08-1.12-1.08a10.82,10.82,0,0,0-3.9,1.2v8.78h-2V106.09l2-.29v6a11.81,11.81,0,0,1,4.49-1.22c1.87,0,2.54,1.17,2.54,3v8.92Z"/><path class="cls-2" d="M362.2,122.74c-3.4,0-4.74-1.94-4.74-4.38V115c0-2.44,1.34-4.38,4.74-4.38s4.74,1.94,4.74,4.38v3.37C366.94,120.8,365.6,122.74,362.2,122.74Zm0-10.38c-1.82,0-2.73.86-2.73,2.56v3.51c0,1.7.91,2.56,2.73,2.56s2.73-.86,2.73-2.56v-3.51C364.93,113.22,364,112.36,362.2,112.36Z"/><path class="cls-2" d="M371.58,110.85v8.9c0,.76.39,1.08,1.13,1.08a10.85,10.85,0,0,0,3.9-1.18v-8.8h2V122.5H377l-.19-1a12.67,12.67,0,0,1-4.69,1.24c-1.87,0-2.54-1.17-2.54-3v-8.92Z"/><path class="cls-2" d="M382,122.5V106.09l2-.29v16.7Z"/><path class="cls-2" d="M386.9,114.41c0-2.32,1.05-3.8,3.78-3.8A18.65,18.65,0,0,1,394,111v-4.88l2-.29v16.7h-1.69l-.17-1a6.25,6.25,0,0,1-3.85,1.29c-2.3,0-3.4-1.22-3.4-3.57Zm7.1-1.67a18.19,18.19,0,0,0-3.2-.36c-1.34,0-1.89.62-1.89,2v4.76c0,1.2.38,1.8,1.79,1.8a5.35,5.35,0,0,0,3.3-1.39Z"/><path class="cls-2" d="M411.07,122.5v-8.9c0-.77-.39-1.08-1.13-1.08a10.85,10.85,0,0,0-3.9,1.18v8.8h-2V110.85h1.63l.19,1a12.67,12.67,0,0,1,4.69-1.24c1.87,0,2.54,1.17,2.54,3v8.92Z"/><path class="cls-2" d="M420.45,122.74c-3.4,0-4.74-1.94-4.74-4.38V115c0-2.44,1.34-4.38,4.74-4.38s4.74,1.94,4.74,4.38v3.37C425.19,120.8,423.85,122.74,420.45,122.74Zm0-10.38c-1.82,0-2.73.86-2.73,2.56v3.51c0,1.7.91,2.56,2.73,2.56s2.73-.86,2.73-2.56v-3.51C423.18,113.22,422.27,112.36,420.45,112.36Z"/><path class="cls-2" d="M434,122.31a7.35,7.35,0,0,1-2.44.43c-2,0-2.9-.72-2.9-2.66v-7.56h-2.06v-1.67h2.06V108l2-.29v3.16H434l-.16,1.67h-3.14v7.23c0,.86.12,1.29,1.2,1.29a7,7,0,0,0,1.86-.29Z"/><path class="cls-2" d="M450.07,118.39c0,2.65-.95,4.35-4.95,4.35a20.82,20.82,0,0,1-4.16-.45v-16.2l2-.29v5.62a8.4,8.4,0,0,1,3.68-.81c2.42,0,3.42,1.41,3.42,3.64ZM443,120.8a15.46,15.46,0,0,0,2.29.17c2.37,0,2.8-1,2.8-2.51v-4.29c0-1.19-.52-1.79-1.89-1.79a8.43,8.43,0,0,0-3.2.89Z"/><path class="cls-2" d="M457.09,121a15,15,0,0,0,3.68-.55l.26,1.6a12.55,12.55,0,0,1-4.11.67c-3.45,0-4.62-1.65-4.62-4.28V115c0-2.41,1.1-4.35,4.57-4.35s4.38,2,4.38,4.4v2.44h-6.94v1C454.31,120.28,454.81,121,457.09,121Zm-2.78-5.24h5v-1c0-1.63-.55-2.54-2.44-2.54s-2.56.91-2.56,2.54Z"/><path class="cls-2" d="M475,107.5a11.89,11.89,0,0,0-1.94-.22c-1.24,0-1.55.43-1.55,1.61v2h3.33l-.17,1.67h-3.16v10h-2v-10H467.4v-1.67h2.06V108.7c0-2.06,1.15-3.09,3.3-3.09a8.17,8.17,0,0,1,2.37.33Z"/><path class="cls-2" d="M481.9,112.45a25.46,25.46,0,0,0-3.32,2v8h-2V110.85h1.74l.12,1.63a14.88,14.88,0,0,1,3.21-1.87Z"/><path class="cls-2" d="M487.6,122.74c-3.4,0-4.74-1.94-4.74-4.38V115c0-2.44,1.34-4.38,4.74-4.38s4.74,1.94,4.74,4.38v3.37C492.34,120.8,491,122.74,487.6,122.74Zm0-10.38c-1.82,0-2.73.86-2.73,2.56v3.51c0,1.7.91,2.56,2.73,2.56s2.73-.86,2.73-2.56v-3.51C490.33,113.22,489.42,112.36,487.6,112.36Z"/><path class="cls-2" d="M494.73,110.85h8l0,1.63-5.94,8.39h6v1.63h-8.23v-1.63l5.94-8.39h-5.82Z"/><path class="cls-2" d="M509.78,121a15.07,15.07,0,0,0,3.69-.55l.26,1.6a12.55,12.55,0,0,1-4.11.67c-3.45,0-4.62-1.65-4.62-4.28V115c0-2.41,1.1-4.35,4.57-4.35s4.38,2,4.38,4.4v2.44H507v1C507,120.28,507.51,121,509.78,121ZM507,115.78h5v-1c0-1.63-.55-2.54-2.44-2.54s-2.56.91-2.56,2.54Z"/><path class="cls-2" d="M523.66,122.5v-8.9c0-.77-.38-1.08-1.12-1.08a10.79,10.79,0,0,0-3.9,1.18v8.8h-2V110.85h1.63l.19,1a12.67,12.67,0,0,1,4.69-1.24c1.86,0,2.53,1.17,2.53,3v8.92Z"/><path class="cls-2" d="M342.89,165.6c3.9,0,5.12,2,5.12,4.57V177c0,2.54-1.22,4.57-5.12,4.57h-5.58V165.6Zm-3.52,14.09h3.45c2.41,0,3.13-1,3.13-2.87v-6.51c0-1.87-.72-2.87-3.13-2.87h-3.45Z"/><path class="cls-2" d="M355.14,181.77c-3.4,0-4.74-1.94-4.74-4.38V174c0-2.44,1.34-4.38,4.74-4.38s4.74,1.94,4.74,4.38v3.37C359.88,179.83,358.54,181.77,355.14,181.77Zm0-10.38c-1.82,0-2.73.86-2.73,2.56v3.51c0,1.7.91,2.56,2.73,2.56s2.73-.86,2.73-2.56V174C357.87,172.25,357,171.39,355.14,171.39Z"/><path class="cls-2" d="M374.33,181.53v-8.9c0-.76-.38-1.08-1.12-1.08a10.79,10.79,0,0,0-3.9,1.18v8.8h-2V169.88h1.63l.19,1a12.67,12.67,0,0,1,4.69-1.24c1.86,0,2.53,1.17,2.53,3v8.92Z"/><path class="cls-2" d="M383.71,181.77c-3.39,0-4.73-1.94-4.73-4.38V174c0-2.44,1.34-4.38,4.73-4.38s4.74,1.94,4.74,4.38v3.37C388.45,179.83,387.11,181.77,383.71,181.77Zm0-10.38c-1.81,0-2.72.86-2.72,2.56v3.51c0,1.7.91,2.56,2.72,2.56s2.73-.86,2.73-2.56V174C386.44,172.25,385.53,171.39,383.71,171.39Z"/><path class="cls-2" d="M397.28,181.34a7.3,7.3,0,0,1-2.44.43c-2,0-2.89-.72-2.89-2.66v-7.56h-2.06v-1.67H392V167l2-.29v3.16h3.3l-.17,1.67H394v7.23c0,.86.12,1.29,1.19,1.29a7.06,7.06,0,0,0,1.87-.29Z"/><path class="cls-2" d="M406.11,169.88v8.9c0,.77.39,1.08,1.13,1.08a10.85,10.85,0,0,0,3.9-1.18v-8.8h2v11.65h-1.63l-.19-1a12.67,12.67,0,0,1-4.69,1.24c-1.87,0-2.54-1.17-2.54-3v-8.92Z"/><path class="cls-2" d="M419.73,181.77a11.86,11.86,0,0,1-3.71-.62l.26-1.58a13.26,13.26,0,0,0,3.33.48c1.84,0,2.15-.34,2.15-1.58s-.09-1.39-2.44-2c-2.89-.72-3.15-1.32-3.15-3.74,0-2.15.95-3.13,4-3.13a12.88,12.88,0,0,1,3.31.41l-.15,1.65a18.85,18.85,0,0,0-3.23-.34c-1.72,0-2,.41-2,1.46,0,1.29,0,1.53,2,2,3.35.84,3.61,1.25,3.61,3.57S423.06,181.77,419.73,181.77Z"/><path class="cls-2" d="M430.71,180.05a15.07,15.07,0,0,0,3.69-.55l.26,1.6a12.55,12.55,0,0,1-4.11.67c-3.45,0-4.62-1.65-4.62-4.28V174c0-2.41,1.1-4.35,4.57-4.35s4.38,2,4.38,4.4v2.44h-6.94v1C427.94,179.31,428.44,180.05,430.71,180.05Zm-2.77-5.24h5v-1c0-1.63-.55-2.53-2.44-2.53s-2.56.9-2.56,2.53Z"/><path class="cls-2" d="M451.34,177.42c0,2.65-1,4.35-4.95,4.35a20.82,20.82,0,0,1-4.16-.45v-16.2l2-.29v5.62a8.4,8.4,0,0,1,3.68-.81c2.42,0,3.42,1.41,3.42,3.64Zm-7.1,2.41a15.36,15.36,0,0,0,2.29.17c2.37,0,2.8-1,2.8-2.51v-4.28c0-1.2-.52-1.8-1.89-1.8a8.43,8.43,0,0,0-3.2.89Z"/><path class="cls-2" d="M458.35,180.05a15.07,15.07,0,0,0,3.69-.55l.26,1.6a12.55,12.55,0,0,1-4.11.67c-3.45,0-4.62-1.65-4.62-4.28V174c0-2.41,1.1-4.35,4.57-4.35s4.38,2,4.38,4.4v2.44h-6.94v1C455.58,179.31,456.08,180.05,458.35,180.05Zm-2.77-5.24h5v-1c0-1.63-.55-2.53-2.44-2.53s-2.56.9-2.56,2.53Z"/><path class="cls-2" d="M468.1,181.53h-.84l-3.78-11.65h2l3.19,10.05,3.23-10.05h2L470,181.53l-1.65,4.71h-1.89Z"/><path class="cls-2" d="M479.58,181.77c-3.4,0-4.74-1.94-4.74-4.38V174c0-2.44,1.34-4.38,4.74-4.38s4.74,1.94,4.74,4.38v3.37C484.32,179.83,483,181.77,479.58,181.77Zm0-10.38c-1.82,0-2.73.86-2.73,2.56v3.51c0,1.7.91,2.56,2.73,2.56s2.73-.86,2.73-2.56V174C482.31,172.25,481.4,171.39,479.58,171.39Z"/><path class="cls-2" d="M494.11,181.53v-8.9c0-.76-.39-1.08-1.13-1.08a10.85,10.85,0,0,0-3.9,1.18v8.8h-2V169.88h1.63l.19,1a12.67,12.67,0,0,1,4.69-1.24c1.87,0,2.54,1.17,2.54,3v8.92Z"/><path class="cls-2" d="M498.92,173.44c0-2.32,1.05-3.8,3.78-3.8A18.86,18.86,0,0,1,506,170v-4.88l2-.29v16.7h-1.69l-.17-1.05a6.25,6.25,0,0,1-3.85,1.29c-2.3,0-3.4-1.22-3.4-3.56Zm7.11-1.67a18.4,18.4,0,0,0-3.21-.36c-1.34,0-1.89.62-1.89,2v4.77c0,1.19.38,1.79,1.79,1.79a5.4,5.4,0,0,0,3.31-1.39Z"/><path class="cls-2" d="M522.13,181.34a7.35,7.35,0,0,1-2.44.43c-2,0-2.89-.72-2.89-2.66v-7.56h-2.06v-1.67h2.06V167l2-.29v3.16h3.3l-.17,1.67h-3.13v7.23c0,.86.12,1.29,1.19,1.29a7.06,7.06,0,0,0,1.87-.29Z"/><path class="cls-2" d="M531.44,181.53v-8.9c0-.76-.38-1.08-1.12-1.08a10.82,10.82,0,0,0-3.9,1.2v8.78h-2V165.12l2-.29v6a11.81,11.81,0,0,1,4.49-1.22c1.87,0,2.54,1.17,2.54,3v8.92Z"/><path class="cls-2" d="M540.87,180.05a14.92,14.92,0,0,0,3.68-.55l.27,1.6a12.61,12.61,0,0,1-4.12.67c-3.44,0-4.62-1.65-4.62-4.28V174c0-2.41,1.1-4.35,4.57-4.35s4.38,2,4.38,4.4v2.44h-6.94v1C538.09,179.31,538.6,180.05,540.87,180.05Zm-2.78-5.24h5v-1c0-1.63-.55-2.53-2.44-2.53s-2.56.9-2.56,2.53Z"/><path class="cls-2" d="M556.57,180.05a15,15,0,0,0,3.68-.55l.27,1.6a12.61,12.61,0,0,1-4.12.67c-3.44,0-4.62-1.65-4.62-4.28V174c0-2.41,1.1-4.35,4.57-4.35s4.38,2,4.38,4.4v2.44h-6.94v1C553.79,179.31,554.3,180.05,556.57,180.05Zm-2.78-5.24h5v-1c0-1.63-.55-2.53-2.44-2.53s-2.56.9-2.56,2.53Z"/><path class="cls-2" d="M561.93,181.53l3.83-5.86L562,169.88h2.08l2.78,4.28,2.77-4.28h2.09l-3.78,5.79,3.85,5.86h-2.11l-2.82-4.33-2.8,4.33Z"/><path class="cls-2" d="M582.77,178c0,2.32-1,3.8-3.78,3.8a18.65,18.65,0,0,1-3.32-.36v4.83l-2,.29V169.88h1.69l.17,1.05a6.25,6.25,0,0,1,3.85-1.29c2.3,0,3.4,1.22,3.4,3.57Zm-7.1,1.67a18.19,18.19,0,0,0,3.2.36c1.34,0,1.89-.62,1.89-2v-4.76c0-1.2-.38-1.8-1.79-1.8a5.35,5.35,0,0,0-3.3,1.39Z"/><path class="cls-2" d="M585.69,168v-2.89h2V168Zm0,13.52V169.88h2v11.65Z"/><path class="cls-2" d="M596.39,171.48a26.27,26.27,0,0,0-3.33,2v8h-2V169.88h1.75l.12,1.63a14.88,14.88,0,0,1,3.21-1.87Z"/><path class="cls-2" d="M606.2,181.53h-1.7l-.12-.86a6.62,6.62,0,0,1-3.78,1.1c-2.18,0-3.09-1.29-3.09-3.35,0-2.42,1.23-3.28,3.57-3.28h3.11v-1.82c0-1.45-.65-2-2.54-2a18.52,18.52,0,0,0-3.49.39l-.21-1.61a16.77,16.77,0,0,1,3.82-.5c3.33,0,4.43,1.29,4.43,3.78Zm-2-4.71h-3c-1.24,0-1.7.38-1.7,1.55s.22,1.68,1.66,1.68a5.76,5.76,0,0,0,3-1Z"/><path class="cls-2" d="M615.34,181.34a7.35,7.35,0,0,1-2.44.43c-2,0-2.89-.72-2.89-2.66v-7.56H608v-1.67H610V167l2-.29v3.16h3.3l-.17,1.67H612v7.23c0,.86.12,1.29,1.19,1.29a7.06,7.06,0,0,0,1.87-.29Z"/><path class="cls-2" d="M617.62,168v-2.89h2V168Zm0,13.52V169.88h2v11.65Z"/><path class="cls-2" d="M627.12,181.77c-3.4,0-4.74-1.94-4.74-4.38V174c0-2.44,1.34-4.38,4.74-4.38s4.73,1.94,4.73,4.38v3.37C631.85,179.83,630.51,181.77,627.12,181.77Zm0-10.38c-1.82,0-2.73.86-2.73,2.56v3.51c0,1.7.91,2.56,2.73,2.56s2.72-.86,2.72-2.56V174C629.84,172.25,628.93,171.39,627.12,171.39Z"/><path class="cls-2" d="M641.64,181.53v-8.9c0-.76-.38-1.08-1.12-1.08a10.79,10.79,0,0,0-3.9,1.18v8.8h-2V169.88h1.62l.2,1a12.67,12.67,0,0,1,4.69-1.24c1.86,0,2.53,1.17,2.53,3v8.92Z"/><path class="cls-2" d="M651.12,173.44c0-2.32,1-3.8,3.78-3.8a18.86,18.86,0,0,1,3.33.36v-4.88l2-.29v16.7h-1.7l-.17-1.05a6.25,6.25,0,0,1-3.85,1.29c-2.3,0-3.4-1.22-3.4-3.56Zm7.11-1.67a18.4,18.4,0,0,0-3.21-.36c-1.34,0-1.89.62-1.89,2v4.77c0,1.19.38,1.79,1.79,1.79a5.4,5.4,0,0,0,3.31-1.39Z"/><path class="cls-2" d="M671.84,181.53h-1.7l-.12-.86a6.58,6.58,0,0,1-3.78,1.1c-2.17,0-3.08-1.29-3.08-3.35,0-2.42,1.22-3.28,3.56-3.28h3.11v-1.82c0-1.45-.64-2-2.53-2a18.54,18.54,0,0,0-3.5.39l-.21-1.61a16.79,16.79,0,0,1,3.83-.5c3.32,0,4.42,1.29,4.42,3.78Zm-2-4.71h-3c-1.25,0-1.7.38-1.7,1.55s.21,1.68,1.65,1.68a5.76,5.76,0,0,0,3-1Z"/><path class="cls-2" d="M681,181.34a7.25,7.25,0,0,1-2.44.43c-2,0-2.89-.72-2.89-2.66v-7.56h-2.06v-1.67h2.06V167l2-.29v3.16H681l-.17,1.67h-3.13v7.23c0,.86.12,1.29,1.2,1.29a7,7,0,0,0,1.86-.29Z"/><path class="cls-2" d="M687.45,180.05a15,15,0,0,0,3.68-.55l.26,1.6a12.55,12.55,0,0,1-4.11.67c-3.45,0-4.62-1.65-4.62-4.28V174c0-2.41,1.1-4.35,4.57-4.35s4.38,2,4.38,4.4v2.44h-6.94v1C684.67,179.31,685.17,180.05,687.45,180.05Zm-2.78-5.24h5v-1c0-1.63-.55-2.53-2.44-2.53s-2.56.9-2.56,2.53Z"/><path class="cls-2" d="M702.19,181.77a11.86,11.86,0,0,1-3.71-.62l.26-1.58a13.2,13.2,0,0,0,3.33.48c1.84,0,2.15-.34,2.15-1.58s-.09-1.39-2.44-2c-2.89-.72-3.16-1.32-3.16-3.74,0-2.15,1-3.13,4-3.13a12.75,12.75,0,0,1,3.3.41l-.14,1.65a18.85,18.85,0,0,0-3.23-.34c-1.72,0-2,.41-2,1.46,0,1.29,0,1.53,2,2,3.35.84,3.62,1.25,3.62,3.57S705.51,181.77,702.19,181.77Z"/><path class="cls-2" d="M716,181.53v-8.9c0-.76-.38-1.08-1.13-1.08a10.94,10.94,0,0,0-3.9,1.2v8.78h-2V165.12l2-.29v6a11.91,11.91,0,0,1,4.5-1.22c1.87,0,2.54,1.17,2.54,3v8.92Z"/><path class="cls-2" d="M725.4,181.77c-3.4,0-4.74-1.94-4.74-4.38V174c0-2.44,1.34-4.38,4.74-4.38s4.74,1.94,4.74,4.38v3.37C730.14,179.83,728.8,181.77,725.4,181.77Zm0-10.38c-1.82,0-2.73.86-2.73,2.56v3.51c0,1.7.91,2.56,2.73,2.56s2.73-.86,2.73-2.56V174C728.13,172.25,727.22,171.39,725.4,171.39Z"/><path class="cls-2" d="M742.13,181.53l-2.83-9.88-2.82,9.88H733.9l-2.49-11.65h1.91l1.94,9.67,2.82-9.67h2.44l2.83,9.67,1.94-9.67h1.91l-2.49,11.65Z"/><path class="cls-2" d="M756.1,181.53v-8.9c0-.76-.38-1.08-1.12-1.08a10.79,10.79,0,0,0-3.9,1.18v8.8h-2V169.88h1.63l.19,1a12.67,12.67,0,0,1,4.69-1.24c1.86,0,2.53,1.17,2.53,3v8.92Z"/><path class="cls-2" d="M770.15,181.77c-3.4,0-4.74-1.94-4.74-4.38V174c0-2.44,1.34-4.38,4.74-4.38s4.74,1.94,4.74,4.38v3.37C774.89,179.83,773.55,181.77,770.15,181.77Zm0-10.38c-1.82,0-2.73.86-2.73,2.56v3.51c0,1.7.91,2.56,2.73,2.56s2.73-.86,2.73-2.56V174C772.88,172.25,772,171.39,770.15,171.39Z"/><path class="cls-2" d="M784.68,181.53v-8.9c0-.76-.39-1.08-1.13-1.08a10.85,10.85,0,0,0-3.9,1.18v8.8h-2V169.88h1.63l.19,1a12.67,12.67,0,0,1,4.69-1.24c1.87,0,2.54,1.17,2.54,3v8.92Z"/><path class="cls-2" d="M800.66,181.34a7.3,7.3,0,0,1-2.44.43c-2,0-2.89-.72-2.89-2.66v-7.56h-2.06v-1.67h2.06V167l2-.29v3.16h3.3l-.17,1.67h-3.13v7.23c0,.86.12,1.29,1.19,1.29a7.06,7.06,0,0,0,1.87-.29Z"/><path class="cls-2" d="M810,181.53v-8.9c0-.76-.38-1.08-1.12-1.08a10.88,10.88,0,0,0-3.9,1.2v8.78h-2V165.12l2-.29v6a11.81,11.81,0,0,1,4.5-1.22c1.86,0,2.53,1.17,2.53,3v8.92Z"/><path class="cls-2" d="M819.4,180.05a15.07,15.07,0,0,0,3.69-.55l.26,1.6a12.61,12.61,0,0,1-4.12.67c-3.44,0-4.61-1.65-4.61-4.28V174c0-2.41,1.1-4.35,4.57-4.35s4.37,2,4.37,4.4v2.44h-6.93v1C816.63,179.31,817.13,180.05,819.4,180.05Zm-2.77-5.24h5v-1c0-1.63-.55-2.53-2.44-2.53s-2.56.9-2.56,2.53Z"/><path class="cls-2" d="M837.59,169.88h2l-3.85,11.65H833l-3.85-11.65h2l3.2,10Z"/><path class="cls-2" d="M841.2,168v-2.89h2V168Zm0,13.52V169.88h2v11.65Z"/><path class="cls-2" d="M854.82,181.53h-1.7l-.12-.86a6.62,6.62,0,0,1-3.78,1.1c-2.18,0-3.09-1.29-3.09-3.35,0-2.42,1.22-3.28,3.57-3.28h3.11v-1.82c0-1.45-.65-2-2.54-2a18.52,18.52,0,0,0-3.49.39l-.22-1.61a16.86,16.86,0,0,1,3.83-.5c3.33,0,4.43,1.29,4.43,3.78Zm-2-4.71h-3c-1.24,0-1.7.38-1.7,1.55s.22,1.68,1.65,1.68a5.79,5.79,0,0,0,3-1Z"/><path class="cls-2" d="M857.88,181.53V165.12l2-.29v16.7Z"/><path class="cls-2" d="M337.31,224.63h5.77c3.42,0,4.62,1.48,4.62,3.92v2.37c0,2.46-1.2,4-4.62,4h-3.71v5.69h-2.06Zm5.7,1.84h-3.64V233H343c2,0,2.63-.56,2.63-2.11v-2.35C345.64,227,345,226.47,343,226.47Z"/><path class="cls-2" d="M355.38,230.51a26.27,26.27,0,0,0-3.33,2v8h-2V228.91h1.75l.12,1.63a14.88,14.88,0,0,1,3.21-1.87Z"/><path class="cls-2" d="M361.08,240.8c-3.4,0-4.74-1.94-4.74-4.38v-3.37c0-2.44,1.34-4.38,4.74-4.38s4.73,1.94,4.73,4.38v3.37C365.81,238.86,364.47,240.8,361.08,240.8Zm0-10.38c-1.82,0-2.73.86-2.73,2.56v3.51c0,1.7.91,2.56,2.73,2.56s2.72-.86,2.72-2.56V233C363.8,231.28,362.89,230.42,361.08,230.42Z"/><path class="cls-2" d="M374.64,240.37a7.25,7.25,0,0,1-2.44.43c-2,0-2.89-.72-2.89-2.65v-7.57h-2.06v-1.67h2.06V226l2-.29v3.16h3.3l-.17,1.67h-3.13v7.23c0,.86.12,1.29,1.19,1.29a7.37,7.37,0,0,0,1.87-.28Z"/><path class="cls-2" d="M381.11,239.08a15.06,15.06,0,0,0,3.68-.55l.26,1.6a12.55,12.55,0,0,1-4.11.67c-3.45,0-4.62-1.65-4.62-4.28V233c0-2.42,1.1-4.36,4.57-4.36s4.38,2,4.38,4.4v2.44h-6.94v1C378.33,238.34,378.83,239.08,381.11,239.08Zm-2.78-5.24h5v-1c0-1.63-.55-2.53-2.44-2.53s-2.56.9-2.56,2.53Z"/><path class="cls-2" d="M387.23,236.57v-3.66c0-2.68,1-4.24,4.65-4.24a10.65,10.65,0,0,1,2.77.36l-.17,1.67a12.29,12.29,0,0,0-2.56-.26c-2,0-2.68.58-2.68,2.39v3.81c0,1.82.67,2.39,2.68,2.39a12.29,12.29,0,0,0,2.56-.26l.19,1.67a10.76,10.76,0,0,1-2.79.36C388.14,240.8,387.23,239.25,387.23,236.57Z"/><path class="cls-2" d="M403.34,240.37a7.35,7.35,0,0,1-2.44.43c-2,0-2.9-.72-2.9-2.65v-7.57h-2.06v-1.67H398V226l2-.29v3.16h3.3l-.16,1.67H400v7.23c0,.86.12,1.29,1.2,1.29a7.36,7.36,0,0,0,1.86-.28Z"/><path class="cls-2" d="M417,228.91h2l-3.85,11.65h-2.68l-3.85-11.65h2l3.21,10Z"/><path class="cls-2" d="M420.57,227v-2.89h2V227Zm0,13.52V228.91h2v11.65Z"/><path class="cls-2" d="M434.18,240.56h-1.69l-.12-.86a6.62,6.62,0,0,1-3.78,1.1c-2.18,0-3.09-1.29-3.09-3.35,0-2.42,1.22-3.28,3.56-3.28h3.11v-1.81c0-1.46-.64-2-2.53-2a18.54,18.54,0,0,0-3.5.39l-.21-1.61a16.79,16.79,0,0,1,3.83-.5c3.32,0,4.42,1.29,4.42,3.78Zm-2-4.71h-3c-1.25,0-1.7.38-1.7,1.55s.21,1.68,1.65,1.68a5.76,5.76,0,0,0,3-1Z"/><path class="cls-2" d="M437.25,240.56V224.15l2-.29v16.7Z"/><path class="cls-2" d="M445.84,240.8a11.86,11.86,0,0,1-3.71-.62l.26-1.58a13.2,13.2,0,0,0,3.33.48c1.84,0,2.15-.34,2.15-1.58s-.09-1.39-2.44-2c-2.89-.72-3.16-1.32-3.16-3.74,0-2.15,1-3.13,4-3.13a12.88,12.88,0,0,1,3.31.41l-.15,1.65a18.85,18.85,0,0,0-3.23-.34c-1.72,0-2,.41-2,1.46,0,1.29,0,1.53,2,2,3.35.84,3.61,1.25,3.61,3.57S449.16,240.8,445.84,240.8Z"/><path class="cls-2" d="M463.67,225.56a12.13,12.13,0,0,0-1.94-.22c-1.25,0-1.56.44-1.56,1.61v2h3.33l-.17,1.67h-3.16v10h-2v-10h-2.05v-1.67h2.05v-2.15c0-2.06,1.15-3.09,3.31-3.09a8.16,8.16,0,0,1,2.36.34Z"/><path class="cls-2" d="M470.61,230.51a26.27,26.27,0,0,0-3.33,2v8h-2V228.91H467l.12,1.63a15,15,0,0,1,3.2-1.87Z"/><path class="cls-2" d="M476.3,240.8c-3.39,0-4.73-1.94-4.73-4.38v-3.37c0-2.44,1.34-4.38,4.73-4.38s4.74,1.94,4.74,4.38v3.37C481,238.86,479.7,240.8,476.3,240.8Zm0-10.38c-1.82,0-2.72.86-2.72,2.56v3.51c0,1.7.9,2.56,2.72,2.56s2.73-.86,2.73-2.56V233C479,231.28,478.12,230.42,476.3,230.42Z"/><path class="cls-2" d="M497.86,240.56v-8.9c0-.76-.38-1.08-1.12-1.08a10.26,10.26,0,0,0-3.9,1.18v8.8h-2v-8.9c0-.76-.38-1.08-1.13-1.08a10.85,10.85,0,0,0-3.9,1.18v8.8h-2V228.91h1.63l.19,1a12.67,12.67,0,0,1,4.69-1.24,2.16,2.16,0,0,1,2.23,1.24,12.42,12.42,0,0,1,4.81-1.24c1.86,0,2.53,1.17,2.53,3v8.92Z"/><path class="cls-2" d="M507.77,240.56V224.15l2-.29v16.7Z"/><path class="cls-2" d="M513.13,227v-2.89h2V227Zm0,13.52V228.91h2v11.65Z"/><path class="cls-2" d="M527.51,230.08l-1.38.27a4.09,4.09,0,0,1,.64,2.32v.52c0,2.51-1.53,4-4.57,4a8.66,8.66,0,0,1-1.19-.07,1.82,1.82,0,0,0-.84,1.25c0,.45.24.62.76.67l3.31.33c2.1.22,2.91,1,2.91,2.8,0,2.54-.88,3.37-5.09,3.37a18.7,18.7,0,0,1-4.24-.55l.29-1.58a18.32,18.32,0,0,0,3.9.48c3,0,3.25-.4,3.25-1.62,0-1-.35-1.15-1.72-1.27l-3.08-.29c-1.73-.14-2.28-1.05-2.28-2.13a2.64,2.64,0,0,1,1.1-2.06,3.49,3.49,0,0,1-1.62-3.3v-.52c0-2.54,1.22-4,4.54-4a7.47,7.47,0,0,1,2,.24h3.35Zm-5.31.24c-1.94,0-2.65.65-2.65,2.37v.5c0,1.77.74,2.32,2.65,2.32s2.66-.79,2.66-2.32v-.5C524.86,231,524.14,230.32,522.2,230.32Z"/><path class="cls-2" d="M536.78,240.56v-8.9c0-.76-.39-1.08-1.13-1.08a10.88,10.88,0,0,0-3.9,1.2v8.78h-2V224.15l2-.29v6a11.86,11.86,0,0,1,4.5-1.22c1.87,0,2.53,1.17,2.53,3v8.92Z"/><path class="cls-2" d="M548.09,240.37a7.25,7.25,0,0,1-2.44.43c-2,0-2.89-.72-2.89-2.65v-7.57H540.7v-1.67h2.06V226l2-.29v3.16h3.3l-.17,1.67h-3.13v7.23c0,.86.12,1.29,1.2,1.29a7.36,7.36,0,0,0,1.86-.28Z"/><path class="cls-2" d="M564.15,236.45c0,2.65-1,4.35-4.95,4.35a20.82,20.82,0,0,1-4.16-.45v-16.2l2-.29v5.62a8.4,8.4,0,0,1,3.68-.81c2.42,0,3.42,1.41,3.42,3.64Zm-7.1,2.41a15.27,15.27,0,0,0,2.29.17c2.37,0,2.8-1,2.8-2.51v-4.28c0-1.2-.52-1.8-1.89-1.8a8.38,8.38,0,0,0-3.2.89Z"/><path class="cls-2" d="M569.87,240.56H569l-3.78-11.65h2L570.42,239l3.23-10.05h2l-3.85,11.65-1.65,4.72h-1.89Z"/><path class="cls-2" d="M585.12,240.8a11.86,11.86,0,0,1-3.71-.62l.26-1.58a13.2,13.2,0,0,0,3.33.48c1.84,0,2.15-.34,2.15-1.58s-.1-1.39-2.44-2c-2.9-.72-3.16-1.32-3.16-3.74,0-2.15,1-3.13,4-3.13a12.75,12.75,0,0,1,3.3.41l-.14,1.65a18.85,18.85,0,0,0-3.23-.34c-1.72,0-2,.41-2,1.46,0,1.29,0,1.53,2,2,3.35.84,3.62,1.25,3.62,3.57S588.44,240.8,585.12,240.8Z"/><path class="cls-2" d="M598,240.37a7.35,7.35,0,0,1-2.44.43c-2,0-2.89-.72-2.89-2.65v-7.57H590.6v-1.67h2.06V226l2-.29v3.16H598l-.17,1.67h-3.14v7.23c0,.86.12,1.29,1.2,1.29a7.43,7.43,0,0,0,1.87-.28Z"/><path class="cls-2" d="M604.4,240.8c-3.39,0-4.73-1.94-4.73-4.38v-3.37c0-2.44,1.34-4.38,4.73-4.38s4.74,1.94,4.74,4.38v3.37C609.14,238.86,607.8,240.8,604.4,240.8Zm0-10.38c-1.81,0-2.72.86-2.72,2.56v3.51c0,1.7.91,2.56,2.72,2.56s2.73-.86,2.73-2.56V233C607.13,231.28,606.22,230.42,604.4,230.42Z"/><path class="cls-2" d="M617.23,230.51a25.46,25.46,0,0,0-3.32,2v8h-2V228.91h1.74l.12,1.63a14.88,14.88,0,0,1,3.21-1.87Z"/><path class="cls-2" d="M618.79,227v-2.89h2V227Zm0,13.52V228.91h2v11.65Z"/><path class="cls-2" d="M631.18,240.56v-8.9c0-.76-.38-1.08-1.12-1.08a10.79,10.79,0,0,0-3.9,1.18v8.8h-2V228.91h1.63l.19,1a12.67,12.67,0,0,1,4.69-1.24c1.86,0,2.53,1.17,2.53,3v8.92Z"/><path class="cls-2" d="M645.45,230.08l-1.39.27a4.09,4.09,0,0,1,.64,2.32v.52c0,2.51-1.53,4-4.57,4a8.76,8.76,0,0,1-1.19-.07,1.82,1.82,0,0,0-.84,1.25c0,.45.24.62.77.67l3.3.33c2.1.22,2.92,1,2.92,2.8,0,2.54-.89,3.37-5.1,3.37a18.55,18.55,0,0,1-4.23-.55l.28-1.58a18.32,18.32,0,0,0,3.9.48c3,0,3.26-.4,3.26-1.62,0-1-.36-1.15-1.73-1.27l-3.08-.29c-1.73-.14-2.28-1.05-2.28-2.13a2.64,2.64,0,0,1,1.1-2.06,3.49,3.49,0,0,1-1.62-3.3v-.52c0-2.54,1.22-4,4.54-4a7.54,7.54,0,0,1,2,.24h3.35Zm-5.32.24c-1.93,0-2.65.65-2.65,2.37v.5c0,1.77.74,2.32,2.65,2.32s2.66-.79,2.66-2.32v-.5C642.79,231,642.07,230.32,640.13,230.32Z"/><path class="cls-2" d="M652.34,227v-2.89h2V227Zm0,13.52V228.91h2v11.65Z"/><path class="cls-2" d="M664.73,240.56v-8.9c0-.76-.38-1.08-1.12-1.08a10.79,10.79,0,0,0-3.9,1.18v8.8h-2V228.91h1.63l.19,1a12.67,12.67,0,0,1,4.69-1.24c1.86,0,2.53,1.17,2.53,3v8.92Z"/><path class="cls-2" d="M680.72,240.37a7.35,7.35,0,0,1-2.44.43c-2,0-2.9-.72-2.9-2.65v-7.57h-2v-1.67h2V226l2-.29v3.16h3.31l-.17,1.67h-3.14v7.23c0,.86.12,1.29,1.2,1.29a7.5,7.5,0,0,0,1.87-.28Z"/><path class="cls-2" d="M690,240.56v-8.9c0-.76-.38-1.08-1.13-1.08a10.94,10.94,0,0,0-3.9,1.2v8.78h-2V224.15l2-.29v6a11.91,11.91,0,0,1,4.5-1.22c1.87,0,2.54,1.17,2.54,3v8.92Z"/><path class="cls-2" d="M699.46,239.08a15,15,0,0,0,3.68-.55l.26,1.6a12.55,12.55,0,0,1-4.11.67c-3.45,0-4.62-1.65-4.62-4.28V233c0-2.42,1.1-4.36,4.57-4.36s4.38,2,4.38,4.4v2.44h-6.94v1C696.68,238.34,697.18,239.08,699.46,239.08Zm-2.78-5.24h5v-1c0-1.63-.55-2.53-2.44-2.53s-2.56.9-2.56,2.53Z"/><path class="cls-2" d="M715.11,240.8c-3.4,0-4.74-1.94-4.74-4.38v-3.37c0-2.44,1.34-4.38,4.74-4.38s4.74,1.94,4.74,4.38v3.37C719.85,238.86,718.51,240.8,715.11,240.8Zm0-10.38c-1.82,0-2.73.86-2.73,2.56v3.51c0,1.7.91,2.56,2.73,2.56s2.73-.86,2.73-2.56V233C717.84,231.28,716.93,230.42,715.11,230.42Z"/><path class="cls-2" d="M727.93,230.51a26.15,26.15,0,0,0-3.32,2v8h-2V228.91h1.75l.12,1.63a14.8,14.8,0,0,1,3.2-1.87Z"/><path class="cls-2" d="M729.49,227v-2.89h2V227Zm0,13.52V228.91h2v11.65Z"/><path class="cls-2" d="M743.87,230.08l-1.39.27a4.1,4.1,0,0,1,.65,2.32v.52c0,2.51-1.53,4-4.57,4a8.92,8.92,0,0,1-1.2-.07,1.83,1.83,0,0,0-.83,1.25c0,.45.24.62.76.67l3.3.33c2.11.22,2.92,1,2.92,2.8,0,2.54-.88,3.37-5.09,3.37a18.7,18.7,0,0,1-4.24-.55l.29-1.58a18.32,18.32,0,0,0,3.9.48c3,0,3.25-.4,3.25-1.62,0-1-.36-1.15-1.72-1.27l-3.09-.29c-1.72-.14-2.27-1.05-2.27-2.13a2.64,2.64,0,0,1,1.1-2.06,3.5,3.5,0,0,1-1.63-3.3v-.52c0-2.54,1.22-4,4.55-4a7.47,7.47,0,0,1,2,.24h3.35Zm-5.31.24c-1.94,0-2.66.65-2.66,2.37v.5c0,1.77.75,2.32,2.66,2.32s2.66-.79,2.66-2.32v-.5C741.22,231,740.5,230.32,738.56,230.32Z"/><path class="cls-2" d="M746.1,227v-2.89h2V227Zm0,13.52V228.91h2v11.65Z"/><path class="cls-2" d="M758.49,240.56v-8.9c0-.76-.38-1.08-1.12-1.08a10.79,10.79,0,0,0-3.9,1.18v8.8h-2V228.91h1.63l.19,1a12.67,12.67,0,0,1,4.69-1.24c1.86,0,2.53,1.17,2.53,3v8.92Z"/><path class="cls-2" d="M772,240.56h-1.7l-.12-.86a6.62,6.62,0,0,1-3.78,1.1c-2.18,0-3.08-1.29-3.08-3.35,0-2.42,1.22-3.28,3.56-3.28H770v-1.81c0-1.46-.65-2-2.54-2a18.52,18.52,0,0,0-3.49.39l-.21-1.61a16.77,16.77,0,0,1,3.82-.5c3.33,0,4.43,1.29,4.43,3.78Zm-2-4.71h-3c-1.24,0-1.69.38-1.69,1.55s.21,1.68,1.65,1.68a5.76,5.76,0,0,0,3-1Z"/><path class="cls-2" d="M775.06,240.56V224.15l2-.29v16.7Z"/><path class="cls-2" d="M794.2,237c0,2.32-1.06,3.8-3.78,3.8a18.76,18.76,0,0,1-3.33-.36v4.84l-2,.28V228.91h1.7L787,230a6.25,6.25,0,0,1,3.85-1.29c2.3,0,3.4,1.22,3.4,3.57Zm-7.11,1.67a18.3,18.3,0,0,0,3.21.36c1.34,0,1.89-.62,1.89-2v-4.76c0-1.2-.38-1.8-1.8-1.8a5.35,5.35,0,0,0-3.3,1.39Z"/><path class="cls-2" d="M805.37,240.56h-1.69l-.12-.86a6.62,6.62,0,0,1-3.78,1.1c-2.18,0-3.09-1.29-3.09-3.35,0-2.42,1.22-3.28,3.56-3.28h3.11v-1.81c0-1.46-.64-2-2.53-2a18.54,18.54,0,0,0-3.5.39l-.21-1.61a16.79,16.79,0,0,1,3.83-.5c3.32,0,4.42,1.29,4.42,3.78Zm-2-4.71h-3c-1.25,0-1.7.38-1.7,1.55s.21,1.68,1.65,1.68a5.76,5.76,0,0,0,3-1Z"/><path class="cls-2" d="M807.72,236.57v-3.66c0-2.68,1-4.24,4.64-4.24a10.67,10.67,0,0,1,2.78.36L815,230.7a12.35,12.35,0,0,0-2.56-.26c-2,0-2.68.58-2.68,2.39v3.81c0,1.82.67,2.39,2.68,2.39a12.35,12.35,0,0,0,2.56-.26l.19,1.67a10.84,10.84,0,0,1-2.8.36C808.63,240.8,807.72,239.25,807.72,236.57Z"/><path class="cls-2" d="M817.75,240.56V224.15l2-.29v16.7Zm9-11.65-4.17,5.77,4.36,5.88h-2.37l-4.26-5.88,4.11-5.77Z"/><path class="cls-2" d="M837.11,240.56h-1.7l-.12-.86a6.62,6.62,0,0,1-3.78,1.1c-2.18,0-3.09-1.29-3.09-3.35,0-2.42,1.22-3.28,3.57-3.28h3.11v-1.81c0-1.46-.65-2-2.54-2a18.52,18.52,0,0,0-3.49.39l-.22-1.61a16.86,16.86,0,0,1,3.83-.5c3.33,0,4.43,1.29,4.43,3.78Zm-2-4.71h-3c-1.24,0-1.7.38-1.7,1.55s.22,1.68,1.65,1.68a5.79,5.79,0,0,0,3-1Z"/><path class="cls-2" d="M849.19,230.08l-1.39.27a4.1,4.1,0,0,1,.65,2.32v.52c0,2.51-1.53,4-4.57,4a8.92,8.92,0,0,1-1.2-.07,1.83,1.83,0,0,0-.83,1.25c0,.45.23.62.76.67l3.3.33c2.11.22,2.92,1,2.92,2.8,0,2.54-.88,3.37-5.09,3.37a18.7,18.7,0,0,1-4.24-.55l.29-1.58a18.32,18.32,0,0,0,3.9.48c3,0,3.25-.4,3.25-1.62,0-1-.36-1.15-1.72-1.27l-3.09-.29c-1.72-.14-2.27-1.05-2.27-2.13a2.64,2.64,0,0,1,1.1-2.06,3.5,3.5,0,0,1-1.63-3.3v-.52c0-2.54,1.22-4,4.55-4a7.47,7.47,0,0,1,2,.24h3.35Zm-5.31.24c-1.94,0-2.66.65-2.66,2.37v.5c0,1.77.75,2.32,2.66,2.32s2.65-.79,2.65-2.32v-.5C846.53,231,845.82,230.32,843.88,230.32Z"/><path class="cls-2" d="M855.6,239.08a15.07,15.07,0,0,0,3.69-.55l.26,1.6a12.55,12.55,0,0,1-4.11.67c-3.45,0-4.62-1.65-4.62-4.28V233c0-2.42,1.1-4.36,4.57-4.36s4.38,2,4.38,4.4v2.44h-6.94v1C852.83,238.34,853.33,239.08,855.6,239.08Zm-2.77-5.24h5v-1c0-1.63-.55-2.53-2.44-2.53s-2.56.9-2.56,2.53Z"/><path class="cls-2" d="M869,228.91v8.9c0,.77.38,1.08,1.12,1.08a10.79,10.79,0,0,0,3.9-1.18v-8.8h2v11.65h-1.63l-.19-1a12.67,12.67,0,0,1-4.69,1.24c-1.86,0-2.53-1.17-2.53-3v-8.92Z"/><path class="cls-2" d="M886.43,240.56v-8.9c0-.76-.39-1.08-1.13-1.08a10.85,10.85,0,0,0-3.9,1.18v8.8h-2V228.91H881l.19,1a12.67,12.67,0,0,1,4.69-1.24c1.87,0,2.54,1.17,2.54,3v8.92Z"/><path class="cls-2" d="M897.75,240.37a7.35,7.35,0,0,1-2.44.43c-2,0-2.9-.72-2.9-2.65v-7.57h-2.06v-1.67h2.06V226l2-.29v3.16h3.3l-.17,1.67h-3.13v7.23c0,.86.12,1.29,1.2,1.29a7.36,7.36,0,0,0,1.86-.28Z"/><path class="cls-2" d="M900,227v-2.89h2V227Zm0,13.52V228.91h2v11.65Z"/><path class="cls-2" d="M905.38,240.56V224.15l2-.29v16.7Z"/><path class="cls-2" d="M921.49,240.37a7.36,7.36,0,0,1-2.45.43c-2,0-2.89-.72-2.89-2.65v-7.57h-2.06v-1.67h2.06V226l2-.29v3.16h3.3l-.17,1.67h-3.13v7.23c0,.86.12,1.29,1.2,1.29a7.36,7.36,0,0,0,1.86-.28Z"/><path class="cls-2" d="M923.76,227v-2.89h2V227Zm0,13.52V228.91h2v11.65Z"/><path class="cls-2" d="M943.19,240.56v-8.9c0-.76-.38-1.08-1.13-1.08a10.36,10.36,0,0,0-3.9,1.18v8.8h-2v-8.9c0-.76-.38-1.08-1.12-1.08a10.79,10.79,0,0,0-3.9,1.18v8.8h-2V228.91h1.63l.19,1a12.67,12.67,0,0,1,4.69-1.24,2.15,2.15,0,0,1,2.22,1.24,12.47,12.47,0,0,1,4.81-1.24c1.87,0,2.54,1.17,2.54,3v8.92Z"/><path class="cls-2" d="M952.62,239.08a14.92,14.92,0,0,0,3.68-.55l.27,1.6a12.61,12.61,0,0,1-4.12.67c-3.44,0-4.62-1.65-4.62-4.28V233c0-2.42,1.1-4.36,4.57-4.36s4.38,2,4.38,4.4v2.44h-6.94v1C949.84,238.34,950.35,239.08,952.62,239.08Zm-2.78-5.24h5v-1c0-1.63-.55-2.53-2.44-2.53s-2.56.9-2.56,2.53Z"/><path class="cls-2" d="M968.27,240.8c-3.4,0-4.74-1.94-4.74-4.38v-3.37c0-2.44,1.34-4.38,4.74-4.38s4.74,1.94,4.74,4.38v3.37C973,238.86,971.67,240.8,968.27,240.8Zm0-10.38c-1.82,0-2.73.86-2.73,2.56v3.51c0,1.7.91,2.56,2.73,2.56s2.73-.86,2.73-2.56V233C971,231.28,970.09,230.42,968.27,230.42Z"/><path class="cls-2" d="M982.13,225.56a12.13,12.13,0,0,0-1.94-.22c-1.25,0-1.56.44-1.56,1.61v2H982l-.17,1.67h-3.16v10h-2v-10h-2v-1.67h2v-2.15c0-2.06,1.15-3.09,3.3-3.09a8.18,8.18,0,0,1,2.37.34Z"/><path class="cls-2" d="M990.29,228.91v8.9c0,.77.38,1.08,1.12,1.08a10.79,10.79,0,0,0,3.9-1.18v-8.8h2v11.65h-1.63l-.19-1a12.67,12.67,0,0,1-4.69,1.24c-1.86,0-2.53-1.17-2.53-3v-8.92Z"/><path class="cls-2" d="M1003.9,240.8a12,12,0,0,1-3.71-.62l.27-1.58a13.12,13.12,0,0,0,3.32.48c1.85,0,2.16-.34,2.16-1.58s-.1-1.39-2.44-2c-2.9-.72-3.16-1.32-3.16-3.74,0-2.15,1-3.13,4-3.13a12.86,12.86,0,0,1,3.3.41l-.14,1.65a19.06,19.06,0,0,0-3.23-.34c-1.73,0-2,.41-2,1.46,0,1.29,0,1.53,2,2,3.35.84,3.61,1.25,3.61,3.57S1007.23,240.8,1003.9,240.8Z"/><path class="cls-2" d="M1014.89,239.08a15,15,0,0,0,3.68-.55l.27,1.6a12.66,12.66,0,0,1-4.12.67c-3.45,0-4.62-1.65-4.62-4.28V233c0-2.42,1.1-4.36,4.57-4.36s4.38,2,4.38,4.4v2.44h-6.94v1C1012.11,238.34,1012.61,239.08,1014.89,239.08Zm-2.78-5.24h5v-1c0-1.63-.55-2.53-2.44-2.53s-2.56.9-2.56,2.53Z"/><path class="cls-2" d="M335.71,283.66h2l4.66,14.14L347,283.66h2l-5.26,15.93H341Z"/><path class="cls-2" d="M350.88,286.07v-2.89h2v2.89Zm0,13.52V287.94h2v11.65Z"/><path class="cls-2" d="M364.5,299.59h-1.7l-.12-.86a6.62,6.62,0,0,1-3.78,1.1c-2.18,0-3.09-1.29-3.09-3.35,0-2.41,1.22-3.28,3.57-3.28h3.11v-1.81c0-1.46-.65-2-2.54-2a19.39,19.39,0,0,0-3.49.39l-.22-1.61a16.86,16.86,0,0,1,3.83-.5c3.33,0,4.43,1.29,4.43,3.78Zm-2-4.71h-3c-1.24,0-1.7.38-1.7,1.55s.22,1.68,1.65,1.68a5.79,5.79,0,0,0,3-1Z"/><path class="cls-2" d="M367.56,299.59V283.18l2-.29v16.7Z"/><path class="cls-2" d="M376.15,299.83a12,12,0,0,1-3.71-.62l.27-1.58a13.12,13.12,0,0,0,3.32.48c1.84,0,2.16-.34,2.16-1.58s-.1-1.39-2.45-2c-2.89-.72-3.15-1.32-3.15-3.73,0-2.16,1-3.14,4-3.14a12.86,12.86,0,0,1,3.3.41l-.15,1.65a18.85,18.85,0,0,0-3.23-.34c-1.72,0-2,.41-2,1.46,0,1.3,0,1.53,2,2,3.35.84,3.61,1.25,3.61,3.57S379.48,299.83,376.15,299.83Z"/><path class="cls-2" d="M387.18,291.51c0-2.33,1.06-3.81,3.79-3.81a18.75,18.75,0,0,1,3.32.36v-4.88l2-.29v16.7h-1.7l-.17-1a6.16,6.16,0,0,1-3.85,1.29c-2.29,0-3.4-1.22-3.4-3.56Zm7.11-1.68a19.3,19.3,0,0,0-3.21-.36c-1.34,0-1.89.62-1.89,2v4.76c0,1.19.39,1.79,1.8,1.79a5.35,5.35,0,0,0,3.3-1.39Z"/><path class="cls-2" d="M403.79,299.83c-3.4,0-4.74-1.94-4.74-4.38v-3.37c0-2.44,1.34-4.38,4.74-4.38s4.74,1.94,4.74,4.38v3.37C408.53,297.89,407.19,299.83,403.79,299.83Zm0-10.38c-1.82,0-2.73.86-2.73,2.56v3.52c0,1.69.91,2.56,2.73,2.56s2.73-.87,2.73-2.56V292C406.52,290.31,405.61,289.45,403.79,289.45Z"/><path class="cls-2" d="M423,299.59v-8.9c0-.76-.38-1.07-1.12-1.07a10.75,10.75,0,0,0-3.9,1.17v8.8h-2V287.94h1.63l.19,1a12.49,12.49,0,0,1,4.69-1.25c1.86,0,2.53,1.17,2.53,3v8.92Z"/><path class="cls-2" d="M432.37,299.83c-3.4,0-4.74-1.94-4.74-4.38v-3.37c0-2.44,1.34-4.38,4.74-4.38s4.73,1.94,4.73,4.38v3.37C437.1,297.89,435.76,299.83,432.37,299.83Zm0-10.38c-1.82,0-2.73.86-2.73,2.56v3.52c0,1.69.91,2.56,2.73,2.56s2.72-.87,2.72-2.56V292C435.09,290.31,434.18,289.45,432.37,289.45Z"/><path class="cls-2" d="M445.93,299.4a7.25,7.25,0,0,1-2.44.43c-2,0-2.89-.72-2.89-2.65v-7.56h-2.06v-1.68h2.06v-2.87l2-.29v3.16h3.3l-.17,1.68h-3.13v7.22c0,.86.12,1.29,1.2,1.29a7.36,7.36,0,0,0,1.86-.28Z"/><path class="cls-2" d="M452.16,295.6v-3.66c0-2.68,1-4.24,4.64-4.24a10.67,10.67,0,0,1,2.78.36l-.17,1.68a11.74,11.74,0,0,0-2.56-.27c-2,0-2.68.58-2.68,2.39v3.81c0,1.82.67,2.39,2.68,2.39a12.35,12.35,0,0,0,2.56-.26l.19,1.67a10.84,10.84,0,0,1-2.8.36C453.07,299.83,452.16,298.28,452.16,295.6Z"/><path class="cls-2" d="M466.32,299.83c-3.39,0-4.73-1.94-4.73-4.38v-3.37c0-2.44,1.34-4.38,4.73-4.38s4.74,1.94,4.74,4.38v3.37C471.06,297.89,469.72,299.83,466.32,299.83Zm0-10.38c-1.81,0-2.72.86-2.72,2.56v3.52c0,1.69.91,2.56,2.72,2.56s2.73-.87,2.73-2.56V292C469.05,290.31,468.14,289.45,466.32,289.45Z"/><path class="cls-2" d="M480.85,299.59v-8.9c0-.76-.38-1.07-1.13-1.07a10.71,10.71,0,0,0-3.89,1.17v8.8h-2V287.94h1.62l.19,1a12.59,12.59,0,0,1,4.69-1.25c1.87,0,2.54,1.17,2.54,3v8.92Z"/><path class="cls-2" d="M492.17,299.4a7.35,7.35,0,0,1-2.44.43c-2,0-2.9-.72-2.9-2.65v-7.56h-2.05v-1.68h2.05v-2.87l2-.29v3.16h3.31l-.17,1.68h-3.14v7.22c0,.86.12,1.29,1.2,1.29a7.5,7.5,0,0,0,1.87-.28Z"/><path class="cls-2" d="M502.7,299.59H501l-.12-.86a6.62,6.62,0,0,1-3.78,1.1c-2.18,0-3.09-1.29-3.09-3.35,0-2.41,1.22-3.28,3.57-3.28h3.11v-1.81c0-1.46-.65-2-2.54-2a19.39,19.39,0,0,0-3.49.39l-.22-1.61a16.86,16.86,0,0,1,3.83-.5c3.33,0,4.43,1.29,4.43,3.78Zm-2-4.71h-3c-1.24,0-1.7.38-1.7,1.55s.22,1.68,1.65,1.68a5.79,5.79,0,0,0,3-1Z"/><path class="cls-2" d="M505.76,286.07v-2.89h2v2.89Zm0,13.52V287.94h2v11.65Z"/><path class="cls-2" d="M518.16,299.59v-8.9c0-.76-.38-1.07-1.13-1.07a10.81,10.81,0,0,0-3.9,1.17v8.8h-2V287.94h1.63l.19,1a12.49,12.49,0,0,1,4.69-1.25c1.87,0,2.54,1.17,2.54,3v8.92Z"/><path class="cls-2" d="M537.18,296c0,2.32-1,3.8-3.78,3.8a18.65,18.65,0,0,1-3.32-.36v4.84l-2,.28V287.94h1.7l.16,1.05a6.25,6.25,0,0,1,3.85-1.29c2.3,0,3.4,1.22,3.4,3.57Zm-7.1,1.67a18.19,18.19,0,0,0,3.2.36c1.34,0,1.89-.62,1.89-2v-4.76c0-1.2-.38-1.8-1.79-1.8a5.35,5.35,0,0,0-3.3,1.39Z"/><path class="cls-2" d="M545.44,289.54a26.27,26.27,0,0,0-3.33,2v8h-2V287.94h1.75l.12,1.63a14.88,14.88,0,0,1,3.21-1.87Z"/><path class="cls-2" d="M551.18,298.11a15.07,15.07,0,0,0,3.69-.55l.26,1.6a12.55,12.55,0,0,1-4.11.67c-3.45,0-4.62-1.65-4.62-4.28v-3.49c0-2.42,1.1-4.36,4.57-4.36s4.38,2,4.38,4.4v2.44h-6.94v1C548.41,297.37,548.91,298.11,551.18,298.11Zm-2.77-5.24h5v-1c0-1.62-.55-2.53-2.44-2.53s-2.56.91-2.56,2.53Z"/><path class="cls-2" d="M561.26,299.83a11.86,11.86,0,0,1-3.71-.62l.26-1.58a13.2,13.2,0,0,0,3.33.48c1.84,0,2.15-.34,2.15-1.58s-.09-1.39-2.44-2c-2.89-.72-3.16-1.32-3.16-3.73,0-2.16,1-3.14,4-3.14a12.75,12.75,0,0,1,3.3.41l-.14,1.65a18.85,18.85,0,0,0-3.23-.34c-1.72,0-2,.41-2,1.46,0,1.3,0,1.53,2,2,3.35.84,3.62,1.25,3.62,3.57S564.58,299.83,561.26,299.83Z"/><path class="cls-2" d="M572.24,298.11a15.07,15.07,0,0,0,3.69-.55l.26,1.6a12.59,12.59,0,0,1-4.11.67c-3.45,0-4.62-1.65-4.62-4.28v-3.49c0-2.42,1.1-4.36,4.57-4.36s4.38,2,4.38,4.4v2.44h-6.94v1C569.47,297.37,570,298.11,572.24,298.11Zm-2.77-5.24h5v-1c0-1.62-.55-2.53-2.44-2.53s-2.56.91-2.56,2.53Z"/><path class="cls-2" d="M584.42,289.54a25.46,25.46,0,0,0-3.32,2v8h-2V287.94h1.74l.12,1.63a15.12,15.12,0,0,1,3.21-1.87Z"/><path class="cls-2" d="M592.66,287.94h2l-3.85,11.65h-2.68l-3.85-11.65h2l3.21,10Z"/><path class="cls-2" d="M604.52,299.59h-1.69l-.12-.86a6.62,6.62,0,0,1-3.78,1.1c-2.18,0-3.09-1.29-3.09-3.35,0-2.41,1.22-3.28,3.56-3.28h3.11v-1.81c0-1.46-.64-2-2.53-2a19.18,19.18,0,0,0-3.49.39l-.22-1.61a16.79,16.79,0,0,1,3.83-.5c3.32,0,4.42,1.29,4.42,3.78Zm-2-4.71h-3c-1.25,0-1.7.38-1.7,1.55s.21,1.68,1.65,1.68a5.76,5.76,0,0,0,3-1Z"/><path class="cls-2" d="M613.67,299.4a7.35,7.35,0,0,1-2.44.43c-2,0-2.9-.72-2.9-2.65v-7.56h-2.06v-1.68h2.06v-2.87l2-.29v3.16h3.3l-.17,1.68h-3.13v7.22c0,.86.12,1.29,1.2,1.29a7.36,7.36,0,0,0,1.86-.28Z"/><path class="cls-2" d="M615.94,286.07v-2.89h2v2.89Zm0,13.52V287.94h2v11.65Z"/><path class="cls-2" d="M628,287.94h2l-3.85,11.65h-2.68l-3.85-11.65h2l3.21,10Z"/><path class="cls-2" d="M635.78,298.11a14.92,14.92,0,0,0,3.68-.55l.27,1.6a12.61,12.61,0,0,1-4.12.67c-3.44,0-4.62-1.65-4.62-4.28v-3.49c0-2.42,1.1-4.36,4.57-4.36s4.38,2,4.38,4.4v2.44H633v1C633,297.37,633.51,298.11,635.78,298.11ZM633,292.87h5v-1c0-1.62-.55-2.53-2.44-2.53s-2.56.91-2.56,2.53Z"/><path class="cls-2" d="M645.85,299.83a11.84,11.84,0,0,1-3.7-.62l.26-1.58a13.12,13.12,0,0,0,3.32.48c1.85,0,2.16-.34,2.16-1.58s-.1-1.39-2.44-2c-2.9-.72-3.16-1.32-3.16-3.73,0-2.16,1-3.14,4-3.14a12.86,12.86,0,0,1,3.3.41l-.14,1.65a19,19,0,0,0-3.23-.34c-1.73,0-2,.41-2,1.46,0,1.3,0,1.53,2,2,3.35.84,3.61,1.25,3.61,3.57S649.18,299.83,645.85,299.83Z"/><path class="cls-2" d="M665.57,299.59h-1.7l-.12-.86a6.6,6.6,0,0,1-3.78,1.1c-2.17,0-3.08-1.29-3.08-3.35,0-2.41,1.22-3.28,3.56-3.28h3.11v-1.81c0-1.46-.64-2-2.53-2a19.4,19.4,0,0,0-3.5.39l-.21-1.61a16.79,16.79,0,0,1,3.83-.5c3.32,0,4.42,1.29,4.42,3.78Zm-2-4.71h-3c-1.25,0-1.7.38-1.7,1.55s.21,1.68,1.65,1.68a5.76,5.76,0,0,0,3-1Z"/><path class="cls-2" d="M675.67,299.59v-8.9c0-.76-.38-1.07-1.12-1.07a10.75,10.75,0,0,0-3.9,1.17v8.8h-2V287.94h1.62l.2,1a12.5,12.5,0,0,1,4.68-1.25c1.87,0,2.54,1.17,2.54,3v8.92Z"/><path class="cls-2" d="M680.48,291.51c0-2.33,1-3.81,3.78-3.81a18.76,18.76,0,0,1,3.33.36v-4.88l2-.29v16.7h-1.7l-.17-1a6.18,6.18,0,0,1-3.85,1.29c-2.3,0-3.4-1.22-3.4-3.56Zm7.11-1.68a19.3,19.3,0,0,0-3.21-.36c-1.34,0-1.89.62-1.89,2v4.76c0,1.19.38,1.79,1.8,1.79a5.38,5.38,0,0,0,3.3-1.39Z"/><path class="cls-2" d="M693,296.84h2.06v2.75l-1.44,2.87-.93-.45,1-2.42H693Z"/><path class="cls-2" d="M709.29,299.4a7.25,7.25,0,0,1-2.44.43c-2,0-2.89-.72-2.89-2.65v-7.56H701.9v-1.68H704v-2.87l2-.29v3.16h3.3l-.17,1.68H706v7.22c0,.86.12,1.29,1.19,1.29a7.37,7.37,0,0,0,1.87-.28Z"/><path class="cls-2" d="M718.6,299.59v-8.9c0-.76-.38-1.07-1.12-1.07a11,11,0,0,0-3.9,1.19v8.78h-2V283.18l2-.29v6a11.81,11.81,0,0,1,4.5-1.22c1.86,0,2.53,1.17,2.53,3v8.92Z"/><path class="cls-2" d="M725.74,287.94v8.9c0,.77.38,1.08,1.12,1.08a11,11,0,0,0,3.9-1.17v-8.81h2v11.65h-1.63l-.19-1a12.67,12.67,0,0,1-4.69,1.24c-1.86,0-2.53-1.17-2.53-3v-8.92Z"/><path class="cls-2" d="M739.35,299.83a12,12,0,0,1-3.71-.62l.27-1.58a13.12,13.12,0,0,0,3.32.48c1.84,0,2.16-.34,2.16-1.58s-.1-1.39-2.45-2c-2.89-.72-3.15-1.32-3.15-3.73,0-2.16,1-3.14,4-3.14a12.86,12.86,0,0,1,3.3.41l-.15,1.65a18.85,18.85,0,0,0-3.23-.34c-1.72,0-2,.41-2,1.46,0,1.3,0,1.53,2,2,3.35.84,3.61,1.25,3.61,3.57S742.68,299.83,739.35,299.83Z"/><path class="cls-2" d="M746.22,296.84h2.06v2.75l-1.44,2.87-.93-.45,1-2.42h-.69Z"/><path class="cls-2" d="M764.67,299.59H763l-.12-.86a6.62,6.62,0,0,1-3.78,1.1c-2.18,0-3.09-1.29-3.09-3.35,0-2.41,1.22-3.28,3.57-3.28h3.11v-1.81c0-1.46-.65-2-2.54-2a19.39,19.39,0,0,0-3.49.39l-.22-1.61a16.94,16.94,0,0,1,3.83-.5c3.33,0,4.43,1.29,4.43,3.78Zm-2-4.71h-3c-1.24,0-1.7.38-1.7,1.55s.22,1.68,1.65,1.68a5.79,5.79,0,0,0,3-1Z"/><path class="cls-2" d="M773.07,289.54a26.27,26.27,0,0,0-3.33,2v8h-2V287.94h1.75l.12,1.63a14.88,14.88,0,0,1,3.21-1.87Z"/><path class="cls-2" d="M778.81,298.11a15.07,15.07,0,0,0,3.69-.55l.26,1.6a12.55,12.55,0,0,1-4.11.67c-3.45,0-4.62-1.65-4.62-4.28v-3.49c0-2.42,1.1-4.36,4.57-4.36s4.38,2,4.38,4.4v2.44H776v1C776,297.37,776.54,298.11,778.81,298.11ZM776,292.87h5v-1c0-1.62-.55-2.53-2.44-2.53s-2.56.91-2.56,2.53Z"/><path class="cls-2" d="M790.32,286.07v-2.89h2v2.89Zm0,13.52V287.94h2v11.65Z"/><path class="cls-2" d="M802.72,299.59v-8.9c0-.76-.38-1.07-1.13-1.07a10.81,10.81,0,0,0-3.9,1.17v8.8h-2V287.94h1.63l.19,1a12.59,12.59,0,0,1,4.69-1.25c1.87,0,2.54,1.17,2.54,3v8.92Z"/><path class="cls-2" d="M814,299.4a7.35,7.35,0,0,1-2.44.43c-2,0-2.9-.72-2.9-2.65v-7.56h-2.05v-1.68h2.05v-2.87l2-.29v3.16H814l-.16,1.68h-3.14v7.22c0,.86.12,1.29,1.2,1.29a7.5,7.5,0,0,0,1.87-.28Z"/><path class="cls-2" d="M820.5,298.11a14.92,14.92,0,0,0,3.68-.55l.27,1.6a12.61,12.61,0,0,1-4.12.67c-3.44,0-4.61-1.65-4.61-4.28v-3.49c0-2.42,1.1-4.36,4.56-4.36s4.38,2,4.38,4.4v2.44h-6.94v1C817.72,297.37,818.23,298.11,820.5,298.11Zm-2.78-5.24h5v-1c0-1.62-.55-2.53-2.45-2.53s-2.56.91-2.56,2.53Z"/><path class="cls-2" d="M834.38,299.59v-8.9c0-.76-.38-1.07-1.13-1.07a10.81,10.81,0,0,0-3.9,1.17v8.8h-2V287.94H829l.19,1a12.59,12.59,0,0,1,4.69-1.25c1.87,0,2.54,1.17,2.54,3v8.92Z"/><path class="cls-2" d="M839.19,291.51c0-2.33,1-3.81,3.78-3.81a18.86,18.86,0,0,1,3.33.36v-4.88l2-.29v16.7h-1.7l-.17-1a6.18,6.18,0,0,1-3.85,1.29c-2.3,0-3.4-1.22-3.4-3.56Zm7.11-1.68a19.42,19.42,0,0,0-3.21-.36c-1.34,0-1.89.62-1.89,2v4.76c0,1.19.38,1.79,1.8,1.79a5.38,5.38,0,0,0,3.3-1.39Z"/><path class="cls-2" d="M855.85,298.11a15.06,15.06,0,0,0,3.68-.55l.26,1.6a12.55,12.55,0,0,1-4.11.67c-3.45,0-4.62-1.65-4.62-4.28v-3.49c0-2.42,1.1-4.36,4.57-4.36s4.38,2,4.38,4.4v2.44h-6.94v1C853.07,297.37,853.57,298.11,855.85,298.11Zm-2.78-5.24h5v-1c0-1.62-.55-2.53-2.44-2.53s-2.56.91-2.56,2.53Z"/><path class="cls-2" d="M862.26,291.51c0-2.33,1-3.81,3.78-3.81a18.86,18.86,0,0,1,3.33.36v-4.88l2-.29v16.7h-1.7l-.17-1a6.18,6.18,0,0,1-3.85,1.29c-2.3,0-3.4-1.22-3.4-3.56Zm7.11-1.68a19.42,19.42,0,0,0-3.21-.36c-1.34,0-1.89.62-1.89,2v4.76c0,1.19.38,1.79,1.8,1.79a5.38,5.38,0,0,0,3.3-1.39Z"/><path class="cls-2" d="M885.76,284.59a11.92,11.92,0,0,0-1.94-.21c-1.24,0-1.55.43-1.55,1.6v2h3.32l-.17,1.68h-3.15v10h-2v-10H878.2v-1.68h2.06v-2.15c0-2.06,1.15-3.09,3.3-3.09a8.23,8.23,0,0,1,2.37.34Z"/><path class="cls-2" d="M891.5,299.83c-3.39,0-4.73-1.94-4.73-4.38v-3.37c0-2.44,1.34-4.38,4.73-4.38s4.74,1.94,4.74,4.38v3.37C896.24,297.89,894.9,299.83,891.5,299.83Zm0-10.38c-1.81,0-2.72.86-2.72,2.56v3.52c0,1.69.91,2.56,2.72,2.56s2.73-.87,2.73-2.56V292C894.23,290.31,893.32,289.45,891.5,289.45Z"/><path class="cls-2" d="M904.33,289.54a25.46,25.46,0,0,0-3.32,2v8h-2V287.94h1.74l.12,1.63a14.88,14.88,0,0,1,3.21-1.87Z"/><path class="cls-2" d="M913.78,299.83a11.84,11.84,0,0,1-3.7-.62l.26-1.58a13.12,13.12,0,0,0,3.32.48c1.85,0,2.16-.34,2.16-1.58s-.1-1.39-2.44-2c-2.9-.72-3.16-1.32-3.16-3.73,0-2.16,1-3.14,4-3.14a12.86,12.86,0,0,1,3.3.41l-.14,1.65a19,19,0,0,0-3.23-.34c-1.73,0-2,.41-2,1.46,0,1.3,0,1.53,2,2,3.35.84,3.61,1.25,3.61,3.57S917.11,299.83,913.78,299.83Z"/><path class="cls-2" d="M920.58,286.07v-2.89h2v2.89Zm0,13.52V287.94h2v11.65Z"/><path class="cls-2" d="M933,299.59v-8.9c0-.76-.39-1.07-1.13-1.07a10.81,10.81,0,0,0-3.9,1.17v8.8h-2V287.94h1.63l.19,1a12.49,12.49,0,0,1,4.69-1.25c1.87,0,2.54,1.17,2.54,3v8.92Z"/><path class="cls-2" d="M947.24,289.11l-1.39.27a4.18,4.18,0,0,1,.65,2.32v.52c0,2.52-1.54,4-4.57,4a8.92,8.92,0,0,1-1.2-.07,1.82,1.82,0,0,0-.84,1.25c0,.45.24.62.77.67l3.3.33c2.11.22,2.92,1,2.92,2.8,0,2.54-.89,3.38-5.1,3.38a18.67,18.67,0,0,1-4.23-.56l.28-1.57a19,19,0,0,0,3.9.47c3,0,3.26-.4,3.26-1.62,0-1-.36-1.15-1.72-1.27l-3.09-.29c-1.72-.14-2.27-1-2.27-2.13a2.61,2.61,0,0,1,1.1-2.05,3.53,3.53,0,0,1-1.63-3.31v-.52c0-2.54,1.22-4,4.55-4a7.52,7.52,0,0,1,2,.24h3.35Zm-5.31.24c-1.94,0-2.66.65-2.66,2.37v.5c0,1.77.74,2.32,2.66,2.32s2.65-.79,2.65-2.32v-.5C944.58,290,943.86,289.35,941.93,289.35Z"/><path class="cls-2" d="M949.46,299.59V283.18l2-.29v16.7Z"/><path class="cls-2" d="M959,298.11a15.07,15.07,0,0,0,3.69-.55l.26,1.6a12.61,12.61,0,0,1-4.12.67c-3.44,0-4.61-1.65-4.61-4.28v-3.49c0-2.42,1.1-4.36,4.57-4.36s4.38,2,4.38,4.4v2.44h-6.94v1C956.24,297.37,956.74,298.11,959,298.11Zm-2.77-5.24h5v-1c0-1.62-.55-2.53-2.44-2.53s-2.56.91-2.56,2.53Z"/><path class="cls-2" d="M972.41,287.94v8.9c0,.77.39,1.08,1.13,1.08a11,11,0,0,0,3.9-1.17v-8.81h2v11.65h-1.63l-.19-1a12.67,12.67,0,0,1-4.69,1.24c-1.87,0-2.54-1.17-2.54-3v-8.92Z"/><path class="cls-2" d="M986,299.83a11.86,11.86,0,0,1-3.71-.62l.26-1.58a13.26,13.26,0,0,0,3.33.48c1.84,0,2.15-.34,2.15-1.58s-.09-1.39-2.44-2c-2.89-.72-3.16-1.32-3.16-3.73,0-2.16,1-3.14,4-3.14a12.88,12.88,0,0,1,3.31.41l-.15,1.65a18.85,18.85,0,0,0-3.23-.34c-1.72,0-2,.41-2,1.46,0,1.3,0,1.53,2,2,3.35.84,3.61,1.25,3.61,3.57S989.36,299.83,986,299.83Z"/><path class="cls-2" d="M997,298.11a15.07,15.07,0,0,0,3.69-.55l.26,1.6a12.55,12.55,0,0,1-4.11.67c-3.45,0-4.62-1.65-4.62-4.28v-3.49c0-2.42,1.1-4.36,4.57-4.36s4.38,2,4.38,4.4v2.44h-6.94v1C994.24,297.37,994.74,298.11,997,298.11Zm-2.77-5.24h5v-1c0-1.62-.55-2.53-2.44-2.53s-2.56.91-2.56,2.53Z"/><path class="cls-2" d="M1012.66,299.83c-3.39,0-4.73-1.94-4.73-4.38v-3.37c0-2.44,1.34-4.38,4.73-4.38s4.74,1.94,4.74,4.38v3.37C1017.4,297.89,1016.06,299.83,1012.66,299.83Zm0-10.38c-1.81,0-2.72.86-2.72,2.56v3.52c0,1.69.91,2.56,2.72,2.56s2.73-.87,2.73-2.56V292C1015.39,290.31,1014.48,289.45,1012.66,289.45Z"/><path class="cls-2" d="M1027.19,299.59v-8.9c0-.76-.38-1.07-1.12-1.07a10.7,10.7,0,0,0-3.9,1.17v8.8h-2V287.94h1.62l.19,1a12.59,12.59,0,0,1,4.69-1.25c1.87,0,2.54,1.17,2.54,3v8.92Z"/><path class="cls-2" d="M1032.43,299.59V283.18l2-.29v16.7Z"/><path class="cls-2" d="M1040.69,299.59h-.84l-3.78-11.65h2l3.18,10.05,3.23-10.05h2l-3.85,11.65-1.65,4.72h-1.89Z"/><path class="cls-2" d="M1061,299.59h-1.7l-.12-.86a6.62,6.62,0,0,1-3.78,1.1c-2.18,0-3.09-1.29-3.09-3.35,0-2.41,1.22-3.28,3.57-3.28H1059v-1.81c0-1.46-.65-2-2.54-2a19.39,19.39,0,0,0-3.49.39l-.22-1.61a16.86,16.86,0,0,1,3.83-.5c3.33,0,4.43,1.29,4.43,3.78Zm-2-4.71h-3c-1.24,0-1.7.38-1.7,1.55s.22,1.68,1.65,1.68a5.79,5.79,0,0,0,3-1Z"/><path class="cls-2" d="M1071.06,299.59v-8.9c0-.76-.39-1.07-1.13-1.07a10.81,10.81,0,0,0-3.9,1.17v8.8h-2V287.94h1.63l.19,1a12.49,12.49,0,0,1,4.69-1.25c1.87,0,2.54,1.17,2.54,3v8.92Z"/><path class="cls-2" d="M1075.87,291.51c0-2.33,1.05-3.81,3.78-3.81a18.65,18.65,0,0,1,3.32.36v-4.88l2-.29v16.7h-1.7l-.16-1a6.19,6.19,0,0,1-3.86,1.29c-2.29,0-3.39-1.22-3.39-3.56Zm7.1-1.68a19.19,19.19,0,0,0-3.2-.36c-1.34,0-1.89.62-1.89,2v4.76c0,1.19.38,1.79,1.79,1.79a5.35,5.35,0,0,0,3.3-1.39Z"/><path class="cls-2" d="M1096.23,299.83a12,12,0,0,1-3.71-.62l.27-1.58a13.12,13.12,0,0,0,3.32.48c1.84,0,2.16-.34,2.16-1.58s-.1-1.39-2.44-2c-2.9-.72-3.16-1.32-3.16-3.73,0-2.16.95-3.14,4-3.14a12.86,12.86,0,0,1,3.3.41l-.15,1.65a18.85,18.85,0,0,0-3.23-.34c-1.72,0-2,.41-2,1.46,0,1.3,0,1.53,2,2,3.35.84,3.61,1.25,3.61,3.57S1099.56,299.83,1096.23,299.83Z"/><path class="cls-2" d="M1110.06,299.59v-8.9c0-.76-.38-1.07-1.12-1.07a11,11,0,0,0-3.9,1.19v8.78h-2V283.18l2-.29v6a11.81,11.81,0,0,1,4.5-1.22c1.86,0,2.53,1.17,2.53,3v8.92Z"/><path class="cls-2" d="M1119.44,299.83c-3.39,0-4.73-1.94-4.73-4.38v-3.37c0-2.44,1.34-4.38,4.73-4.38s4.74,1.94,4.74,4.38v3.37C1124.18,297.89,1122.84,299.83,1119.44,299.83Zm0-10.38c-1.81,0-2.72.86-2.72,2.56v3.52c0,1.69.91,2.56,2.72,2.56s2.73-.87,2.73-2.56V292C1122.17,290.31,1121.26,289.45,1119.44,289.45Z"/><path class="cls-2" d="M1128.83,287.94v8.9c0,.77.38,1.08,1.12,1.08a11,11,0,0,0,3.9-1.17v-8.81h2v11.65h-1.63l-.19-1a12.67,12.67,0,0,1-4.69,1.24c-1.86,0-2.53-1.17-2.53-3v-8.92Z"/><path class="cls-2" d="M1139.21,299.59V283.18l2-.29v16.7Z"/><path class="cls-2" d="M1144.14,291.51c0-2.33,1-3.81,3.78-3.81a18.86,18.86,0,0,1,3.33.36v-4.88l2-.29v16.7h-1.7l-.17-1a6.18,6.18,0,0,1-3.85,1.29c-2.3,0-3.4-1.22-3.4-3.56Zm7.11-1.68a19.42,19.42,0,0,0-3.21-.36c-1.34,0-1.89.62-1.89,2v4.76c0,1.19.38,1.79,1.8,1.79a5.38,5.38,0,0,0,3.3-1.39Z"/><path class="cls-2" d="M1170.39,295.48c0,2.65-1,4.35-5,4.35a20.82,20.82,0,0,1-4.16-.45v-16.2l2-.29v5.62a8.4,8.4,0,0,1,3.68-.81c2.42,0,3.42,1.41,3.42,3.64Zm-7.1,2.41a15.46,15.46,0,0,0,2.29.17c2.37,0,2.8-1,2.8-2.51v-4.28c0-1.2-.52-1.8-1.89-1.8a8.43,8.43,0,0,0-3.2.89Z"/><path class="cls-2" d="M1177.41,298.11a15.06,15.06,0,0,0,3.68-.55l.26,1.6a12.55,12.55,0,0,1-4.11.67c-3.45,0-4.62-1.65-4.62-4.28v-3.49c0-2.42,1.1-4.36,4.57-4.36s4.38,2,4.38,4.4v2.44h-6.94v1C1174.63,297.37,1175.13,298.11,1177.41,298.11Zm-2.78-5.24h5v-1c0-1.62-.55-2.53-2.44-2.53s-2.56.91-2.56,2.53Z"/><path class="cls-2" d="M1188.49,291.51c0-2.33,1-3.81,3.78-3.81a18.75,18.75,0,0,1,3.32.36v-4.88l2-.29v16.7h-1.7l-.16-1a6.21,6.21,0,0,1-3.86,1.29c-2.29,0-3.39-1.22-3.39-3.56Zm7.1-1.68a19.31,19.31,0,0,0-3.2-.36c-1.34,0-1.89.62-1.89,2v4.76c0,1.19.38,1.79,1.79,1.79a5.35,5.35,0,0,0,3.3-1.39Z"/><path class="cls-2" d="M1201,286.07v-2.89h2v2.89Zm0,13.52V287.94h2v11.65Z"/><path class="cls-2" d="M1209.54,299.83a11.84,11.84,0,0,1-3.7-.62l.26-1.58a13.12,13.12,0,0,0,3.32.48c1.85,0,2.16-.34,2.16-1.58s-.1-1.39-2.44-2c-2.9-.72-3.16-1.32-3.16-3.73,0-2.16,1-3.14,4-3.14a12.86,12.86,0,0,1,3.3.41l-.14,1.65a19,19,0,0,0-3.23-.34c-1.73,0-2,.41-2,1.46,0,1.3,0,1.53,2,2,3.35.84,3.61,1.25,3.61,3.57S1212.87,299.83,1209.54,299.83Z"/><path class="cls-2" d="M1215.62,295.6v-3.66c0-2.68,1-4.24,4.64-4.24a10.67,10.67,0,0,1,2.78.36l-.17,1.68a11.68,11.68,0,0,0-2.56-.27c-2,0-2.68.58-2.68,2.39v3.81c0,1.82.67,2.39,2.68,2.39a12.29,12.29,0,0,0,2.56-.26l.19,1.67a10.78,10.78,0,0,1-2.8.36C1216.53,299.83,1215.62,298.28,1215.62,295.6Z"/><path class="cls-2" d="M1233.9,299.59h-1.69l-.12-.86a6.62,6.62,0,0,1-3.78,1.1c-2.18,0-3.09-1.29-3.09-3.35,0-2.41,1.22-3.28,3.56-3.28h3.11v-1.81c0-1.46-.64-2-2.53-2a19.18,19.18,0,0,0-3.49.39l-.22-1.61a16.79,16.79,0,0,1,3.83-.5c3.32,0,4.42,1.29,4.42,3.78Zm-2-4.71h-3c-1.25,0-1.7.38-1.7,1.55s.21,1.68,1.65,1.68a5.73,5.73,0,0,0,3-1Z"/><path class="cls-2" d="M1242.31,289.54a25.58,25.58,0,0,0-3.33,2v8h-2V287.94h1.75l.12,1.63a14.8,14.8,0,0,1,3.2-1.87Z"/><path class="cls-2" d="M1243.43,291.51c0-2.33,1-3.81,3.78-3.81a18.86,18.86,0,0,1,3.33.36v-4.88l2-.29v16.7h-1.7l-.17-1a6.18,6.18,0,0,1-3.85,1.29c-2.3,0-3.4-1.22-3.4-3.56Zm7.11-1.68a19.42,19.42,0,0,0-3.21-.36c-1.34,0-1.89.62-1.89,2v4.76c0,1.19.38,1.79,1.8,1.79a5.38,5.38,0,0,0,3.3-1.39Z"/><path class="cls-2" d="M1260.09,298.11a15.06,15.06,0,0,0,3.68-.55l.26,1.6a12.55,12.55,0,0,1-4.11.67c-3.45,0-4.62-1.65-4.62-4.28v-3.49c0-2.42,1.1-4.36,4.57-4.36s4.38,2,4.38,4.4v2.44h-6.94v1C1257.31,297.37,1257.81,298.11,1260.09,298.11Zm-2.78-5.24h5v-1c0-1.62-.55-2.53-2.44-2.53s-2.56.91-2.56,2.53Z"/><path class="cls-2" d="M1266.5,291.51c0-2.33,1-3.81,3.78-3.81a18.86,18.86,0,0,1,3.33.36v-4.88l2-.29v16.7h-1.7l-.17-1a6.18,6.18,0,0,1-3.85,1.29c-2.3,0-3.4-1.22-3.4-3.56Zm7.11-1.68a19.42,19.42,0,0,0-3.21-.36c-1.34,0-1.89.62-1.89,2v4.76c0,1.19.38,1.79,1.79,1.79a5.4,5.4,0,0,0,3.31-1.39Z"/><path class="cls-2" d="M344,326.71h-1.7l-.12-.86a6.58,6.58,0,0,1-3.78,1.1c-2.17,0-3.08-1.29-3.08-3.35,0-2.41,1.22-3.27,3.56-3.27H342v-1.82c0-1.46-.64-2-2.53-2a19.44,19.44,0,0,0-3.5.38l-.21-1.6a16.25,16.25,0,0,1,3.83-.51c3.32,0,4.42,1.3,4.42,3.78ZM342,322h-3c-1.25,0-1.7.38-1.7,1.56s.21,1.67,1.65,1.67a5.76,5.76,0,0,0,3-1Z"/><path class="cls-2" d="M353.44,311.71a11.8,11.8,0,0,0-1.94-.21c-1.24,0-1.55.43-1.55,1.6v2h3.32l-.16,1.68H350v10h-2v-10h-2.06v-1.68h2.06v-2.15c0-2.06,1.15-3.09,3.3-3.09a8.18,8.18,0,0,1,2.37.34Z"/><path class="cls-2" d="M361.12,326.52a7.06,7.06,0,0,1-2.44.43c-2,0-2.89-.71-2.89-2.65v-7.56h-2.06v-1.68h2.06v-2.87l2-.29v3.16h3.3l-.17,1.68H357.8V324c0,.86.12,1.3,1.19,1.3a7.5,7.5,0,0,0,1.87-.29Z"/><path class="cls-2" d="M367.59,325.23a14.6,14.6,0,0,0,3.68-.55l.26,1.6a12.55,12.55,0,0,1-4.11.67c-3.45,0-4.62-1.65-4.62-4.28v-3.49c0-2.42,1.1-4.36,4.57-4.36s4.38,2,4.38,4.41v2.44h-6.94v1C364.81,324.49,365.31,325.23,367.59,325.23ZM364.81,320h5v-1c0-1.62-.55-2.53-2.44-2.53s-2.56.91-2.56,2.53Z"/><path class="cls-2" d="M379.77,316.67a25.15,25.15,0,0,0-3.33,2v8h-2V315.06h1.75l.12,1.63a14.8,14.8,0,0,1,3.2-1.87Z"/><path class="cls-2" d="M387.88,315.06V324c0,.77.38,1.08,1.12,1.08a10.9,10.9,0,0,0,3.9-1.17v-8.81h2v11.65h-1.62l-.19-1a12.77,12.77,0,0,1-4.69,1.24c-1.87,0-2.54-1.17-2.54-3v-8.93Z"/><path class="cls-2" d="M401.49,327a11.84,11.84,0,0,1-3.7-.62l.26-1.58a13.13,13.13,0,0,0,3.33.48c1.84,0,2.15-.33,2.15-1.58s-.1-1.39-2.44-2c-2.9-.72-3.16-1.32-3.16-3.73,0-2.16,1-3.14,4-3.14a13.31,13.31,0,0,1,3.3.41l-.14,1.65a18.93,18.93,0,0,0-3.23-.33c-1.72,0-2,.4-2,1.46,0,1.29,0,1.53,2,2,3.35.83,3.61,1.24,3.61,3.56S404.82,327,401.49,327Z"/><path class="cls-2" d="M412.48,325.23a14.47,14.47,0,0,0,3.68-.55l.27,1.6a12.61,12.61,0,0,1-4.12.67c-3.44,0-4.62-1.65-4.62-4.28v-3.49c0-2.42,1.1-4.36,4.57-4.36s4.38,2,4.38,4.41v2.44H409.7v1C409.7,324.49,410.21,325.23,412.48,325.23ZM409.7,320h5v-1c0-1.62-.55-2.53-2.44-2.53s-2.56.91-2.56,2.53Z"/><path class="cls-2" d="M432.25,326.71h-1.7l-.12-.86a6.62,6.62,0,0,1-3.78,1.1c-2.18,0-3.09-1.29-3.09-3.35,0-2.41,1.22-3.27,3.57-3.27h3.11v-1.82c0-1.46-.65-2-2.54-2a19.42,19.42,0,0,0-3.49.38l-.22-1.6a16.32,16.32,0,0,1,3.83-.51c3.32,0,4.43,1.3,4.43,3.78Zm-2-4.71h-3c-1.25,0-1.7.38-1.7,1.56s.22,1.67,1.65,1.67a5.79,5.79,0,0,0,3-1Z"/><path class="cls-2" d="M442.34,326.71v-8.9c0-.76-.38-1.07-1.12-1.07a10.75,10.75,0,0,0-3.9,1.17v8.8h-2V315.06h1.63l.19,1a12.68,12.68,0,0,1,4.69-1.25c1.86,0,2.53,1.18,2.53,3v8.92Z"/><path class="cls-2" d="M447.16,318.63c0-2.32,1-3.81,3.78-3.81a18.65,18.65,0,0,1,3.32.36V310.3l2-.29v16.7h-1.7l-.16-1a6.21,6.21,0,0,1-3.86,1.29c-2.29,0-3.39-1.22-3.39-3.56Zm7.1-1.68a19.19,19.19,0,0,0-3.2-.36c-1.34,0-1.89.63-1.89,2v4.76c0,1.2.38,1.79,1.79,1.79a5.4,5.4,0,0,0,3.3-1.38Z"/><path class="cls-2" d="M473.41,323.15c0,2.32-1.06,3.8-3.78,3.8a17.88,17.88,0,0,1-3.33-.36v4.84l-2,.28V315.06H466l.17,1.06a6.17,6.17,0,0,1,3.85-1.3c2.3,0,3.4,1.22,3.4,3.57Zm-7.11,1.67a18.3,18.3,0,0,0,3.21.36c1.34,0,1.89-.62,1.89-2v-4.76c0-1.2-.39-1.8-1.8-1.8a5.41,5.41,0,0,0-3.3,1.39Z"/><path class="cls-2" d="M481.66,316.67a24.41,24.41,0,0,0-3.32,2v8h-2V315.06h1.74l.12,1.63a15.12,15.12,0,0,1,3.21-1.87Z"/><path class="cls-2" d="M487.36,327c-3.4,0-4.74-1.93-4.74-4.37V319.2c0-2.44,1.34-4.38,4.74-4.38s4.74,1.94,4.74,4.38v3.38C492.1,325,490.76,327,487.36,327Zm0-10.38c-1.82,0-2.73.86-2.73,2.56v3.52c0,1.7.91,2.56,2.73,2.56s2.73-.86,2.73-2.56v-3.52C490.09,317.43,489.18,316.57,487.36,316.57Z"/><path class="cls-2" d="M494.42,318.63c0-2.32,1.05-3.81,3.78-3.81a18.86,18.86,0,0,1,3.33.36V310.3l2-.29v16.7h-1.7l-.17-1a6.18,6.18,0,0,1-3.85,1.29c-2.3,0-3.4-1.22-3.4-3.56Zm7.11-1.68a19.42,19.42,0,0,0-3.21-.36c-1.34,0-1.89.63-1.89,2v4.76c0,1.2.38,1.79,1.79,1.79a5.45,5.45,0,0,0,3.31-1.38Z"/><path class="cls-2" d="M508.78,315.06V324c0,.77.38,1.08,1.12,1.08a11,11,0,0,0,3.9-1.17v-8.81h2v11.65h-1.62l-.2-1a12.67,12.67,0,0,1-4.68,1.24c-1.87,0-2.54-1.17-2.54-3v-8.93Z"/><path class="cls-2" d="M518.45,322.72v-3.66c0-2.68,1-4.24,4.64-4.24a10.53,10.53,0,0,1,2.77.36l-.16,1.68a12.4,12.4,0,0,0-2.56-.27c-2,0-2.68.58-2.68,2.4v3.8c0,1.82.67,2.39,2.68,2.39a12.35,12.35,0,0,0,2.56-.26l.19,1.67a10.42,10.42,0,0,1-2.8.36C519.36,327,518.45,325.4,518.45,322.72Z"/><path class="cls-2" d="M534.55,326.52a7.1,7.1,0,0,1-2.44.43c-2,0-2.89-.71-2.89-2.65v-7.56h-2.06v-1.68h2.06v-2.87l2-.29v3.16h3.3l-.17,1.68h-3.13V324c0,.86.12,1.3,1.19,1.3a7.5,7.5,0,0,0,1.87-.29Z"/><path class="cls-2" d="M546.83,316.67a25.15,25.15,0,0,0-3.33,2v8h-2V315.06h1.75l.12,1.63a15,15,0,0,1,3.2-1.87Z"/><path class="cls-2" d="M552.57,325.23a14.61,14.61,0,0,0,3.69-.55l.26,1.6a12.61,12.61,0,0,1-4.12.67c-3.44,0-4.61-1.65-4.61-4.28v-3.49c0-2.42,1.1-4.36,4.57-4.36s4.37,2,4.37,4.41v2.44H549.8v1C549.8,324.49,550.3,325.23,552.57,325.23ZM549.8,320h5v-1c0-1.62-.55-2.53-2.44-2.53s-2.56.91-2.56,2.53Z"/><path class="cls-2" d="M558.7,322.72v-3.66c0-2.68,1-4.24,4.64-4.24a10.67,10.67,0,0,1,2.78.36l-.17,1.68a12.4,12.4,0,0,0-2.56-.27c-2,0-2.68.58-2.68,2.4v3.8c0,1.82.67,2.39,2.68,2.39a12.35,12.35,0,0,0,2.56-.26l.19,1.67a10.42,10.42,0,0,1-2.8.36C559.61,327,558.7,325.4,558.7,322.72Z"/><path class="cls-2" d="M572.86,327c-3.39,0-4.73-1.93-4.73-4.37V319.2c0-2.44,1.34-4.38,4.73-4.38s4.74,1.94,4.74,4.38v3.38C577.6,325,576.26,327,572.86,327Zm0-10.38c-1.81,0-2.72.86-2.72,2.56v3.52c0,1.7.91,2.56,2.72,2.56s2.73-.86,2.73-2.56v-3.52C575.59,317.43,574.68,316.57,572.86,316.57Z"/><path class="cls-2" d="M587.39,326.71v-8.9c0-.76-.38-1.07-1.12-1.07a10.7,10.7,0,0,0-3.9,1.17v8.8h-2V315.06H582l.19,1a12.79,12.79,0,0,1,4.69-1.25c1.87,0,2.54,1.18,2.54,3v8.92Z"/><path class="cls-2" d="M591.92,322.72v-3.66c0-2.68,1-4.24,4.64-4.24a10.59,10.59,0,0,1,2.77.36l-.17,1.68a12.26,12.26,0,0,0-2.56-.27c-2,0-2.67.58-2.67,2.4v3.8c0,1.82.67,2.39,2.67,2.39a12.22,12.22,0,0,0,2.56-.26l.2,1.67a10.42,10.42,0,0,1-2.8.36C592.82,327,591.92,325.4,591.92,322.72Z"/><path class="cls-2" d="M601.94,313.2v-2.9h2v2.9Zm0,13.51V315.06h2v11.65Z"/><path class="cls-2" d="M607.3,326.71V310.3l2-.29v16.7Z"/><path class="cls-2" d="M612.66,313.2v-2.9h2v2.9Zm0,13.51V315.06h2v11.65Z"/><path class="cls-2" d="M626.28,326.71h-1.7l-.12-.86a6.62,6.62,0,0,1-3.78,1.1c-2.18,0-3.09-1.29-3.09-3.35,0-2.41,1.22-3.27,3.57-3.27h3.11v-1.82c0-1.46-.65-2-2.54-2a19.42,19.42,0,0,0-3.49.38l-.22-1.6a16.32,16.32,0,0,1,3.83-.51c3.33,0,4.43,1.3,4.43,3.78Zm-2-4.71h-3c-1.24,0-1.7.38-1.7,1.56s.22,1.67,1.65,1.67a5.79,5.79,0,0,0,3-1Z"/><path class="cls-2" d="M635.42,326.52A7.1,7.1,0,0,1,633,327c-2,0-2.9-.71-2.9-2.65v-7.56H628v-1.68h2.05v-2.87l2-.29v3.16h3.31l-.17,1.68h-3.14V324c0,.86.12,1.3,1.2,1.3a7.57,7.57,0,0,0,1.87-.29Z"/><path class="cls-2" d="M637.69,313.2v-2.9h2v2.9Zm0,13.51V315.06h2v11.65Z"/><path class="cls-2" d="M647.19,327c-3.39,0-4.73-1.93-4.73-4.37V319.2c0-2.44,1.34-4.38,4.73-4.38s4.74,1.94,4.74,4.38v3.38C651.93,325,650.59,327,647.19,327Zm0-10.38c-1.82,0-2.72.86-2.72,2.56v3.52c0,1.7.9,2.56,2.72,2.56s2.73-.86,2.73-2.56v-3.52C649.92,317.43,649,316.57,647.19,316.57Z"/><path class="cls-2" d="M661.72,326.71v-8.9c0-.76-.38-1.07-1.13-1.07a10.81,10.81,0,0,0-3.9,1.17v8.8h-2V315.06h1.63l.19,1a12.79,12.79,0,0,1,4.69-1.25c1.87,0,2.54,1.18,2.54,3v8.92Z"/><rect class="cls-9" x="298.54" width="395.42" height="46.14" rx="22.05"/><path class="cls-8" d="M333.71,25.48H331v4.84H327.4V14.38h6.51c3.87,0,5.31,1.53,5.31,4.52V21C339.22,24,337.59,25.48,333.71,25.48Zm1.92-6.24c0-1.15-.41-1.67-1.92-1.67H331v4.8h2.72c1.58,0,1.92-.59,1.92-1.74Z"/><path class="cls-8" d="M344.34,23.21v7.11H340.9V18.67h2.87l.24,1.12a11,11,0,0,1,3.13-1.36l.29,3.25A17.44,17.44,0,0,0,344.34,23.21Z"/><path class="cls-8" d="M348.07,25.84v-2.7c0-2.39,1.13-4.71,5.27-4.71s5.26,2.32,5.26,4.71v2.7c0,2.4-1.12,4.72-5.26,4.72S348.07,28.24,348.07,25.84Zm7.09.1V23c0-1.1-.58-1.72-1.82-1.72s-1.82.62-1.82,1.72v2.9c0,1.1.57,1.72,1.82,1.72S355.16,27,355.16,25.94Z"/><path class="cls-8" d="M360,22.73c0-2.75,1.2-4.3,3.92-4.3a14.36,14.36,0,0,1,3,.33V13.9l3.45-.47V30.32h-2.71l-.36-.94a7.46,7.46,0,0,1-3.59,1.18c-2.36,0-3.68-1.46-3.68-4.31Zm6.89-1a10.66,10.66,0,0,0-2.2-.28c-.91,0-1.24.55-1.24,1.31v3.52c0,.81.33,1.32,1.24,1.32a3.81,3.81,0,0,0,2.2-.91Z"/><path class="cls-8" d="M376.34,18.67v7.7a.74.74,0,0,0,.83.84,6.74,6.74,0,0,0,2.52-.84v-7.7h3.44V30.32h-2.56l-.36-.89a11.64,11.64,0,0,1-4.64,1.13c-2,0-2.68-1.49-2.68-3.74V18.67Z"/><path class="cls-8" d="M388.49,25.87c0,1.19.51,1.74,1.89,1.74a10,10,0,0,0,2.4-.28l.43,2.87a12.67,12.67,0,0,1-2.83.36c-3.78,0-5.33-1.41-5.33-4.74V23.16c0-3.32,1.55-4.73,5.33-4.73a12.11,12.11,0,0,1,2.83.36l-.43,2.87a12,12,0,0,0-2.4-.29c-1.38,0-1.89.55-1.89,1.75Z"/><path class="cls-8" d="M398.9,30.56c-2.22,0-3.51-.84-3.51-3V21.44h-1.58V18.67h1.58v-2.8l3.44-.48v3.28h2.66l-.19,2.77h-2.47v5.65c0,.48.29.64.72.64a4.62,4.62,0,0,0,1.43-.21l.41,2.61A8.19,8.19,0,0,1,398.9,30.56Z"/><path class="cls-8" d="M406.78,30.56a15.3,15.3,0,0,1-4.24-.7l.55-2.56a12.59,12.59,0,0,0,3.52.53c1,0,1.19-.29,1.19-1s0-.84-1.89-1.29c-2.82-.7-3.08-1.46-3.08-3.64,0-2.46,1-3.49,4.45-3.49a17.45,17.45,0,0,1,3.54.38l-.31,2.68a19.71,19.71,0,0,0-3.21-.34c-1,0-1.24.27-1.24.79,0,.72.09.82,1.48,1.13,3.33.74,3.57,1.46,3.57,3.78S410.1,30.56,406.78,30.56Z"/><path class="cls-8" d="M422.24,30.56a13.16,13.16,0,0,1-5.15-1l.6-2.78a15,15,0,0,0,4.59.77c1.85,0,2.2-.36,2.2-1.7s-.07-1.6-2.68-2.18c-3.85-.84-4.42-1.6-4.42-5.05,0-3.18,1.12-4.45,5.5-4.45a23.37,23.37,0,0,1,4.83.53l-.35,3a24.5,24.5,0,0,0-4.43-.45c-1.6,0-2,.29-2,1.46,0,1.53.07,1.55,2.58,2.15,4.31,1,4.52,1.87,4.52,5S427,30.56,422.24,30.56Z"/><path class="cls-8" d="M434,30.56c-2.23,0-3.52-.84-3.52-3V21.44h-1.58V18.67h1.58v-2.8l3.45-.48v3.28h2.65l-.19,2.77h-2.46v5.65c0,.48.28.64.72.64a4.62,4.62,0,0,0,1.43-.21l.41,2.61A8.25,8.25,0,0,1,434,30.56Z"/><path class="cls-8" d="M437.65,25.84v-2.7c0-2.39,1.12-4.71,5.26-4.71s5.26,2.32,5.26,4.71v2.7c0,2.4-1.12,4.72-5.26,4.72S437.65,28.24,437.65,25.84Zm7.08.1V23c0-1.1-.57-1.72-1.82-1.72s-1.82.62-1.82,1.72v2.9c0,1.1.58,1.72,1.82,1.72S444.73,27,444.73,25.94Z"/><path class="cls-8" d="M453.66,23.21v7.11h-3.45V18.67h2.87l.24,1.12a11.1,11.1,0,0,1,3.14-1.36l.28,3.25A17.33,17.33,0,0,0,453.66,23.21Z"/><path class="cls-8" d="M464.23,30.32l-.24-.74a7.14,7.14,0,0,1-3.32,1c-2.16,0-3-1.56-3-3.54,0-2.35,1.08-3.28,3.47-3.28h2.51v-.89c0-1.19-.21-1.6-2.06-1.6a16.62,16.62,0,0,0-3.15.33L457.94,19a16.63,16.63,0,0,1,4.19-.57c4,0,4.93,1.22,4.93,4.45v7.44Zm-.62-4.19H462c-.74,0-1,.19-1,.84s.26.91.93.91a3.93,3.93,0,0,0,1.75-.41Z"/><path class="cls-8" d="M468.73,22.23c0-2.34,1.34-3.8,4.76-3.8a7.74,7.74,0,0,1,2,.24h3.64v1.62l-1.17.43a4.67,4.67,0,0,1,.31,1.51v1.41c0,2.23-1.56,3.71-4.77,3.71h-.35c-.24.14-.51.31-.51.65a.46.46,0,0,0,.39.48c1.55.16,2,.21,2.89.28,2,.17,2.82.84,2.82,2.85,0,2.8-1.74,3.66-5.35,3.66a20.44,20.44,0,0,1-4.65-.6l.51-2.51a17.44,17.44,0,0,0,3.82.48c1.8,0,2.52-.07,2.52-.84,0-.45-.22-.57-.91-.65-1.32-.11-1.53-.14-3-.28s-2.49-.5-2.49-2.11a2.87,2.87,0,0,1,1-2.13,3.19,3.19,0,0,1-1.49-3Zm6.32,1.24v-1.1c0-.76-.41-1.22-1.56-1.22s-1.55.46-1.55,1.22v1.1c0,.79.43,1.15,1.55,1.15S475.05,24.26,475.05,23.47Z"/><path class="cls-8" d="M483.4,25.7V26c0,1.34.53,1.7,2.11,1.7a13.69,13.69,0,0,0,3.54-.5l.5,2.59a13.94,13.94,0,0,1-4.38.74c-3.78,0-5.21-1.87-5.21-4.74V23.09c0-2.51,1.12-4.66,5-4.66s4.71,2.29,4.71,4.83V25.7Zm3-3.09c0-.81-.24-1.48-1.44-1.48s-1.58.67-1.58,1.48v.51h3Z"/><path class="cls-8" d="M502.5,30.32l-.24-.74a7.17,7.17,0,0,1-3.33,1c-2.15,0-3-1.56-3-3.54,0-2.35,1.08-3.28,3.47-3.28h2.52v-.89c0-1.19-.22-1.6-2.06-1.6a16.72,16.72,0,0,0-3.16.33L496.21,19a16.55,16.55,0,0,1,4.18-.57c4.05,0,4.93,1.22,4.93,4.45v7.44Zm-.62-4.19h-1.65c-.75,0-1,.19-1,.84s.26.91.93.91a3.93,3.93,0,0,0,1.75-.41Z"/><path class="cls-8" d="M514.51,30.32V22.61a.74.74,0,0,0-.84-.83,6.84,6.84,0,0,0-2.51.83v7.71h-3.44V18.67h2.56l.36.88a11.8,11.8,0,0,1,4.64-1.12c2,0,2.68,1.48,2.68,3.73v8.16Z"/><path class="cls-8" d="M519.87,22.73c0-2.75,1.2-4.3,3.93-4.3a14.34,14.34,0,0,1,3,.33V13.9l3.45-.47V30.32h-2.7l-.36-.94a7.49,7.49,0,0,1-3.59,1.18c-2.37,0-3.69-1.46-3.69-4.31Zm6.89-1a10.57,10.57,0,0,0-2.2-.28c-.91,0-1.24.55-1.24,1.31v3.52c0,.81.33,1.32,1.24,1.32a3.81,3.81,0,0,0,2.2-.91Z"/><path class="cls-8" d="M542.06,30.56a13.2,13.2,0,0,1-5.15-1l.6-2.78a15,15,0,0,0,4.59.77c1.85,0,2.21-.36,2.21-1.7s-.08-1.6-2.68-2.18c-3.86-.84-4.43-1.6-4.43-5.05,0-3.18,1.12-4.45,5.5-4.45a23.53,23.53,0,0,1,4.84.53l-.36,3a24.41,24.41,0,0,0-4.43-.45c-1.6,0-2,.29-2,1.46,0,1.53.07,1.55,2.58,2.15,4.31,1,4.52,1.87,4.52,5S546.87,30.56,542.06,30.56Z"/><path class="cls-8" d="M553.83,30.56c-2.22,0-3.52-.84-3.52-3V21.44h-1.58V18.67h1.58v-2.8l3.45-.48v3.28h2.65l-.19,2.77h-2.46v5.65c0,.48.29.64.72.64a4.62,4.62,0,0,0,1.43-.21l.41,2.61A8.25,8.25,0,0,1,553.83,30.56Z"/><path class="cls-8" d="M564.31,30.32l-.24-.74a7.14,7.14,0,0,1-3.32,1c-2.16,0-3-1.56-3-3.54,0-2.35,1.07-3.28,3.47-3.28h2.51v-.89c0-1.19-.22-1.6-2.06-1.6a16.72,16.72,0,0,0-3.16.33L558,19a16.63,16.63,0,0,1,4.19-.57c4,0,4.93,1.22,4.93,4.45v7.44Zm-.62-4.19H562c-.74,0-1,.19-1,.84s.26.91.93.91a3.93,3.93,0,0,0,1.75-.41Z"/><path class="cls-8" d="M574.27,30.56a31.3,31.3,0,0,1-4.74-.39V13.9l3.45-.47v5.64a9.06,9.06,0,0,1,3.3-.64c2.58,0,3.59,1.6,3.59,4.21v3C579.87,28.43,579.08,30.56,574.27,30.56Zm-1.29-3a13.48,13.48,0,0,0,1.41.05c1.72,0,2-.79,2-1.89v-3a1.09,1.09,0,0,0-1.24-1.24,5.1,5.1,0,0,0-2.2.64Z"/><path class="cls-8" d="M581.9,17.21V13.55h3.45v3.66Zm0,13.11V18.67h3.45V30.32Z"/><path class="cls-8" d="M588,30.32V13.9l3.45-.47V30.32Z"/><path class="cls-8" d="M594.06,17.21V13.55h3.44v3.66Zm0,13.11V18.67h3.44V30.32Z"/><path class="cls-8" d="M604,30.56c-2.23,0-3.52-.84-3.52-3V21.44h-1.58V18.67h1.58v-2.8l3.45-.48v3.28h2.65l-.19,2.77H604v5.65c0,.48.28.64.71.64a4.64,4.64,0,0,0,1.44-.21l.41,2.61A8.25,8.25,0,0,1,604,30.56Z"/><path class="cls-8" d="M610.16,35l1.37-4.71h-1.1l-3.59-11.65h3.49l2.37,8.25,2.37-8.25h3.49L614.9,30.32,613.42,35Z"/></g></g></g></svg>