<svg xmlns="http://www.w3.org/2000/svg" viewBox="0 0 466.67 34.65"><defs><style>.cls-1{fill:#008fb4;}</style></defs><g id="Layer_2" data-name="Layer 2"><g id="Text"><path class="cls-1" d="M7.58,27.11A21.79,21.79,0,0,1,0,25.77l.54-2.68A24.41,24.41,0,0,0,7.66,24.2c4.09,0,4.94-1.08,4.94-4,0-3.44,0-3.75-5.29-4.93C1.15,13.9.42,12.71.42,7.43.42,3,2.26.84,8.58.84a29.34,29.34,0,0,1,6.89.84l-.27,2.8a31.15,31.15,0,0,0-6.55-.73c-4.17,0-4.94.84-4.94,3.79,0,3.52,0,3.68,5.06,4.94,6.77,1.69,7.12,2.68,7.12,7.66C15.89,24.58,14.59,27.11,7.58,27.11Z"/><path class="cls-1" d="M30.21,26.42a11.66,11.66,0,0,1-3.91.69c-3.13,0-4.63-1.15-4.63-4.25V10.76H18.38V8.08h3.29V3.48L24.89,3V8.08h5.28l-.27,2.68h-5V22.32c0,1.38.19,2.07,1.91,2.07a12.19,12.19,0,0,0,3-.46Z"/><path class="cls-1" d="M46.86,26.72H44.15L44,25.34a10.59,10.59,0,0,1-6,1.77C34.42,27.11,33,25,33,21.75c0-3.87,2-5.25,5.7-5.25h5V13.59c0-2.33-1-3.14-4.06-3.14a31.46,31.46,0,0,0-5.59.61L33.66,8.5a26.21,26.21,0,0,1,6.12-.8c5.32,0,7.08,2.06,7.08,6Zm-3.21-7.54H38.9c-2,0-2.72.61-2.72,2.49s.35,2.68,2.64,2.68a9.33,9.33,0,0,0,4.83-1.53Z"/><path class="cls-1" d="M66.16,20.14c0,4.25-1.53,7-7.92,7a33.07,33.07,0,0,1-6.66-.73V.46L54.79,0V9a13.43,13.43,0,0,1,5.9-1.3c3.86,0,5.47,2.25,5.47,5.81ZM54.79,24a23.82,23.82,0,0,0,3.68.27c3.79,0,4.48-1.53,4.48-4V13.4c0-1.91-.85-2.87-3-2.87a13.87,13.87,0,0,0-5.13,1.41Z"/><path class="cls-1" d="M70.49,5.09V.46h3.22V5.09Zm0,21.63V8.08h3.22V26.72Z"/><path class="cls-1" d="M78.88,26.72V.46L82.09,0V26.72Z"/><path class="cls-1" d="M87.26,5.09V.46h3.22V5.09Zm0,21.63V8.08h3.22V26.72Z"/><path class="cls-1" d="M105.37,26.42a11.65,11.65,0,0,1-3.9.69c-3.14,0-4.64-1.15-4.64-4.25V10.76H93.54V8.08h3.29V3.48L100.05,3V8.08h5.28l-.27,2.68h-5V22.32c0,1.38.19,2.07,1.91,2.07a12.19,12.19,0,0,0,3-.46Z"/><path class="cls-1" d="M113.45,26.72h-1.34l-6-18.64h3.18l5.09,16.08L119.5,8.08h3.18l-6.17,18.64-2.64,7.54h-3Z"/><path class="cls-1" d="M125.13,22.32h3.29v4.4l-2.3,4.6-1.49-.73,1.61-3.87h-1.11Z"/><path class="cls-1" d="M147.87,27.11a21.79,21.79,0,0,1-7.58-1.34l.54-2.68A24.41,24.41,0,0,0,148,24.2c4.09,0,4.94-1.08,4.94-4,0-3.44,0-3.75-5.29-4.93-6.16-1.38-6.89-2.57-6.89-7.85,0-4.44,1.84-6.59,8.16-6.59a29.34,29.34,0,0,1,6.89.84l-.27,2.8a31.15,31.15,0,0,0-6.55-.73c-4.17,0-4.93.84-4.93,3.79,0,3.52,0,3.68,5.05,4.94,6.77,1.69,7.12,2.68,7.12,7.66C156.18,24.58,154.88,27.11,147.87,27.11Z"/><path class="cls-1" d="M170.5,26.42a11.65,11.65,0,0,1-3.9.69c-3.14,0-4.64-1.15-4.64-4.25V10.76h-3.29V8.08H162V3.48L165.18,3V8.08h5.28l-.27,2.68h-5V22.32c0,1.38.19,2.07,1.91,2.07a12.19,12.19,0,0,0,3-.46Z"/><path class="cls-1" d="M180.57,27.11c-5.44,0-7.58-3.11-7.58-7V14.7c0-3.9,2.14-7,7.58-7s7.58,3.1,7.58,7v5.4C188.15,24,186,27.11,180.57,27.11Zm0-16.62c-2.91,0-4.36,1.38-4.36,4.1v5.62c0,2.72,1.45,4.1,4.36,4.1s4.37-1.38,4.37-4.1V14.59C184.94,11.87,183.48,10.49,180.57,10.49Z"/><path class="cls-1" d="M200.9,10.64a42,42,0,0,0-5.32,3.22V26.72h-3.22V8.08h2.8l.19,2.6a23.58,23.58,0,0,1,5.13-3Z"/><path class="cls-1" d="M216.41,26.72h-2.72l-.19-1.38a10.62,10.62,0,0,1-6.05,1.77c-3.48,0-4.94-2.07-4.94-5.36,0-3.87,2-5.25,5.71-5.25h5V13.59c0-2.33-1-3.14-4.06-3.14a31.35,31.35,0,0,0-5.58.61L203.2,8.5a26.3,26.3,0,0,1,6.13-.8c5.32,0,7.08,2.06,7.08,6Zm-3.22-7.54h-4.74c-2,0-2.72.61-2.72,2.49s.34,2.68,2.64,2.68a9.27,9.27,0,0,0,4.82-1.53Z"/><path class="cls-1" d="M235.55,10l-2.22.43a6.6,6.6,0,0,1,1,3.71v.84c0,4-2.45,6.36-7.32,6.36a14.07,14.07,0,0,1-1.91-.12,2.93,2.93,0,0,0-1.34,2c0,.73.38,1,1.23,1.07l5.28.54c3.37.34,4.67,1.65,4.67,4.48,0,4.06-1.42,5.4-8.15,5.4a30.13,30.13,0,0,1-6.78-.88l.46-2.53a29.49,29.49,0,0,0,6.24.77c4.75,0,5.21-.66,5.21-2.61,0-1.57-.58-1.84-2.76-2l-4.94-.46c-2.76-.23-3.64-1.68-3.64-3.4a4.23,4.23,0,0,1,1.76-3.3c-1.76-1-2.6-2.83-2.6-5.28v-.84c0-4.06,1.95-6.39,7.27-6.39a12.06,12.06,0,0,1,3.14.38h5.36Zm-8.5.39c-3.1,0-4.24,1-4.24,3.79v.8c0,2.83,1.18,3.71,4.24,3.71s4.25-1.26,4.25-3.71v-.8C231.3,11.41,230.16,10.34,227.05,10.34Z"/><path class="cls-1" d="M245.62,24.35a24,24,0,0,0,5.9-.88l.42,2.56a20.28,20.28,0,0,1-6.58,1.08c-5.52,0-7.39-2.65-7.39-6.86V14.66c0-3.86,1.76-7,7.31-7s7,3.17,7,7v3.9H241.18v1.57C241.18,23.16,242,24.35,245.62,24.35ZM241.18,16h8V14.43c0-2.6-.89-4-3.91-4s-4.1,1.45-4.1,4Z"/><path class="cls-1" d="M256.5,22.32h3.29v4.4l-2.29,4.6-1.5-.73,1.61-3.87H256.5Z"/><path class="cls-1" d="M285.64,26.72h-2.72l-.19-1.38a10.62,10.62,0,0,1-6.05,1.77c-3.49,0-4.94-2.07-4.94-5.36,0-3.87,1.95-5.25,5.7-5.25h5V13.59c0-2.33-1-3.14-4.06-3.14a31.46,31.46,0,0,0-5.59.61l-.34-2.56a26.21,26.21,0,0,1,6.12-.8c5.33,0,7.09,2.06,7.09,6Zm-3.22-7.54h-4.75c-2,0-2.71.61-2.71,2.49s.34,2.68,2.64,2.68a9.33,9.33,0,0,0,4.82-1.53Z"/><path class="cls-1" d="M301.6,26.72V12.48c0-1.22-.61-1.72-1.8-1.72a17.46,17.46,0,0,0-6.24,1.87V26.72h-3.21V8.08H293l.31,1.61a20.11,20.11,0,0,1,7.5-2c3,0,4.06,1.87,4.06,4.74V26.72Z"/><path class="cls-1" d="M309.11,13.78c0-3.71,1.68-6.08,6.05-6.08a29.39,29.39,0,0,1,5.32.57V.46L323.7,0V26.72H321L320.71,25a10,10,0,0,1-6.16,2.07c-3.68,0-5.44-2-5.44-5.71Zm11.37-2.68a30.38,30.38,0,0,0-5.13-.57c-2.14,0-3,1-3,3.25V21.4c0,1.92.61,2.87,2.87,2.87a8.6,8.6,0,0,0,5.28-2.22Z"/><path class="cls-1" d="M350.92,26.72V15.16H339.63V26.72h-3.3V1.23h3.3v11h11.29v-11h3.29V26.72Z"/><path class="cls-1" d="M372.78,26.72h-2.71l-.2-1.38a10.59,10.59,0,0,1-6,1.77c-3.49,0-4.94-2.07-4.94-5.36,0-3.87,1.95-5.25,5.7-5.25h5V13.59c0-2.33-1-3.14-4.06-3.14a31.46,31.46,0,0,0-5.59.61l-.34-2.56a26.21,26.21,0,0,1,6.12-.8c5.32,0,7.08,2.06,7.08,6Zm-3.21-7.54h-4.75c-2,0-2.72.61-2.72,2.49s.35,2.68,2.64,2.68a9.33,9.33,0,0,0,4.83-1.53Z"/><path class="cls-1" d="M388.75,26.72V12.48c0-1.22-.61-1.72-1.8-1.72a17.41,17.41,0,0,0-6.24,1.87V26.72H377.5V8.08h2.6l.3,1.61a20.2,20.2,0,0,1,7.51-2c3,0,4.06,1.87,4.06,4.74V26.72Z"/><path class="cls-1" d="M396.26,13.78c0-3.71,1.68-6.08,6.05-6.08a29.58,29.58,0,0,1,5.32.57V.46L410.84,0V26.72h-2.71L407.86,25a10,10,0,0,1-6.17,2.07c-3.67,0-5.43-2-5.43-5.71Zm11.37-2.68a30.38,30.38,0,0,0-5.13-.57c-2.15,0-3,1-3,3.25V21.4c0,1.92.62,2.87,2.87,2.87a8.61,8.61,0,0,0,5.29-2.22Z"/><path class="cls-1" d="M416,26.72V.46L419.23,0V26.72Z"/><path class="cls-1" d="M424.4,5.09V.46h3.22V5.09Zm0,21.63V8.08h3.22V26.72Z"/><path class="cls-1" d="M444,26.72V12.48c0-1.22-.61-1.72-1.8-1.72A17.41,17.41,0,0,0,436,12.63V26.72h-3.22V8.08h2.61l.3,1.61a20.2,20.2,0,0,1,7.51-2c3,0,4.06,1.87,4.06,4.74V26.72Z"/><path class="cls-1" d="M466.67,10l-2.22.43a6.6,6.6,0,0,1,1,3.71v.84c0,4-2.45,6.36-7.31,6.36a14,14,0,0,1-1.91-.12,2.89,2.89,0,0,0-1.34,2c0,.73.38,1,1.22,1.07l5.28.54c3.37.34,4.67,1.65,4.67,4.48,0,4.06-1.41,5.4-8.15,5.4a30.27,30.27,0,0,1-6.78-.88l.46-2.53a29.65,29.65,0,0,0,6.24.77c4.75,0,5.21-.66,5.21-2.61,0-1.57-.57-1.84-2.76-2l-4.93-.46c-2.76-.23-3.64-1.68-3.64-3.4a4.21,4.21,0,0,1,1.76-3.3c-1.76-1-2.6-2.83-2.6-5.28v-.84c0-4.06,2-6.39,7.27-6.39a12.06,12.06,0,0,1,3.14.38h5.36Zm-8.5.39c-3.1,0-4.25,1-4.25,3.79v.8c0,2.83,1.19,3.71,4.25,3.71s4.25-1.26,4.25-3.71v-.8C462.42,11.41,461.27,10.34,458.17,10.34Z"/></g></g></svg>