<?xml version="1.0" encoding="utf-8"?>
<!-- Generator: Adobe Illustrator 25.0.1, SVG Export Plug-In . SVG Version: 6.00 Build 0)  -->
<svg version="1.1" id="Layer_1" xmlns="http://www.w3.org/2000/svg" xmlns:xlink="http://www.w3.org/1999/xlink" x="0px" y="0px"
	 viewBox="0 0 412.8 171.7" style="enable-background:new 0 0 412.8 171.7;" xml:space="preserve">
<style type="text/css">
	.st0{clip-path:url(#SVGID_2_);}
	.st1{fill:#F26322;}
	.st2{fill:#008FB4;}
	.st3{fill:#004165;}
	.st4{fill:none;stroke:#F26322;stroke-width:1.41;stroke-miterlimit:10;}
</style>
<g id="Layer_2_1_">
	<g id="Text">
		<g>
			<defs>
				<rect id="SVGID_1_" x="93" width="229.2" height="87.7"/>
			</defs>
			<clipPath id="SVGID_2_">
				<use xlink:href="#SVGID_1_"  style="overflow:visible;"/>
			</clipPath>
			<g class="st0">
				<path class="st1" d="M385.7-50.5L378-34.6c-0.4,0.8-1,1.3-1.8,1.7L102.1,78.7c-0.1,0-0.2,0.1-0.3,0.1h-5.7L385.2-51
					c0.2-0.1,0.4,0,0.5,0.2C385.8-50.7,385.8-50.6,385.7-50.5z"/>
				<path class="st2" d="M375.1-28.7l-2.3,4.7c-0.2,0.5-0.6,0.8-1.1,1L111.9,78.7c-0.2,0.1-0.3,0.1-0.5,0.1h-3.9l267.1-108
					c0.2-0.1,0.4,0,0.5,0.3C375.1-28.9,375.1-28.8,375.1-28.7z"/>
			</g>
		</g>
		<path class="st3" d="M110.7,147.2c-4.2,0-8.3-0.8-12.1-2.4l1.4-6.5c3.5,1.2,7.1,1.8,10.8,1.8c4.3,0,5.2-0.8,5.2-4
			c0-3.4-0.2-3.8-6.3-5.1c-9.1-2-10.4-3.8-10.4-11.9c0-7.5,2.7-10.5,12.9-10.5c3.8,0,7.6,0.4,11.4,1.2l-0.8,7.1
			c-3.4-0.7-6.9-1-10.4-1.1c-3.8,0-4.6,0.7-4.6,3.4c0,3.6,0.2,3.7,6.1,5.1c10.1,2.4,10.6,4.4,10.6,11.8S122,147.2,110.7,147.2z"/>
		<path class="st3" d="M144.4,116.7v30H136v-30h-10.1v-7.5h28.6v7.5L144.4,116.7z"/>
		<path class="st3" d="M185.6,135.7c0,5.7-3.9,11.5-14.5,11.5s-14.5-5.8-14.5-11.5v-15.6c0-5.7,3.9-11.5,14.5-11.5
			s14.5,5.8,14.5,11.5V135.7z M177.2,120.8c0-2.9-1.9-4.7-6.1-4.7s-6.1,1.8-6.1,4.7V135c0,2.9,1.9,4.7,6.1,4.7s6.1-1.8,6.1-4.7
			V120.8z"/>
		<path class="st3" d="M204.1,135h-4.9v11.6h-8.4v-37.5h15.6c9.1,0,12.5,3.6,12.5,10.6v4.6c0,4.7-1.7,7.8-5.4,9.4l9.1,12.8h-10
			L204.1,135z M210.3,120.6c0-2.8-1.1-3.9-4.5-3.9h-6.7v11h6.7c3.6,0,4.5-1.3,4.5-4.1V120.6z"/>
		<path class="st3" d="M256.5,146.6h-8.8l-2-7.3h-12.6l-2,7.3h-8.8l11.4-37.5H245L256.5,146.6z M235.1,132.3h8.6l-4.3-15.7
			L235.1,132.3z"/>
		<path class="st3" d="M272.2,147.2c-9.1,0-13.7-4.7-13.7-11.5v-15.6c0-6.9,4.6-11.5,13.7-11.5c4,0,8,0.4,12,1.2l-1,7.4
			c-3.6-0.5-7.3-0.8-11-0.9c-4.2,0-5.3,2.2-5.3,5.1v12.9c0,2.9,1.1,5.3,5.3,5.3c1.7,0,3.3-0.1,5-0.3v-11.5h7.9v17.6
			C280.9,146.6,276.6,147.2,272.2,147.2z"/>
		<path class="st3" d="M290.7,146.6v-37.5h23.6v7.5h-15.1v6.9h14v7.5h-14v8.2h15.1v7.5L290.7,146.6z"/>
		<path class="st4" d="M62,151.7V171H42v-19.3H0.7v-17.6l34.7-54H62v55.1h11.4v16.4H62z M42,100.3l-21.5,35H42L42,100.3z"/>
		<path class="st3" d="M352.1,145.6v-26.9l-6.4,3.4l-3.5-6.7l10.6-6.1h7.3v36.3H352.1z"/>
		<path class="st3" d="M372.4,152.2h-7.2l14-44.6h7.2L372.4,152.2z"/>
		<path class="st3" d="M401.2,138.5h11.5v7.1H390v-6.9c4-4.2,4.8-4.8,8.2-8.7c5.5-6.3,6.1-6.6,6.1-10.5v-1c0-2-1.3-2.7-4.4-2.7
			c-3.1,0-6.2,0.4-9.2,1.1l-1.1-6.8c3.5-0.9,7.1-1.4,10.7-1.5c8.7,0,12.1,2.7,12.1,8.8v1.4c0,5.3-0.1,6.3-5.2,12.5
			C404.5,134.8,402.9,136.8,401.2,138.5z"/>
	</g>
</g>
</svg>
