<svg xmlns="http://www.w3.org/2000/svg" xmlns:xlink="http://www.w3.org/1999/xlink" viewBox="0 0 1303.33 304.71"><defs><style>.cls-1{fill:none;}.cls-2{fill:#004165;}.cls-3{clip-path:url(#clip-path);}.cls-4{fill:#6d70c8;}.cls-5{opacity:0.2;}.cls-6{fill:#fff3e1;}.cls-7{fill:#ff9269;}.cls-8{clip-path:url(#clip-path-2);}.cls-9{fill:#ffefd1;}.cls-10{clip-path:url(#clip-path-3);}.cls-11{fill:#fff;}.cls-12{fill:#54e6f1;}.cls-13{clip-path:url(#clip-path-4);}.cls-14{fill:#00d3db;}.cls-15{clip-path:url(#clip-path-5);}.cls-16{fill:#ffd473;}.cls-17{clip-path:url(#clip-path-6);}.cls-18{clip-path:url(#clip-path-7);}.cls-19{fill:#f26322;}</style><clipPath id="clip-path"><polygon class="cls-1" points="245.9 43.53 204.35 84.3 202.22 82.14 241.46 43.63 245.9 43.53"/></clipPath><clipPath id="clip-path-2"><path class="cls-1" d="M198,77.14h3.26a4.2,4.2,0,0,1,4.2,4.2v9a4.2,4.2,0,0,1-4.2,4.2H198a0,0,0,0,1,0,0V77.14A0,0,0,0,1,198,77.14Z" transform="translate(-2.36 165.86) rotate(-44.46)"/></clipPath><clipPath id="clip-path-3"><path class="cls-1" d="M193.47,76.46h4.36a3.86,3.86,0,0,1,3.86,3.86v20.89a3.86,3.86,0,0,1-3.86,3.86h-4.36a0,0,0,0,1,0,0V76.46A0,0,0,0,1,193.47,76.46Z" transform="translate(-7.01 164.37) rotate(-44.46)"/></clipPath><clipPath id="clip-path-4"><rect class="cls-1" x="98.72" y="136.81" width="10.32" height="91.81" transform="translate(161.53 -19.4) rotate(45.54)"/></clipPath><clipPath id="clip-path-5"><path class="cls-1" d="M129.54,71.41h26.61a12.5,12.5,0,0,1,12.5,12.5V217.55a0,0,0,0,1,0,0H117a0,0,0,0,1,0,0V83.91A12.5,12.5,0,0,1,129.54,71.41Z" transform="translate(145.91 -58.67) rotate(45.54)"/></clipPath><clipPath id="clip-path-6"><path class="cls-1" d="M108.91,219.26,67.44,177a3.25,3.25,0,0,1,0-4.61h0a3.27,3.27,0,0,1,4.61,0l41.47,42.26a3.25,3.25,0,0,1,0,4.61h0A3.25,3.25,0,0,1,108.91,219.26Z"/></clipPath><clipPath id="clip-path-7"><path class="cls-1" d="M79.48,231,55.12,206.21a4,4,0,0,1,.06-5.64h0a4,4,0,0,1,5.63.05l24.35,24.82a4,4,0,0,1,0,5.63h0A4,4,0,0,1,79.48,231Z"/></clipPath></defs><g id="Layer_2" data-name="Layer 2"><g id="Text"><circle class="cls-2" cx="136.33" cy="150.01" r="136.33"/><g class="cls-3"><polygon class="cls-4" points="245.9 43.53 204.35 84.3 202.22 82.14 241.46 43.63 245.9 43.53"/><polygon class="cls-5" points="249.12 43 205.67 85.65 203.54 83.48 244.58 43.2 249.12 43"/></g><path class="cls-6" d="M198,77.14h3.26a4.2,4.2,0,0,1,4.2,4.2v9a4.2,4.2,0,0,1-4.2,4.2H198a0,0,0,0,1,0,0V77.14A0,0,0,0,1,198,77.14Z" transform="translate(-2.36 165.86) rotate(-44.46)"/><path class="cls-7" d="M198.1,80.31h2.39a3.09,3.09,0,0,1,3.09,3.09V90a3.09,3.09,0,0,1-3.09,3.09H198.1a0,0,0,0,1,0,0V80.31A0,0,0,0,1,198.1,80.31Z" transform="translate(-3.22 165.48) rotate(-44.46)"/><g class="cls-8"><rect class="cls-5" x="202.3" y="85.88" width="10.76" height="12.21" transform="translate(-4.98 171.8) rotate(-44.46)"/></g><path class="cls-9" d="M193.47,76.46h4.36a3.86,3.86,0,0,1,3.86,3.86v20.89a3.86,3.86,0,0,1-3.86,3.86h-4.36a0,0,0,0,1,0,0V76.46A0,0,0,0,1,193.47,76.46Z" transform="translate(-7.01 164.37) rotate(-44.46)"/><path class="cls-7" d="M193.35,82.61h2a3.53,3.53,0,0,1,3.53,3.53V98.27a3.53,3.53,0,0,1-3.53,3.53h-2a0,0,0,0,1,0,0V82.61A0,0,0,0,1,193.35,82.61Z" transform="translate(-8.44 163.75) rotate(-44.46)"/><g class="cls-10"><rect class="cls-5" x="198.33" y="91.63" width="10.76" height="12.21" transform="translate(-10.14 170.66) rotate(-44.46)"/></g><path class="cls-9" d="M129.54,71.41h26.61a12.5,12.5,0,0,1,12.5,12.5V217.55a0,0,0,0,1,0,0H117a0,0,0,0,1,0,0V83.91A12.5,12.5,0,0,1,129.54,71.41Z" transform="translate(145.91 -58.67) rotate(45.54)"/><path class="cls-11" d="M130.43,74.67h22.69a10.66,10.66,0,0,1,10.66,10.66V216.39a0,0,0,0,1,0,0h-44a0,0,0,0,1,0,0V85.33A10.66,10.66,0,0,1,130.43,74.67Z" transform="translate(146.34 -57.59) rotate(45.54)"/><rect class="cls-12" x="98.72" y="136.81" width="10.32" height="91.81" transform="translate(161.53 -19.4) rotate(45.54)"/><g class="cls-13"><rect class="cls-5" x="59.07" y="183.44" width="95.04" height="5.81" transform="translate(-100 128.01) rotate(-44.46)"/></g><path class="cls-7" d="M153.77,84.46h22.69a10.66,10.66,0,0,1,10.66,10.66v65.67a0,0,0,0,1,0,0h-44a0,0,0,0,1,0,0V95.12A10.66,10.66,0,0,1,153.77,84.46Z" transform="translate(136.98 -81.11) rotate(45.54)"/><rect class="cls-14" x="115.91" y="145.79" width="44.19" height="6.88" transform="translate(147.85 -53.79) rotate(45.54)"/><path class="cls-14" d="M79.48,231,55.12,206.21a4,4,0,0,1,.06-5.64h0a4,4,0,0,1,5.63.05l24.35,24.82a4,4,0,0,1,0,5.63h0A4,4,0,0,1,79.48,231Z"/><g class="cls-15"><rect class="cls-5" x="84.69" y="147.24" width="149.88" height="23.56" transform="translate(-65.68 157.34) rotate(-44.46)"/></g><path class="cls-16" d="M108.91,219.26,67.44,177a3.25,3.25,0,0,1,0-4.61h0a3.27,3.27,0,0,1,4.61,0l41.47,42.26a3.25,3.25,0,0,1,0,4.61h0A3.25,3.25,0,0,1,108.91,219.26Z"/><path class="cls-11" d="M155.1,112.85,120.34,147a2.28,2.28,0,0,1-3.22,0h0a2.27,2.27,0,0,1,0-3.22l34.76-34.11a2.28,2.28,0,0,1,3.22,0h0A2.28,2.28,0,0,1,155.1,112.85Z"/><path class="cls-11" d="M165.84,102.31l-4.38,4.3a2.28,2.28,0,0,1-3.22,0h0a2.28,2.28,0,0,1,0-3.22l4.38-4.3a2.28,2.28,0,0,1,3.22,0h0A2.28,2.28,0,0,1,165.84,102.31Z"/><path class="cls-16" d="M150.68,128.74a3.37,3.37,0,1,1-4.76,0A3.36,3.36,0,0,1,150.68,128.74Z"/><path class="cls-16" d="M171.75,121.57a3.37,3.37,0,1,1-4.76,0A3.37,3.37,0,0,1,171.75,121.57Z"/><path class="cls-16" d="M184.79,99.61a5,5,0,1,1-7.09-.06A5,5,0,0,1,184.79,99.61Z"/><path class="cls-16" d="M151.11,142.37a2,2,0,1,1-2.89,0A2.05,2.05,0,0,1,151.11,142.37Z"/><g class="cls-17"><rect class="cls-5" x="89.99" y="225.56" width="65.74" height="6.52" transform="translate(200.12 -19.14) rotate(45.54)"/></g><g class="cls-18"><rect class="cls-5" x="69.49" y="232.94" width="42.74" height="7.97" transform="translate(196.32 6.13) rotate(45.54)"/></g><path class="cls-11" d="M57.84,204.55h0a1.1,1.1,0,0,1-1.54,0l-.12-.12a1.09,1.09,0,0,1,0-1.54h0a1.09,1.09,0,0,1,1.54,0l.11.12A1.09,1.09,0,0,1,57.84,204.55Z"/><path class="cls-11" d="M67.89,214.79h0a1.08,1.08,0,0,1-1.54,0l-6.76-6.89a1.09,1.09,0,0,1,0-1.54h0a1.09,1.09,0,0,1,1.54,0l6.76,6.88A1.09,1.09,0,0,1,67.89,214.79Z"/><path class="cls-2" d="M330.77,95.5h-3V79.56h3Z"/><path class="cls-2" d="M340.78,95.5V87.36c0-.62-.27-.93-.94-.93a8.14,8.14,0,0,0-3,1V95.5h-2.91V83.84h2.22l.29,1a11.65,11.65,0,0,1,4.66-1.23c1.94,0,2.63,1.37,2.63,3.45V95.5Z"/><path class="cls-2" d="M357.19,95.28a8.19,8.19,0,0,1-2.56.46c-2.13,0-3.2-1-3.2-3.09V86.16h-1.75V83.84h1.75V81l2.92-.41v3.3h3l-.2,2.32h-2.79v6.11c0,.62.28,1,1,1a5.73,5.73,0,0,0,1.46-.23Z"/><path class="cls-2" d="M365.9,95.5V87.36c0-.62-.26-.93-.93-.93a8,8,0,0,0-3,1V95.5H359V79.08l2.92-.4v6a10.31,10.31,0,0,1,4.26-1.13c1.94,0,2.63,1.37,2.63,3.45V95.5Z"/><path class="cls-2" d="M376.24,93.34a12,12,0,0,0,3.57-.55l.45,2.2a12.29,12.29,0,0,1-4.28.75c-3.66,0-4.93-1.7-4.93-4.5V88.15c0-2.46,1.1-4.55,4.83-4.55s4.57,2.18,4.57,4.69v2.49H374v.6C374,92.79,374.47,93.34,376.24,93.34ZM374,88.44h3.71v-.58c0-1.1-.34-1.86-1.77-1.86s-1.94.76-1.94,1.86Z"/><path class="cls-2" d="M386.92,83.94c0-2.92,1.69-4.62,5.67-4.62a17.83,17.83,0,0,1,4.33.53l-.34,2.61a23.43,23.43,0,0,0-3.9-.41c-2.08,0-2.75.72-2.75,2.42v6.12c0,1.7.67,2.42,2.75,2.42a23.43,23.43,0,0,0,3.9-.41l.34,2.61a18.34,18.34,0,0,1-4.33.53c-4,0-5.67-1.7-5.67-4.62Z"/><path class="cls-2" d="M406.08,95.5V87.36c0-.62-.26-.93-.93-.93a8,8,0,0,0-3,1V95.5h-2.92V79.08l2.92-.4v6a10.31,10.31,0,0,1,4.26-1.13c1.94,0,2.63,1.37,2.63,3.45V95.5Z"/><path class="cls-2" d="M416.42,93.34a12,12,0,0,0,3.57-.55l.45,2.2a12.29,12.29,0,0,1-4.28.75c-3.66,0-4.93-1.7-4.93-4.5V88.15c0-2.46,1.1-4.55,4.83-4.55s4.57,2.18,4.57,4.69v2.49h-6.48v.6C414.15,92.79,414.65,93.34,416.42,93.34Zm-2.27-4.9h3.71v-.58c0-1.1-.34-1.86-1.77-1.86s-1.94.76-1.94,1.86Z"/><path class="cls-2" d="M422.26,91.26V88.08c0-3.14,1.37-4.48,5-4.48a9.92,9.92,0,0,1,2.84.44l-.35,2.39a10.4,10.4,0,0,0-2.42-.31c-1.68,0-2.18.5-2.18,1.94v3.22c0,1.44.5,1.94,2.18,1.94a9.68,9.68,0,0,0,2.42-.31l.35,2.39a9.35,9.35,0,0,1-2.84.44C423.63,95.74,422.26,94.4,422.26,91.26Z"/><path class="cls-2" d="M432.34,95.5V79.08l2.92-.4V95.5Zm9.9-11.66-3.42,5.77,3.57,5.89h-3.21l-3.52-5.89L439,83.84Z"/><path class="cls-2" d="M454,93.44h-3.83l-2.94-8.26L447,95.5H443.9l.71-15.94H448l4.11,11.32,4.12-11.32h3.37l.72,15.94h-3.09L457,85.18Z"/><path class="cls-2" d="M471.7,95.5h-2.39l-.22-.79a6.37,6.37,0,0,1-3.46,1c-2.13,0-3-1.46-3-3.47,0-2.37,1-3.28,3.39-3.28h2.8V87.77c0-1.29-.36-1.75-2.22-1.75a16,16,0,0,0-3.23.36L463,84.16a15,15,0,0,1,4-.56c3.66,0,4.73,1.3,4.73,4.22Zm-2.92-4.41h-2.15c-1,0-1.22.27-1.22,1.15s.26,1.17,1.17,1.17a4.6,4.6,0,0,0,2.2-.59Z"/><path class="cls-2" d="M480.53,95.28a8.13,8.13,0,0,1-2.56.46c-2.13,0-3.2-1-3.2-3.09V86.16H473V83.84h1.75V81l2.92-.41v3.3h3l-.19,2.32h-2.8v6.11c0,.62.28,1,1.05,1a5.73,5.73,0,0,0,1.46-.23Z"/><path class="cls-2" d="M487,93.34a11.93,11.93,0,0,0,3.56-.55L491,95a12.37,12.37,0,0,1-4.28.75c-3.67,0-4.93-1.7-4.93-4.5V88.15c0-2.46,1.1-4.55,4.83-4.55s4.57,2.18,4.57,4.69v2.49h-6.48v.6C484.75,92.79,485.25,93.34,487,93.34Zm-2.27-4.9h3.7v-.58c0-1.1-.33-1.86-1.77-1.86s-1.93.76-1.93,1.86Z"/><path class="cls-2" d="M500.61,86.72a8.83,8.83,0,0,1,2.85-.44c2.89,0,4.07,1.2,4.07,4v1.15c0,2.49-1.15,4.36-4.91,4.36-4.11,0-4.93-1.82-4.93-4.57V85.35c0-4.21,2.25-5.55,6.61-5.55a13.73,13.73,0,0,1,2.75.29l-.19,2.44a13.08,13.08,0,0,0-2.25-.22c-2.83,0-4,.48-4,2.92Zm0,2.58v2.18c0,1.31.5,1.74,2,1.74s2-.52,2-1.74V90.3c0-1.14-.55-1.5-1.61-1.5A6.21,6.21,0,0,0,500.61,89.3Z"/><path class="cls-2" d="M509,80h9.69V82.5l-5.52,13h-3l5.5-12.9H509Z"/><path class="cls-2" d="M523.94,82.22h-4.45V79.56h11.92v2.66H527V95.5h-3Z"/><path class="cls-2" d="M544,95.28a8.19,8.19,0,0,1-2.56.46c-2.13,0-3.21-1-3.21-3.09V86.16h-1.74V83.84h1.74V81l2.92-.41v3.3h3l-.19,2.32h-2.8v6.11c0,.62.29,1,1.06,1a5.66,5.66,0,0,0,1.45-.23Z"/><path class="cls-2" d="M551.78,86.28a23.23,23.23,0,0,0-3.09,1.7V95.5h-2.92V83.84h2.46l.2,1.3a13,13,0,0,1,3.06-1.54Z"/><path class="cls-2" d="M553.26,82.19V78.82h2.92v3.37Zm0,13.31V83.84h2.92V95.5Z"/><path class="cls-2" d="M567.69,95.5H565.3l-.22-.79a6.41,6.41,0,0,1-3.47,1c-2.13,0-3-1.46-3-3.47,0-2.37,1-3.28,3.4-3.28h2.8V87.77c0-1.29-.36-1.75-2.23-1.75a16,16,0,0,0-3.23.36L559,84.16a15,15,0,0,1,4-.56c3.66,0,4.74,1.3,4.74,4.22Zm-2.92-4.41h-2.15c-1,0-1.22.27-1.22,1.15s.26,1.17,1.17,1.17a4.6,4.6,0,0,0,2.2-.59Z"/><path class="cls-2" d="M570.32,95.5V79.08l2.92-.4V95.5Z"/><path class="cls-2" d="M576.23,92.15h3v3.54l-1.87,3.13L576,98.08l1.34-2.58h-1.1Z"/><path class="cls-2" d="M595.38,95.5H593l-.21-.79a6.41,6.41,0,0,1-3.47,1c-2.13,0-3-1.46-3-3.47,0-2.37,1-3.28,3.4-3.28h2.8V87.77c0-1.29-.36-1.75-2.23-1.75a16,16,0,0,0-3.23.36l-.36-2.22a15,15,0,0,1,4-.56c3.66,0,4.74,1.3,4.74,4.22Zm-2.92-4.41H590.3c-.95,0-1.22.27-1.22,1.15s.27,1.17,1.18,1.17a4.6,4.6,0,0,0,2.2-.59Z"/><path class="cls-2" d="M604.71,81.19A8.56,8.56,0,0,0,603,81c-1.14,0-1.31.5-1.31,1.38v1.46h3l-.17,2.32h-2.8V95.5H598.8V86.16h-1.87V83.84h1.87V82.22c0-2.42,1.12-3.62,3.71-3.62a9,9,0,0,1,2.51.34Z"/><path class="cls-2" d="M612.42,95.28a8.24,8.24,0,0,1-2.56.46c-2.13,0-3.21-1-3.21-3.09V86.16H604.9V83.84h1.75V81l2.92-.41v3.3h3l-.19,2.32h-2.8v6.11a.91.91,0,0,0,1,1,5.73,5.73,0,0,0,1.46-.23Z"/><path class="cls-2" d="M618.9,93.34a12,12,0,0,0,3.57-.55l.45,2.2a12.29,12.29,0,0,1-4.28.75c-3.66,0-4.93-1.7-4.93-4.5V88.15c0-2.46,1.1-4.55,4.83-4.55s4.57,2.18,4.57,4.69v2.49h-6.48v.6C616.63,92.79,617.13,93.34,618.9,93.34Zm-2.27-4.9h3.71v-.58c0-1.1-.34-1.86-1.77-1.86s-1.94.76-1.94,1.86Z"/><path class="cls-2" d="M631.27,86.28a23.75,23.75,0,0,0-3.08,1.7V95.5h-2.92V83.84h2.46l.19,1.3A13.31,13.31,0,0,1,631,83.6Z"/><path class="cls-2" d="M647.19,91.62c0,2.58-1.15,4.12-3.86,4.12a16.28,16.28,0,0,1-3.11-.34v4.81l-2.92.41V83.84h2.33l.28,1a6.1,6.1,0,0,1,3.69-1.23c2.34,0,3.59,1.39,3.59,4.05Zm-7,1.32a13.59,13.59,0,0,0,2.59.31c1.05,0,1.46-.51,1.46-1.56V87.58c0-1-.36-1.49-1.44-1.49a4.12,4.12,0,0,0-2.61,1.06Z"/><path class="cls-2" d="M655.59,86.28A23.23,23.23,0,0,0,652.5,88V95.5h-2.92V83.84h2.47l.19,1.3a13,13,0,0,1,3.06-1.54Z"/><path class="cls-2" d="M661.74,93.34a12,12,0,0,0,3.56-.55l.46,2.2a12.39,12.39,0,0,1-4.29.75c-3.66,0-4.92-1.7-4.92-4.5V88.15c0-2.46,1.1-4.55,4.83-4.55S666,85.78,666,88.29v2.49h-6.49v.6C659.46,92.79,660,93.34,661.74,93.34Zm-2.28-4.9h3.71v-.58c0-1.1-.33-1.86-1.77-1.86s-1.94.76-1.94,1.86Z"/><path class="cls-2" d="M678,91.62c0,2.58-1.15,4.12-3.86,4.12A16.19,16.19,0,0,1,671,95.4v4.81l-2.92.41V83.84h2.32l.29,1a6.1,6.1,0,0,1,3.69-1.23c2.34,0,3.59,1.39,3.59,4.05Zm-7,1.32a13.59,13.59,0,0,0,2.59.31c1,0,1.46-.51,1.46-1.56V87.58c0-1-.36-1.49-1.44-1.49A4.1,4.1,0,0,0,671,87.15Z"/><path class="cls-2" d="M689,95.5h-2.4l-.21-.79a6.41,6.41,0,0,1-3.47,1c-2.13,0-3-1.46-3-3.47,0-2.37,1-3.28,3.4-3.28h2.8V87.77c0-1.29-.36-1.75-2.23-1.75a16,16,0,0,0-3.23.36l-.36-2.22a15,15,0,0,1,4-.56c3.66,0,4.74,1.3,4.74,4.22Zm-2.92-4.41h-2.16c-1,0-1.22.27-1.22,1.15s.27,1.17,1.18,1.17a4.6,4.6,0,0,0,2.2-.59Z"/><path class="cls-2" d="M697.66,86.28a23.23,23.23,0,0,0-3.09,1.7V95.5h-2.92V83.84h2.47l.19,1.3a13,13,0,0,1,3.06-1.54Z"/><path class="cls-2" d="M707.78,95.5h-2.39l-.22-.79a6.41,6.41,0,0,1-3.47,1c-2.13,0-3-1.46-3-3.47,0-2.37,1-3.28,3.4-3.28h2.8V87.77c0-1.29-.36-1.75-2.23-1.75a16,16,0,0,0-3.23.36l-.35-2.22a15,15,0,0,1,4-.56c3.66,0,4.74,1.3,4.74,4.22Zm-2.92-4.41h-2.15c-1,0-1.22.27-1.22,1.15s.26,1.17,1.17,1.17a4.6,4.6,0,0,0,2.2-.59Z"/><path class="cls-2" d="M716.61,95.28a8.19,8.19,0,0,1-2.56.46c-2.13,0-3.21-1-3.21-3.09V86.16H709.1V83.84h1.74V81l2.92-.41v3.3h3l-.19,2.32h-2.8v6.11c0,.62.29,1,1.06,1a5.66,5.66,0,0,0,1.45-.23Z"/><path class="cls-2" d="M718.43,82.19V78.82h2.92v3.37Zm0,13.31V83.84h2.92V95.5Z"/><path class="cls-2" d="M728.77,95.74c-4,0-5.08-2.21-5.08-4.6V88.2c0-2.39,1.08-4.6,5.08-4.6s5.07,2.21,5.07,4.6v2.94C733.84,93.53,732.76,95.74,728.77,95.74Zm0-9.65c-1.56,0-2.16.7-2.16,2v3.14c0,1.31.6,2,2.16,2s2.15-.7,2.15-2V88.1C730.92,86.79,730.32,86.09,728.77,86.09Z"/><path class="cls-2" d="M743.08,95.5V87.36c0-.62-.27-.93-.94-.93a8,8,0,0,0-3,1V95.5h-2.92V83.84h2.22l.29,1a11.65,11.65,0,0,1,4.66-1.23c1.94,0,2.64,1.37,2.64,3.45V95.5Z"/><path class="cls-2" d="M748.87,92.15h3v3.54L750,98.82l-1.34-.74L750,95.5h-1.1Z"/><path class="cls-2" d="M763,95.74a13.82,13.82,0,0,1-4-.67l.41-2.23a12.89,12.89,0,0,0,3.46.5c1.3,0,1.49-.28,1.49-1.17,0-.72-.15-1.08-2-1.53-2.84-.69-3.18-1.41-3.18-3.66s1-3.38,4.36-3.38A15.57,15.57,0,0,1,767,84l-.29,2.32a20.07,20.07,0,0,0-3.2-.33c-1.27,0-1.49.28-1.49,1,0,.94.07,1,1.65,1.41,3.26.87,3.57,1.3,3.57,3.69S766.51,95.74,763,95.74Z"/><path class="cls-2" d="M775.79,95.28a8.19,8.19,0,0,1-2.56.46c-2.13,0-3.21-1-3.21-3.09V86.16h-1.74V83.84H770V81l2.92-.41v3.3h3l-.19,2.32h-2.8v6.11c0,.62.29,1,1.06,1a5.79,5.79,0,0,0,1.46-.23Z"/><path class="cls-2" d="M782.16,95.74c-4,0-5.08-2.21-5.08-4.6V88.2c0-2.39,1.08-4.6,5.08-4.6s5.07,2.21,5.07,4.6v2.94C787.23,93.53,786.15,95.74,782.16,95.74Zm0-9.65c-1.56,0-2.16.7-2.16,2v3.14c0,1.31.6,2,2.16,2s2.15-.7,2.15-2V88.1C784.31,86.79,783.71,86.09,782.16,86.09Z"/><path class="cls-2" d="M795.58,86.28a24.55,24.55,0,0,0-3.09,1.7V95.5h-2.91V83.84H792l.19,1.3a13.43,13.43,0,0,1,3.06-1.54Z"/><path class="cls-2" d="M801.73,93.34a12,12,0,0,0,3.57-.55l.45,2.2a12.29,12.29,0,0,1-4.28.75c-3.66,0-4.93-1.7-4.93-4.5V88.15c0-2.46,1.1-4.55,4.83-4.55s4.57,2.18,4.57,4.69v2.49h-6.48v.6C799.46,92.79,800,93.34,801.73,93.34Zm-2.27-4.9h3.71v-.58c0-1.1-.34-1.86-1.77-1.86s-1.94.76-1.94,1.86Z"/><path class="cls-2" d="M815.71,83.41V95.5h-3V79.56h4l6.06,12.11V79.56h2.94V95.5h-4Z"/><path class="cls-2" d="M832,95.5h-3V79.56h3Z"/><path class="cls-2" d="M844.49,79.56h3.14L842.87,95.5h-4.45l-4.76-15.94h3.13l3.85,13.28Z"/><path class="cls-2" d="M860.84,90.83c0,2.66-1.53,4.91-6,4.91s-6-2.25-6-4.91v-6.6c0-2.66,1.53-4.91,6-4.91s6,2.25,6,4.91Zm-9-.17c0,1.51.76,2.42,3,2.42s3-.91,3-2.42V84.39c0-1.5-.76-2.41-3-2.41s-3,.91-3,2.41Z"/><path class="cls-2" d="M867.78,88.53h3.69v-3.7h2.39v3.7h3.68v2.3h-3.68v3.71h-2.39V90.83h-3.69Z"/><path class="cls-2" d="M890.73,86.28a24.55,24.55,0,0,0-3.09,1.7V95.5h-2.92V83.84h2.47l.19,1.3a13.23,13.23,0,0,1,3.06-1.54Z"/><path class="cls-2" d="M901.26,95.5V88.77h-5.91V95.5h-3V79.56h3v6.56h5.91V79.56h3V95.5Z"/><path class="cls-2" d="M910.07,83.84V92c0,.62.26.93.93.93a8,8,0,0,0,3-1V83.84H917V95.5h-2.23l-.29-1a11.61,11.61,0,0,1-4.66,1.23c-1.94,0-2.63-1.37-2.63-3.45V83.84Z"/><path class="cls-2" d="M920,79.56h6.22c3.69,0,5.05,1.51,5.05,4.31v2.18c0,2.77-1.48,4.28-5.19,4.28H923V95.5h-3Zm6,2.66h-3v5.45h3c1.7,0,2.21-.62,2.21-1.94V84.11C928.21,82.79,927.65,82.22,926,82.22Z"/><path class="cls-2" d="M942.18,95.5V88.77h-5.91V95.5h-3V79.56h3v6.56h5.91V79.56h3V95.5Z"/><path class="cls-2" d="M947.78,93c1.82-2,2.06-2.22,3.71-4.14,2.25-2.6,2.61-3,2.61-4.54v-.41c0-1.17-.48-1.51-2.23-1.51a19.86,19.86,0,0,0-3.75.48l-.41-2.44A16,16,0,0,1,952,79.8c3.69,0,5,1.27,5,3.76v.55c0,2.2-.19,2.7-2.42,5.43-1.34,1.65-1.91,2.32-2.85,3.4h5.32V95.5h-9.29Z"/><path class="cls-2" d="M969.92,91.45c0,2.4-1.27,4.29-5.17,4.29s-5.17-1.89-5.17-4.29V84.08c0-2.39,1.27-4.28,5.17-4.28s5.17,1.89,5.17,4.28Zm-7.42-.28c0,1.38.41,2,2.25,2s2.25-.63,2.25-2v-6.8c0-1.39-.41-2-2.25-2s-2.25.62-2.25,2Z"/><path class="cls-2" d="M981.88,93.34a12,12,0,0,0,3.57-.55l.45,2.2a12.29,12.29,0,0,1-4.28.75c-3.66,0-4.93-1.7-4.93-4.5V88.15c0-2.46,1.1-4.55,4.83-4.55s4.57,2.18,4.57,4.69v2.49h-6.48v.6C979.61,92.79,980.11,93.34,981.88,93.34Zm-2.27-4.9h3.71v-.58c0-1.1-.34-1.86-1.77-1.86s-1.94.76-1.94,1.86Z"/><path class="cls-2" d="M988.25,82.19V78.82h2.92v3.37Zm0,13.31V83.84h2.92V95.5Z"/><path class="cls-2" d="M1000.24,95.28a8.19,8.19,0,0,1-2.56.46c-2.13,0-3.21-1-3.21-3.09V86.16h-1.74V83.84h1.74V81l2.92-.41v3.3h3l-.19,2.32h-2.8v6.11a.91.91,0,0,0,1.05,1,5.73,5.73,0,0,0,1.46-.23Z"/><path class="cls-2" d="M1009,95.5V87.36c0-.62-.26-.93-.93-.93a8,8,0,0,0-3,1V95.5h-2.92V79.08l2.92-.4v6a10.27,10.27,0,0,1,4.26-1.13c1.93,0,2.63,1.37,2.63,3.45V95.5Z"/><path class="cls-2" d="M1019.29,93.34a12,12,0,0,0,3.56-.55l.46,2.2a12.39,12.39,0,0,1-4.29.75c-3.66,0-4.92-1.7-4.92-4.5V88.15c0-2.46,1.1-4.55,4.83-4.55s4.57,2.18,4.57,4.69v2.49H1017v.6C1017,92.79,1017.52,93.34,1019.29,93.34Zm-2.28-4.9h3.71v-.58c0-1.1-.33-1.86-1.77-1.86s-1.94.76-1.94,1.86Z"/><path class="cls-2" d="M1031.66,86.28a23.87,23.87,0,0,0-3.09,1.7V95.5h-2.92V83.84h2.47l.19,1.3a13.23,13.23,0,0,1,3.06-1.54Z"/><path class="cls-2" d="M1033.26,84.87h3v3.35h-3Zm0,7.28h3V95.5h-3Z"/><path class="cls-2" d="M349.49,154.53h-2.08l-1.32-3.83h-6.77L338,154.53H336l5.38-15.94h2.78Zm-6.77-14.45-2.85,8.82h5.7Z"/><path class="cls-2" d="M357.68,154.34a7.35,7.35,0,0,1-2.44.43c-2,0-2.9-.72-2.9-2.66v-7.56h-2v-1.68h2V140l2-.28v3.15h3.3l-.16,1.68h-3.14v7.23c0,.86.12,1.29,1.2,1.29a7.57,7.57,0,0,0,1.87-.29Z"/><path class="cls-2" d="M370,144.48a25,25,0,0,0-3.32,2v8h-2V142.87h1.75l.12,1.63a14.38,14.38,0,0,1,3.2-1.86Z"/><path class="cls-2" d="M375.65,154.77c-3.4,0-4.74-1.94-4.74-4.38V147c0-2.44,1.34-4.37,4.74-4.37s4.74,1.93,4.74,4.37v3.38C380.39,152.83,379.05,154.77,375.65,154.77Zm0-10.39c-1.82,0-2.73.86-2.73,2.56v3.52c0,1.7.91,2.56,2.73,2.56s2.73-.86,2.73-2.56v-3.52C378.38,145.24,377.47,144.38,375.65,144.38Z"/><path class="cls-2" d="M387.28,154.77c-3.4,0-4.74-1.94-4.74-4.38V147c0-2.44,1.34-4.37,4.74-4.37S392,144.57,392,147v3.38C392,152.83,390.68,154.77,387.28,154.77Zm0-10.39c-1.82,0-2.73.86-2.73,2.56v3.52c0,1.7.91,2.56,2.73,2.56s2.73-.86,2.73-2.56v-3.52C390,145.24,389.1,144.38,387.28,144.38Z"/><path class="cls-2" d="M408.84,154.53v-8.9c0-.77-.38-1.08-1.12-1.08a10.41,10.41,0,0,0-3.9,1.17v8.81h-2v-8.9c0-.77-.39-1.08-1.13-1.08a11,11,0,0,0-3.9,1.17v8.81h-2V142.87h1.63l.19,1a12.67,12.67,0,0,1,4.69-1.24,2.15,2.15,0,0,1,2.23,1.24,12.42,12.42,0,0,1,4.81-1.24c1.86,0,2.53,1.17,2.53,3v8.93Z"/><path class="cls-2" d="M424.83,154.34a7.35,7.35,0,0,1-2.44.43c-2,0-2.9-.72-2.9-2.66v-7.56h-2.05v-1.68h2.05V140l2-.28v3.15h3.3l-.16,1.68H421.5v7.23c0,.86.12,1.29,1.2,1.29a7.57,7.57,0,0,0,1.87-.29Z"/><path class="cls-2" d="M431.29,153a14.61,14.61,0,0,0,3.69-.55l.26,1.61a12.88,12.88,0,0,1-4.12.67c-3.44,0-4.61-1.65-4.61-4.29V147c0-2.42,1.1-4.35,4.57-4.35s4.37,2,4.37,4.4v2.44h-6.93v1C428.52,152.3,429,153,431.29,153Zm-2.77-5.24h5v-1c0-1.63-.55-2.54-2.44-2.54s-2.56.91-2.56,2.54Z"/><path class="cls-2" d="M452.2,154.53v-8.9c0-.77-.38-1.08-1.12-1.08a10.41,10.41,0,0,0-3.9,1.17v8.81h-2v-8.9c0-.77-.38-1.08-1.12-1.08a10.9,10.9,0,0,0-3.9,1.17v8.81h-2V142.87h1.62l.19,1a12.77,12.77,0,0,1,4.69-1.24,2.15,2.15,0,0,1,2.23,1.24,12.47,12.47,0,0,1,4.81-1.24c1.86,0,2.53,1.17,2.53,3v8.93Z"/><path class="cls-2" d="M466.56,151c0,2.32-1.05,3.81-3.78,3.81a18.65,18.65,0,0,1-3.32-.36v4.83l-2,.29V142.87h1.7l.16,1.06a6.19,6.19,0,0,1,3.86-1.29c2.29,0,3.39,1.22,3.39,3.56Zm-7.1,1.68a19.19,19.19,0,0,0,3.2.36c1.34,0,1.89-.63,1.89-2V146.2c0-1.2-.38-1.79-1.79-1.79a5.4,5.4,0,0,0-3.3,1.38Z"/><path class="cls-2" d="M473.67,153a14.61,14.61,0,0,0,3.69-.55l.26,1.61a12.87,12.87,0,0,1-4.11.67c-3.45,0-4.62-1.65-4.62-4.29V147c0-2.42,1.1-4.35,4.57-4.35s4.38,2,4.38,4.4v2.44H470.9v1C470.9,152.3,471.4,153,473.67,153Zm-2.77-5.24h5v-1c0-1.63-.55-2.54-2.44-2.54s-2.56.91-2.56,2.54Z"/><path class="cls-2" d="M485.85,144.48a24.41,24.41,0,0,0-3.32,2v8h-2V142.87h1.74l.12,1.63a14.68,14.68,0,0,1,3.21-1.86Z"/><path class="cls-2" d="M495.66,154.53H494l-.12-.86a6.7,6.7,0,0,1-3.78,1.1c-2.18,0-3.09-1.3-3.09-3.35,0-2.42,1.22-3.28,3.56-3.28h3.11v-1.82c0-1.46-.64-2-2.53-2a19.22,19.22,0,0,0-3.49.38l-.22-1.6a16.25,16.25,0,0,1,3.83-.5c3.32,0,4.42,1.29,4.42,3.78Zm-2-4.72h-3c-1.25,0-1.7.39-1.7,1.56s.21,1.67,1.65,1.67a5.84,5.84,0,0,0,3-.95Z"/><path class="cls-2" d="M504.81,154.34a7.35,7.35,0,0,1-2.44.43c-2,0-2.9-.72-2.9-2.66v-7.56h-2.06v-1.68h2.06V140l2-.28v3.15h3.3l-.17,1.68h-3.13v7.23c0,.86.12,1.29,1.2,1.29a7.43,7.43,0,0,0,1.86-.29Z"/><path class="cls-2" d="M509,142.87v8.91c0,.76.38,1.07,1.13,1.07a10.81,10.81,0,0,0,3.9-1.17v-8.81h2v11.66h-1.63l-.19-1a12.79,12.79,0,0,1-4.69,1.25c-1.87,0-2.54-1.18-2.54-3v-8.93Z"/><path class="cls-2" d="M524.69,144.48a24.41,24.41,0,0,0-3.32,2v8h-2V142.87h1.74l.12,1.63a14.45,14.45,0,0,1,3.21-1.86Z"/><path class="cls-2" d="M530.44,153a14.6,14.6,0,0,0,3.68-.55l.26,1.61a12.82,12.82,0,0,1-4.11.67c-3.45,0-4.62-1.65-4.62-4.29V147c0-2.42,1.1-4.35,4.57-4.35s4.38,2,4.38,4.4v2.44h-6.94v1C527.66,152.3,528.16,153,530.44,153Zm-2.78-5.24h5v-1c0-1.63-.55-2.54-2.44-2.54s-2.56.91-2.56,2.54Z"/><path class="cls-2" d="M548.31,139.53a11.89,11.89,0,0,0-1.94-.22c-1.24,0-1.55.43-1.55,1.6v2h3.32l-.16,1.68h-3.16v10h-2v-10h-2.06v-1.68h2.06v-2.15c0-2.06,1.15-3.08,3.3-3.08a8.17,8.17,0,0,1,2.37.33Z"/><path class="cls-2" d="M554.06,154.77c-3.4,0-4.74-1.94-4.74-4.38V147c0-2.44,1.34-4.37,4.74-4.37s4.73,1.93,4.73,4.37v3.38C558.79,152.83,557.45,154.77,554.06,154.77Zm0-10.39c-1.82,0-2.73.86-2.73,2.56v3.52c0,1.7.91,2.56,2.73,2.56s2.72-.86,2.72-2.56v-3.52C556.78,145.24,555.87,144.38,554.06,144.38Z"/><path class="cls-2" d="M566.88,144.48a24.41,24.41,0,0,0-3.32,2v8h-2V142.87h1.74l.12,1.63a14.68,14.68,0,0,1,3.21-1.86Z"/><path class="cls-2" d="M580.14,154.53v-8.9c0-.77-.38-1.08-1.12-1.08a10.9,10.9,0,0,0-3.9,1.17v8.81h-2V142.87h1.62l.19,1a12.77,12.77,0,0,1,4.69-1.24c1.87,0,2.54,1.17,2.54,3v8.93Z"/><path class="cls-2" d="M589.52,154.77c-3.4,0-4.74-1.94-4.74-4.38V147c0-2.44,1.34-4.37,4.74-4.37s4.74,1.93,4.74,4.37v3.38C594.26,152.83,592.92,154.77,589.52,154.77Zm0-10.39c-1.82,0-2.73.86-2.73,2.56v3.52c0,1.7.91,2.56,2.73,2.56s2.73-.86,2.73-2.56v-3.52C592.25,145.24,591.34,144.38,589.52,144.38Z"/><path class="cls-2" d="M615.75,154.53v-8.9c0-.77-.38-1.08-1.13-1.08a10.51,10.51,0,0,0-3.9,1.17v8.81h-2v-8.9c0-.77-.38-1.08-1.12-1.08a11,11,0,0,0-3.9,1.17v8.81h-2V142.87h1.63l.19,1a12.67,12.67,0,0,1,4.69-1.24,2.13,2.13,0,0,1,2.22,1.24,12.47,12.47,0,0,1,4.81-1.24c1.87,0,2.54,1.17,2.54,3v8.93Z"/><path class="cls-2" d="M625.13,154.77c-3.4,0-4.74-1.94-4.74-4.38V147c0-2.44,1.34-4.37,4.74-4.37s4.74,1.93,4.74,4.37v3.38C629.87,152.83,628.53,154.77,625.13,154.77Zm0-10.39c-1.82,0-2.73.86-2.73,2.56v3.52c0,1.7.91,2.56,2.73,2.56s2.73-.86,2.73-2.56v-3.52C627.86,145.24,627,144.38,625.13,144.38Z"/><path class="cls-2" d="M638,144.48a25.15,25.15,0,0,0-3.33,2v8h-2V142.87h1.75l.12,1.63a14.61,14.61,0,0,1,3.2-1.86Z"/><path class="cls-2" d="M643.7,153a14.61,14.61,0,0,0,3.69-.55l.26,1.61a12.88,12.88,0,0,1-4.12.67c-3.44,0-4.61-1.65-4.61-4.29V147c0-2.42,1.1-4.35,4.57-4.35s4.37,2,4.37,4.4v2.44h-6.93v1C640.93,152.3,641.43,153,643.7,153Zm-2.77-5.24h5v-1c0-1.63-.55-2.54-2.44-2.54s-2.56.91-2.56,2.54Z"/><path class="cls-2" d="M661.29,154.34a7.35,7.35,0,0,1-2.44.43c-2,0-2.89-.72-2.89-2.66v-7.56H653.9v-1.68H656V140l2-.28v3.15h3.3l-.17,1.68H658v7.23c0,.86.11,1.29,1.19,1.29a7.5,7.5,0,0,0,1.87-.29Z"/><path class="cls-2" d="M670.6,154.53v-8.9c0-.77-.38-1.08-1.13-1.08a10.94,10.94,0,0,0-3.9,1.2v8.78h-2V138.11l2-.28v6a11.73,11.73,0,0,1,4.5-1.22c1.87,0,2.54,1.17,2.54,3v8.93Z"/><path class="cls-2" d="M684.1,154.53h-1.7l-.12-.86a6.7,6.7,0,0,1-3.78,1.1c-2.18,0-3.09-1.3-3.09-3.35,0-2.42,1.22-3.28,3.57-3.28h3.11v-1.82c0-1.46-.65-2-2.54-2a19.42,19.42,0,0,0-3.49.38l-.22-1.6a16.32,16.32,0,0,1,3.83-.5c3.33,0,4.43,1.29,4.43,3.78Zm-2-4.72h-3c-1.24,0-1.7.39-1.7,1.56s.22,1.67,1.65,1.67a5.87,5.87,0,0,0,3-.95Z"/><path class="cls-2" d="M694.19,154.53v-8.9c0-.77-.38-1.08-1.12-1.08a11,11,0,0,0-3.9,1.17v8.81h-2V142.87h1.63l.19,1a12.67,12.67,0,0,1,4.69-1.24c1.86,0,2.53,1.17,2.53,3v8.93Z"/><path class="cls-2" d="M710.47,139.53a12,12,0,0,0-1.94-.22c-1.24,0-1.56.43-1.56,1.6v2h3.33l-.17,1.68H707v10h-2v-10h-2.05v-1.68H705v-2.15c0-2.06,1.15-3.08,3.31-3.08a8.1,8.1,0,0,1,2.36.33Z"/><path class="cls-2" d="M716.21,154.77c-3.4,0-4.74-1.94-4.74-4.38V147c0-2.44,1.34-4.37,4.74-4.37S721,144.57,721,147v3.38C721,152.83,719.61,154.77,716.21,154.77Zm0-10.39c-1.82,0-2.73.86-2.73,2.56v3.52c0,1.7.91,2.56,2.73,2.56s2.73-.86,2.73-2.56v-3.52C718.94,145.24,718,144.38,716.21,144.38Z"/><path class="cls-2" d="M725.59,142.87v8.91c0,.76.39,1.07,1.13,1.07a10.81,10.81,0,0,0,3.9-1.17v-8.81h2v11.66H731l-.19-1a12.68,12.68,0,0,1-4.69,1.25c-1.87,0-2.54-1.18-2.54-3v-8.93Z"/><path class="cls-2" d="M741.32,144.48a24.52,24.52,0,0,0-3.33,2v8h-2V142.87h1.75l.12,1.63a14.38,14.38,0,0,1,3.2-1.86Z"/><path class="cls-2" d="M754.57,154.53v-8.9c0-.77-.38-1.08-1.12-1.08a10.88,10.88,0,0,0-3.9,1.2v8.78h-2V138.11l2-.28v6a11.64,11.64,0,0,1,4.5-1.22c1.86,0,2.53,1.17,2.53,3v8.93Z"/><path class="cls-2" d="M764,154.77c-3.39,0-4.73-1.94-4.73-4.38V147c0-2.44,1.34-4.37,4.73-4.37s4.74,1.93,4.74,4.37v3.38C768.69,152.83,767.35,154.77,764,154.77Zm0-10.39c-1.82,0-2.72.86-2.72,2.56v3.52c0,1.7.9,2.56,2.72,2.56s2.73-.86,2.73-2.56v-3.52C766.68,145.24,765.77,144.38,764,144.38Z"/><path class="cls-2" d="M773.34,142.87v8.91c0,.76.38,1.07,1.12,1.07a10.75,10.75,0,0,0,3.9-1.17v-8.81h2v11.66h-1.63l-.19-1a12.68,12.68,0,0,1-4.69,1.25c-1.86,0-2.53-1.18-2.53-3v-8.93Z"/><path class="cls-2" d="M789.06,144.48a25.15,25.15,0,0,0-3.33,2v8h-2V142.87h1.75l.12,1.63a14.38,14.38,0,0,1,3.2-1.86Z"/><path class="cls-2" d="M793.84,154.77a12,12,0,0,1-3.71-.63l.27-1.58a13.12,13.12,0,0,0,3.32.48c1.85,0,2.16-.33,2.16-1.58s-.1-1.38-2.44-2c-2.9-.72-3.16-1.31-3.16-3.73,0-2.15,1-3.13,4-3.13a13.32,13.32,0,0,1,3.3.4l-.14,1.65a19,19,0,0,0-3.23-.33c-1.73,0-2,.4-2,1.46,0,1.29,0,1.53,2,2,3.35.83,3.61,1.24,3.61,3.56S797.17,154.77,793.84,154.77Z"/><path class="cls-2" d="M811.67,139.53a11.89,11.89,0,0,0-1.94-.22c-1.24,0-1.55.43-1.55,1.6v2h3.32l-.16,1.68h-3.16v10h-2v-10h-2.06v-1.68h2.06v-2.15c0-2.06,1.15-3.08,3.3-3.08a8.17,8.17,0,0,1,2.37.33Z"/><path class="cls-2" d="M818.61,144.48a24.41,24.41,0,0,0-3.32,2v8h-2V142.87H815l.12,1.63a14.45,14.45,0,0,1,3.21-1.86Z"/><path class="cls-2" d="M824.31,154.77c-3.4,0-4.74-1.94-4.74-4.38V147c0-2.44,1.34-4.37,4.74-4.37S829,144.57,829,147v3.38C829,152.83,827.7,154.77,824.31,154.77Zm0-10.39c-1.82,0-2.73.86-2.73,2.56v3.52c0,1.7.91,2.56,2.73,2.56s2.72-.86,2.72-2.56v-3.52C827,145.24,826.13,144.38,824.31,144.38Z"/><path class="cls-2" d="M845.87,154.53v-8.9c0-.77-.39-1.08-1.13-1.08a10.51,10.51,0,0,0-3.9,1.17v8.81h-2v-8.9c0-.77-.38-1.08-1.12-1.08a11,11,0,0,0-3.9,1.17v8.81h-2V142.87h1.63l.19,1a12.67,12.67,0,0,1,4.69-1.24,2.13,2.13,0,0,1,2.22,1.24,12.47,12.47,0,0,1,4.81-1.24c1.87,0,2.54,1.17,2.54,3v8.93Z"/><path class="cls-2" d="M861.85,154.34a7.25,7.25,0,0,1-2.44.43c-2,0-2.89-.72-2.89-2.66v-7.56h-2.06v-1.68h2.06V140l2-.28v3.15h3.3l-.17,1.68h-3.13v7.23c0,.86.12,1.29,1.2,1.29a7.43,7.43,0,0,0,1.86-.29Z"/><path class="cls-2" d="M871.16,154.53v-8.9c0-.77-.38-1.08-1.12-1.08a10.88,10.88,0,0,0-3.9,1.2v8.78h-2V138.11l2-.28v6a11.64,11.64,0,0,1,4.5-1.22c1.86,0,2.53,1.17,2.53,3v8.93Z"/><path class="cls-2" d="M880.59,153a14.61,14.61,0,0,0,3.69-.55l.26,1.61a12.88,12.88,0,0,1-4.12.67c-3.44,0-4.61-1.65-4.61-4.29V147c0-2.42,1.1-4.35,4.57-4.35s4.38,2,4.38,4.4v2.44h-6.94v1C877.82,152.3,878.32,153,880.59,153Zm-2.77-5.24h5v-1c0-1.63-.55-2.54-2.44-2.54s-2.56.91-2.56,2.54Z"/><path class="cls-2" d="M898.18,154.34a7.35,7.35,0,0,1-2.44.43c-2,0-2.89-.72-2.89-2.66v-7.56h-2.06v-1.68h2.06V140l2-.28v3.15h3.3l-.17,1.68h-3.13v7.23c0,.86.12,1.29,1.19,1.29a7.5,7.5,0,0,0,1.87-.29Z"/><path class="cls-2" d="M900.46,141v-2.9h2V141Zm0,13.52V142.87h2v11.66Z"/><path class="cls-2" d="M919.88,154.53v-8.9c0-.77-.38-1.08-1.12-1.08a10.41,10.41,0,0,0-3.9,1.17v8.81h-2v-8.9c0-.77-.38-1.08-1.12-1.08a10.9,10.9,0,0,0-3.9,1.17v8.81h-2V142.87h1.62l.19,1a12.77,12.77,0,0,1,4.69-1.24,2.15,2.15,0,0,1,2.23,1.24,12.47,12.47,0,0,1,4.81-1.24c1.86,0,2.53,1.17,2.53,3v8.93Z"/><path class="cls-2" d="M929.32,153a14.6,14.6,0,0,0,3.68-.55l.26,1.61a12.82,12.82,0,0,1-4.11.67c-3.45,0-4.62-1.65-4.62-4.29V147c0-2.42,1.1-4.35,4.57-4.35s4.38,2,4.38,4.4v2.44h-6.94v1C926.54,152.3,927,153,929.32,153Zm-2.78-5.24h5v-1c0-1.63-.55-2.54-2.44-2.54s-2.56.91-2.56,2.54Z"/><path class="cls-2" d="M945,154.77c-3.4,0-4.74-1.94-4.74-4.38V147c0-2.44,1.34-4.37,4.74-4.37s4.73,1.93,4.73,4.37v3.38C949.7,152.83,948.36,154.77,945,154.77Zm0-10.39c-1.82,0-2.73.86-2.73,2.56v3.52c0,1.7.91,2.56,2.73,2.56s2.72-.86,2.72-2.56v-3.52C947.69,145.24,946.78,144.38,945,144.38Z"/><path class="cls-2" d="M958.82,139.53a11.89,11.89,0,0,0-1.94-.22c-1.24,0-1.55.43-1.55,1.6v2h3.32l-.16,1.68h-3.16v10h-2v-10h-2.06v-1.68h2.06v-2.15c0-2.06,1.15-3.08,3.3-3.08A8.17,8.17,0,0,1,959,138Z"/><path class="cls-2" d="M974.21,151c0,2.32-1.05,3.81-3.78,3.81a18.86,18.86,0,0,1-3.33-.36v4.83l-2,.29V142.87h1.7l.17,1.06a6.18,6.18,0,0,1,3.85-1.29c2.3,0,3.4,1.22,3.4,3.56Zm-7.11,1.68a19.42,19.42,0,0,0,3.21.36c1.34,0,1.89-.63,1.89-2V146.2c0-1.2-.38-1.79-1.8-1.79a5.42,5.42,0,0,0-3.3,1.38Z"/><path class="cls-2" d="M982.47,144.48a25.15,25.15,0,0,0-3.33,2v8h-2V142.87h1.75l.12,1.63a14.38,14.38,0,0,1,3.2-1.86Z"/><path class="cls-2" d="M988.21,153a14.47,14.47,0,0,0,3.68-.55l.27,1.61a12.88,12.88,0,0,1-4.12.67c-3.44,0-4.62-1.65-4.62-4.29V147c0-2.42,1.11-4.35,4.57-4.35s4.38,2,4.38,4.4v2.44h-6.94v1C985.43,152.3,985.94,153,988.21,153Zm-2.78-5.24h5v-1c0-1.63-.55-2.54-2.44-2.54s-2.56.91-2.56,2.54Z"/><path class="cls-2" d="M1004.17,151c0,2.32-1,3.81-3.78,3.81a18.86,18.86,0,0,1-3.33-.36v4.83l-2,.29V142.87h1.7l.17,1.06a6.18,6.18,0,0,1,3.85-1.29c2.3,0,3.4,1.22,3.4,3.56Zm-7.11,1.68a19.42,19.42,0,0,0,3.21.36c1.34,0,1.89-.63,1.89-2V146.2c0-1.2-.38-1.79-1.79-1.79a5.45,5.45,0,0,0-3.31,1.38Z"/><path class="cls-2" d="M1015.35,154.53h-1.7l-.12-.86a6.7,6.7,0,0,1-3.78,1.1c-2.18,0-3.09-1.3-3.09-3.35,0-2.42,1.22-3.28,3.57-3.28h3.11v-1.82c0-1.46-.65-2-2.54-2a19.42,19.42,0,0,0-3.49.38l-.22-1.6a16.32,16.32,0,0,1,3.83-.5c3.33,0,4.43,1.29,4.43,3.78Zm-2-4.72h-3c-1.24,0-1.7.39-1.7,1.56s.22,1.67,1.65,1.67a5.87,5.87,0,0,0,3-.95Z"/><path class="cls-2" d="M1023.75,144.48a25.15,25.15,0,0,0-3.33,2v8h-2V142.87h1.75l.12,1.63a14.61,14.61,0,0,1,3.2-1.86Z"/><path class="cls-2" d="M1033.56,154.53h-1.7l-.12-.86a6.7,6.7,0,0,1-3.78,1.1c-2.18,0-3.09-1.3-3.09-3.35,0-2.42,1.22-3.28,3.57-3.28h3.11v-1.82c0-1.46-.65-2-2.54-2a19.42,19.42,0,0,0-3.49.38l-.22-1.6a16.32,16.32,0,0,1,3.83-.5c3.33,0,4.43,1.29,4.43,3.78Zm-2-4.72h-3c-1.24,0-1.7.39-1.7,1.56s.22,1.67,1.65,1.67a5.87,5.87,0,0,0,3-.95Z"/><path class="cls-2" d="M1042.7,154.34a7.35,7.35,0,0,1-2.44.43c-2,0-2.9-.72-2.9-2.66v-7.56h-2v-1.68h2V140l2-.28v3.15h3.31l-.17,1.68h-3.14v7.23c0,.86.12,1.29,1.2,1.29a7.57,7.57,0,0,0,1.87-.29Z"/><path class="cls-2" d="M1045,141v-2.9h2V141Zm0,13.52V142.87h2v11.66Z"/><path class="cls-2" d="M1054.47,154.77c-3.39,0-4.73-1.94-4.73-4.38V147c0-2.44,1.34-4.37,4.73-4.37s4.74,1.93,4.74,4.37v3.38C1059.21,152.83,1057.87,154.77,1054.47,154.77Zm0-10.39c-1.81,0-2.72.86-2.72,2.56v3.52c0,1.7.91,2.56,2.72,2.56s2.73-.86,2.73-2.56v-3.52C1057.2,145.24,1056.29,144.38,1054.47,144.38Z"/><path class="cls-2" d="M1069,154.53v-8.9c0-.77-.38-1.08-1.12-1.08a10.9,10.9,0,0,0-3.9,1.17v8.81h-2V142.87h1.62l.19,1a12.77,12.77,0,0,1,4.69-1.24c1.87,0,2.54,1.17,2.54,3v8.93Z"/><path class="cls-2" d="M341.28,206.07h6v1.65h-6Z"/><path class="cls-2" d="M362.79,199.47H358v-1.85h11.58v1.85h-4.76v14.09h-2.06Z"/><path class="cls-2" d="M378.56,213.56v-8.9c0-.77-.38-1.08-1.12-1.08a10.88,10.88,0,0,0-3.9,1.2v8.78h-2V197.14l2-.28v6a11.64,11.64,0,0,1,4.5-1.22c1.86,0,2.53,1.17,2.53,3v8.93Z"/><path class="cls-2" d="M383.8,200v-2.9h2V200Zm0,13.52V201.91h2v11.65Z"/><path class="cls-2" d="M392.39,213.8a11.84,11.84,0,0,1-3.7-.63l.26-1.57a13.58,13.58,0,0,0,3.33.47c1.84,0,2.15-.33,2.15-1.58s-.1-1.38-2.44-2c-2.9-.71-3.16-1.31-3.16-3.73,0-2.15,1-3.13,4-3.13a13.32,13.32,0,0,1,3.3.4l-.14,1.65a18.93,18.93,0,0,0-3.23-.33c-1.73,0-2,.41-2,1.46,0,1.29,0,1.53,2,2,3.35.84,3.61,1.24,3.61,3.56S395.72,213.8,392.39,213.8Z"/><path class="cls-2" d="M403.86,200v-2.9h2V200Zm0,13.52V201.91h2v11.65Z"/><path class="cls-2" d="M416.25,213.56v-8.9c0-.77-.38-1.08-1.12-1.08a11,11,0,0,0-3.9,1.17v8.81h-2V201.91h1.63l.19,1a12.67,12.67,0,0,1,4.69-1.24c1.86,0,2.53,1.17,2.53,3v8.93Z"/><path class="cls-2" d="M420.78,209.56V205.9c0-2.68,1-4.23,4.64-4.23a10.12,10.12,0,0,1,2.77.36L428,203.7a12.35,12.35,0,0,0-2.56-.26c-2,0-2.68.57-2.68,2.39v3.8c0,1.82.67,2.4,2.68,2.4a12.4,12.4,0,0,0,2.56-.27l.19,1.68a10.84,10.84,0,0,1-2.8.36C421.69,213.8,420.78,212.24,420.78,209.56Z"/><path class="cls-2" d="M430.8,213.56V197.14l2-.28v16.7Z"/><path class="cls-2" d="M438.05,201.91v8.9c0,.76.39,1.07,1.13,1.07a10.81,10.81,0,0,0,3.9-1.17v-8.8h2v11.65h-1.63l-.19-1a12.68,12.68,0,0,1-4.69,1.25c-1.87,0-2.54-1.18-2.54-3v-8.92Z"/><path class="cls-2" d="M448,205.47c0-2.32,1.05-3.8,3.78-3.8a18,18,0,0,1,3.33.36v-4.89l2-.28v16.7h-1.7l-.17-1.06a6.19,6.19,0,0,1-3.85,1.3c-2.3,0-3.4-1.22-3.4-3.57Zm7.11-1.67a18.4,18.4,0,0,0-3.21-.36c-1.34,0-1.89.62-1.89,2v4.76c0,1.2.38,1.8,1.79,1.8a5.44,5.44,0,0,0,3.31-1.39Z"/><path class="cls-2" d="M464.67,212.07a14.6,14.6,0,0,0,3.68-.55l.26,1.61a12.82,12.82,0,0,1-4.11.67c-3.45,0-4.62-1.65-4.62-4.29V206c0-2.42,1.1-4.35,4.57-4.35s4.38,2,4.38,4.4v2.44h-6.94v1C461.89,211.33,462.39,212.07,464.67,212.07Zm-2.78-5.24h5v-1c0-1.63-.55-2.54-2.44-2.54s-2.56.91-2.56,2.54Z"/><path class="cls-2" d="M474.74,213.8a11.9,11.9,0,0,1-3.71-.63l.27-1.57a13.57,13.57,0,0,0,3.32.47c1.84,0,2.15-.33,2.15-1.58s-.09-1.38-2.44-2c-2.89-.71-3.15-1.31-3.15-3.73,0-2.15.95-3.13,4-3.13a13.32,13.32,0,0,1,3.3.4l-.15,1.65a18.83,18.83,0,0,0-3.23-.33c-1.72,0-2,.41-2,1.46,0,1.29,0,1.53,2,2,3.35.84,3.61,1.24,3.61,3.56S478.07,213.8,474.74,213.8Z"/><path class="cls-2" d="M491.54,203.51a25.15,25.15,0,0,0-3.33,2v8h-2V201.91H488l.12,1.62a14.45,14.45,0,0,1,3.21-1.86Z"/><path class="cls-2" d="M497.24,213.8c-3.4,0-4.74-1.94-4.74-4.38V206c0-2.44,1.34-4.37,4.74-4.37S502,203.6,502,206v3.38C502,211.86,500.63,213.8,497.24,213.8Zm0-10.39c-1.82,0-2.73.86-2.73,2.56v3.52c0,1.7.91,2.56,2.73,2.56s2.72-.86,2.72-2.56V206C500,204.27,499.05,203.41,497.24,203.41Z"/><path class="cls-2" d="M508.87,213.8c-3.4,0-4.74-1.94-4.74-4.38V206c0-2.44,1.34-4.37,4.74-4.37s4.73,1.93,4.73,4.37v3.38C513.6,211.86,512.26,213.8,508.87,213.8Zm0-10.39c-1.82,0-2.73.86-2.73,2.56v3.52c0,1.7.91,2.56,2.73,2.56s2.72-.86,2.72-2.56V206C511.59,204.27,510.68,203.41,508.87,203.41Z"/><path class="cls-2" d="M530.43,213.56v-8.9c0-.77-.39-1.08-1.13-1.08a10.46,10.46,0,0,0-3.9,1.17v8.81h-2v-8.9c0-.77-.38-1.08-1.12-1.08a11,11,0,0,0-3.9,1.17v8.81h-2V201.91H518l.19,1a12.67,12.67,0,0,1,4.69-1.24,2.13,2.13,0,0,1,2.22,1.24,12.47,12.47,0,0,1,4.81-1.24c1.87,0,2.54,1.17,2.54,3v8.93Z"/><path class="cls-2" d="M546.41,213.37a7.3,7.3,0,0,1-2.44.43c-2,0-2.89-.72-2.89-2.66v-7.56H539v-1.67h2.06V199l2-.28v3.16h3.3l-.17,1.67h-3.13v7.23c0,.86.12,1.29,1.19,1.29a7.5,7.5,0,0,0,1.87-.29Z"/><path class="cls-2" d="M552.88,212.07a14.6,14.6,0,0,0,3.68-.55l.26,1.61a12.82,12.82,0,0,1-4.11.67c-3.45,0-4.62-1.65-4.62-4.29V206c0-2.42,1.1-4.35,4.57-4.35s4.38,2,4.38,4.4v2.44H550.1v1C550.1,211.33,550.6,212.07,552.88,212.07Zm-2.78-5.24h5v-1c0-1.63-.55-2.54-2.44-2.54s-2.56.91-2.56,2.54Z"/><path class="cls-2" d="M573.79,213.56v-8.9c0-.77-.38-1.08-1.13-1.08a10.51,10.51,0,0,0-3.9,1.17v8.81h-2v-8.9c0-.77-.39-1.08-1.13-1.08a11,11,0,0,0-3.9,1.17v8.81h-2V201.91h1.63l.19,1a12.67,12.67,0,0,1,4.69-1.24,2.13,2.13,0,0,1,2.22,1.24,12.47,12.47,0,0,1,4.81-1.24c1.87,0,2.54,1.17,2.54,3v8.93Z"/><path class="cls-2" d="M588.15,210c0,2.32-1,3.81-3.78,3.81a18.86,18.86,0,0,1-3.33-.36v4.83l-2,.29V201.91h1.7l.17,1.05a6.18,6.18,0,0,1,3.85-1.29c2.3,0,3.4,1.22,3.4,3.56ZM581,211.67a19.42,19.42,0,0,0,3.21.36c1.34,0,1.89-.63,1.89-2v-4.76c0-1.2-.38-1.79-1.8-1.79a5.42,5.42,0,0,0-3.3,1.38Z"/><path class="cls-2" d="M595.26,212.07a14.53,14.53,0,0,0,3.68-.55l.27,1.61a12.93,12.93,0,0,1-4.12.67c-3.45,0-4.62-1.65-4.62-4.29V206c0-2.42,1.1-4.35,4.57-4.35s4.38,2,4.38,4.4v2.44h-6.94v1C592.48,211.33,593,212.07,595.26,212.07Zm-2.78-5.24h5v-1c0-1.63-.55-2.54-2.44-2.54s-2.56.91-2.56,2.54Z"/><path class="cls-2" d="M607.44,203.51a25.15,25.15,0,0,0-3.33,2v8h-2V201.91h1.75l.12,1.62a14.61,14.61,0,0,1,3.2-1.86Z"/><path class="cls-2" d="M617.25,213.56h-1.7l-.12-.86a6.7,6.7,0,0,1-3.78,1.1c-2.18,0-3.09-1.3-3.09-3.35,0-2.42,1.22-3.28,3.57-3.28h3.11v-1.82c0-1.46-.65-2-2.54-2a19.42,19.42,0,0,0-3.49.38l-.22-1.6a16.39,16.39,0,0,1,3.83-.5c3.33,0,4.43,1.29,4.43,3.78Zm-2-4.72h-3c-1.24,0-1.7.39-1.7,1.56s.22,1.67,1.65,1.67a5.87,5.87,0,0,0,3-.95Z"/><path class="cls-2" d="M626.39,213.37a7.35,7.35,0,0,1-2.44.43c-2,0-2.89-.72-2.89-2.66v-7.56H619v-1.67h2.06V199l2-.28v3.16h3.3l-.17,1.67h-3.13v7.23c0,.86.12,1.29,1.19,1.29a7.5,7.5,0,0,0,1.87-.29Z"/><path class="cls-2" d="M630.56,201.91v8.9c0,.76.38,1.07,1.12,1.07a10.75,10.75,0,0,0,3.9-1.17v-8.8h2v11.65H636l-.19-1a12.68,12.68,0,0,1-4.69,1.25c-1.86,0-2.53-1.18-2.53-3v-8.92Z"/><path class="cls-2" d="M646.28,203.51a25.15,25.15,0,0,0-3.33,2v8h-2V201.91h1.75l.12,1.62a14.61,14.61,0,0,1,3.2-1.86Z"/><path class="cls-2" d="M652,212.07a14.61,14.61,0,0,0,3.69-.55l.26,1.61a12.88,12.88,0,0,1-4.12.67c-3.44,0-4.61-1.65-4.61-4.29V206c0-2.42,1.1-4.35,4.57-4.35s4.37,2,4.37,4.4v2.44h-6.93v1C649.25,211.33,649.75,212.07,652,212.07Zm-2.77-5.24h5v-1c0-1.63-.55-2.54-2.44-2.54s-2.56.91-2.56,2.54Z"/><path class="cls-2" d="M666.76,213.8a12,12,0,0,1-3.71-.63l.27-1.57a13.57,13.57,0,0,0,3.32.47c1.85,0,2.16-.33,2.16-1.58s-.1-1.38-2.44-2c-2.9-.71-3.16-1.31-3.16-3.73,0-2.15.95-3.13,4-3.13a13.32,13.32,0,0,1,3.3.4l-.14,1.65a19,19,0,0,0-3.23-.33c-1.73,0-2,.41-2,1.46,0,1.29,0,1.53,2,2,3.35.84,3.61,1.24,3.61,3.56S670.09,213.8,666.76,213.8Z"/><path class="cls-2" d="M679.64,213.37a7.35,7.35,0,0,1-2.44.43c-2,0-2.9-.72-2.9-2.66v-7.56h-2.06v-1.67h2.06V199l2-.28v3.16h3.3l-.16,1.67h-3.14v7.23c0,.86.12,1.29,1.2,1.29a7.43,7.43,0,0,0,1.86-.29Z"/><path class="cls-2" d="M686.05,213.8c-3.4,0-4.74-1.94-4.74-4.38V206c0-2.44,1.34-4.37,4.74-4.37s4.74,1.93,4.74,4.37v3.38C690.79,211.86,689.45,213.8,686.05,213.8Zm0-10.39c-1.82,0-2.73.86-2.73,2.56v3.52c0,1.7.91,2.56,2.73,2.56s2.73-.86,2.73-2.56V206C688.78,204.27,687.87,203.41,686.05,203.41Z"/><path class="cls-2" d="M698.88,203.51a25.15,25.15,0,0,0-3.33,2v8h-2V201.91h1.75l.12,1.62a14.61,14.61,0,0,1,3.2-1.86Z"/><path class="cls-2" d="M708.69,213.56H707l-.12-.86a6.7,6.7,0,0,1-3.78,1.1c-2.18,0-3.09-1.3-3.09-3.35,0-2.42,1.22-3.28,3.57-3.28h3.11v-1.82c0-1.46-.65-2-2.54-2a19.42,19.42,0,0,0-3.49.38l-.22-1.6a16.32,16.32,0,0,1,3.83-.5c3.33,0,4.43,1.29,4.43,3.78Zm-2-4.72h-3c-1.24,0-1.7.39-1.7,1.56s.22,1.67,1.65,1.67a5.87,5.87,0,0,0,3-.95Z"/><path class="cls-2" d="M720.77,203.08l-1.38.26a4.12,4.12,0,0,1,.64,2.32v.53c0,2.51-1.53,4-4.57,4a8.66,8.66,0,0,1-1.19-.07,1.8,1.8,0,0,0-.84,1.24c0,.46.24.62.76.67l3.31.34c2.1.21,2.91,1,2.91,2.8,0,2.53-.88,3.37-5.09,3.37a18.7,18.7,0,0,1-4.24-.55l.29-1.58a18.32,18.32,0,0,0,3.9.48c3,0,3.25-.41,3.25-1.63,0-1-.35-1.15-1.72-1.27l-3.08-.28c-1.73-.15-2.28-1.06-2.28-2.13a2.64,2.64,0,0,1,1.1-2.06,3.49,3.49,0,0,1-1.62-3.3v-.53c0-2.53,1.22-4,4.54-4a7.47,7.47,0,0,1,2,.24h3.35Zm-5.31.24c-1.94,0-2.65.64-2.65,2.37v.5c0,1.77.74,2.32,2.65,2.32s2.66-.79,2.66-2.32v-.5C718.12,204,717.4,203.32,715.46,203.32Z"/><path class="cls-2" d="M727.19,212.07a14.53,14.53,0,0,0,3.68-.55l.27,1.61a12.88,12.88,0,0,1-4.12.67c-3.44,0-4.62-1.65-4.62-4.29V206c0-2.42,1.1-4.35,4.57-4.35s4.38,2,4.38,4.4v2.44h-6.94v1C724.41,211.33,724.92,212.07,727.19,212.07Zm-2.78-5.24h5v-1c0-1.63-.55-2.54-2.44-2.54s-2.56.91-2.56,2.54Z"/><path class="cls-2" d="M738.7,200v-2.9h2V200Zm0,13.52V201.91h2v11.65Z"/><path class="cls-2" d="M751.09,213.56v-8.9c0-.77-.38-1.08-1.12-1.08a11,11,0,0,0-3.9,1.17v8.81h-2V201.91h1.63l.19,1a12.67,12.67,0,0,1,4.69-1.24c1.86,0,2.53,1.17,2.53,3v8.93Z"/><path class="cls-2" d="M769.26,213.56h-1.7l-.12-.86a6.7,6.7,0,0,1-3.78,1.1c-2.18,0-3.09-1.3-3.09-3.35,0-2.42,1.22-3.28,3.57-3.28h3.11v-1.82c0-1.46-.65-2-2.54-2a19.42,19.42,0,0,0-3.49.38l-.22-1.6a16.32,16.32,0,0,1,3.83-.5c3.33,0,4.43,1.29,4.43,3.78Zm-2-4.72h-3c-1.24,0-1.7.39-1.7,1.56s.22,1.67,1.65,1.67a5.87,5.87,0,0,0,3-.95Z"/><path class="cls-2" d="M786.1,210c0,2.32-1.05,3.81-3.78,3.81a18.65,18.65,0,0,1-3.32-.36v4.83l-2,.29V201.91h1.7l.16,1.05a6.19,6.19,0,0,1,3.86-1.29c2.29,0,3.39,1.22,3.39,3.56Zm-7.1,1.68a19.19,19.19,0,0,0,3.2.36c1.34,0,1.89-.63,1.89-2v-4.76c0-1.2-.38-1.79-1.79-1.79a5.4,5.4,0,0,0-3.3,1.38Z"/><path class="cls-2" d="M789,213.56V197.14l2-.28v16.7Z"/><path class="cls-2" d="M802.64,213.56h-1.7l-.12-.86a6.7,6.7,0,0,1-3.78,1.1c-2.18,0-3.08-1.3-3.08-3.35,0-2.42,1.22-3.28,3.56-3.28h3.11v-1.82c0-1.46-.65-2-2.54-2a19.42,19.42,0,0,0-3.49.38l-.21-1.6a16.23,16.23,0,0,1,3.82-.5c3.33,0,4.43,1.29,4.43,3.78Zm-2-4.72h-3c-1.24,0-1.69.39-1.69,1.56s.21,1.67,1.65,1.67a5.84,5.84,0,0,0,3-.95Z"/><path class="cls-2" d="M808.94,213.8a11.85,11.85,0,0,1-3.71-.63l.26-1.57a13.58,13.58,0,0,0,3.33.47c1.84,0,2.15-.33,2.15-1.58s-.1-1.38-2.44-2c-2.9-.71-3.16-1.31-3.16-3.73,0-2.15,1-3.13,4-3.13a13.32,13.32,0,0,1,3.3.4l-.14,1.65a18.83,18.83,0,0,0-3.23-.33c-1.72,0-2,.41-2,1.46,0,1.29,0,1.53,2,2,3.35.84,3.61,1.24,3.61,3.56S812.26,213.8,808.94,213.8Z"/><path class="cls-2" d="M821.81,213.37a7.35,7.35,0,0,1-2.44.43c-2,0-2.9-.72-2.9-2.66v-7.56h-2.05v-1.67h2.05V199l2-.28v3.16h3.31l-.17,1.67h-3.14v7.23c0,.86.12,1.29,1.2,1.29a7.57,7.57,0,0,0,1.87-.29Z"/><path class="cls-2" d="M824.08,200v-2.9h2V200Zm0,13.52V201.91h2v11.65Z"/><path class="cls-2" d="M828.73,209.56V205.9c0-2.68,1-4.23,4.64-4.23a10.12,10.12,0,0,1,2.77.36L836,203.7a12.35,12.35,0,0,0-2.56-.26c-2,0-2.68.57-2.68,2.39v3.8c0,1.82.67,2.4,2.68,2.4a12.4,12.4,0,0,0,2.56-.27l.19,1.68a10.84,10.84,0,0,1-2.8.36C829.64,213.8,828.73,212.24,828.73,209.56Z"/><path class="cls-2" d="M846.65,213.8a11.85,11.85,0,0,1-3.71-.63l.26-1.57a13.72,13.72,0,0,0,3.33.47c1.84,0,2.15-.33,2.15-1.58s-.09-1.38-2.44-2c-2.89-.71-3.16-1.31-3.16-3.73,0-2.15,1-3.13,4-3.13a13.34,13.34,0,0,1,3.31.4l-.15,1.65a18.83,18.83,0,0,0-3.23-.33c-1.72,0-2,.41-2,1.46,0,1.29,0,1.53,2,2,3.35.84,3.61,1.24,3.61,3.56S850,213.8,846.65,213.8Z"/><path class="cls-2" d="M856.34,213.56h-.84l-3.78-11.65h2l3.18,10,3.23-10h2l-3.85,11.65-1.65,4.71h-1.89Z"/><path class="cls-2" d="M869,203.51a24.52,24.52,0,0,0-3.33,2v8h-2V201.91h1.75l.12,1.62a14.38,14.38,0,0,1,3.2-1.86Z"/><path class="cls-2" d="M870.58,200v-2.9h2V200Zm0,13.52V201.91h2v11.65Z"/><path class="cls-2" d="M883,213.56v-8.9c0-.77-.39-1.08-1.13-1.08a11,11,0,0,0-3.9,1.17v8.81h-2V201.91h1.63l.19,1a12.67,12.67,0,0,1,4.69-1.24c1.87,0,2.54,1.17,2.54,3v8.93Z"/><path class="cls-2" d="M897.24,203.08l-1.39.26a4.2,4.2,0,0,1,.65,2.32v.53c0,2.51-1.53,4-4.57,4a8.92,8.92,0,0,1-1.2-.07,1.8,1.8,0,0,0-.84,1.24c0,.46.24.62.77.67l3.3.34c2.11.21,2.92,1,2.92,2.8,0,2.53-.89,3.37-5.1,3.37a18.62,18.62,0,0,1-4.23-.55l.29-1.58a18.24,18.24,0,0,0,3.9.48c3,0,3.25-.41,3.25-1.63,0-1-.36-1.15-1.72-1.27l-3.09-.28c-1.72-.15-2.27-1.06-2.27-2.13a2.64,2.64,0,0,1,1.1-2.06,3.5,3.5,0,0,1-1.63-3.3v-.53c0-2.53,1.22-4,4.55-4a7.52,7.52,0,0,1,2,.24h3.35Zm-5.31.24c-1.94,0-2.66.64-2.66,2.37v.5c0,1.77.74,2.32,2.66,2.32s2.65-.79,2.65-2.32v-.5C894.58,204,893.86,203.32,891.93,203.32Z"/><path class="cls-2" d="M903.65,212.07a14.61,14.61,0,0,0,3.69-.55l.26,1.61a12.87,12.87,0,0,1-4.11.67c-3.45,0-4.62-1.65-4.62-4.29V206c0-2.42,1.1-4.35,4.57-4.35s4.38,2,4.38,4.4v2.44h-6.94v1C900.88,211.33,901.38,212.07,903.65,212.07Zm-2.77-5.24h5v-1c0-1.63-.55-2.54-2.44-2.54s-2.56.91-2.56,2.54Z"/><path class="cls-2" d="M923.42,213.56h-1.7l-.12-.86a6.7,6.7,0,0,1-3.78,1.1c-2.18,0-3.09-1.3-3.09-3.35,0-2.42,1.22-3.28,3.57-3.28h3.11v-1.82c0-1.46-.65-2-2.54-2a19.42,19.42,0,0,0-3.49.38l-.22-1.6a16.32,16.32,0,0,1,3.83-.5c3.33,0,4.43,1.29,4.43,3.78Zm-2-4.72h-3c-1.24,0-1.7.39-1.7,1.56s.22,1.67,1.65,1.67a5.87,5.87,0,0,0,3-.95Z"/><path class="cls-2" d="M933.52,213.56v-8.9c0-.77-.39-1.08-1.13-1.08a11,11,0,0,0-3.9,1.17v8.81h-2V201.91h1.63l.19,1a12.67,12.67,0,0,1,4.69-1.24c1.87,0,2.54,1.17,2.54,3v8.93Z"/><path class="cls-2" d="M938.33,205.47c0-2.32,1-3.8,3.78-3.8a17.77,17.77,0,0,1,3.32.36v-4.89l2-.28v16.7h-1.69l-.17-1.06a6.19,6.19,0,0,1-3.85,1.3c-2.3,0-3.4-1.22-3.4-3.57Zm7.1-1.67a18.19,18.19,0,0,0-3.2-.36c-1.34,0-1.89.62-1.89,2v4.76c0,1.2.38,1.8,1.79,1.8a5.41,5.41,0,0,0,3.3-1.39Z"/><path class="cls-2" d="M961.54,213.37a7.35,7.35,0,0,1-2.44.43c-2,0-2.89-.72-2.89-2.66v-7.56h-2.06v-1.67h2.06V199l2-.28v3.16h3.3l-.17,1.67h-3.13v7.23c0,.86.11,1.29,1.19,1.29a7.5,7.5,0,0,0,1.87-.29Z"/><path class="cls-2" d="M963.82,200v-2.9h2V200Zm0,13.52V201.91h2v11.65Z"/><path class="cls-2" d="M983.24,213.56v-8.9c0-.77-.38-1.08-1.12-1.08a10.41,10.41,0,0,0-3.9,1.17v8.81h-2v-8.9c0-.77-.38-1.08-1.12-1.08a10.9,10.9,0,0,0-3.9,1.17v8.81h-2V201.91h1.62l.19,1a12.77,12.77,0,0,1,4.69-1.24,2.15,2.15,0,0,1,2.23,1.24,12.47,12.47,0,0,1,4.81-1.24c1.86,0,2.53,1.17,2.53,3v8.93Z"/><path class="cls-2" d="M992.67,212.07a14.61,14.61,0,0,0,3.69-.55l.26,1.61a12.82,12.82,0,0,1-4.11.67c-3.45,0-4.62-1.65-4.62-4.29V206c0-2.42,1.1-4.35,4.57-4.35s4.38,2,4.38,4.4v2.44H989.9v1C989.9,211.33,990.4,212.07,992.67,212.07Zm-2.77-5.24h5v-1c0-1.63-.55-2.54-2.44-2.54s-2.56.91-2.56,2.54Z"/><path class="cls-2" d="M1010.55,198.56a12,12,0,0,0-1.94-.22c-1.24,0-1.55.43-1.55,1.6v2h3.32l-.16,1.67h-3.16v10h-2v-10H1003v-1.67h2.06v-2.16c0-2.06,1.15-3.08,3.3-3.08a8.21,8.21,0,0,1,2.37.33Z"/><path class="cls-2" d="M1016.29,213.8c-3.39,0-4.73-1.94-4.73-4.38V206c0-2.44,1.34-4.37,4.73-4.37S1021,203.6,1021,206v3.38C1021,211.86,1019.69,213.8,1016.29,213.8Zm0-10.39c-1.81,0-2.72.86-2.72,2.56v3.52c0,1.7.91,2.56,2.72,2.56s2.73-.86,2.73-2.56V206C1019,204.27,1018.11,203.41,1016.29,203.41Z"/><path class="cls-2" d="M1029.12,203.51a24.41,24.41,0,0,0-3.32,2v8h-2V201.91h1.74l.12,1.62a14.45,14.45,0,0,1,3.21-1.86Z"/><path class="cls-2" d="M1043.6,213.56h-1.7l-.12-.86a6.7,6.7,0,0,1-3.78,1.1c-2.18,0-3.09-1.3-3.09-3.35,0-2.42,1.22-3.28,3.57-3.28h3.11v-1.82c0-1.46-.65-2-2.54-2a19.42,19.42,0,0,0-3.49.38l-.22-1.6a16.32,16.32,0,0,1,3.83-.5c3.33,0,4.43,1.29,4.43,3.78Zm-2-4.72h-3c-1.24,0-1.7.39-1.7,1.56s.22,1.67,1.65,1.67a5.87,5.87,0,0,0,3-.95Z"/><path class="cls-2" d="M1046.23,205.47c0-2.32,1.06-3.8,3.78-3.8a17.88,17.88,0,0,1,3.33.36v-4.89l2-.28v16.7h-1.7l-.17-1.06a6.17,6.17,0,0,1-3.85,1.3c-2.3,0-3.4-1.22-3.4-3.57Zm7.11-1.67a18.3,18.3,0,0,0-3.21-.36c-1.34,0-1.89.62-1.89,2v4.76c0,1.2.39,1.8,1.8,1.8a5.41,5.41,0,0,0,3.3-1.39Z"/><path class="cls-2" d="M1072.77,213.56v-8.9c0-.77-.38-1.08-1.12-1.08a10.41,10.41,0,0,0-3.9,1.17v8.81h-2v-8.9c0-.77-.39-1.08-1.13-1.08a11,11,0,0,0-3.9,1.17v8.81h-2V201.91h1.63l.19,1a12.67,12.67,0,0,1,4.69-1.24,2.12,2.12,0,0,1,2.22,1.24,12.47,12.47,0,0,1,4.81-1.24c1.87,0,2.54,1.17,2.54,3v8.93Z"/><path class="cls-2" d="M1078,200v-2.9h2V200Zm0,13.52V201.91h2v11.65Z"/><path class="cls-2" d="M1090.41,213.56v-8.9c0-.77-.38-1.08-1.13-1.08a11,11,0,0,0-3.9,1.17v8.81h-2V201.91H1085l.19,1a12.67,12.67,0,0,1,4.69-1.24c1.87,0,2.54,1.17,2.54,3v8.93Z"/><path class="cls-2" d="M1095.65,200v-2.9h2V200Zm0,13.52V201.91h2v11.65Z"/><path class="cls-2" d="M1104.24,213.8a11.9,11.9,0,0,1-3.71-.63l.27-1.57a13.57,13.57,0,0,0,3.32.47c1.84,0,2.15-.33,2.15-1.58s-.09-1.38-2.44-2c-2.89-.71-3.15-1.31-3.15-3.73,0-2.15,1-3.13,4-3.13a13.34,13.34,0,0,1,3.31.4l-.15,1.65a18.83,18.83,0,0,0-3.23-.33c-1.72,0-2,.41-2,1.46,0,1.29,0,1.53,2,2,3.35.84,3.61,1.24,3.61,3.56S1107.57,213.8,1104.24,213.8Z"/><path class="cls-2" d="M1117.11,213.37a7.25,7.25,0,0,1-2.44.43c-2,0-2.89-.72-2.89-2.66v-7.56h-2.06v-1.67h2.06V199l2-.28v3.16h3.3l-.17,1.67h-3.13v7.23c0,.86.12,1.29,1.2,1.29a7.43,7.43,0,0,0,1.86-.29Z"/><path class="cls-2" d="M1124.73,203.51a24.52,24.52,0,0,0-3.33,2v8h-2V201.91h1.75l.12,1.62a14.38,14.38,0,0,1,3.2-1.86Z"/><path class="cls-2" d="M1134.54,213.56h-1.7l-.12-.86a6.7,6.7,0,0,1-3.78,1.1c-2.18,0-3.09-1.3-3.09-3.35,0-2.42,1.22-3.28,3.57-3.28h3.11v-1.82c0-1.46-.65-2-2.54-2a19.42,19.42,0,0,0-3.49.38l-.22-1.6a16.32,16.32,0,0,1,3.83-.5c3.33,0,4.43,1.29,4.43,3.78Zm-2-4.72h-3c-1.24,0-1.7.39-1.7,1.56s.22,1.67,1.65,1.67a5.87,5.87,0,0,0,3-.95Z"/><path class="cls-2" d="M1143.68,213.37a7.35,7.35,0,0,1-2.44.43c-2,0-2.9-.72-2.9-2.66v-7.56h-2.06v-1.67h2.06V199l2-.28v3.16h3.3l-.16,1.67h-3.14v7.23c0,.86.12,1.29,1.2,1.29a7.43,7.43,0,0,0,1.86-.29Z"/><path class="cls-2" d="M1146,200v-2.9h2V200Zm0,13.52V201.91h2v11.65Z"/><path class="cls-2" d="M1155.45,213.8c-3.4,0-4.73-1.94-4.73-4.38V206c0-2.44,1.33-4.37,4.73-4.37s4.74,1.93,4.74,4.37v3.38C1160.19,211.86,1158.85,213.8,1155.45,213.8Zm0-10.39c-1.82,0-2.73.86-2.73,2.56v3.52c0,1.7.91,2.56,2.73,2.56s2.73-.86,2.73-2.56V206C1158.18,204.27,1157.27,203.41,1155.45,203.41Z"/><path class="cls-2" d="M1170,213.56v-8.9c0-.77-.39-1.08-1.13-1.08a11,11,0,0,0-3.9,1.17v8.81h-2V201.91h1.63l.19,1a12.67,12.67,0,0,1,4.69-1.24c1.87,0,2.54,1.17,2.54,3v8.93Z"/><path class="cls-2" d="M1184,213.8c-3.4,0-4.74-1.94-4.74-4.38V206c0-2.44,1.34-4.37,4.74-4.37s4.73,1.93,4.73,4.37v3.38C1188.76,211.86,1187.42,213.8,1184,213.8Zm0-10.39c-1.82,0-2.73.86-2.73,2.56v3.52c0,1.7.91,2.56,2.73,2.56s2.72-.86,2.72-2.56V206C1186.75,204.27,1185.84,203.41,1184,203.41Z"/><path class="cls-2" d="M1197.88,198.56a11.89,11.89,0,0,0-1.94-.22c-1.24,0-1.55.43-1.55,1.6v2h3.32l-.16,1.67h-3.16v10h-2v-10h-2.06v-1.67h2.06v-2.16c0-2.06,1.15-3.08,3.3-3.08a8.17,8.17,0,0,1,2.37.33Z"/><path class="cls-2" d="M1210.23,213.37a7.35,7.35,0,0,1-2.44.43c-2,0-2.9-.72-2.9-2.66v-7.56h-2.05v-1.67h2.05V199l2-.28v3.16h3.31l-.17,1.67h-3.14v7.23c0,.86.12,1.29,1.2,1.29a7.5,7.5,0,0,0,1.87-.29Z"/><path class="cls-2" d="M1219.54,213.56v-8.9c0-.77-.38-1.08-1.13-1.08a10.94,10.94,0,0,0-3.9,1.2v8.78h-2V197.14l2-.28v6a11.73,11.73,0,0,1,4.5-1.22c1.87,0,2.54,1.17,2.54,3v8.93Z"/><path class="cls-2" d="M1229,212.07a14.53,14.53,0,0,0,3.68-.55l.27,1.61a12.88,12.88,0,0,1-4.12.67c-3.44,0-4.62-1.65-4.62-4.29V206c0-2.42,1.1-4.35,4.57-4.35s4.38,2,4.38,4.4v2.44h-6.94v1C1226.19,211.33,1226.7,212.07,1229,212.07Zm-2.78-5.24h5v-1c0-1.63-.55-2.54-2.44-2.54s-2.56.91-2.56,2.54Z"/><path class="cls-2" d="M1240.05,205.47c0-2.32,1-3.8,3.78-3.8a17.77,17.77,0,0,1,3.32.36v-4.89l2-.28v16.7h-1.69l-.17-1.06a6.19,6.19,0,0,1-3.85,1.3c-2.3,0-3.4-1.22-3.4-3.57Zm7.1-1.67a18.19,18.19,0,0,0-3.2-.36c-1.34,0-1.89.62-1.89,2v4.76c0,1.2.38,1.8,1.79,1.8a5.41,5.41,0,0,0,3.3-1.39Z"/><path class="cls-2" d="M1256.66,213.8c-3.4,0-4.74-1.94-4.74-4.38V206c0-2.44,1.34-4.37,4.74-4.37s4.73,1.93,4.73,4.37v3.38C1261.39,211.86,1260.05,213.8,1256.66,213.8Zm0-10.39c-1.82,0-2.73.86-2.73,2.56v3.52c0,1.7.91,2.56,2.73,2.56s2.72-.86,2.72-2.56V206C1259.38,204.27,1258.47,203.41,1256.66,203.41Z"/><path class="cls-2" d="M1267.38,213.8a11.85,11.85,0,0,1-3.71-.63l.26-1.57a13.65,13.65,0,0,0,3.33.47c1.84,0,2.15-.33,2.15-1.58s-.09-1.38-2.44-2c-2.89-.71-3.16-1.31-3.16-3.73,0-2.15,1-3.13,4-3.13a13.2,13.2,0,0,1,3.3.4l-.14,1.65a18.83,18.83,0,0,0-3.23-.33c-1.72,0-2,.41-2,1.46,0,1.29,0,1.53,2,2,3.35.84,3.62,1.24,3.62,3.56S1270.7,213.8,1267.38,213.8Z"/><path class="cls-2" d="M1278.36,212.07a14.61,14.61,0,0,0,3.69-.55l.26,1.61a12.88,12.88,0,0,1-4.12.67c-3.44,0-4.61-1.65-4.61-4.29V206c0-2.42,1.1-4.35,4.57-4.35s4.38,2,4.38,4.4v2.44h-6.94v1C1275.59,211.33,1276.09,212.07,1278.36,212.07Zm-2.77-5.24h5v-1c0-1.63-.55-2.54-2.44-2.54s-2.56.91-2.56,2.54Z"/><path class="cls-2" d="M348.49,256.65v11.46c0,2.61-1.51,4.72-5.65,4.72s-5.65-2.11-5.65-4.72V256.65h2.06V268c0,2,1.08,3,3.59,3s3.59-1,3.59-3V256.65Z"/><path class="cls-2" d="M358.87,272.59v-8.9c0-.77-.38-1.08-1.12-1.08a11,11,0,0,0-3.9,1.17v8.81h-2V260.94h1.63l.19,1a12.67,12.67,0,0,1,4.69-1.24c1.86,0,2.53,1.17,2.53,3v8.93Z"/><path class="cls-2" d="M363.69,264.5c0-2.32,1.05-3.8,3.78-3.8a17.77,17.77,0,0,1,3.32.36v-4.89l2-.28v16.7h-1.7l-.16-1.06a6.22,6.22,0,0,1-3.86,1.3c-2.29,0-3.39-1.22-3.39-3.57Zm7.1-1.67a18.19,18.19,0,0,0-3.2-.36c-1.34,0-1.89.62-1.89,2v4.76c0,1.2.38,1.8,1.79,1.8a5.41,5.41,0,0,0,3.3-1.39Z"/><path class="cls-2" d="M380.34,271.1a14.61,14.61,0,0,0,3.69-.55l.26,1.61a12.88,12.88,0,0,1-4.12.67c-3.44,0-4.61-1.65-4.61-4.29v-3.49c0-2.42,1.1-4.35,4.57-4.35s4.37,2,4.37,4.4v2.44h-6.93v1C377.57,270.36,378.07,271.1,380.34,271.1Zm-2.77-5.24h5v-.95c0-1.63-.55-2.54-2.44-2.54s-2.56.91-2.56,2.54Z"/><path class="cls-2" d="M392.52,262.54a25.46,25.46,0,0,0-3.32,2v8h-2V260.94h1.74l.12,1.62a14.85,14.85,0,0,1,3.21-1.86Z"/><path class="cls-2" d="M404.08,262.54a26.27,26.27,0,0,0-3.33,2v8h-2V260.94h1.75l.12,1.62a14.85,14.85,0,0,1,3.21-1.86Z"/><path class="cls-2" d="M409.82,271.1a14.61,14.61,0,0,0,3.69-.55l.26,1.61a12.82,12.82,0,0,1-4.11.67c-3.45,0-4.62-1.65-4.62-4.29v-3.49c0-2.42,1.1-4.35,4.57-4.35s4.38,2,4.38,4.4v2.44h-6.94v1C407.05,270.36,407.55,271.1,409.82,271.1Zm-2.77-5.24h5v-.95c0-1.63-.55-2.54-2.44-2.54s-2.56.91-2.56,2.54Z"/><path class="cls-2" d="M423,257.59a11.89,11.89,0,0,0-1.94-.22c-1.24,0-1.55.43-1.55,1.6v2h3.33l-.17,1.67h-3.16v10h-2v-10h-2.06v-1.67h2.06v-2.16c0-2.06,1.15-3.08,3.3-3.08a8.17,8.17,0,0,1,2.37.33Z"/><path class="cls-2" d="M430,262.54a25.46,25.46,0,0,0-3.32,2v8h-2V260.94h1.74l.12,1.62a15.1,15.1,0,0,1,3.21-1.86Z"/><path class="cls-2" d="M431.53,259.07v-2.9h2v2.9Zm0,13.52V260.94h2v11.65Z"/><path class="cls-2" d="M445.91,262.11l-1.39.26a4.2,4.2,0,0,1,.65,2.32v.53c0,2.51-1.53,4-4.57,4a8.92,8.92,0,0,1-1.2-.07c-.4.33-.84.74-.84,1.24s.24.62.77.67l3.3.34c2.11.21,2.92,1,2.92,2.8,0,2.53-.88,3.37-5.1,3.37a18.69,18.69,0,0,1-4.23-.55l.29-1.58a18.24,18.24,0,0,0,3.9.48c3,0,3.25-.41,3.25-1.63,0-1-.36-1.15-1.72-1.27l-3.09-.28c-1.72-.15-2.27-1.06-2.27-2.13a2.64,2.64,0,0,1,1.1-2.06,3.5,3.5,0,0,1-1.63-3.3v-.53c0-2.53,1.22-4,4.55-4a7.47,7.47,0,0,1,2,.24h3.35Zm-5.31.24c-1.94,0-2.66.64-2.66,2.37v.5c0,1.77.74,2.32,2.66,2.32s2.65-.79,2.65-2.32v-.5C443.25,263,442.54,262.35,440.6,262.35Z"/><path class="cls-2" d="M452.32,271.1a14.61,14.61,0,0,0,3.69-.55l.26,1.61a12.82,12.82,0,0,1-4.11.67c-3.45,0-4.62-1.65-4.62-4.29v-3.49c0-2.42,1.1-4.35,4.57-4.35s4.38,2,4.38,4.4v2.44h-6.94v1C449.55,270.36,450.05,271.1,452.32,271.1Zm-2.77-5.24h5v-.95c0-1.63-.55-2.54-2.44-2.54s-2.56.91-2.56,2.54Z"/><path class="cls-2" d="M464.51,262.54a25.58,25.58,0,0,0-3.33,2v8h-2V260.94h1.75l.12,1.62a14.77,14.77,0,0,1,3.2-1.86Z"/><path class="cls-2" d="M474.32,272.59h-1.7l-.12-.86a6.7,6.7,0,0,1-3.78,1.1c-2.18,0-3.09-1.3-3.09-3.35,0-2.42,1.22-3.28,3.57-3.28h3.11v-1.82c0-1.46-.65-2-2.54-2a19.42,19.42,0,0,0-3.49.38l-.22-1.6a16.32,16.32,0,0,1,3.83-.5c3.33,0,4.43,1.29,4.43,3.78Zm-2-4.72h-3c-1.24,0-1.7.39-1.7,1.56s.22,1.67,1.65,1.67a5.87,5.87,0,0,0,3-1Z"/><path class="cls-2" d="M483.46,272.4a7.35,7.35,0,0,1-2.44.43c-2,0-2.9-.72-2.9-2.66v-7.56h-2.06v-1.67h2.06v-2.88l2-.28v3.16h3.3l-.16,1.67h-3.14v7.23c0,.86.12,1.29,1.2,1.29a7.43,7.43,0,0,0,1.86-.29Z"/><path class="cls-2" d="M485.73,259.07v-2.9h2v2.9Zm0,13.52V260.94h2v11.65Z"/><path class="cls-2" d="M495.23,272.83c-3.4,0-4.74-1.94-4.74-4.38v-3.37c0-2.45,1.34-4.38,4.74-4.38s4.74,1.93,4.74,4.38v3.37C500,270.89,498.63,272.83,495.23,272.83Zm0-10.39c-1.82,0-2.73.86-2.73,2.56v3.52c0,1.7.91,2.56,2.73,2.56s2.73-.86,2.73-2.56V265C498,263.3,497.05,262.44,495.23,262.44Z"/><path class="cls-2" d="M509.76,272.59v-8.9c0-.77-.38-1.08-1.13-1.08a11,11,0,0,0-3.9,1.17v8.81h-2V260.94h1.63l.19,1a12.67,12.67,0,0,1,4.69-1.24c1.87,0,2.54,1.17,2.54,3v8.93Z"/><path class="cls-2" d="M527.92,272.59h-1.7l-.12-.86a6.7,6.7,0,0,1-3.78,1.1c-2.17,0-3.08-1.3-3.08-3.35,0-2.42,1.22-3.28,3.56-3.28h3.11v-1.82c0-1.46-.64-2-2.53-2a19.44,19.44,0,0,0-3.5.38l-.21-1.6a16.23,16.23,0,0,1,3.82-.5c3.33,0,4.43,1.29,4.43,3.78Zm-2-4.72h-3c-1.24,0-1.69.39-1.69,1.56s.21,1.67,1.65,1.67a5.84,5.84,0,0,0,3-1Z"/><path class="cls-2" d="M537.06,272.4a7.3,7.3,0,0,1-2.44.43c-2,0-2.89-.72-2.89-2.66v-7.56h-2.06v-1.67h2.06v-2.88l2-.28v3.16H537l-.17,1.67h-3.13v7.23c0,.86.12,1.29,1.19,1.29a7.5,7.5,0,0,0,1.87-.29Z"/><path class="cls-2" d="M543.29,270.75c1.77-2,2.22-2.54,4.11-4.77,2.44-2.89,2.61-3.51,2.61-4.64v-.69c0-1.51-.41-2-2.82-2a14.71,14.71,0,0,0-3.54.52l-.29-1.72a15.15,15.15,0,0,1,4-.6c3.69,0,4.67,1.29,4.67,3.73v.53c0,1.89-.34,2.7-2.73,5.55-1.72,2.06-2,2.37-3.51,4.12h6.38v1.77h-8.87Z"/><path class="cls-2" d="M554.68,265.1h8.75v1.65h-8.75Z"/><path class="cls-2" d="M573,264.69c2.18,1,2.89,2,2.89,3.64V269c0,2.68-1.43,3.81-5,3.81S566,271.7,566,269v-.69c0-1.63.69-2.63,2.82-3.64-1.91-.93-2.41-1.91-2.41-3.42v-.62c0-2.18,1.07-3.76,4.54-3.76s4.55,1.58,4.55,3.76v.62C575.45,262.78,574.92,263.76,573,264.69Zm-2.06.91c-2.41,1-3,1.44-3,2.8V269c0,1.63.77,2.15,3,2.15s3-.52,3-2.15v-.55C573.89,267,573.29,266.58,570.9,265.6Zm0-1.72c2.06-.84,2.59-1.34,2.59-2.56v-.77c0-1.24-.6-2-2.59-2s-2.58.72-2.58,2v.77C568.32,262.54,568.84,263,570.9,263.88Z"/><path class="cls-2" d="M581.1,262.35a2.73,2.73,0,1,1,2.72-2.73A2.58,2.58,0,0,1,581.1,262.35Zm0-4.38a1.66,1.66,0,1,0,1.5,1.65A1.47,1.47,0,0,0,581.1,258Z"/><path class="cls-2" d="M588.52,268c0,2.22.86,2.94,3.47,2.94a25.16,25.16,0,0,0,3.73-.33l.21,1.77a20.7,20.7,0,0,1-4,.43c-3.9,0-5.45-1.68-5.45-4.69v-7c0-3,1.55-4.69,5.45-4.69a20.7,20.7,0,0,1,4,.43l-.21,1.78a24,24,0,0,0-3.73-.34c-2.61,0-3.47.72-3.47,2.94Z"/><path class="cls-2" d="M608.11,255.31a17.65,17.65,0,0,0,0,20l-1.43.95a18.11,18.11,0,0,1,0-21.91Z"/><path class="cls-2" d="M609.53,270.67a15.24,15.24,0,0,0,3.49.39c2.25,0,3.06-.53,3.06-2.06v-1.2c0-1.55-.86-2.08-2.41-2.08h-3.28V264h3c1.87,0,2.4-.72,2.4-2v-1.38c0-1.44-.67-1.92-2.59-1.92a18.56,18.56,0,0,0-3.37.36l-.22-1.7a16.9,16.9,0,0,1,3.64-.43c3.37,0,4.55,1.17,4.55,3.4v1.41a2.91,2.91,0,0,1-1.82,3.09,2.59,2.59,0,0,1,2.1,2.85v1.55c0,2.49-1.48,3.64-5.07,3.64a13.57,13.57,0,0,1-3.71-.48Z"/><path class="cls-2" d="M623,264.29a10.56,10.56,0,0,1,3.18-.55c3,0,4.1,1.26,4.1,3.8v.77c0,2.79-.77,4.52-4.6,4.52-3.44,0-4.66-1.44-4.66-3.69V262.3c0-4,1.77-5.41,6.26-5.41a12.63,12.63,0,0,1,2.64.29l-.22,1.67a12.46,12.46,0,0,0-2.1-.21c-3.71,0-4.6.79-4.6,3.68Zm0,1.84v2.73c0,1.69.86,2.2,2.68,2.2,2.06,0,2.61-.63,2.61-2.2v-1.32c0-1.46-.55-2.06-2.3-2.06A8.11,8.11,0,0,0,623,266.13Z"/><path class="cls-2" d="M632.5,265.1h8.76v1.65H632.5Z"/><path class="cls-2" d="M652.12,268.78v3.81h-2v-3.81h-7.37v-2l6.68-9.67h2.7v9.93h2.23v1.72Zm-2-1.72v-7.89l-5.38,7.89Z"/><path class="cls-2" d="M658.25,264.29a10.56,10.56,0,0,1,3.18-.55c3,0,4.09,1.26,4.09,3.8v.77c0,2.79-.76,4.52-4.59,4.52-3.45,0-4.67-1.44-4.67-3.69V262.3c0-4,1.77-5.41,6.27-5.41a12.54,12.54,0,0,1,2.63.29l-.21,1.67a12.57,12.57,0,0,0-2.11-.21c-3.71,0-4.59.79-4.59,3.68Zm0,1.84v2.73c0,1.69.86,2.2,2.68,2.2,2.06,0,2.61-.63,2.61-2.2v-1.32c0-1.46-.55-2.06-2.3-2.06A8.11,8.11,0,0,0,658.25,266.13Z"/><path class="cls-2" d="M670.53,262.35a2.73,2.73,0,1,1,2.72-2.73A2.58,2.58,0,0,1,670.53,262.35Zm0-4.38a1.66,1.66,0,1,0,1.5,1.65A1.47,1.47,0,0,0,670.53,258Z"/><path class="cls-2" d="M676.25,272.59V256.65h9.47v1.85H678.3v5.31h6.92v1.84H678.3v6.94Z"/><path class="cls-2" d="M688.12,254.36a18.15,18.15,0,0,1,0,21.91l-1.44-.95a17.65,17.65,0,0,0,0-20Z"/><path class="cls-2" d="M705.94,257.59a11.89,11.89,0,0,0-1.94-.22c-1.24,0-1.55.43-1.55,1.6v2h3.33l-.17,1.67h-3.16v10h-2v-10h-2.06v-1.67h2.06v-2.16c0-2.06,1.15-3.08,3.3-3.08a8.17,8.17,0,0,1,2.37.33Z"/><path class="cls-2" d="M711.69,272.83c-3.4,0-4.74-1.94-4.74-4.38v-3.37c0-2.45,1.34-4.38,4.74-4.38s4.73,1.93,4.73,4.38v3.37C716.42,270.89,715.08,272.83,711.69,272.83Zm0-10.39c-1.82,0-2.73.86-2.73,2.56v3.52c0,1.7.91,2.56,2.73,2.56s2.72-.86,2.72-2.56V265C714.41,263.3,713.51,262.44,711.69,262.44Z"/><path class="cls-2" d="M724.51,262.54a25.46,25.46,0,0,0-3.32,2v8h-2V260.94h1.74l.12,1.62a15.1,15.1,0,0,1,3.21-1.86Z"/><path class="cls-2" d="M737.77,272.59v-8.9c0-.77-.38-1.08-1.12-1.08a10.9,10.9,0,0,0-3.9,1.17v8.81h-2V260.94h1.62l.19,1a12.77,12.77,0,0,1,4.69-1.24c1.87,0,2.54,1.17,2.54,3v8.93Z"/><path class="cls-2" d="M747.15,272.83c-3.39,0-4.73-1.94-4.73-4.38v-3.37c0-2.45,1.34-4.38,4.73-4.38s4.74,1.93,4.74,4.38v3.37C751.89,270.89,750.55,272.83,747.15,272.83Zm0-10.39c-1.82,0-2.73.86-2.73,2.56v3.52c0,1.7.91,2.56,2.73,2.56s2.73-.86,2.73-2.56V265C749.88,263.3,749,262.44,747.15,262.44Z"/><path class="cls-2" d="M773.38,272.59v-8.9c0-.77-.38-1.08-1.13-1.08a10.51,10.51,0,0,0-3.9,1.17v8.81h-2v-8.9c0-.77-.38-1.08-1.12-1.08a11,11,0,0,0-3.9,1.17v8.81h-2V260.94h1.63l.19,1a12.67,12.67,0,0,1,4.69-1.24,2.13,2.13,0,0,1,2.22,1.24,12.47,12.47,0,0,1,4.81-1.24c1.87,0,2.54,1.17,2.54,3v8.93Z"/><path class="cls-2" d="M782.76,272.83c-3.4,0-4.74-1.94-4.74-4.38v-3.37c0-2.45,1.34-4.38,4.74-4.38s4.74,1.93,4.74,4.38v3.37C787.5,270.89,786.16,272.83,782.76,272.83Zm0-10.39c-1.82,0-2.73.86-2.73,2.56v3.52c0,1.7.91,2.56,2.73,2.56s2.73-.86,2.73-2.56V265C785.49,263.3,784.58,262.44,782.76,262.44Z"/><path class="cls-2" d="M795.59,262.54a26.27,26.27,0,0,0-3.33,2v8h-2V260.94H792l.12,1.62a14.85,14.85,0,0,1,3.21-1.86Z"/><path class="cls-2" d="M801.33,271.1a14.61,14.61,0,0,0,3.69-.55l.26,1.61a12.87,12.87,0,0,1-4.11.67c-3.45,0-4.62-1.65-4.62-4.29v-3.49c0-2.42,1.1-4.35,4.57-4.35s4.38,2,4.38,4.4v2.44h-6.94v1C798.56,270.36,799.06,271.1,801.33,271.1Zm-2.77-5.24h5v-.95c0-1.63-.55-2.54-2.44-2.54s-2.56.91-2.56,2.54Z"/><path class="cls-2" d="M818.92,272.4a7.35,7.35,0,0,1-2.44.43c-2,0-2.89-.72-2.89-2.66v-7.56h-2.06v-1.67h2.06v-2.88l2-.28v3.16h3.3l-.17,1.67H815.6v7.23c0,.86.12,1.29,1.19,1.29a7.5,7.5,0,0,0,1.87-.29Z"/><path class="cls-2" d="M828.23,272.59v-8.9c0-.77-.38-1.08-1.12-1.08a10.82,10.82,0,0,0-3.9,1.2v8.78h-2V256.17l2-.28v6a11.64,11.64,0,0,1,4.49-1.22c1.87,0,2.54,1.17,2.54,3v8.93Z"/><path class="cls-2" d="M841.73,272.59H840l-.12-.86a6.7,6.7,0,0,1-3.78,1.1c-2.18,0-3.09-1.3-3.09-3.35,0-2.42,1.22-3.28,3.57-3.28h3.11v-1.82c0-1.46-.65-2-2.54-2a19.42,19.42,0,0,0-3.49.38l-.22-1.6a16.32,16.32,0,0,1,3.83-.5c3.33,0,4.43,1.29,4.43,3.78Zm-2-4.72h-3c-1.24,0-1.7.39-1.7,1.56s.22,1.67,1.65,1.67a5.87,5.87,0,0,0,3-1Z"/><path class="cls-2" d="M851.83,272.59v-8.9c0-.77-.39-1.08-1.13-1.08a11,11,0,0,0-3.9,1.17v8.81h-2V260.94h1.63l.19,1a12.67,12.67,0,0,1,4.69-1.24c1.87,0,2.54,1.17,2.54,3v8.93Z"/><path class="cls-2" d="M861,270.75c1.77-2,2.22-2.54,4.11-4.77,2.44-2.89,2.61-3.51,2.61-4.64v-.69c0-1.51-.41-2-2.82-2a14.71,14.71,0,0,0-3.54.52l-.29-1.72a15.15,15.15,0,0,1,4-.6c3.69,0,4.67,1.29,4.67,3.73v.53c0,1.89-.34,2.7-2.73,5.55-1.72,2.06-2,2.37-3.52,4.12h6.39v1.77H861Z"/><path class="cls-2" d="M880.88,268.78v3.81h-2v-3.81H871.5v-2l6.67-9.67h2.71v9.93h2.22v1.72Zm-2-1.72v-7.89l-5.39,7.89Z"/><path class="cls-2" d="M897,272.59v-8.9c0-.77-.38-1.08-1.13-1.08a10.94,10.94,0,0,0-3.9,1.2v8.78h-2V256.17l2-.28v6a11.73,11.73,0,0,1,4.5-1.22c1.87,0,2.54,1.17,2.54,3v8.93Z"/><path class="cls-2" d="M906.34,272.83c-3.4,0-4.74-1.94-4.74-4.38v-3.37c0-2.45,1.34-4.38,4.74-4.38s4.74,1.93,4.74,4.38v3.37C911.08,270.89,909.74,272.83,906.34,272.83Zm0-10.39c-1.82,0-2.73.86-2.73,2.56v3.52c0,1.7.91,2.56,2.73,2.56s2.73-.86,2.73-2.56V265C909.07,263.3,908.16,262.44,906.34,262.44Z"/><path class="cls-2" d="M915.72,260.94v8.9c0,.76.38,1.07,1.13,1.07a10.81,10.81,0,0,0,3.9-1.17v-8.8h2v11.65h-1.63l-.19-1a12.68,12.68,0,0,1-4.69,1.25c-1.87,0-2.54-1.18-2.54-3v-8.92Z"/><path class="cls-2" d="M931.44,262.54a25.46,25.46,0,0,0-3.32,2v8h-2V260.94h1.74l.12,1.62a15.1,15.1,0,0,1,3.21-1.86Z"/><path class="cls-2" d="M936.23,272.83a11.85,11.85,0,0,1-3.71-.63l.26-1.57a13.72,13.72,0,0,0,3.33.47c1.84,0,2.15-.33,2.15-1.57s-.09-1.39-2.44-2c-2.89-.71-3.16-1.31-3.16-3.73,0-2.15,1-3.13,4-3.13a13.34,13.34,0,0,1,3.31.4l-.15,1.65a18.83,18.83,0,0,0-3.23-.33c-1.72,0-2,.41-2,1.46,0,1.29,0,1.53,2,2,3.35.84,3.61,1.24,3.61,3.56S939.56,272.83,936.23,272.83Z"/><path class="cls-2" d="M954.06,257.59a12,12,0,0,0-1.94-.22c-1.24,0-1.56.43-1.56,1.6v2h3.33l-.17,1.67h-3.16v10h-2v-10h-2v-1.67h2v-2.16c0-2.06,1.15-3.08,3.31-3.08a8.21,8.21,0,0,1,2.37.33Z"/><path class="cls-2" d="M961,262.54a26.27,26.27,0,0,0-3.33,2v8h-2V260.94h1.75l.12,1.62a14.85,14.85,0,0,1,3.21-1.86Z"/><path class="cls-2" d="M966.69,272.83c-3.39,0-4.73-1.94-4.73-4.38v-3.37c0-2.45,1.34-4.38,4.73-4.38s4.74,1.93,4.74,4.38v3.37C971.43,270.89,970.09,272.83,966.69,272.83Zm0-10.39c-1.81,0-2.72.86-2.72,2.56v3.52c0,1.7.91,2.56,2.72,2.56s2.73-.86,2.73-2.56V265C969.42,263.3,968.51,262.44,966.69,262.44Z"/><path class="cls-2" d="M988.25,272.59v-8.9c0-.77-.38-1.08-1.12-1.08a10.41,10.41,0,0,0-3.9,1.17v8.81h-2v-8.9c0-.77-.38-1.08-1.13-1.08a11,11,0,0,0-3.9,1.17v8.81h-2V260.94h1.62l.19,1a12.77,12.77,0,0,1,4.69-1.24,2.15,2.15,0,0,1,2.23,1.24,12.47,12.47,0,0,1,4.81-1.24c1.86,0,2.53,1.17,2.53,3v8.93Z"/><path class="cls-2" d="M1004.24,272.4a7.35,7.35,0,0,1-2.44.43c-2,0-2.89-.72-2.89-2.66v-7.56h-2.06v-1.67h2.06v-2.88l2-.28v3.16h3.3l-.17,1.67h-3.13v7.23c0,.86.12,1.29,1.19,1.29a7.5,7.5,0,0,0,1.87-.29Z"/><path class="cls-2" d="M1013.55,272.59v-8.9c0-.77-.38-1.08-1.12-1.08a10.82,10.82,0,0,0-3.9,1.2v8.78h-2V256.17l2-.28v6a11.64,11.64,0,0,1,4.49-1.22c1.87,0,2.54,1.17,2.54,3v8.93Z"/><path class="cls-2" d="M1023,271.1a14.47,14.47,0,0,0,3.68-.55l.27,1.61a12.88,12.88,0,0,1-4.12.67c-3.44,0-4.62-1.65-4.62-4.29v-3.49c0-2.42,1.1-4.35,4.57-4.35s4.38,2,4.38,4.4v2.44h-6.94v1C1020.2,270.36,1020.71,271.1,1023,271.1Zm-2.78-5.24h5v-.95c0-1.63-.55-2.54-2.44-2.54s-2.56.91-2.56,2.54Z"/><path class="cls-2" d="M1040.57,272.4a7.35,7.35,0,0,1-2.44.43c-2,0-2.9-.72-2.9-2.66v-7.56h-2.06v-1.67h2.06v-2.88l2-.28v3.16h3.3l-.16,1.67h-3.14v7.23c0,.86.12,1.29,1.2,1.29a7.43,7.43,0,0,0,1.86-.29Z"/><path class="cls-2" d="M1042.84,259.07v-2.9h2v2.9Zm0,13.52V260.94h2v11.65Z"/><path class="cls-2" d="M1062.27,272.59v-8.9c0-.77-.38-1.08-1.12-1.08a10.41,10.41,0,0,0-3.9,1.17v8.81h-2v-8.9c0-.77-.39-1.08-1.13-1.08a11,11,0,0,0-3.9,1.17v8.81h-2V260.94h1.63l.19,1a12.67,12.67,0,0,1,4.69-1.24,2.15,2.15,0,0,1,2.23,1.24,12.42,12.42,0,0,1,4.8-1.24c1.87,0,2.54,1.17,2.54,3v8.93Z"/><path class="cls-2" d="M1071.7,271.1a14.61,14.61,0,0,0,3.69-.55l.26,1.61a12.88,12.88,0,0,1-4.12.67c-3.44,0-4.61-1.65-4.61-4.29v-3.49c0-2.42,1.1-4.35,4.57-4.35s4.38,2,4.38,4.4v2.44h-6.94v1C1068.93,270.36,1069.43,271.1,1071.7,271.1Zm-2.77-5.24h5v-.95c0-1.63-.55-2.54-2.44-2.54s-2.56.91-2.56,2.54Z"/><path class="cls-2" d="M1087.35,272.83c-3.39,0-4.73-1.94-4.73-4.38v-3.37c0-2.45,1.34-4.38,4.73-4.38s4.74,1.93,4.74,4.38v3.37C1092.09,270.89,1090.75,272.83,1087.35,272.83Zm0-10.39c-1.82,0-2.72.86-2.72,2.56v3.52c0,1.7.9,2.56,2.72,2.56s2.73-.86,2.73-2.56V265C1090.08,263.3,1089.17,262.44,1087.35,262.44Z"/><path class="cls-2" d="M1101.21,257.59a12,12,0,0,0-1.94-.22c-1.24,0-1.55.43-1.55,1.6v2H1101l-.17,1.67h-3.15v10h-2v-10h-2.06v-1.67h2.06v-2.16c0-2.06,1.14-3.08,3.3-3.08a8.21,8.21,0,0,1,2.37.33Z"/><path class="cls-2" d="M1116.6,269c0,2.32-1.06,3.81-3.78,3.81a18.76,18.76,0,0,1-3.33-.36v4.83l-2,.29V260.94h1.7l.17,1.05a6.16,6.16,0,0,1,3.85-1.29c2.3,0,3.4,1.22,3.4,3.56Zm-7.11,1.68a19.3,19.3,0,0,0,3.21.36c1.34,0,1.89-.63,1.89-2v-4.76c0-1.19-.39-1.79-1.8-1.79a5.4,5.4,0,0,0-3.3,1.38Z"/><path class="cls-2" d="M1124.85,262.54a25.46,25.46,0,0,0-3.32,2v8h-2V260.94h1.74l.12,1.62a15.1,15.1,0,0,1,3.21-1.86Z"/><path class="cls-2" d="M1130.6,271.1a14.6,14.6,0,0,0,3.68-.55l.26,1.61a12.82,12.82,0,0,1-4.11.67c-3.45,0-4.62-1.65-4.62-4.29v-3.49c0-2.42,1.1-4.35,4.57-4.35s4.38,2,4.38,4.4v2.44h-6.94v1C1127.82,270.36,1128.32,271.1,1130.6,271.1Zm-2.78-5.24h5v-.95c0-1.63-.55-2.54-2.44-2.54s-2.56.91-2.56,2.54Z"/><path class="cls-2" d="M1146.56,269c0,2.32-1.06,3.81-3.78,3.81a18.76,18.76,0,0,1-3.33-.36v4.83l-2,.29V260.94h1.7l.17,1.05a6.16,6.16,0,0,1,3.85-1.29c2.3,0,3.4,1.22,3.4,3.56Zm-7.11,1.68a19.3,19.3,0,0,0,3.21.36c1.34,0,1.89-.63,1.89-2v-4.76c0-1.19-.39-1.79-1.8-1.79a5.4,5.4,0,0,0-3.3,1.38Z"/><path class="cls-2" d="M1157.73,272.59H1156l-.11-.86a6.71,6.71,0,0,1-3.79,1.1c-2.17,0-3.08-1.3-3.08-3.35,0-2.42,1.22-3.28,3.56-3.28h3.11v-1.82c0-1.46-.64-2-2.53-2a19.44,19.44,0,0,0-3.5.38l-.21-1.6a16.25,16.25,0,0,1,3.83-.5c3.32,0,4.42,1.29,4.42,3.78Zm-2-4.72h-3c-1.25,0-1.7.39-1.7,1.56s.21,1.67,1.65,1.67a5.84,5.84,0,0,0,3-1Z"/><path class="cls-2" d="M1166.13,262.54a26.15,26.15,0,0,0-3.32,2v8h-2V260.94h1.75l.11,1.62a15.1,15.1,0,0,1,3.21-1.86Z"/><path class="cls-2" d="M1175.94,272.59h-1.69l-.12-.86a6.7,6.7,0,0,1-3.78,1.1c-2.18,0-3.09-1.3-3.09-3.35,0-2.42,1.22-3.28,3.56-3.28h3.11v-1.82c0-1.46-.64-2-2.53-2a19.22,19.22,0,0,0-3.49.38l-.22-1.6a16.25,16.25,0,0,1,3.83-.5c3.32,0,4.42,1.29,4.42,3.78Zm-2-4.72h-3c-1.25,0-1.7.39-1.7,1.56s.21,1.67,1.65,1.67a5.84,5.84,0,0,0,3-1Z"/><path class="cls-2" d="M1185.09,272.4a7.35,7.35,0,0,1-2.44.43c-2,0-2.9-.72-2.9-2.66v-7.56h-2.06v-1.67h2.06v-2.88l2-.28v3.16h3.3l-.16,1.67h-3.14v7.23c0,.86.12,1.29,1.2,1.29a7.43,7.43,0,0,0,1.86-.29Z"/><path class="cls-2" d="M1187.36,259.07v-2.9h2v2.9Zm0,13.52V260.94h2v11.65Z"/><path class="cls-2" d="M1196.86,272.83c-3.4,0-4.74-1.94-4.74-4.38v-3.37c0-2.45,1.34-4.38,4.74-4.38s4.74,1.93,4.74,4.38v3.37C1201.6,270.89,1200.26,272.83,1196.86,272.83Zm0-10.39c-1.82,0-2.73.86-2.73,2.56v3.52c0,1.7.91,2.56,2.73,2.56s2.73-.86,2.73-2.56V265C1199.59,263.3,1198.68,262.44,1196.86,262.44Z"/><path class="cls-2" d="M1211.39,272.59v-8.9c0-.77-.39-1.08-1.13-1.08a11,11,0,0,0-3.9,1.17v8.81h-2V260.94H1206l.19,1a12.67,12.67,0,0,1,4.69-1.24c1.87,0,2.54,1.17,2.54,3v8.93Z"/><path class="cls-2" d="M1216.7,269.84h2.06v2.75l-1.44,2.87-.93-.46,1-2.41h-.69Z"/><path class="cls-2" d="M1231,272.83c-3.39,0-4.73-1.94-4.73-4.38v-3.37c0-2.45,1.34-4.38,4.73-4.38s4.74,1.93,4.74,4.38v3.37C1235.77,270.89,1234.43,272.83,1231,272.83Zm0-10.39c-1.81,0-2.72.86-2.72,2.56v3.52c0,1.7.91,2.56,2.72,2.56s2.73-.86,2.73-2.56V265C1233.76,263.3,1232.85,262.44,1231,262.44Z"/><path class="cls-2" d="M1244.89,257.59a12,12,0,0,0-1.94-.22c-1.24,0-1.55.43-1.55,1.6v2h3.32l-.16,1.67h-3.16v10h-2v-10h-2.06v-1.67h2.06v-2.16c0-2.06,1.15-3.08,3.3-3.08a8.21,8.21,0,0,1,2.37.33Z"/><path class="cls-2" d="M1260.4,272.59l-2.83-9.88-2.82,9.88h-2.58l-2.49-11.65h1.91l1.94,9.66,2.82-9.66h2.44l2.83,9.66,1.93-9.66h1.92L1263,272.59Z"/><path class="cls-2" d="M1274.37,272.59v-8.9c0-.77-.38-1.08-1.12-1.08a10.88,10.88,0,0,0-3.9,1.2v8.78h-2V256.17l2-.28v6a11.64,11.64,0,0,1,4.5-1.22c1.86,0,2.53,1.17,2.53,3v8.93Z"/><path class="cls-2" d="M1279.62,259.07v-2.9h2v2.9Zm0,13.52V260.94h2v11.65Z"/><path class="cls-2" d="M1284.26,268.59v-3.66c0-2.68,1-4.23,4.64-4.23a10.12,10.12,0,0,1,2.77.36l-.16,1.67a12.35,12.35,0,0,0-2.56-.26c-2,0-2.68.57-2.68,2.39v3.8c0,1.82.67,2.4,2.68,2.4a12.4,12.4,0,0,0,2.56-.27l.19,1.68a10.84,10.84,0,0,1-2.8.36C1285.17,272.83,1284.26,271.27,1284.26,268.59Z"/><path class="cls-2" d="M1301.32,272.59v-8.9c0-.77-.38-1.08-1.13-1.08a10.94,10.94,0,0,0-3.9,1.2v8.78h-2V256.17l2-.28v6a11.73,11.73,0,0,1,4.5-1.22c1.87,0,2.54,1.17,2.54,3v8.93Z"/><path class="cls-2" d="M342.79,299.71v-8.9c0-.77-.38-1.08-1.12-1.08a10.79,10.79,0,0,0-3.9,1.18v8.8h-2V288.06h1.63l.19,1a12.67,12.67,0,0,1,4.69-1.24c1.86,0,2.53,1.17,2.53,3v8.92Z"/><path class="cls-2" d="M352.17,300c-3.39,0-4.73-1.94-4.73-4.38V292.2c0-2.44,1.34-4.38,4.73-4.38s4.74,1.94,4.74,4.38v3.37C356.91,298,355.57,300,352.17,300Zm0-10.38c-1.81,0-2.72.86-2.72,2.56v3.51c0,1.7.91,2.56,2.72,2.56s2.73-.86,2.73-2.56v-3.51C354.9,290.43,354,289.57,352.17,289.57Z"/><path class="cls-2" d="M378.4,299.71v-8.9c0-.77-.38-1.08-1.12-1.08a10.26,10.26,0,0,0-3.9,1.18v8.8h-2v-8.9c0-.77-.39-1.08-1.13-1.08a10.85,10.85,0,0,0-3.9,1.18v8.8h-2V288.06H366l.19,1a12.67,12.67,0,0,1,4.69-1.24,2.15,2.15,0,0,1,2.23,1.24,12.42,12.42,0,0,1,4.8-1.24c1.87,0,2.54,1.17,2.54,3v8.92Z"/><path class="cls-2" d="M387.78,300c-3.39,0-4.73-1.94-4.73-4.38V292.2c0-2.44,1.34-4.38,4.73-4.38s4.74,1.94,4.74,4.38v3.37C392.52,298,391.18,300,387.78,300Zm0-10.38c-1.81,0-2.72.86-2.72,2.56v3.51c0,1.7.91,2.56,2.72,2.56s2.73-.86,2.73-2.56v-3.51C390.51,290.43,389.6,289.57,387.78,289.57Z"/><path class="cls-2" d="M400.61,289.66a25.46,25.46,0,0,0-3.32,2v8h-2V288.06H397l.12,1.62a14.85,14.85,0,0,1,3.21-1.86Z"/><path class="cls-2" d="M406.36,298.23a15.06,15.06,0,0,0,3.68-.55l.26,1.6a12.55,12.55,0,0,1-4.11.67c-3.45,0-4.62-1.65-4.62-4.28v-3.5c0-2.41,1.1-4.35,4.57-4.35s4.38,2,4.38,4.4v2.44h-6.94v1C403.58,297.48,404.08,298.23,406.36,298.23ZM403.58,293h5v-1c0-1.63-.55-2.54-2.44-2.54s-2.56.91-2.56,2.54Z"/><path class="cls-2" d="M423.94,299.52a7.3,7.3,0,0,1-2.44.43c-2,0-2.89-.72-2.89-2.66v-7.56h-2.06v-1.67h2.06v-2.87l2-.29v3.16h3.3l-.17,1.67h-3.13V297c0,.86.12,1.29,1.19,1.29a7.5,7.5,0,0,0,1.87-.29Z"/><path class="cls-2" d="M433.25,299.71v-8.9c0-.77-.38-1.08-1.12-1.08a10.88,10.88,0,0,0-3.9,1.2v8.78h-2V283.3l2-.29v6a11.81,11.81,0,0,1,4.5-1.22c1.86,0,2.53,1.17,2.53,3v8.92Z"/><path class="cls-2" d="M446.75,299.71h-1.7l-.12-.86a6.62,6.62,0,0,1-3.78,1.1c-2.18,0-3.09-1.29-3.09-3.35,0-2.42,1.22-3.28,3.57-3.28h3.11V291.5c0-1.46-.65-2-2.54-2a19.42,19.42,0,0,0-3.49.38l-.22-1.6a16.39,16.39,0,0,1,3.83-.5c3.33,0,4.43,1.29,4.43,3.78Zm-2-4.71h-3c-1.24,0-1.7.38-1.7,1.55s.22,1.68,1.65,1.68a5.88,5.88,0,0,0,3-1Z"/><path class="cls-2" d="M456.85,299.71v-8.9c0-.77-.38-1.08-1.13-1.08a10.85,10.85,0,0,0-3.9,1.18v8.8h-2V288.06h1.63l.19,1a12.67,12.67,0,0,1,4.69-1.24c1.87,0,2.54,1.17,2.54,3v8.92Z"/><path class="cls-2" d="M473.12,284.71a11.89,11.89,0,0,0-1.94-.22c-1.24,0-1.55.43-1.55,1.61v2H473l-.16,1.67h-3.16v10h-2v-10h-2.06v-1.67h2.06V285.9c0-2,1.15-3.08,3.3-3.08a8.17,8.17,0,0,1,2.37.33Z"/><path class="cls-2" d="M478.86,300c-3.39,0-4.73-1.94-4.73-4.38V292.2c0-2.44,1.34-4.38,4.73-4.38s4.74,1.94,4.74,4.38v3.37C483.6,298,482.26,300,478.86,300Zm0-10.38c-1.81,0-2.72.86-2.72,2.56v3.51c0,1.7.91,2.56,2.72,2.56s2.73-.86,2.73-2.56v-3.51C481.59,290.43,480.68,289.57,478.86,289.57Z"/><path class="cls-2" d="M488.25,288.06V297c0,.76.38,1.07,1.12,1.07a10.75,10.75,0,0,0,3.9-1.17v-8.8h2v11.65h-1.63l-.19-1a12.49,12.49,0,0,1-4.69,1.25c-1.86,0-2.53-1.17-2.53-3v-8.92Z"/><path class="cls-2" d="M504,289.66a26.27,26.27,0,0,0-3.33,2v8h-2V288.06h1.75l.12,1.62a15,15,0,0,1,3.2-1.86Z"/><path class="cls-2" d="M517.23,299.71v-8.9c0-.77-.39-1.08-1.13-1.08a10.88,10.88,0,0,0-3.9,1.2v8.78h-2V283.3l2-.29v6a11.86,11.86,0,0,1,4.5-1.22c1.87,0,2.54,1.17,2.54,3v8.92Z"/><path class="cls-2" d="M526.61,300c-3.4,0-4.74-1.94-4.74-4.38V292.2c0-2.44,1.34-4.38,4.74-4.38s4.73,1.94,4.73,4.38v3.37C531.34,298,530,300,526.61,300Zm0-10.38c-1.82,0-2.73.86-2.73,2.56v3.51c0,1.7.91,2.56,2.73,2.56s2.72-.86,2.72-2.56v-3.51C529.33,290.43,528.42,289.57,526.61,289.57Z"/><path class="cls-2" d="M536,288.06V297c0,.76.38,1.07,1.12,1.07a10.75,10.75,0,0,0,3.9-1.17v-8.8h2v11.65H541.4l-.2-1a12.49,12.49,0,0,1-4.69,1.25c-1.86,0-2.53-1.17-2.53-3v-8.92Z"/><path class="cls-2" d="M551.71,289.66a26.27,26.27,0,0,0-3.33,2v8h-2V288.06h1.75l.12,1.62a14.85,14.85,0,0,1,3.21-1.86Z"/><path class="cls-2" d="M556.5,300a11.86,11.86,0,0,1-3.71-.62l.26-1.58a13.67,13.67,0,0,0,3.33.48c1.84,0,2.15-.34,2.15-1.58s-.1-1.39-2.44-2c-2.9-.72-3.16-1.32-3.16-3.74,0-2.15,1-3.13,4-3.13a12.75,12.75,0,0,1,3.3.41l-.14,1.65a17.9,17.9,0,0,0-3.23-.34c-1.72,0-2,.41-2,1.46,0,1.29,0,1.53,2,2,3.35.84,3.62,1.24,3.62,3.57S559.82,300,556.5,300Z"/><path class="cls-2" d="M582,299.71v-8.9c0-.77-.38-1.08-1.13-1.08a10.36,10.36,0,0,0-3.9,1.18v8.8h-2v-8.9c0-.77-.38-1.08-1.12-1.08a10.79,10.79,0,0,0-3.9,1.18v8.8h-2V288.06h1.63l.19,1a12.67,12.67,0,0,1,4.69-1.24,2.13,2.13,0,0,1,2.22,1.24,12.47,12.47,0,0,1,4.81-1.24c1.87,0,2.54,1.17,2.54,3v8.92Z"/><path class="cls-2" d="M595.53,299.71h-1.7l-.12-.86a6.62,6.62,0,0,1-3.78,1.1c-2.18,0-3.09-1.29-3.09-3.35,0-2.42,1.22-3.28,3.57-3.28h3.11V291.5c0-1.46-.65-2-2.54-2a19.42,19.42,0,0,0-3.49.38l-.22-1.6a16.32,16.32,0,0,1,3.83-.5c3.33,0,4.43,1.29,4.43,3.78Zm-2-4.71h-3c-1.24,0-1.7.38-1.7,1.55s.22,1.68,1.65,1.68a5.88,5.88,0,0,0,3-1Z"/><path class="cls-2" d="M601.49,299.71h-.84l-3.78-11.65h2L602,298.11l3.23-10.05h2l-3.85,11.65-1.65,4.71h-1.89Z"/><path class="cls-2" d="M622.62,295.59c0,2.66-1,4.36-5,4.36a20.24,20.24,0,0,1-4.16-.46V283.3l2-.29v5.62a8.4,8.4,0,0,1,3.68-.81c2.42,0,3.43,1.41,3.43,3.64ZM615.51,298a15.49,15.49,0,0,0,2.3.17c2.37,0,2.8-1,2.8-2.51v-4.29c0-1.19-.53-1.79-1.89-1.79a8.66,8.66,0,0,0-3.21.88Z"/><path class="cls-2" d="M629.63,298.23a14.92,14.92,0,0,0,3.68-.55l.27,1.6a12.61,12.61,0,0,1-4.12.67c-3.44,0-4.62-1.65-4.62-4.28v-3.5c0-2.41,1.1-4.35,4.57-4.35s4.38,2,4.38,4.4v2.44h-6.94v1C626.85,297.48,627.36,298.23,629.63,298.23ZM626.85,293h5v-1c0-1.63-.55-2.54-2.44-2.54s-2.56.91-2.56,2.54Z"/><path class="cls-2" d="M649.4,299.71h-1.7l-.12-.86a6.62,6.62,0,0,1-3.78,1.1c-2.18,0-3.09-1.29-3.09-3.35,0-2.42,1.22-3.28,3.57-3.28h3.11V291.5c0-1.46-.65-2-2.54-2a19.32,19.32,0,0,0-3.49.38l-.22-1.6a16.25,16.25,0,0,1,3.83-.5c3.32,0,4.43,1.29,4.43,3.78Zm-2-4.71h-3c-1.25,0-1.7.38-1.7,1.55s.22,1.68,1.65,1.68a5.88,5.88,0,0,0,3-1Z"/><path class="cls-2" d="M658.54,299.52a7.35,7.35,0,0,1-2.44.43c-2,0-2.9-.72-2.9-2.66v-7.56h-2.06v-1.67h2.06v-2.87l2-.29v3.16h3.3l-.16,1.67h-3.14V297c0,.86.12,1.29,1.2,1.29a7.43,7.43,0,0,0,1.86-.29Z"/><path class="cls-2" d="M670.81,289.66a25.46,25.46,0,0,0-3.32,2v8h-2V288.06h1.74l.12,1.62a15.1,15.1,0,0,1,3.21-1.86Z"/><path class="cls-2" d="M676.51,300c-3.4,0-4.74-1.94-4.74-4.38V292.2c0-2.44,1.34-4.38,4.74-4.38s4.74,1.94,4.74,4.38v3.37C681.25,298,679.91,300,676.51,300Zm0-10.38c-1.82,0-2.73.86-2.73,2.56v3.51c0,1.7.91,2.56,2.73,2.56s2.73-.86,2.73-2.56v-3.51C679.24,290.43,678.33,289.57,676.51,289.57Z"/><path class="cls-2" d="M688.14,300c-3.4,0-4.74-1.94-4.74-4.38V292.2c0-2.44,1.34-4.38,4.74-4.38s4.74,1.94,4.74,4.38v3.37C692.88,298,691.54,300,688.14,300Zm0-10.38c-1.82,0-2.73.86-2.73,2.56v3.51c0,1.7.91,2.56,2.73,2.56s2.73-.86,2.73-2.56v-3.51C690.87,290.43,690,289.57,688.14,289.57Z"/><path class="cls-2" d="M709.7,299.71v-8.9c0-.77-.38-1.08-1.12-1.08a10.26,10.26,0,0,0-3.9,1.18v8.8h-2v-8.9c0-.77-.39-1.08-1.13-1.08a10.85,10.85,0,0,0-3.9,1.18v8.8h-2V288.06h1.63l.19,1a12.67,12.67,0,0,1,4.69-1.24,2.12,2.12,0,0,1,2.22,1.24,12.47,12.47,0,0,1,4.81-1.24c1.87,0,2.54,1.17,2.54,3v8.92Z"/><path class="cls-2" d="M725.69,299.52a7.35,7.35,0,0,1-2.44.43c-2,0-2.9-.72-2.9-2.66v-7.56h-2.06v-1.67h2.06v-2.87l2-.29v3.16h3.3l-.16,1.67h-3.14V297c0,.86.12,1.29,1.2,1.29a7.43,7.43,0,0,0,1.86-.29Z"/><path class="cls-2" d="M732.15,298.23a14.92,14.92,0,0,0,3.68-.55l.27,1.6A12.61,12.61,0,0,1,732,300c-3.44,0-4.62-1.65-4.62-4.28v-3.5c0-2.41,1.11-4.35,4.57-4.35s4.38,2,4.38,4.4v2.44h-6.94v1C729.37,297.48,729.88,298.23,732.15,298.23ZM729.37,293h5v-1c0-1.63-.55-2.54-2.44-2.54s-2.56.91-2.56,2.54Z"/><path class="cls-2" d="M753.06,299.71v-8.9c0-.77-.38-1.08-1.12-1.08a10.26,10.26,0,0,0-3.9,1.18v8.8h-2v-8.9c0-.77-.38-1.08-1.13-1.08a10.85,10.85,0,0,0-3.9,1.18v8.8h-2V288.06h1.63l.19,1a12.67,12.67,0,0,1,4.69-1.24,2.15,2.15,0,0,1,2.23,1.24,12.42,12.42,0,0,1,4.81-1.24c1.86,0,2.53,1.17,2.53,3v8.92Z"/><path class="cls-2" d="M767.42,296.14c0,2.33-1,3.81-3.78,3.81a18.65,18.65,0,0,1-3.32-.36v4.83l-2,.29V288.06H760l.16,1.05a6.25,6.25,0,0,1,3.86-1.29c2.29,0,3.39,1.22,3.39,3.56Zm-7.1,1.68a19.19,19.19,0,0,0,3.2.36c1.34,0,1.89-.62,1.89-2v-4.76c0-1.19-.38-1.79-1.79-1.79a5.35,5.35,0,0,0-3.3,1.39Z"/><path class="cls-2" d="M774.53,298.23a15.07,15.07,0,0,0,3.69-.55l.26,1.6a12.61,12.61,0,0,1-4.12.67c-3.44,0-4.61-1.65-4.61-4.28v-3.5c0-2.41,1.1-4.35,4.57-4.35s4.37,2,4.37,4.4v2.44h-6.93v1C771.76,297.48,772.26,298.23,774.53,298.23ZM771.76,293h5v-1c0-1.63-.55-2.54-2.44-2.54s-2.56.91-2.56,2.54Z"/><path class="cls-2" d="M786.71,289.66a25.46,25.46,0,0,0-3.32,2v8h-2V288.06h1.74l.12,1.62a14.85,14.85,0,0,1,3.21-1.86Z"/><path class="cls-2" d="M796.52,299.71h-1.7l-.12-.86a6.58,6.58,0,0,1-3.78,1.1c-2.17,0-3.08-1.29-3.08-3.35,0-2.42,1.22-3.28,3.56-3.28h3.11V291.5c0-1.46-.64-2-2.53-2a19.44,19.44,0,0,0-3.5.38l-.21-1.6a16.25,16.25,0,0,1,3.83-.5c3.32,0,4.42,1.29,4.42,3.78Zm-2-4.71h-3c-1.25,0-1.7.38-1.7,1.55s.21,1.68,1.65,1.68a5.85,5.85,0,0,0,3-1Z"/><path class="cls-2" d="M805.66,299.52a7.25,7.25,0,0,1-2.44.43c-2,0-2.89-.72-2.89-2.66v-7.56h-2.06v-1.67h2.06v-2.87l2-.29v3.16h3.3l-.17,1.67h-3.13V297c0,.86.12,1.29,1.2,1.29a7.43,7.43,0,0,0,1.86-.29Z"/><path class="cls-2" d="M809.83,288.06V297c0,.76.38,1.07,1.12,1.07a10.7,10.7,0,0,0,3.9-1.17v-8.8h2v11.65h-1.62l-.19-1a12.59,12.59,0,0,1-4.69,1.25c-1.87,0-2.54-1.17-2.54-3v-8.92Z"/><path class="cls-2" d="M825.55,289.66a25.46,25.46,0,0,0-3.32,2v8h-2V288.06H822l.12,1.62a14.85,14.85,0,0,1,3.21-1.86Z"/><path class="cls-2" d="M831.3,298.23a15.06,15.06,0,0,0,3.68-.55l.26,1.6a12.55,12.55,0,0,1-4.11.67c-3.45,0-4.62-1.65-4.62-4.28v-3.5c0-2.41,1.1-4.35,4.57-4.35s4.38,2,4.38,4.4v2.44h-6.94v1C828.52,297.48,829,298.23,831.3,298.23ZM828.52,293h5v-1c0-1.63-.55-2.54-2.44-2.54s-2.56.91-2.56,2.54Z"/><path class="cls-2" d="M851.06,299.71h-1.7l-.12-.86a6.62,6.62,0,0,1-3.78,1.1c-2.18,0-3.08-1.29-3.08-3.35,0-2.42,1.22-3.28,3.56-3.28h3.11V291.5c0-1.46-.65-2-2.54-2a19.42,19.42,0,0,0-3.49.38l-.21-1.6a16.23,16.23,0,0,1,3.82-.5c3.33,0,4.43,1.29,4.43,3.78Zm-2-4.71h-3c-1.24,0-1.69.38-1.69,1.55s.21,1.68,1.65,1.68a5.85,5.85,0,0,0,3-1Z"/><path class="cls-2" d="M857.36,300a11.86,11.86,0,0,1-3.71-.62l.26-1.58a13.67,13.67,0,0,0,3.33.48c1.84,0,2.15-.34,2.15-1.58s-.1-1.39-2.44-2c-2.9-.72-3.16-1.32-3.16-3.74,0-2.15,1-3.13,4-3.13a12.86,12.86,0,0,1,3.3.41l-.14,1.65a17.9,17.9,0,0,0-3.23-.34c-1.72,0-2,.41-2,1.46,0,1.29,0,1.53,2,2,3.35.84,3.62,1.24,3.62,3.57S860.68,300,857.36,300Z"/><path class="cls-2" d="M872.05,300a11.86,11.86,0,0,1-3.71-.62l.26-1.58a13.67,13.67,0,0,0,3.33.48c1.84,0,2.15-.34,2.15-1.58s-.09-1.39-2.44-2c-2.89-.72-3.16-1.32-3.16-3.74,0-2.15,1-3.13,4-3.13a12.88,12.88,0,0,1,3.31.41l-.15,1.65a17.9,17.9,0,0,0-3.23-.34c-1.72,0-2,.41-2,1.46,0,1.29,0,1.53,2,2,3.35.84,3.61,1.24,3.61,3.57S875.37,300,872.05,300Z"/><path class="cls-2" d="M884.92,299.52a7.3,7.3,0,0,1-2.44.43c-2,0-2.89-.72-2.89-2.66v-7.56h-2.06v-1.67h2.06v-2.87l2-.29v3.16h3.3l-.17,1.67H881.6V297c0,.86.12,1.29,1.19,1.29a7.5,7.5,0,0,0,1.87-.29Z"/><path class="cls-2" d="M895.45,299.71h-1.7l-.12-.86a6.58,6.58,0,0,1-3.78,1.1c-2.17,0-3.08-1.29-3.08-3.35,0-2.42,1.22-3.28,3.56-3.28h3.11V291.5c0-1.46-.64-2-2.53-2a19.44,19.44,0,0,0-3.5.38l-.21-1.6a16.25,16.25,0,0,1,3.83-.5c3.32,0,4.42,1.29,4.42,3.78Zm-2-4.71h-3c-1.25,0-1.7.38-1.7,1.55s.21,1.68,1.65,1.68a5.85,5.85,0,0,0,3-1Z"/><path class="cls-2" d="M904.59,299.52a7.25,7.25,0,0,1-2.44.43c-2,0-2.89-.72-2.89-2.66v-7.56H897.2v-1.67h2.06v-2.87l2-.29v3.16h3.3l-.17,1.67h-3.13V297c0,.86.12,1.29,1.2,1.29a7.43,7.43,0,0,0,1.86-.29Z"/><path class="cls-2" d="M911.06,298.23a15.06,15.06,0,0,0,3.68-.55l.26,1.6a12.55,12.55,0,0,1-4.11.67c-3.45,0-4.62-1.65-4.62-4.28v-3.5c0-2.41,1.1-4.35,4.57-4.35s4.38,2,4.38,4.4v2.44h-6.94v1C908.28,297.48,908.78,298.23,911.06,298.23ZM908.28,293h5v-1c0-1.63-.55-2.54-2.44-2.54s-2.56.91-2.56,2.54Z"/><path class="cls-2" d="M917.47,291.62c0-2.32,1-3.8,3.78-3.8a18.86,18.86,0,0,1,3.33.36V283.3l2-.29v16.7h-1.7l-.17-1a6.25,6.25,0,0,1-3.85,1.29c-2.3,0-3.4-1.22-3.4-3.57Zm7.11-1.67a18.4,18.4,0,0,0-3.21-.36c-1.34,0-1.89.62-1.89,2v4.76c0,1.2.38,1.8,1.8,1.8a5.38,5.38,0,0,0,3.3-1.39Z"/><path class="cls-2" d="M942.86,299.71h-1.7l-.12-.86a6.62,6.62,0,0,1-3.78,1.1c-2.18,0-3.09-1.29-3.09-3.35,0-2.42,1.23-3.28,3.57-3.28h3.11V291.5c0-1.46-.65-2-2.54-2a19.42,19.42,0,0,0-3.49.38l-.21-1.6a16.23,16.23,0,0,1,3.82-.5c3.33,0,4.43,1.29,4.43,3.78Zm-2-4.71h-3c-1.24,0-1.7.38-1.7,1.55s.22,1.68,1.66,1.68a5.85,5.85,0,0,0,3-1Z"/><path class="cls-2" d="M955,295.59c0,2.66-1,4.36-4.95,4.36a20.26,20.26,0,0,1-4.17-.46V283.3l2-.29v5.62a8.48,8.48,0,0,1,3.69-.81c2.42,0,3.42,1.41,3.42,3.64ZM947.93,298a15.49,15.49,0,0,0,2.3.17c2.37,0,2.8-1,2.8-2.51v-4.29c0-1.19-.53-1.79-1.89-1.79a8.66,8.66,0,0,0-3.21.88Z"/><path class="cls-2" d="M962,300c-3.4,0-4.74-1.94-4.74-4.38V292.2c0-2.44,1.34-4.38,4.74-4.38s4.73,1.94,4.73,4.38v3.37C966.74,298,965.4,300,962,300Zm0-10.38c-1.82,0-2.73.86-2.73,2.56v3.51c0,1.7.91,2.56,2.73,2.56s2.72-.86,2.72-2.56v-3.51C964.73,290.43,963.82,289.57,962,289.57Z"/><path class="cls-2" d="M976.17,288.06h2l-3.85,11.65h-2.68l-3.86-11.65h2l3.21,10Z"/><path class="cls-2" d="M984,298.23a15.07,15.07,0,0,0,3.69-.55l.26,1.6a12.55,12.55,0,0,1-4.11.67c-3.45,0-4.62-1.65-4.62-4.28v-3.5c0-2.41,1.1-4.35,4.57-4.35s4.38,2,4.38,4.4v2.44H981.2v1C981.2,297.48,981.7,298.23,984,298.23ZM981.2,293h5v-1c0-1.63-.55-2.54-2.44-2.54s-2.56.91-2.56,2.54Z"/><path class="cls-2" d="M990.89,297H993v2.75l-1.44,2.87-.93-.45,1-2.42h-.7Zm0-7.32H993v2.75h-2.06Z"/><path class="cls-2" d="M1008.55,299.71h-1.72l.12-1.41a6.74,6.74,0,0,1-4.4,1.65c-1.8,0-2.44-1-2.44-2.32a6.23,6.23,0,0,1,.07-.91l.81-4.59c.51-2.88,1.54-4.31,5.22-4.31a10.56,10.56,0,0,1,2.42.31l.86-4.83,2-.29Zm-.21-9.91a11.52,11.52,0,0,0-2.35-.28c-2.08,0-2.68.57-3.08,2.87l-.74,4.23a4.47,4.47,0,0,0-.08.75c0,.57.22.88.94.88a7.13,7.13,0,0,0,4.16-1.94Z"/><path class="cls-2" d="M1012.05,295.52l.6-3.39c.5-2.85,2.13-4.31,5.48-4.31,2.68,0,4.06,1.48,4.06,3.47a4.11,4.11,0,0,1-.07.81l-.64,3.66c-.46,2.63-1.85,4.19-5.46,4.19C1012.7,300,1011.6,298,1012.05,295.52Zm8.11-3.42a3.74,3.74,0,0,0,.07-.69c0-1.27-.74-1.89-2.39-1.89a2.91,2.91,0,0,0-3.23,2.72l-.6,3.38c-.26,1.6.12,2.63,2.3,2.63,2,0,2.92-.86,3.23-2.61Z"/><path class="cls-2" d="M1038.83,289.88a5.79,5.79,0,0,1-.1,1l-1.55,8.83h-2l1.58-9a2.38,2.38,0,0,0,0-.41c0-.48-.24-.65-.81-.65a10.41,10.41,0,0,0-4.4,1.75l-1.46,8.28h-2l2-11.51,1.72-.29-.14,1.66a10.85,10.85,0,0,1,4.93-1.75A1.85,1.85,0,0,1,1038.83,289.88Z"/><path class="cls-2" d="M1040.55,295.52l.6-3.39c.5-2.85,2.13-4.31,5.48-4.31,2.68,0,4.07,1.48,4.07,3.47a4.11,4.11,0,0,1-.07.81l-.65,3.66c-.46,2.63-1.84,4.19-5.46,4.19C1041.2,300,1040.1,298,1040.55,295.52Zm8.11-3.42a3.85,3.85,0,0,0,.08-.69c0-1.27-.75-1.89-2.4-1.89a2.91,2.91,0,0,0-3.23,2.72l-.6,3.38c-.26,1.6.12,2.63,2.3,2.63,2,0,2.92-.86,3.23-2.61Z"/><path class="cls-2" d="M1053,298.08a2.55,2.55,0,0,1,0-.52l1.39-7.88h-2.06l.29-1.62h2.06l.5-2.87,2-.27-.55,3.14h3.21l-.34,1.62h-3.16l-1.39,7.85a1.59,1.59,0,0,0,0,.27c0,.33.19.5.67.5a5.35,5.35,0,0,0,2.15-.5l.46,1.36a6.91,6.91,0,0,1-3.16.79C1053.71,300,1053,299.14,1053,298.08Z"/><path class="cls-2" d="M1063.86,303.44a4.83,4.83,0,0,0,1.68-3.2l1.86-10.53h-2l.29-1.65h2l.36-2c.38-2.2,1.41-3.2,3.64-3.2a6.88,6.88,0,0,1,2.48.48l-.4,1.5a6.83,6.83,0,0,0-2-.33c-1.17,0-1.6.43-1.79,1.55l-.36,2h3.4l-.43,1.65h-3.26l-1.93,11a6,6,0,0,1-2.37,4Z"/><path class="cls-2" d="M1079.82,289.61a32.53,32.53,0,0,0-3.64,2.35l-1.36,7.75h-2l2-11.51,1.75-.29-.22,1.92a14.46,14.46,0,0,1,3.33-2Z"/><path class="cls-2" d="M1082.05,296.6a2.58,2.58,0,0,0,0,.53c0,.74.36,1.17,1.6,1.17a10.39,10.39,0,0,0,4.26-1.22l.43,1.46a9.92,9.92,0,0,1-5,1.41c-2.34,0-3.28-1.1-3.28-2.7a6.65,6.65,0,0,1,.1-1.08l.69-3.93c.53-2.94,1.84-4.42,5.15-4.42,1.93,0,3.32.91,3.32,2.63,0,2-.91,2.94-4.19,4-1.41.48-1.86.6-2.87.91Zm5.43-5.93c0-.77-.58-1.25-1.63-1.25-1.82,0-2.65.67-3,2.56l-.29,1.6,2.16-.64C1086.67,292.36,1087.48,291.62,1087.48,290.67Z"/><path class="cls-2" d="M1092.41,296.6a2.58,2.58,0,0,0-.05.53c0,.74.36,1.17,1.61,1.17a10.31,10.31,0,0,0,4.25-1.22l.43,1.46a9.92,9.92,0,0,1-5,1.41c-2.34,0-3.28-1.1-3.28-2.7a6.65,6.65,0,0,1,.1-1.08l.69-3.93c.53-2.94,1.85-4.42,5.15-4.42,1.94,0,3.32.91,3.32,2.63,0,2-.91,2.94-4.18,4-1.41.48-1.87.6-2.87.91Zm5.43-5.93c0-.77-.57-1.25-1.63-1.25-1.81,0-2.65.67-3,2.56l-.28,1.6,2.15-.64C1097,292.36,1097.84,291.62,1097.84,290.67Z"/><path class="cls-2" d="M1100.5,298.15l7.08-8.51h-5.76l.19-1.58h7.87v1.55l-7.08,8.52h5.71l-.23,1.58h-7.66Z"/><path class="cls-2" d="M1113.11,296.6a2.58,2.58,0,0,0,0,.53c0,.74.36,1.17,1.61,1.17a10.31,10.31,0,0,0,4.25-1.22l.44,1.46a10,10,0,0,1-5,1.41c-2.34,0-3.28-1.1-3.28-2.7a6.65,6.65,0,0,1,.1-1.08l.69-3.93c.53-2.94,1.85-4.42,5.15-4.42,1.94,0,3.32.91,3.32,2.63,0,2-.91,2.94-4.18,4-1.41.48-1.87.6-2.87.91Zm5.43-5.93c0-.77-.57-1.25-1.63-1.25-1.81,0-2.65.67-3,2.56l-.28,1.6,2.15-.64C1117.73,292.36,1118.54,291.62,1118.54,290.67Z"/><path class="cls-2" d="M999.18,302.1v-1.19h121.3v1.19Z"/><rect class="cls-19" x="298.54" width="395.42" height="46.14" rx="22.05"/><path class="cls-11" d="M332.06,30.55a13.15,13.15,0,0,1-5.14-1l.6-2.78a15,15,0,0,0,4.59.77c1.84,0,2.2-.36,2.2-1.7s-.07-1.61-2.68-2.18c-3.85-.84-4.42-1.6-4.42-5.05,0-3.18,1.12-4.45,5.5-4.45a23.37,23.37,0,0,1,4.83.53l-.36,3a24.31,24.31,0,0,0-4.42-.45c-1.6,0-2,.29-2,1.46,0,1.53.07,1.55,2.58,2.15,4.31,1,4.52,1.87,4.52,5S336.87,30.55,332.06,30.55Z"/><path class="cls-11" d="M343.84,30.55c-2.23,0-3.52-.83-3.52-3V21.44h-1.58V18.66h1.58v-2.8l3.45-.47v3.27h2.65l-.19,2.78h-2.46v5.65c0,.47.28.64.71.64a5,5,0,0,0,1.44-.21l.41,2.6A8,8,0,0,1,343.84,30.55Z"/><path class="cls-11" d="M347.48,25.84v-2.7c0-2.39,1.12-4.72,5.26-4.72S358,20.75,358,23.14v2.7c0,2.39-1.12,4.71-5.26,4.71S347.48,28.23,347.48,25.84Zm7.08.1V23c0-1.1-.58-1.72-1.82-1.72s-1.82.62-1.82,1.72v2.9c0,1.1.58,1.72,1.82,1.72S354.56,27,354.56,25.94Z"/><path class="cls-11" d="M363.49,23.21v7.11H360V18.66h2.87l.24,1.13a11.41,11.41,0,0,1,3.14-1.37l.28,3.26A16.68,16.68,0,0,0,363.49,23.21Z"/><path class="cls-11" d="M374.06,30.32l-.24-.75a7,7,0,0,1-3.32,1c-2.16,0-3-1.55-3-3.54,0-2.34,1.08-3.27,3.47-3.27h2.51v-.89c0-1.2-.21-1.6-2.06-1.6a16.81,16.81,0,0,0-3.16.33L367.77,19a16.18,16.18,0,0,1,4.19-.58c4,0,4.93,1.22,4.93,4.45v7.45Zm-.62-4.19h-1.65c-.74,0-1,.19-1,.84s.26.91.93.91a3.93,3.93,0,0,0,1.75-.41Z"/><path class="cls-11" d="M378.56,22.23c.05-2.35,1.34-3.81,4.76-3.81a8.21,8.21,0,0,1,2,.24H389v1.63l-1.18.43a4.42,4.42,0,0,1,.32,1.51v1.41c0,2.23-1.56,3.71-4.77,3.71H383c-.24.14-.51.31-.51.64a.45.45,0,0,0,.39.48c1.55.17,2,.22,2.89.29,2,.17,2.82.84,2.82,2.85,0,2.8-1.74,3.66-5.36,3.66a20.43,20.43,0,0,1-4.64-.6l.51-2.51a17.36,17.36,0,0,0,3.82.48c1.8,0,2.52-.08,2.52-.84,0-.46-.22-.58-.91-.65l-3-.28C380,30.7,379,30.36,379,28.76a2.87,2.87,0,0,1,1-2.13,3.19,3.19,0,0,1-1.49-3Zm6.32,1.24v-1.1c0-.76-.41-1.22-1.56-1.22s-1.55.46-1.55,1.22v1.1c0,.79.43,1.15,1.55,1.15S384.88,24.26,384.88,23.47Z"/><path class="cls-11" d="M393.23,25.7V26c0,1.34.53,1.7,2.11,1.7a13.69,13.69,0,0,0,3.54-.5l.5,2.58a13.66,13.66,0,0,1-4.38.74c-3.78,0-5.21-1.86-5.21-4.73V23.09c0-2.51,1.12-4.67,5-4.67s4.71,2.3,4.71,4.84V25.7Zm3-3.09c0-.81-.24-1.48-1.44-1.48s-1.58.67-1.58,1.48v.5h3Z"/><path class="cls-11" d="M406.08,17.2V13.54h3.45V17.2Zm0,13.12V18.66h3.45V30.32Z"/><path class="cls-11" d="M419,30.32V22.61a.74.74,0,0,0-.84-.84,6.69,6.69,0,0,0-2.51.84v7.71h-3.45V18.66h2.56l.36.89a11.86,11.86,0,0,1,4.64-1.13c2,0,2.68,1.49,2.68,3.74v8.16Z"/><path class="cls-11" d="M434.13,30.55a13.24,13.24,0,0,1-5.15-1l.6-2.78a15,15,0,0,0,4.6.77c1.84,0,2.2-.36,2.2-1.7s-.07-1.61-2.68-2.18c-3.85-.84-4.43-1.6-4.43-5.05,0-3.18,1.13-4.45,5.5-4.45a23.46,23.46,0,0,1,4.84.53l-.36,3a24.41,24.41,0,0,0-4.43-.45c-1.6,0-2,.29-2,1.46,0,1.53.07,1.55,2.58,2.15,4.31,1,4.53,1.87,4.53,5S438.94,30.55,434.13,30.55Z"/><path class="cls-11" d="M443.89,35l1.37-4.71h-1.1l-3.59-11.66h3.49l2.37,8.26,2.37-8.26h3.49l-3.66,11.66L447.15,35Z"/><path class="cls-11" d="M456.82,23.21v7.11h-3.45V18.66h2.87l.24,1.13a11.41,11.41,0,0,1,3.14-1.37l.28,3.26A16.68,16.68,0,0,0,456.82,23.21Z"/><path class="cls-11" d="M461.15,17.2V13.54h3.44V17.2Zm0,13.12V18.66h3.44V30.32Z"/><path class="cls-11" d="M474,30.32V22.61a.74.74,0,0,0-.84-.84,6.69,6.69,0,0,0-2.51.84v7.71h-3.44V18.66h2.56l.36.89a11.82,11.82,0,0,1,4.64-1.13c2,0,2.68,1.49,2.68,3.74v8.16Z"/><path class="cls-11" d="M479.26,22.23c.05-2.35,1.34-3.81,4.76-3.81a8.21,8.21,0,0,1,2,.24h3.64v1.63l-1.17.43a4.67,4.67,0,0,1,.31,1.51v1.41c0,2.23-1.56,3.71-4.77,3.71h-.35c-.24.14-.51.31-.51.64a.45.45,0,0,0,.39.48c1.55.17,2,.22,2.89.29,2,.17,2.82.84,2.82,2.85,0,2.8-1.74,3.66-5.35,3.66a20.44,20.44,0,0,1-4.65-.6l.51-2.51a17.44,17.44,0,0,0,3.82.48c1.8,0,2.52-.08,2.52-.84,0-.46-.22-.58-.91-.65l-3-.28c-1.58-.17-2.49-.51-2.49-2.11a2.87,2.87,0,0,1,1-2.13,3.19,3.19,0,0,1-1.49-3Zm6.32,1.24v-1.1c0-.76-.41-1.22-1.56-1.22s-1.55.46-1.55,1.22v1.1c0,.79.43,1.15,1.55,1.15S485.58,24.26,485.58,23.47Z"/><path class="cls-11" d="M493.93,25.7V26c0,1.34.53,1.7,2.11,1.7a13.69,13.69,0,0,0,3.54-.5l.5,2.58a13.66,13.66,0,0,1-4.38.74c-3.78,0-5.21-1.86-5.21-4.73V23.09c0-2.51,1.12-4.67,5-4.67s4.71,2.3,4.71,4.84V25.7Zm3-3.09c0-.81-.24-1.48-1.44-1.48s-1.58.67-1.58,1.48v.5h3Z"/></g></g></svg>