<svg xmlns="http://www.w3.org/2000/svg" viewBox="0 0 400.85 146.11"><defs><style>.cls-1{fill:#fff;}.cls-2{fill:#f26322;}.cls-3{fill:#008fb4;}</style></defs><g id="Layer_2" data-name="Layer 2"><g id="Logos"><path class="cls-1" d="M29.69,20.42c-9.33,0-16,5-17.45,13.12L9.67,48.12c-1.43,8.09,3.48,13.12,12.82,13.12s16-5,17.46-13.12l2.57-14.58C43.94,25.45,39,20.42,29.69,20.42Zm3,13.22L30.16,48c-.24,1.37-.69,3.93-6,3.93S19.25,49.39,19.5,48L22,33.64c.24-1.37.69-3.93,6-3.93S32.94,32.27,32.7,33.64Zm41.58-1.4c.06-.35.12-.71.16-1.07.53-4.84-1.11-10.09-10.85-10.09h-14a1.47,1.47,0,0,0-1.4,1.19L41.62,59.7a1,1,0,0,0,1,1.2H50a1.47,1.47,0,0,0,1.39-1.2l2-11.12h5.34c8.47,0,12.23-4,13.83-8.23h0a16.35,16.35,0,0,0,.81-3Zm-9.82.06-.22,1.24-.67,3.83c-.28,1.58-.33,1.86-3.34,1.86H55l.66-3.7h0l.9-5.11h5.18C64.79,30.42,64.75,30.67,64.46,32.3Zm38.44-8.81c-2-1.57-4.9-2.41-8.63-2.41H80.73a1.48,1.48,0,0,0-1.4,1.19v0L72.73,59.7a1,1,0,0,0,1,1.19H87.25c8.74,0,14.56-4.57,16-12.56l2.59-14.69s0-.07,0-.1c.57-3.35.14-6.09-1.19-8.14A8.08,8.08,0,0,0,102.9,23.49ZM95.94,34,93.46,48c-.42,2.39-.79,3.53-4.71,3.53H84L87.7,30.42h4.77C96.39,30.42,96.36,31.57,95.94,34Zm78.32-13.53c-9.34,0-16,5-17.46,13.12l-2.57,14.58c-1.43,8.09,3.49,13.12,12.83,13.12s16-5,17.45-13.12l2.57-14.58C188.51,25.45,183.6,20.42,174.26,20.42Zm3,13.22L174.73,48c-.25,1.37-.7,3.93-6,3.93s-4.87-2.56-4.63-3.93l2.53-14.38c.25-1.37.7-3.93,6-3.93S177.5,32.27,177.26,33.64Zm-19.7-14.38-8.66,3.09a2.24,2.24,0,0,0-1.47,1.15L137,44.18l-2.3-14.09c-.28-1.76-.41-2.52-1.46-2.14l-6.9,2.46c-1.22.43-1.31.69-1.21,1.43l4.34,28.24a1,1,0,0,0,1,.81h8.15a1.51,1.51,0,0,0,1.28-.81l18.9-39.33C159.11,20,158.85,19,157.56,19.26Zm-35.75,1.82H114.4A1.47,1.47,0,0,0,113,22.2l-6.59,37.47a1,1,0,0,0,1,1.23h7.45a1.47,1.47,0,0,0,1.38-1.19l6.61-37.51A1.13,1.13,0,0,0,121.81,21.08Z"/><path class="cls-2" d="M168.14.06l-41.4,19a1.52,1.52,0,0,0-.81,1l-.74,4.32c-.07.41.19.62.58.48l37.6-15a2.15,2.15,0,0,0,1-.91L168.5.44C168.68.07,168.52-.1,168.14.06ZM39.46,57.14,11.19,70.57c-.38.16-.35.29.05.29h1.87a2.56,2.56,0,0,0,1.09-.22L38.5,60c.38-.16.85-.21,1-.82l.33-1.41C40,57.1,39.71,57.08,39.46,57.14Z"/><path class="cls-3" d="M162.46,11.83,126,26.23a1.59,1.59,0,0,0-.8,1l0,.15c-.07.4.17.6.55.44l34.92-12.33a2.29,2.29,0,0,0,1-1l1.15-2.39C163,11.82,162.84,11.66,162.46,11.83ZM38.65,61.3l-21.4,9.26c-.37.16-.34.29.06.29h1.31a1.94,1.94,0,0,0,.92-.18l18.92-8.12c.38-.15.38-.25.46-.6l.1-.49C39.1,61.14,38.8,61.25,38.65,61.3Z"/><path class="cls-1" d="M19.91,88.2a6.26,6.26,0,0,0-2.27.42A10.2,10.2,0,0,0,15.23,90l0-.25c0-.26.05-.44.05-.54,0-.58-.21-.88-.64-.88a6.4,6.4,0,0,0-1.88.44,4.43,4.43,0,0,1,.05.66A31,31,0,0,1,12.48,93l-1.25,9h2.33L15,91.81a7.15,7.15,0,0,1,4.21-1.87,2.16,2.16,0,0,1,1.55.48,2.06,2.06,0,0,1,.49,1.51,6.49,6.49,0,0,1-.08.93l-.93,6.57c-.11.83-.17,1.38-.17,1.64a1.42,1.42,0,0,0,.15.76.48.48,0,0,0,.44.22,4.93,4.93,0,0,0,1.89-.37,2.63,2.63,0,0,1-.1-.81,19,19,0,0,1,.22-2.15l.83-5.91a10.49,10.49,0,0,0,.1-1.18C23.56,89.35,22.34,88.2,19.91,88.2Z"/><path class="cls-1" d="M30.4,83h-.25a1.41,1.41,0,0,0-1.54,1.37l-.05.27a1.15,1.15,0,0,0,0,.3c0,.72.4,1.07,1.2,1.07H30a1.43,1.43,0,0,0,1.57-1.37l.05-.27a1.85,1.85,0,0,0,0-.29C31.62,83.32,31.21,83,30.4,83Z"/><polygon class="cls-1" points="26.47 101.93 28.78 101.93 30.66 88.45 28.36 88.45 26.47 101.93"/><path class="cls-1" d="M40.83,94.49a25.52,25.52,0,0,1-3.11,5.18,19,19,0,0,1-1.58-4.37,22.62,22.62,0,0,1-.5-4.87c0-.63,0-1.29.07-2H33.36c0,.44,0,1.08,0,1.91a24.2,24.2,0,0,0,.74,6.09,22.31,22.31,0,0,0,2.25,5.48h2.21a30.92,30.92,0,0,0,4.16-6.3,31.33,31.33,0,0,0,2.48-7.18h-2.4A30.38,30.38,0,0,1,40.83,94.49Z"/><path class="cls-1" d="M52.2,88.2a6.51,6.51,0,0,0-3.7,1.06,6.67,6.67,0,0,0-2.4,3,11.89,11.89,0,0,0-.83,4.63,5.41,5.41,0,0,0,1.31,3.94,5.13,5.13,0,0,0,3.84,1.33,6.36,6.36,0,0,0,3.67-1.06,6.72,6.72,0,0,0,2.41-3.06,11.75,11.75,0,0,0,.85-4.68A5.23,5.23,0,0,0,56,89.52,5.17,5.17,0,0,0,52.2,88.2Zm1.61,10.41a3.64,3.64,0,0,1-3.25,1.87,2.71,2.71,0,0,1-2.21-.87A4.06,4.06,0,0,1,47.62,97a9.64,9.64,0,0,1,1.18-5.19,3.66,3.66,0,0,1,3.26-1.86,2.7,2.7,0,0,1,2.19.85A4,4,0,0,1,55,93.37,9.91,9.91,0,0,1,53.81,98.61Z"/><polygon class="cls-1" points="59.19 101.93 61.49 101.93 64.21 82.54 61.91 82.54 59.19 101.93"/><path class="cls-1" d="M74.65,98.3a5,5,0,0,1-4,2.23A2.37,2.37,0,0,1,69,100a2.27,2.27,0,0,1-.55-1.67,5.38,5.38,0,0,1,.08-.85l1.27-9H67.42l-1.27,9.07a6.8,6.8,0,0,0-.08,1,3.56,3.56,0,0,0,1,2.72,4.21,4.21,0,0,0,2.94,1,6.13,6.13,0,0,0,2.43-.48,5.14,5.14,0,0,0,1.91-1.36,3.11,3.11,0,0,0,0,.47,1.59,1.59,0,0,0,.22,1,.88.88,0,0,0,.73.27,3.8,3.8,0,0,0,1.6-.37,4.11,4.11,0,0,1-.15-1.15A9.66,9.66,0,0,1,76.91,99l1.46-10.54H76.05Z"/><path class="cls-1" d="M96.68,88.2a6.31,6.31,0,0,0-2.46.47,7.17,7.17,0,0,0-2.17,1.45,2.72,2.72,0,0,0-1.15-1.41,3.62,3.62,0,0,0-2-.51,6.13,6.13,0,0,0-2.28.41,7.17,7.17,0,0,0-2.06,1.31,3.26,3.26,0,0,0,0-.49c0-.72-.25-1.08-.76-1.08a2.93,2.93,0,0,0-.8.14,7,7,0,0,0-.91.33,5.17,5.17,0,0,1,0,.54,26.65,26.65,0,0,1-.34,3.74l-1.25,8.83h2.33l1.44-10.25a7.69,7.69,0,0,1,1.89-1.39,4.11,4.11,0,0,1,1.84-.44,1.91,1.91,0,0,1,1.37.46,1.72,1.72,0,0,1,.49,1.32,4.59,4.59,0,0,1,0,.52l-1.35,9.78h2.31L92.22,92l0-.47a5.22,5.22,0,0,1,3.6-1.71,2.08,2.08,0,0,1,1.48.44,1.73,1.73,0,0,1,.48,1.34,4.21,4.21,0,0,1-.07.76l-1.33,9.54h2.36l1.32-9.61a4.77,4.77,0,0,0,0-.76,3.27,3.27,0,0,0-.93-2.45A3.52,3.52,0,0,0,96.68,88.2Z"/><path class="cls-1" d="M112.79,89.21a4.83,4.83,0,0,0-3.27-1,8.44,8.44,0,0,0-3.36.68,9,9,0,0,0-2.69,1.75,2.6,2.6,0,0,0,.55.91.93.93,0,0,0,.65.34.52.52,0,0,0,.34-.12,10.64,10.64,0,0,1,2-1.31,4.6,4.6,0,0,1,2.1-.46,2.92,2.92,0,0,1,1.92.53,1.94,1.94,0,0,1,.63,1.58c0,.13,0,.36,0,.69l-.12.95a17.4,17.4,0,0,0-6.82,1.37,3.79,3.79,0,0,0-2.32,3.56,3.23,3.23,0,0,0,1,2.58,3.88,3.88,0,0,0,2.7.92,5.73,5.73,0,0,0,4.59-2.13c-.05,1.36.3,2,1,2a2.72,2.72,0,0,0,.92-.18,3.91,3.91,0,0,0,.89-.45,3.05,3.05,0,0,1-.36-.78,3.44,3.44,0,0,1-.13-1,12,12,0,0,1,.15-1.66l.74-5.22a5.21,5.21,0,0,0,0-.81A3.45,3.45,0,0,0,112.79,89.21Zm-1.92,8.67A7.52,7.52,0,0,1,109,99.79a3.8,3.8,0,0,1-2.14.69c-1.4,0-2.1-.65-2.1-2a2.51,2.51,0,0,1,1.52-2.34,12.41,12.41,0,0,1,5-.92Z"/><path class="cls-1" d="M124.37,88.2a6.64,6.64,0,0,0-3.75,1.13l1-6.79h-2.36L117,98.08a14.32,14.32,0,0,1-.46,2.19,4.35,4.35,0,0,1-.62,1.24,3.39,3.39,0,0,0,1.74.47c.53,0,.94-.49,1.25-1.47a4.09,4.09,0,0,0,1.62,1.22,5.62,5.62,0,0,0,2.26.44,5.84,5.84,0,0,0,3.56-1.1,6.72,6.72,0,0,0,2.24-3,11.76,11.76,0,0,0,.76-4.36,5.62,5.62,0,0,0-1.37-4A4.75,4.75,0,0,0,124.37,88.2Zm1.51,10.33a3.81,3.81,0,0,1-6.56.06l1-7.37a5.69,5.69,0,0,1,3.51-1.32,2.91,2.91,0,0,1,2.29,1,4.15,4.15,0,0,1,.87,2.83A9.21,9.21,0,0,1,125.88,98.53Z"/><polygon class="cls-1" points="145.57 87.76 143.85 87.76 143.07 93.18 137.82 93.18 137.6 94.8 142.85 94.8 142.11 100.21 143.83 100.21 144.59 94.8 149.85 94.8 150.07 93.18 144.81 93.18 145.57 87.76"/><path class="cls-1" d="M167,88.2a7.64,7.64,0,0,0-2.56.47,9.25,9.25,0,0,0-2.41,1.27l1-7.4h-2.31l-2.72,19.39h2.31l1.44-10.25a9.84,9.84,0,0,1,2.27-1.23,6,6,0,0,1,2.17-.46,1.93,1.93,0,0,1,2.2,2.16,5.88,5.88,0,0,1,0,.66l-1.27,9.12h2.3l1.33-9.39a5,5,0,0,0,.05-.78,3.41,3.41,0,0,0-1-2.61A3.88,3.88,0,0,0,167,88.2Z"/><path class="cls-1" d="M183,88.45l-4.95,10.27L176,88.45h-2.38l2.94,13.26a8.07,8.07,0,0,1-1.5,2.48,2.41,2.41,0,0,1-1.75.78,3.84,3.84,0,0,1-.91-.11,1.93,1.93,0,0,1-.69-.31,1.08,1.08,0,0,0-.61,1,1.06,1.06,0,0,0,.58,1,3.06,3.06,0,0,0,1.58.34A4.45,4.45,0,0,0,176,106a8.84,8.84,0,0,0,2.23-3l7.26-14.51Z"/><path class="cls-1" d="M195.71,89.21a4.83,4.83,0,0,0-3.27-1,8.36,8.36,0,0,0-3.35.68,8.92,8.92,0,0,0-2.7,1.75,2.76,2.76,0,0,0,.55.91.93.93,0,0,0,.65.34.5.5,0,0,0,.34-.12,10.68,10.68,0,0,1,2-1.31A4.56,4.56,0,0,1,192,90a2.92,2.92,0,0,1,1.92.53,1.94,1.94,0,0,1,.63,1.58c0,.13,0,.36-.05.69l-.12.95a17.3,17.3,0,0,0-6.81,1.37,3.79,3.79,0,0,0-2.33,3.56,3.23,3.23,0,0,0,1,2.58,3.91,3.91,0,0,0,2.71.92,5.71,5.71,0,0,0,4.58-2.13c0,1.36.3,2,1.05,2a2.72,2.72,0,0,0,.92-.18,3.79,3.79,0,0,0,.9-.45,2.78,2.78,0,0,1-.37-.78,3.48,3.48,0,0,1-.12-1,13.45,13.45,0,0,1,.14-1.66l.74-5.22a5.21,5.21,0,0,0,0-.81A3.45,3.45,0,0,0,195.71,89.21Zm-1.92,8.67a7.36,7.36,0,0,1-1.91,1.91,3.79,3.79,0,0,1-2.13.69c-1.41,0-2.11-.65-2.11-2a2.53,2.53,0,0,1,1.52-2.34,12.41,12.41,0,0,1,5-.92Z"/><polygon class="cls-1" points="199.4 101.93 201.71 101.93 204.43 82.54 202.12 82.54 199.4 101.93"/><path class="cls-1" d="M214.86,98.3a5,5,0,0,1-4,2.23,2.33,2.33,0,0,1-1.7-.54,2.23,2.23,0,0,1-.56-1.67,5.38,5.38,0,0,1,.08-.85l1.27-9h-2.33l-1.27,9.07a6.75,6.75,0,0,0-.07,1,3.53,3.53,0,0,0,1,2.72,4.17,4.17,0,0,0,2.94,1,6.11,6.11,0,0,0,2.42-.48,5.14,5.14,0,0,0,1.91-1.36c0,.12,0,.27,0,.47a1.59,1.59,0,0,0,.22,1,.9.9,0,0,0,.74.27,3.76,3.76,0,0,0,1.59-.37,4.11,4.11,0,0,1-.15-1.15,9.66,9.66,0,0,1,.15-1.54l1.47-10.54h-2.33Z"/><path class="cls-1" d="M228.37,88.28a3.85,3.85,0,0,0-2.11.66,5.77,5.77,0,0,0-1.74,1.74l.32-2.23h-2.33l-1.89,13.48H223l1-7.11a6,6,0,0,1,1.41-3.27A3.51,3.51,0,0,1,228,90.36a3.45,3.45,0,0,1,1.62.32,1.89,1.89,0,0,0,.47-1l0-.24C230.13,88.68,229.54,88.28,228.37,88.28Z"/><path class="cls-1" d="M237.33,88.2a6.51,6.51,0,0,0-3.7,1.06,6.67,6.67,0,0,0-2.4,3,11.89,11.89,0,0,0-.83,4.63,5.41,5.41,0,0,0,1.31,3.94,5.13,5.13,0,0,0,3.84,1.33,6.36,6.36,0,0,0,3.67-1.06,6.72,6.72,0,0,0,2.41-3.06,11.75,11.75,0,0,0,.85-4.68,4.62,4.62,0,0,0-5.15-5.17Zm1.61,10.41a3.64,3.64,0,0,1-3.25,1.87,2.74,2.74,0,0,1-2.22-.87,4.12,4.12,0,0,1-.72-2.66,9.64,9.64,0,0,1,1.18-5.19,3.66,3.66,0,0,1,3.26-1.86,2.7,2.7,0,0,1,2.19.85,4,4,0,0,1,.72,2.62A9.91,9.91,0,0,1,238.94,98.61Z"/><path class="cls-1" d="M252.82,88.2a6.3,6.3,0,0,0-2.27.42,10.4,10.4,0,0,0-2.41,1.4l0-.25a5.13,5.13,0,0,0,0-.54c0-.58-.21-.88-.63-.88a6.38,6.38,0,0,0-1.89.44,4.43,4.43,0,0,1,.05.66A32.73,32.73,0,0,1,245.4,93l-1.25,9h2.32l1.4-10.12a7.15,7.15,0,0,1,4.22-1.87,2.14,2.14,0,0,1,1.54.48,2,2,0,0,1,.49,1.51,6.38,6.38,0,0,1-.07.93l-.93,6.57a14.8,14.8,0,0,0-.18,1.64,1.42,1.42,0,0,0,.15.76.5.5,0,0,0,.44.22,4.9,4.9,0,0,0,1.89-.37,2.63,2.63,0,0,1-.1-.81,19,19,0,0,1,.22-2.15l.83-5.91a10.49,10.49,0,0,0,.1-1.18C256.47,89.35,255.26,88.2,252.82,88.2Z"/><path class="cls-1" d="M263.31,83h-.25a1.42,1.42,0,0,0-1.54,1.37l0,.27a1.24,1.24,0,0,0,0,.3c0,.72.4,1.07,1.2,1.07h.24a1.42,1.42,0,0,0,1.57-1.37l.05-.27a1.11,1.11,0,0,0,0-.29C264.53,83.32,264.13,83,263.31,83Z"/><polygon class="cls-1" points="259.39 101.93 261.69 101.93 263.58 88.45 261.27 88.45 259.39 101.93"/><path class="cls-1" d="M276.08,89.18a5.08,5.08,0,0,0-1.44-.69,5.47,5.47,0,0,0-1.7-.29,6.81,6.81,0,0,0-3.81,1.09,7.13,7.13,0,0,0-2.56,3.07,10.67,10.67,0,0,0-.91,4.54,5.61,5.61,0,0,0,1.26,3.88,4.47,4.47,0,0,0,3.49,1.39,5.62,5.62,0,0,0,4.17-1.74v.1c0,1,.26,1.52.78,1.52a4.23,4.23,0,0,0,1.79-.47,4.7,4.7,0,0,1-.19-1.3,16.18,16.18,0,0,1,.19-2.13l2.18-15.61H277Zm-1.3,9.22A6.05,6.05,0,0,1,273,100a4.51,4.51,0,0,1-2.12.51q-2.85,0-2.85-3.65a10.25,10.25,0,0,1,.6-3.66,5.47,5.47,0,0,1,1.71-2.45,3.94,3.94,0,0,1,2.52-.87,4.3,4.3,0,0,1,1.7.34,3.23,3.23,0,0,1,1.27.88Z"/><path class="cls-1" d="M290.55,89.21a4.87,4.87,0,0,0-3.28-1,8.36,8.36,0,0,0-3.35.68,8.92,8.92,0,0,0-2.7,1.75,2.76,2.76,0,0,0,.55.91.93.93,0,0,0,.65.34.55.55,0,0,0,.35-.12,10.64,10.64,0,0,1,2-1.31,4.56,4.56,0,0,1,2.09-.46,3,3,0,0,1,1.93.53,2,2,0,0,1,.62,1.58,6,6,0,0,1-.05.69l-.12.95a17.3,17.3,0,0,0-6.81,1.37,3.8,3.8,0,0,0-2.33,3.56,3.27,3.27,0,0,0,1,2.58,3.92,3.92,0,0,0,2.71.92A5.71,5.71,0,0,0,288.4,100c0,1.36.3,2,1.06,2a2.71,2.71,0,0,0,.91-.18,3.79,3.79,0,0,0,.9-.45,2.78,2.78,0,0,1-.37-.78,3.48,3.48,0,0,1-.12-1,12,12,0,0,1,.15-1.66l.73-5.22a5.21,5.21,0,0,0,0-.81A3.48,3.48,0,0,0,290.55,89.21Zm-1.93,8.67a7.36,7.36,0,0,1-1.91,1.91,3.79,3.79,0,0,1-2.13.69c-1.41,0-2.11-.65-2.11-2A2.53,2.53,0,0,1,284,96.18a12.41,12.41,0,0,1,5-.92Z"/><path class="cls-1" d="M302.74,88.84a6.45,6.45,0,0,0-3-.64,6.91,6.91,0,0,0-2.51.45A4.35,4.35,0,0,0,295.38,90a3.25,3.25,0,0,0-.71,2.12,2.92,2.92,0,0,0,.57,1.85,4,4,0,0,0,1.36,1.12,17.62,17.62,0,0,0,2.07.85,11.82,11.82,0,0,1,2.17,1,1.46,1.46,0,0,1,.7,1.29,2,2,0,0,1-.84,1.7,3.86,3.86,0,0,1-2.3.6,4.5,4.5,0,0,1-2.32-.56,3.68,3.68,0,0,1-1.43-1.57,1.56,1.56,0,0,0-1,.46,1.32,1.32,0,0,0-.33.91A1.63,1.63,0,0,0,294,101a4.63,4.63,0,0,0,1.75.89,8.73,8.73,0,0,0,2.49.33,6.6,6.6,0,0,0,4.09-1.13,3.65,3.65,0,0,0,1.5-3.08,2.9,2.9,0,0,0-.54-1.78A3.75,3.75,0,0,0,302,95.09a18.77,18.77,0,0,0-2-.86,10.18,10.18,0,0,1-2.26-1,1.6,1.6,0,0,1-.73-1.41,1.62,1.62,0,0,1,.76-1.42,3.52,3.52,0,0,1,2-.51,3.21,3.21,0,0,1,2.82,1.37.76.76,0,0,0,.61.34,1.3,1.3,0,0,0,.67-.24,3.81,3.81,0,0,0,.75-.67A4.11,4.11,0,0,0,302.74,88.84Z"/><path class="cls-1" d="M313,88.2a6.92,6.92,0,0,0-3.76,1,6.29,6.29,0,0,0-2.43,2.86,10.84,10.84,0,0,0-.85,4.45,5.65,5.65,0,0,0,1.5,4.13,5.37,5.37,0,0,0,4,1.53,7.18,7.18,0,0,0,3.56-.83,5.6,5.6,0,0,0,2.3-2.48,2.68,2.68,0,0,0-1.43-.68.61.61,0,0,0-.53.32,4.14,4.14,0,0,1-1.56,1.49,4.88,4.88,0,0,1-2.19.44,3,3,0,0,1-2.42-1,4.47,4.47,0,0,1-.87-3c0-.41,0-.71,0-.91h9.46a18.09,18.09,0,0,0,.19-2.4,5,5,0,0,0-1.26-3.68A5.15,5.15,0,0,0,313,88.2ZM315.77,94h-7.18a5.83,5.83,0,0,1,1.52-3,3.87,3.87,0,0,1,2.8-1.06,2.93,2.93,0,0,1,2.19.76,3,3,0,0,1,.75,2.23A7.76,7.76,0,0,1,315.77,94Z"/><polygon class="cls-1" points="320.21 95.21 329.03 95.21 329.25 93.59 320.43 93.59 320.21 95.21"/><path class="cls-1" d="M340.08,88.2a6.21,6.21,0,0,0-2.26.42A10.24,10.24,0,0,0,335.4,90l0-.25c0-.26.05-.44.05-.54,0-.58-.22-.88-.64-.88a6.38,6.38,0,0,0-1.89.44,4.43,4.43,0,0,1,.05.66,30.26,30.26,0,0,1-.34,3.53l-1.25,9h2.33l1.39-10.12a7.17,7.17,0,0,1,4.22-1.87,2.14,2.14,0,0,1,1.54.48,2,2,0,0,1,.49,1.51,6.38,6.38,0,0,1-.07.93l-.93,6.57a14.8,14.8,0,0,0-.18,1.64,1.42,1.42,0,0,0,.15.76.5.5,0,0,0,.44.22,4.86,4.86,0,0,0,1.89-.37,2.63,2.63,0,0,1-.1-.81c0-.36.08-1.08.22-2.15l.84-5.91c.06-.55.09-1,.09-1.18C343.73,89.35,342.52,88.2,340.08,88.2Z"/><path class="cls-1" d="M372.38,91.76a3.41,3.41,0,0,0-1-2.61,3.9,3.9,0,0,0-2.77-1,7.59,7.59,0,0,0-2.56.47,9.32,9.32,0,0,0-2.42,1.27l1-7.4h-2.3l-2.72,19.39h2.3l1.45-10.25a9.78,9.78,0,0,1,2.26-1.23,6,6,0,0,1,2.17-.46A1.93,1.93,0,0,1,370,92.15c0,.11,0,.33,0,.66l-1.27,9.12H371l1.32-9.39A5,5,0,0,0,372.38,91.76Z"/><path class="cls-1" d="M354.1,94.49A26,26,0,0,1,351,99.67a18.5,18.5,0,0,1-1.58-4.37,22,22,0,0,1-.5-4.87c0-.63,0-1.29.07-2h-2.35c0,.44-.05,1.08-.05,1.91a24.2,24.2,0,0,0,.73,6.09,22,22,0,0,0,2.26,5.48h2.2a31,31,0,0,0,4.17-6.3,31.32,31.32,0,0,0,2.47-7.18H356A29.74,29.74,0,0,1,354.1,94.49Z"/><path class="cls-1" d="M383.7,88.45l-4.95,10.27-2.13-10.27h-2.38l2.94,13.26a7.88,7.88,0,0,1-1.51,2.48,2.38,2.38,0,0,1-1.75.78,3.82,3.82,0,0,1-.9-.11,1.85,1.85,0,0,1-.69-.31,1.08,1.08,0,0,0-.61,1,1.07,1.07,0,0,0,.57,1,3.09,3.09,0,0,0,1.58.34,4.5,4.5,0,0,0,2.82-.89,9,9,0,0,0,2.23-3l7.25-14.51Z"/><path class="cls-3" d="M221.62,20.62c-9.33,0-16,5-17.45,13.12L201.6,48.32c-1.43,8.1,3.48,13.13,12.82,13.13a23.83,23.83,0,0,0,3.22-.22,15.69,15.69,0,0,0,.79,1.41A5.21,5.21,0,0,0,220,64.21a4,4,0,0,0,2.15.54,5.08,5.08,0,0,0,4.26-2.11c-1-1.22-1.81-2.33-2.52-3.33a15,15,0,0,0,8-11l2.57-14.58C235.88,25.65,231,20.62,221.62,20.62Zm7,10.91-3.28,18.58c-.21,1.21-2.08,3-4.63,4.15l-.35-.57A24.16,24.16,0,0,1,218.64,50h-5.58l1.8,4.74.16.36c-6.24-.2-7.91-3.2-7.6-4.92l3.27-18.58c.32-1.77,3.16-5.24,10.05-5.24S228.9,29.76,228.59,31.53Z"/><path class="cls-3" d="M264.42,30.26a73.25,73.25,0,0,1-5.22,16.47,65.94,65.94,0,0,1-8.7,13.92h-5.91a48.8,48.8,0,0,1-4.81-12.24,58.86,58.86,0,0,1-1.56-13.89c0-1.88,0-3.3.1-4.26h6.42c-.17,2.14-.26,4-.26,5.53a48.14,48.14,0,0,0,1,9.8,40.74,40.74,0,0,0,3,8.87,57,57,0,0,0,6-11.24,62.82,62.82,0,0,0,3.49-13Z"/><path class="cls-3" d="M287.39,50.48a36.11,36.11,0,0,0-.47,4.92,7.38,7.38,0,0,0,1,3.92,7.77,7.77,0,0,1-2.34,1.19A8.33,8.33,0,0,1,283,61q-2.48,0-2.47-4.31A11.35,11.35,0,0,1,276.65,60a11.19,11.19,0,0,1-5.29,1.16,7.48,7.48,0,0,1-5.48-2.1,7.84,7.84,0,0,1-2.13-5.85,8.28,8.28,0,0,1,4.68-7.74q4.67-2.53,13.77-3l.31-2.49c0-.29.05-.7.05-1.21a4.14,4.14,0,0,0-1.11-3.15,5,5,0,0,0-3.52-1,8.73,8.73,0,0,0-4,.91,27.89,27.89,0,0,0-4.05,2.62,1.4,1.4,0,0,1-.77.28,2.11,2.11,0,0,1-1.6-1,9.1,9.1,0,0,1-1.28-2.76,18.72,18.72,0,0,1,5.7-3.48,19,19,0,0,1,7.3-1.44q4.66,0,7.14,2.24a8,8,0,0,1,2.47,6.27,12.14,12.14,0,0,1-.11,1.82Zm-6.37.89.66-5c-4.14.15-7.1.76-8.86,1.82a5,5,0,0,0-2.65,4.48q0,4,3.65,4T281,51.37Z"/><path class="cls-3" d="M318.93,37.44c0,.52-.06,1.41-.2,2.66L317,53.19a43.13,43.13,0,0,0-.41,4.31,8.77,8.77,0,0,0,.36,2.38,14,14,0,0,1-5.24,1,1.17,1.17,0,0,1-1.1-.61,4.45,4.45,0,0,1-.34-2,32.11,32.11,0,0,1,.26-3.26l1.9-14.58a16.2,16.2,0,0,0,.15-2,4.18,4.18,0,0,0-.87-3,3.68,3.68,0,0,0-2.77-.91q-3.35,0-7.51,3.48l-3,22.65h-6.21l2.67-20.33a77.22,77.22,0,0,0,.67-7.74,10.64,10.64,0,0,0-.11-1.43A17,17,0,0,1,300.69,30q1.44,0,1.44,2.1c0,.44,0,.81-.05,1.11l-.1.66a24.11,24.11,0,0,1,5-3.26,10.49,10.49,0,0,1,4.32-.94Q318.93,29.71,318.93,37.44Z"/><path class="cls-3" d="M331.57,52.86c-.07.59-.1,1-.1,1.16a2.92,2.92,0,0,0,.64,2.1,2.66,2.66,0,0,0,2,.66,10.93,10.93,0,0,0,4.21-.94,1.66,1.66,0,0,1,.77,1.66,2.59,2.59,0,0,1-.92,2.1,6.61,6.61,0,0,1-2.54,1.16,14.62,14.62,0,0,1-3.68.44,7,7,0,0,1-5-1.71,6.08,6.08,0,0,1-1.82-4.64,11.86,11.86,0,0,1,.1-1.27l2.47-18.84H323.1l.56-4.48h4.68L329.42,22h6.21l-1.08,8.28h6L340,34.74h-6.06Z"/><path class="cls-3" d="M346.68,30.26H353l-4,30.39h-6.27Zm.56-5.89a5.57,5.57,0,0,1,.06-.94l.05-.72q.51-3.71,3.95-3.7h.62c2,0,3,.94,3,2.81a6.8,6.8,0,0,1,0,.89l-.05.72q-.53,3.7-4,3.7h-.62C348.24,27.13,347.24,26.21,347.24,24.37Z"/><path class="cls-3" d="M385.63,32.91q-3.86,0-5.55,1.11a8.54,8.54,0,0,1,1.43,4.81q0,5.74-3.28,8.7t-9.82,2.95a14.53,14.53,0,0,0-4.26.45c-.89.29-1.37.79-1.44,1.49s.38,1.17,1.23,1.41a22.88,22.88,0,0,0,5.09.36q5.6,0,8.55,2a6.47,6.47,0,0,1,3,5.69,8.57,8.57,0,0,1-3.78,7.46Q373,72,366.15,72q-6,0-9.2-1.94a6.06,6.06,0,0,1-3.23-5.47,6.18,6.18,0,0,1,1.87-4.67A9.22,9.22,0,0,1,361,57.67V57.5a5.13,5.13,0,0,1-2.59-1.38,3.3,3.3,0,0,1-.95-2.38,4.06,4.06,0,0,1,1.28-3,7.24,7.24,0,0,1,3.39-1.85,8,8,0,0,1-3.11-3,8.48,8.48,0,0,1-1.1-4.29q0-5.74,3.39-8.84t9.61-3.09A11.89,11.89,0,0,1,377,31.26a13.67,13.67,0,0,1,3.24-2.68,6.51,6.51,0,0,1,3.24-1,2.2,2.2,0,0,1,1.8.69,3.56,3.56,0,0,1,.56,2.23A14.86,14.86,0,0,1,385.63,32.91ZM360.24,63.8a3,3,0,0,0,1.47,2.76,9.16,9.16,0,0,0,4.6.89,11.37,11.37,0,0,0,6-1.33,4.26,4.26,0,0,0,2.1-3.81,2.88,2.88,0,0,0-1.64-2.71,11.5,11.5,0,0,0-5.19-.88Q360.24,58.72,360.24,63.8Zm14.85-25.25A4.37,4.37,0,0,0,374,35.26a5,5,0,0,0-3.54-1.07,5.7,5.7,0,0,0-4.6,1.82,8,8,0,0,0-1.57,5.36q0,4.53,4.62,4.53Q375.1,45.9,375.09,38.55Z"/><path class="cls-3" d="M400.46,21.51h-1.55L398,24.16c-.1.38-.24.85-.36,1.32h0a10.67,10.67,0,0,0-.35-1.36l-.91-2.61h-1.61l-.39,5.35h1l.2-3.15c0-.47,0-1,0-1.5h.05c.12.48.3,1.13.4,1.52l1,3.05h1.1l1-3c.16-.49.31-1.12.45-1.6h.06c0,.59,0,1.09,0,1.5l.2,3.15h1.06Z"/><polygon class="cls-3" points="389.53 22.39 391.23 22.39 391.23 26.86 392.29 26.86 392.29 22.39 394 22.39 394 21.5 389.53 21.5 389.53 22.39"/><rect class="cls-3" x="133.32" y="112.23" width="0.67" height="33.88"/><path class="cls-1" d="M2,127.08a3.31,3.31,0,0,1-1.48-.85A1.77,1.77,0,0,1,0,125a1.5,1.5,0,0,1,.51-1.23,2.31,2.31,0,0,1,1.5-.44,2,2,0,0,0,.55,1.59,2.3,2.3,0,0,0,1.67.57A2.56,2.56,0,0,0,5.85,125a1.55,1.55,0,0,0,.57-1.29,1.28,1.28,0,0,0-.18-.72,1.8,1.8,0,0,0-.64-.55,10.57,10.57,0,0,0-1.39-.62,9,9,0,0,1-1.92-1,2.93,2.93,0,0,1-1-1.11A3.19,3.19,0,0,1,1,118.26a3.29,3.29,0,0,1,.55-1.87,3.58,3.58,0,0,1,1.55-1.25,5.57,5.57,0,0,1,2.31-.44,4.93,4.93,0,0,1,2.77.73,3.24,3.24,0,0,1,1.44,2,3.11,3.11,0,0,1-.78.66,1.45,1.45,0,0,1-.69.27.71.71,0,0,1-.41-.1,2.09,2.09,0,0,1-.37-.46,2.32,2.32,0,0,0-.93-.86,2.7,2.7,0,0,0-1.27-.3A1.86,1.86,0,0,0,4,117a1.14,1.14,0,0,0-.4.94,1.38,1.38,0,0,0,.17.71,1.6,1.6,0,0,0,.6.53,11,11,0,0,0,1.3.59,12.86,12.86,0,0,1,2.12,1,3,3,0,0,1,1,1,2.83,2.83,0,0,1,.3,1.37,4.24,4.24,0,0,1-.59,2.25,3.94,3.94,0,0,1-1.69,1.48,5.84,5.84,0,0,1-2.55.52A7.52,7.52,0,0,1,2,127.08Z"/><path class="cls-1" d="M11.41,126.46a3.46,3.46,0,0,1-1-2.69,6.36,6.36,0,0,1,.07-1l1-7.9H14l-1.07,8.28q0,.31,0,.48a1.6,1.6,0,0,0,1.78,1.79c1.35,0,2.13-.75,2.32-2.27l1.07-8.28h2.5l-1,7.9A5.4,5.4,0,0,1,18,126.23a5.18,5.18,0,0,1-3.55,1.13A4.37,4.37,0,0,1,11.41,126.46Z"/><path class="cls-1" d="M29.56,121.84a2.79,2.79,0,0,1,.42,1.51,3.53,3.53,0,0,1-1.19,2.84,4.84,4.84,0,0,1-3.28,1H21.13l1.59-12.33h3.89a4.18,4.18,0,0,1,1.84.39,3,3,0,0,1,1.26,1.08,2.9,2.9,0,0,1,.45,1.6,3.57,3.57,0,0,1-.47,1.86,2.41,2.41,0,0,1-1.24,1.08A2.39,2.39,0,0,1,29.56,121.84Zm-3.07,3.29a1.27,1.27,0,0,0,.73-.67,3,3,0,0,0,.23-1.29,1.13,1.13,0,0,0-.45-1,2.64,2.64,0,0,0-1.49-.31h-1.2l-.44,3.49H25.1A3.69,3.69,0,0,0,26.49,125.13Zm.63-5.62a2,2,0,0,0,.49-1.52,1.09,1.09,0,0,0-.42-.95,2.28,2.28,0,0,0-1.31-.3H25L24.55,120h1A2.21,2.21,0,0,0,27.12,119.51Z"/><path class="cls-1" d="M32.47,126a5.65,5.65,0,0,1-1.2-3.86,10.29,10.29,0,0,1,.71-4,5.32,5.32,0,0,1,5.19-3.45,5.22,5.22,0,0,1,2,.39,4.43,4.43,0,0,1,1.61,1.16,2.92,2.92,0,0,1-.56,1c-.28.34-.5.5-.67.5a.8.8,0,0,1-.49-.19,5.54,5.54,0,0,0-1.13-.74,2.28,2.28,0,0,0-.93-.19,2.41,2.41,0,0,0-1.71.67,4.26,4.26,0,0,0-1.11,1.91,9.76,9.76,0,0,0-.39,2.93c0,2.19.77,3.29,2.29,3.29a3.81,3.81,0,0,0,1.42-.23,3.21,3.21,0,0,0,1.11-.75.8.8,0,0,1,.59.3,1.09,1.09,0,0,1,.23.72,1.22,1.22,0,0,1-.5.93,3.8,3.8,0,0,1-1.33.71,5.88,5.88,0,0,1-1.75.26A4.31,4.31,0,0,1,32.47,126Z"/><path class="cls-1" d="M42.49,126.46a3.46,3.46,0,0,1-1-2.69,6.36,6.36,0,0,1,.07-1l1-7.9h2.49L44,123.15q0,.31,0,.48a1.59,1.59,0,0,0,1.78,1.79c1.35,0,2.13-.75,2.32-2.27l1.07-8.28h2.5l-1,7.9A5.34,5.34,0,0,1,49,126.23a5.19,5.19,0,0,1-3.56,1.13A4.36,4.36,0,0,1,42.49,126.46Z"/><path class="cls-1" d="M60.94,115.65a2,2,0,0,1-.28.87.69.69,0,0,1-.61.29H57.86L56.54,127.2H54.07l1.33-10.39H52.57l.24-1.94H61A3.19,3.19,0,0,1,60.94,115.65Z"/><path class="cls-1" d="M69,126.18c0,.46,0,.8,0,1H66.55c0-1,0-2-.08-3H62c-.24.77-.51,1.79-.81,3H58.77a30.08,30.08,0,0,1,5.45-12.33h2.51A29.25,29.25,0,0,1,69,126.18Zm-2.68-4a22.62,22.62,0,0,0-1.12-5.36,22.89,22.89,0,0,0-1.4,2.51,25.87,25.87,0,0,0-1.17,2.85Z"/><path class="cls-1" d="M80.73,114.87l-1.28,9.92c0,.28-.09.75-.15,1.39l0,.55c0,.32-.19.47-.47.47h-2.1l.08-.61a2.93,2.93,0,0,0,0-.34,3.9,3.9,0,0,0-.38-1.62l-2.82-6-1.11,8.56H70l1.59-12.33h2.24a.62.62,0,0,1,.33.07.55.55,0,0,1,.23.29l3,6.3.85-6.66Z"/><path class="cls-1" d="M84.89,116.74l-.4,3.17h3.82l-.24,1.87H84.24l-.45,3.56h4.78a4.27,4.27,0,0,1-.36,1.46.76.76,0,0,1-.73.4H81.05l1.59-12.33h7.1l-.25,1.87Z"/><path class="cls-1" d="M91.28,126.08a5.2,5.2,0,0,1-1.22-3.68,10.77,10.77,0,0,1,.7-4.07,5.9,5.9,0,0,1,2-2.69,5,5,0,0,1,3-.94A4.48,4.48,0,0,1,99.2,116a5.08,5.08,0,0,1,1.18,3.62,11.29,11.29,0,0,1-.69,4.12,6.2,6.2,0,0,1-2,2.72,4.85,4.85,0,0,1-3,1A4.48,4.48,0,0,1,91.28,126.08ZM97,123.93a9.39,9.39,0,0,0,.82-4.35,3.74,3.74,0,0,0-.54-2.2,1.82,1.82,0,0,0-1.59-.74,2.54,2.54,0,0,0-2.35,1.45,9.26,9.26,0,0,0-.79,4.32,4,4,0,0,0,.53,2.27,1.76,1.76,0,0,0,1.56.76A2.56,2.56,0,0,0,97,123.93Z"/><path class="cls-1" d="M102.55,126.46a3.46,3.46,0,0,1-1-2.69,7.91,7.91,0,0,1,.06-1l1-7.9h2.49l-1.07,8.28q0,.31,0,.48a1.59,1.59,0,0,0,1.78,1.79c1.35,0,2.12-.75,2.32-2.27l1.07-8.28h2.49l-1,7.9a5.34,5.34,0,0,1-1.56,3.46,5.19,5.19,0,0,1-3.56,1.13A4.37,4.37,0,0,1,102.55,126.46Z"/><path class="cls-1" d="M114.49,127.08a3.31,3.31,0,0,1-1.48-.85,1.77,1.77,0,0,1-.52-1.28,1.5,1.5,0,0,1,.51-1.23,2.31,2.31,0,0,1,1.5-.44,2,2,0,0,0,.55,1.59,2.28,2.28,0,0,0,1.67.57,2.56,2.56,0,0,0,1.62-.45,1.57,1.57,0,0,0,.56-1.29,1.37,1.37,0,0,0-.17-.72,1.9,1.9,0,0,0-.64-.55,10.57,10.57,0,0,0-1.39-.62,9,9,0,0,1-1.92-1,2.85,2.85,0,0,1-1-1.11,3.53,3.53,0,0,1,.24-3.34,3.52,3.52,0,0,1,1.55-1.25,5.54,5.54,0,0,1,2.31-.44,5,5,0,0,1,2.77.73,3.32,3.32,0,0,1,1.44,2,3.5,3.5,0,0,1-.78.66,1.45,1.45,0,0,1-.69.27.69.69,0,0,1-.41-.1,1.83,1.83,0,0,1-.37-.46,2.32,2.32,0,0,0-.93-.86,2.74,2.74,0,0,0-1.28-.3,1.84,1.84,0,0,0-1.18.32,1.14,1.14,0,0,0-.4.94,1.29,1.29,0,0,0,.17.71,1.6,1.6,0,0,0,.6.53,11,11,0,0,0,1.3.59,12.69,12.69,0,0,1,2.11,1,2.93,2.93,0,0,1,1,1,2.83,2.83,0,0,1,.3,1.37,4.16,4.16,0,0,1-.6,2.25,3.86,3.86,0,0,1-1.68,1.48,5.84,5.84,0,0,1-2.55.52A7.48,7.48,0,0,1,114.49,127.08Z"/><path class="cls-1" d="M46.31,133.06h2.5l-1.59,12.32h-2.5Z"/><path class="cls-1" d="M60.31,133.06,59,143c0,.28-.09.75-.14,1.39l0,.55c0,.32-.19.47-.47.47H56.26l.08-.61a2.44,2.44,0,0,0,0-.34,3.84,3.84,0,0,0-.39-1.62l-2.82-6-1.1,8.56H49.58l1.59-12.32h2.24a.75.75,0,0,1,.33.06.67.67,0,0,1,.24.29l3,6.3.86-6.65Z"/><path class="cls-1" d="M60.82,145.41a3.4,3.4,0,0,1-1-.32c.15-1.14.42-1.71.83-1.71l.29,0,.25.05a3.8,3.8,0,0,0,1,.16,1.42,1.42,0,0,0,1.07-.42,2.11,2.11,0,0,0,.5-1.22l1.15-8.92h2.49L66.27,142a4,4,0,0,1-4,3.58A7.15,7.15,0,0,1,60.82,145.41Z"/><path class="cls-1" d="M71.43,134.92,71,138.09h3.83L74.6,140H70.78l-.45,3.56h4.78a4.52,4.52,0,0,1-.36,1.46.77.77,0,0,1-.73.4H67.59l1.58-12.32h7.1L76,134.92Z"/><path class="cls-1" d="M78,144.2a5.68,5.68,0,0,1-1.2-3.87,10.29,10.29,0,0,1,.7-4,5.34,5.34,0,0,1,5.2-3.45,5.12,5.12,0,0,1,2,.4,4.18,4.18,0,0,1,1.6,1.15,2.62,2.62,0,0,1-.56,1c-.27.34-.5.5-.67.5a.8.8,0,0,1-.48-.19,6.36,6.36,0,0,0-1.14-.74,2.23,2.23,0,0,0-.92-.19,2.41,2.41,0,0,0-1.71.67,4.26,4.26,0,0,0-1.11,1.91,9.76,9.76,0,0,0-.39,2.93c0,2.2.76,3.29,2.28,3.29a3.78,3.78,0,0,0,1.42-.23,3,3,0,0,0,1.11-.75.76.76,0,0,1,.59.3,1.06,1.06,0,0,1,.24.72,1.25,1.25,0,0,1-.5.93,3.72,3.72,0,0,1-1.33.71,5.93,5.93,0,0,1-1.75.26A4.31,4.31,0,0,1,78,144.2Z"/><path class="cls-1" d="M95.28,133.83a2.16,2.16,0,0,1-.28.87.69.69,0,0,1-.61.29H92.2l-1.33,10.39H88.41L89.74,135H86.9l.24-1.93h8.17A3.59,3.59,0,0,1,95.28,133.83Z"/><path class="cls-1" d="M96.85,133.06h2.5l-1.59,12.32h-2.5Z"/><path class="cls-1" d="M101.57,144.26a5.2,5.2,0,0,1-1.22-3.68,10.81,10.81,0,0,1,.7-4.07,6,6,0,0,1,2-2.69,5,5,0,0,1,3-.94,4.49,4.49,0,0,1,3.44,1.26,5.09,5.09,0,0,1,1.18,3.62,11.25,11.25,0,0,1-.69,4.12,6.2,6.2,0,0,1-2,2.72,4.85,4.85,0,0,1-3,1A4.45,4.45,0,0,1,101.57,144.26Zm5.76-2.15a9.41,9.41,0,0,0,.81-4.35,3.71,3.71,0,0,0-.53-2.19,1.83,1.83,0,0,0-1.59-.75,2.53,2.53,0,0,0-2.35,1.45,9.26,9.26,0,0,0-.79,4.32,4,4,0,0,0,.53,2.27,1.76,1.76,0,0,0,1.56.76A2.57,2.57,0,0,0,107.33,142.11Z"/><path class="cls-1" d="M121.9,133.06,120.62,143c0,.28-.09.75-.14,1.39l0,.55c0,.32-.19.47-.47.47h-2.11l.08-.61a2.44,2.44,0,0,0,0-.34,3.84,3.84,0,0,0-.39-1.62l-2.82-6-1.1,8.56h-2.47l1.59-12.32H115a.75.75,0,0,1,.33.06.67.67,0,0,1,.24.29l3,6.3.86-6.65Z"/><path class="cls-1" d="M151.6,132.46v.83h-4v-.83h1.5V126.1a3.75,3.75,0,0,1-.66.4,1.58,1.58,0,0,1-.65.16.59.59,0,0,1-.43-.14.51.51,0,0,1-.16-.41.67.67,0,0,1,.06-.3,3.58,3.58,0,0,0,1.14-.33,4,4,0,0,0,1.1-.75h.71v7.73Z"/><path class="cls-1" d="M157.13,129.75a16.4,16.4,0,0,1-2.75,2.66H158v.88h-5.25v-.6a31,31,0,0,0,2.49-2.2,7.5,7.5,0,0,0,1.32-1.68,3.29,3.29,0,0,0,.43-1.58,1.66,1.66,0,0,0-.41-1.2,1.49,1.49,0,0,0-1.15-.43c-1,0-1.64.64-1.76,1.91a1.13,1.13,0,0,1-.7-.16.62.62,0,0,1-.21-.53,1.8,1.8,0,0,1,.33-1A2.3,2.3,0,0,1,154,125a3.25,3.25,0,0,1,1.41-.29,2.74,2.74,0,0,1,2,.66,2.48,2.48,0,0,1,.72,1.94A3.94,3.94,0,0,1,157.13,129.75Z"/><path class="cls-1" d="M159.69,132.32a5.24,5.24,0,0,1-.82-3.16,5.83,5.83,0,0,1,.82-3.36,3.1,3.1,0,0,1,4.88,0,5.83,5.83,0,0,1,.83,3.36,5.24,5.24,0,0,1-.83,3.16,3.22,3.22,0,0,1-4.88,0Zm4-.68a5,5,0,0,0,.52-2.48,5.73,5.73,0,0,0-.52-2.69,1.68,1.68,0,0,0-1.59-.94q-2.1,0-2.1,3.63,0,3.36,2.1,3.36A1.7,1.7,0,0,0,163.72,131.64Z"/><path class="cls-1" d="M178,127a2,2,0,0,1,.55,1.49v4.79h-1.17v-4.75a1.51,1.51,0,0,0-.26-1,1.11,1.11,0,0,0-.86-.3,2.26,2.26,0,0,0-1.68.85,1.63,1.63,0,0,1,0,.24v4.94h-1.15v-4.88a1.19,1.19,0,0,0-.28-.85,1,1,0,0,0-.79-.3,1.83,1.83,0,0,0-.88.23,3.48,3.48,0,0,0-.86.7v5.1h-1.16v-4.4a8.38,8.38,0,0,0-.15-2.14,3.16,3.16,0,0,1,.43-.16,1.35,1.35,0,0,1,.4-.07.38.38,0,0,1,.36.19,1.39,1.39,0,0,1,.12.6,3,3,0,0,1,.94-.66,2.82,2.82,0,0,1,1.11-.21,2,2,0,0,1,1,.26,1.65,1.65,0,0,1,.67.69,2.85,2.85,0,0,1,1-.72,3.11,3.11,0,0,1,1.21-.23A1.91,1.91,0,0,1,178,127Z"/><path class="cls-1" d="M186.17,126.26a.86.86,0,0,1,.13.54,2.1,2.1,0,0,1,0,.28,2.46,2.46,0,0,0-1.24.23,2.41,2.41,0,0,1-.24,3.14,3.15,3.15,0,0,1-2.08.59,3.75,3.75,0,0,0-1.07.11q-.33.1-.33.33c0,.18.14.3.41.38a6.13,6.13,0,0,0,1.36.11,4.11,4.11,0,0,1,2.17.48,1.51,1.51,0,0,1,.76,1.35,1.65,1.65,0,0,1-.83,1.46,5.55,5.55,0,0,1-4.58.07,1.45,1.45,0,0,1-.78-1.33,1.19,1.19,0,0,1,.36-.87,2.08,2.08,0,0,1,1-.51v0a1.19,1.19,0,0,1-.65-.36.91.91,0,0,1-.23-.61.73.73,0,0,1,.25-.55,1.34,1.34,0,0,1,.68-.36,2.2,2.2,0,0,1-.87-.78,2,2,0,0,1-.31-1.08,2.17,2.17,0,0,1,.73-1.78,3.19,3.19,0,0,1,2.12-.62,3,3,0,0,1,1.43.33,2.62,2.62,0,0,1,.66-.5,1.62,1.62,0,0,1,.71-.18A.45.45,0,0,1,186.17,126.26ZM181,133.87c0,.71.6,1.06,1.81,1.06a3.36,3.36,0,0,0,1.52-.27.85.85,0,0,0,.51-.79.81.81,0,0,0-.47-.77,3.49,3.49,0,0,0-1.51-.25Q181,132.85,181,133.87Zm2.92-4a1.49,1.49,0,0,0,.36-1.12,1.52,1.52,0,0,0-.36-1.12,1.6,1.6,0,0,0-1.16-.36,1.55,1.55,0,0,0-1.14.37,1.51,1.51,0,0,0-.36,1.11,1.31,1.31,0,0,0,1.5,1.46A1.61,1.61,0,0,0,184,129.86Z"/><path class="cls-1" d="M192.26,129.73h-2.63v-.8h2.63v-2.71h.85v2.71h2.63v.8h-2.63v2.71h-.85Z"/><path class="cls-1" d="M204,129.75a16.4,16.4,0,0,1-2.75,2.66h3.58v.88h-5.25v-.6a29.33,29.33,0,0,0,2.49-2.2,7.5,7.5,0,0,0,1.32-1.68,3.19,3.19,0,0,0,.43-1.58,1.66,1.66,0,0,0-.41-1.2,1.49,1.49,0,0,0-1.15-.43c-1.05,0-1.64.64-1.76,1.91a1.13,1.13,0,0,1-.7-.16.62.62,0,0,1-.2-.53,1.86,1.86,0,0,1,.32-1,2.3,2.3,0,0,1,.93-.77,3.29,3.29,0,0,1,1.41-.29,2.74,2.74,0,0,1,1.95.66,2.48,2.48,0,0,1,.72,1.94A3.94,3.94,0,0,1,204,129.75Z"/><path class="cls-1" d="M207.61,132a.73.73,0,0,1,.18.52v.17a3.17,3.17,0,0,1-.56,1.74,1.94,1.94,0,0,1-.33.41.48.48,0,0,1-.29.12.61.61,0,0,1-.43-.15,5.51,5.51,0,0,0,.58-.78,2.23,2.23,0,0,0,.25-.71h-.09a.6.6,0,0,1-.46-.18.72.72,0,0,1-.16-.49v-.16a.69.69,0,0,1,.17-.49.62.62,0,0,1,.47-.19h.18A.68.68,0,0,1,207.61,132Z"/><path class="cls-1" d="M210,132.32a5.24,5.24,0,0,1-.82-3.16,5.83,5.83,0,0,1,.82-3.36,3.11,3.11,0,0,1,4.89,0,5.83,5.83,0,0,1,.82,3.36,5.24,5.24,0,0,1-.82,3.16,3.23,3.23,0,0,1-4.89,0Zm4-.68a5,5,0,0,0,.51-2.48,5.74,5.74,0,0,0-.51-2.69,1.7,1.7,0,0,0-1.59-.94c-1.41,0-2.11,1.21-2.11,3.63,0,2.24.7,3.36,2.11,3.36A1.72,1.72,0,0,0,214,131.64Z"/><path class="cls-1" d="M217.25,132.32a5.24,5.24,0,0,1-.82-3.16,5.83,5.83,0,0,1,.82-3.36,3.1,3.1,0,0,1,4.88,0,5.83,5.83,0,0,1,.83,3.36,5.24,5.24,0,0,1-.83,3.16,3.22,3.22,0,0,1-4.88,0Zm4-.68a4.85,4.85,0,0,0,.52-2.48,5.6,5.6,0,0,0-.52-2.69,1.68,1.68,0,0,0-1.59-.94q-2.1,0-2.1,3.63,0,3.36,2.1,3.36A1.7,1.7,0,0,0,221.28,131.64Z"/><path class="cls-1" d="M224.53,132.32a5.24,5.24,0,0,1-.82-3.16,5.83,5.83,0,0,1,.82-3.36,3.1,3.1,0,0,1,4.88,0,5.83,5.83,0,0,1,.83,3.36,5.24,5.24,0,0,1-.83,3.16,3.22,3.22,0,0,1-4.88,0Zm4-.68a5,5,0,0,0,.51-2.48,5.74,5.74,0,0,0-.51-2.69,1.68,1.68,0,0,0-1.59-.94q-2.1,0-2.1,3.63,0,3.36,2.1,3.36A1.7,1.7,0,0,0,228.56,131.64Z"/><path class="cls-1" d="M240,133.17a1.61,1.61,0,0,1-.76.19.48.48,0,0,1-.42-.2,1.69,1.69,0,0,1-.15-.72,2.42,2.42,0,0,1-.94.71,2.94,2.94,0,0,1-1.26.27,2.09,2.09,0,0,1-1.59-.57,2.44,2.44,0,0,1-.53-1.7v-4.58h1.16v4.5a1.89,1.89,0,0,0,.29,1.17,1.12,1.12,0,0,0,.94.36,2,2,0,0,0,1.07-.3,2.56,2.56,0,0,0,.85-.85v-4.88h1.16v5.26A4.3,4.3,0,0,0,240,133.17Z"/><path class="cls-1" d="M247,132.66a1.91,1.91,0,0,0,.12.51,2.4,2.4,0,0,1-.92.19.33.33,0,0,1-.31-.28,4.53,4.53,0,0,1-.08-1v-3.28a1.8,1.8,0,0,0-.27-1.12,1.14,1.14,0,0,0-.91-.34,3,3,0,0,0-2,.92v5.06h-1.16v-4.46a8.27,8.27,0,0,0-.15-2.09,2.61,2.61,0,0,1,.9-.22c.27,0,.41.23.41.71v.12a4.46,4.46,0,0,1,1.1-.69,3,3,0,0,1,1.11-.22,2,2,0,0,1,1.57.57,2.49,2.49,0,0,1,.52,1.73v2.95C247,132.15,247,132.47,247,132.66Z"/><path class="cls-1" d="M248.72,124.65v-.14a.6.6,0,0,1,.68-.68h.13a.6.6,0,0,1,.68.68v.14a.6.6,0,0,1-.68.68h-.13A.6.6,0,0,1,248.72,124.65Zm.17,1.92H250v6.72h-1.15Z"/><path class="cls-1" d="M255.38,132.52a.53.53,0,0,1,.07.26.41.41,0,0,1-.19.36,1.35,1.35,0,0,1-.51.2,3.06,3.06,0,0,1-.7.08,1.86,1.86,0,0,1-1.31-.45,1.57,1.57,0,0,1-.49-1.19v-4.39h-1.18v-.82h1.18v-1.84h1.16v1.84H255v.82h-1.61v4.23a1.07,1.07,0,0,0,.2.71.72.72,0,0,0,.6.23,2.78,2.78,0,0,0,1-.21A.42.42,0,0,1,255.38,132.52Z"/><path class="cls-1" d="M257.08,133.23a2.68,2.68,0,0,1-.94-.48.86.86,0,0,1-.36-.65.56.56,0,0,1,.15-.39.62.62,0,0,1,.4-.2,2.18,2.18,0,0,0,2,1.06,1.55,1.55,0,0,0,1.05-.31,1.06,1.06,0,0,0,.35-.82.74.74,0,0,0-.21-.55,1.47,1.47,0,0,0-.54-.34,8.25,8.25,0,0,0-.87-.28,9.29,9.29,0,0,1-1.16-.38,2.08,2.08,0,0,1-.75-.57,1.49,1.49,0,0,1-.31-1,1.66,1.66,0,0,1,.34-1,2.15,2.15,0,0,1,.89-.64,3,3,0,0,1,1.12-.22,3.14,3.14,0,0,1,1.46.33,2.36,2.36,0,0,1,1,.9,1.26,1.26,0,0,1-.32.33.56.56,0,0,1-.32.12.45.45,0,0,1-.33-.17,1.88,1.88,0,0,0-1.5-.69,1.41,1.41,0,0,0-.89.26.92.92,0,0,0-.33.78.72.72,0,0,0,.2.54,1.46,1.46,0,0,0,.53.31,8.17,8.17,0,0,0,.86.25c.48.14.88.26,1.17.38a2,2,0,0,1,.76.58,1.61,1.61,0,0,1,.32,1,1.75,1.75,0,0,1-.7,1.48,3,3,0,0,1-1.87.54A3.91,3.91,0,0,1,257.08,133.23Z"/><path class="cls-1" d="M267.21,123.37h1L264.62,134h-1Z"/><path class="cls-1" d="M280.08,127a2,2,0,0,1,.55,1.49v4.79h-1.17v-4.75a1.45,1.45,0,0,0-.27-1,1.08,1.08,0,0,0-.86-.3,2.3,2.3,0,0,0-1.68.85,1.44,1.44,0,0,1,0,.24v4.94h-1.15v-4.88a1.24,1.24,0,0,0-.28-.85,1.06,1.06,0,0,0-.8-.3,1.83,1.83,0,0,0-.87.23,3.51,3.51,0,0,0-.87.7v5.1h-1.16v-4.4a9.16,9.16,0,0,0-.14-2.14,2.73,2.73,0,0,1,.43-.16,1.25,1.25,0,0,1,.4-.07.37.37,0,0,1,.35.19,1.26,1.26,0,0,1,.12.6,3.14,3.14,0,0,1,.95-.66,2.75,2.75,0,0,1,1.11-.21,2,2,0,0,1,1,.26,1.54,1.54,0,0,1,.67.69,2.88,2.88,0,0,1,1-.72,3.06,3.06,0,0,1,1.2-.23A1.94,1.94,0,0,1,280.08,127Z"/><path class="cls-1" d="M287.44,132.38v.91h-5v-8.56h1.21v7.65Z"/></g></g></svg>