<svg xmlns="http://www.w3.org/2000/svg" viewBox="0 0 382.9 139.57"><defs><style>.cls-1{fill:#004164;}.cls-2{fill:#f26322;}.cls-3{fill:#008fb4;}</style></defs><g id="Layer_2" data-name="Layer 2"><g id="Logos"><path class="cls-1" d="M28.36,19.5c-8.91,0-15.3,4.81-16.67,12.54L9.24,46C7.87,53.7,12.57,58.5,21.49,58.5S36.79,53.7,38.16,46L40.61,32C42,24.31,37.28,19.5,28.36,19.5Zm2.87,12.64L28.81,45.87c-.23,1.31-.66,3.76-5.76,3.76s-4.66-2.45-4.43-3.76L21,32.14c.24-1.32.67-3.76,5.76-3.76S31.47,30.82,31.23,32.14ZM71,30.8c.05-.34.11-.68.14-1,.52-4.62-1.06-9.64-10.36-9.64H47.41a1.43,1.43,0,0,0-1.34,1.14L39.76,57a.93.93,0,0,0,.94,1.14h7.1A1.41,1.41,0,0,0,49.13,57L51,46.41h5.1c8.09,0,11.68-3.82,13.21-7.87h0a15.49,15.49,0,0,0,.77-2.85Zm-9.39.05L61.37,32l-.65,3.65c-.27,1.52-.31,1.79-3.19,1.79h-5l.63-3.54h0l.87-4.88H59C61.89,29.06,61.85,29.3,61.57,30.85Zm36.72-8.41c-1.9-1.51-4.67-2.31-8.24-2.31H77.12a1.42,1.42,0,0,0-1.34,1.14v0L69.47,57a.93.93,0,0,0,.94,1.14H83.35c8.35,0,13.9-4.37,15.25-12l2.47-14s0-.06,0-.09c.54-3.2.14-5.82-1.13-7.78A7.59,7.59,0,0,0,98.29,22.44Zm-6.64,10L89.28,45.87c-.4,2.28-.76,3.37-4.51,3.37H80.22l3.55-20.18h4.56C92.07,29.06,92.05,30.15,91.65,32.43ZM166.46,19.5c-8.92,0-15.31,4.81-16.68,12.54L147.33,46C146,53.7,150.66,58.5,159.58,58.5S174.89,53.7,176.25,46L178.71,32C180.07,24.31,175.38,19.5,166.46,19.5Zm2.86,12.64L166.9,45.87c-.23,1.31-.66,3.76-5.76,3.76s-4.66-2.45-4.43-3.76l2.42-13.73c.24-1.32.67-3.76,5.76-3.76S169.56,30.82,169.32,32.14ZM150.5,18.4l-8.27,3a2.16,2.16,0,0,0-1.4,1.09l-10,19.76-2.2-13.46c-.27-1.68-.39-2.4-1.39-2l-6.6,2.35c-1.16.41-1.24.66-1.15,1.36l4.15,27a.92.92,0,0,0,.94.78h7.79a1.45,1.45,0,0,0,1.22-.78l18-37.57C152,19.06,151.73,18.1,150.5,18.4Zm-34.14,1.73h-7.08a1.41,1.41,0,0,0-1.37,1.08L101.62,57a1,1,0,0,0,.92,1.17h7.12A1.4,1.4,0,0,0,111,57l6.31-35.83A1.08,1.08,0,0,0,116.36,20.13Z"/><path class="cls-2" d="M160.61.06,121.06,18.2a1.45,1.45,0,0,0-.77,1l-.7,4.13c-.07.39.18.59.55.46L156.05,9.44a2,2,0,0,0,1-.88L161,.42C161.13.07,161-.1,160.61.06ZM37.7,54.58l-27,12.83c-.36.15-.34.28.05.28h1.79a2.44,2.44,0,0,0,1-.21L36.78,57.29c.36-.16.8-.21,1-.79l.32-1.34C38.23,54.55,37.94,54.52,37.7,54.58Z"/><path class="cls-3" d="M155.19,11.3,120.38,25.06a1.54,1.54,0,0,0-.77,1l0,.15c-.07.38.17.57.53.41l33.36-11.78a2.17,2.17,0,0,0,1-.91l1.1-2.28C155.7,11.29,155.55,11.13,155.19,11.3ZM36.92,58.55,16.48,67.4c-.36.15-.33.28.06.28h1.25a1.92,1.92,0,0,0,.88-.17l18.07-7.76c.36-.15.36-.24.44-.57l.09-.47C37.35,58.41,37.06,58.51,36.92,58.55Z"/><path class="cls-1" d="M19,84.26a6.17,6.17,0,0,0-2.17.39A10,10,0,0,0,14.55,86l0-.24c0-.25,0-.42,0-.51,0-.56-.21-.84-.61-.84a6,6,0,0,0-1.8.42,3.92,3.92,0,0,1,0,.63,29.28,29.28,0,0,1-.33,3.37l-1.19,8.54H13l1.34-9.66a6.79,6.79,0,0,1,4-1.78,2.06,2.06,0,0,1,1.48.45,2,2,0,0,1,.47,1.44,7.54,7.54,0,0,1-.07.89L19.3,95a15,15,0,0,0-.17,1.56,1.41,1.41,0,0,0,.14.73.49.49,0,0,0,.43.21,4.85,4.85,0,0,0,1.8-.35,2.72,2.72,0,0,1-.1-.77,17.44,17.44,0,0,1,.22-2.06l.79-5.64c.06-.53.09-.91.09-1.13Q22.5,84.26,19,84.26Z"/><path class="cls-1" d="M29,79.25H28.8a1.34,1.34,0,0,0-1.47,1.31l0,.25a1.15,1.15,0,0,0,0,.29c0,.68.38,1,1.14,1h.24a1.36,1.36,0,0,0,1.49-1.32l.05-.25a1,1,0,0,0,0-.28C30.21,79.59,29.82,79.25,29,79.25Z"/><polygon class="cls-1" points="25.29 97.36 27.49 97.36 29.29 84.49 27.09 84.49 25.29 97.36"/><path class="cls-1" d="M39,90.26a25,25,0,0,1-3,4.95A18.24,18.24,0,0,1,34.52,91,21.25,21.25,0,0,1,34,86.39c0-.61,0-1.25.07-1.9H31.87c0,.42-.05,1-.05,1.82a23,23,0,0,0,.7,5.82,21.1,21.1,0,0,0,2.16,5.23h2.1a29.25,29.25,0,0,0,4-6,30.31,30.31,0,0,0,2.37-6.86h-2.3A28.75,28.75,0,0,1,39,90.26Z"/><path class="cls-1" d="M49.87,84.26a6.21,6.21,0,0,0-3.54,1A6.32,6.32,0,0,0,44,88.14a11.25,11.25,0,0,0-.8,4.42,5.13,5.13,0,0,0,1.26,3.76,4.89,4.89,0,0,0,3.66,1.28,6.09,6.09,0,0,0,3.51-1A6.49,6.49,0,0,0,54,93.66a11.48,11.48,0,0,0,.8-4.47,4.39,4.39,0,0,0-4.91-4.93Zm1.53,9.93A3.46,3.46,0,0,1,48.3,96a2.58,2.58,0,0,1-2.12-.83,3.91,3.91,0,0,1-.69-2.54,9.27,9.27,0,0,1,1.12-5,3.5,3.5,0,0,1,3.12-1.78,2.57,2.57,0,0,1,2.09.82,3.83,3.83,0,0,1,.69,2.5A9.48,9.48,0,0,1,51.4,94.19Z"/><polygon class="cls-1" points="56.54 97.36 58.74 97.36 61.34 78.85 59.14 78.85 56.54 97.36"/><path class="cls-1" d="M71.31,93.9A4.75,4.75,0,0,1,67.49,96a2.21,2.21,0,0,1-1.62-.52,2.09,2.09,0,0,1-.53-1.59,5,5,0,0,1,.07-.82l1.22-8.61H64.4l-1.21,8.66a6.22,6.22,0,0,0-.07.94,3.33,3.33,0,0,0,1,2.59,4,4,0,0,0,2.81.92,5.74,5.74,0,0,0,2.31-.46,5,5,0,0,0,1.83-1.3c0,.11,0,.26,0,.45a1.51,1.51,0,0,0,.21.93.86.86,0,0,0,.7.26,3.69,3.69,0,0,0,1.52-.35,4.13,4.13,0,0,1-.14-1.1,9.94,9.94,0,0,1,.14-1.48l1.41-10.06H72.64Z"/><path class="cls-1" d="M92.35,84.26A6,6,0,0,0,90,84.7a7.19,7.19,0,0,0-2.07,1.38,2.65,2.65,0,0,0-1.1-1.34A3.49,3.49,0,0,0,85,84.26a5.84,5.84,0,0,0-2.18.38,7,7,0,0,0-2,1.25,2.9,2.9,0,0,0,0-.46c0-.69-.24-1-.72-1a3,3,0,0,0-.77.12,8.18,8.18,0,0,0-.87.32,3.07,3.07,0,0,1,0,.52,25.47,25.47,0,0,1-.32,3.58L77,97.36H79.2l1.38-9.78a7.21,7.21,0,0,1,1.8-1.34,4,4,0,0,1,1.76-.42,1.83,1.83,0,0,1,1.31.45,1.65,1.65,0,0,1,.46,1.26,3.62,3.62,0,0,1,0,.49l-1.29,9.34h2.2l1.31-9.45,0-.45a5,5,0,0,1,3.44-1.64,2.06,2.06,0,0,1,1.42.42,1.7,1.7,0,0,1,.45,1.29,4,4,0,0,1-.07.73l-1.26,9.1h2.24l1.27-9.17a4.44,4.44,0,0,0,.05-.73,3.14,3.14,0,0,0-.89-2.34A3.35,3.35,0,0,0,92.35,84.26Z"/><path class="cls-1" d="M107.74,85.21a4.67,4.67,0,0,0-3.12-.95,8,8,0,0,0-3.21.64,8.58,8.58,0,0,0-2.57,1.67,2.61,2.61,0,0,0,.52.87.89.89,0,0,0,.62.33.48.48,0,0,0,.33-.12,10.17,10.17,0,0,1,1.88-1.25,4.5,4.5,0,0,1,2-.44,2.78,2.78,0,0,1,1.83.51,1.85,1.85,0,0,1,.6,1.51c0,.12,0,.34,0,.65l-.11.92A16.37,16.37,0,0,0,100,90.86a3.62,3.62,0,0,0-2.22,3.39,3.14,3.14,0,0,0,1,2.47,3.8,3.8,0,0,0,2.59.88,5.44,5.44,0,0,0,4.37-2c0,1.3.29,1.94,1,1.94a2.48,2.48,0,0,0,.88-.17,4,4,0,0,0,.85-.43,3.12,3.12,0,0,1-.35-.74,3.28,3.28,0,0,1-.12-1,12.23,12.23,0,0,1,.14-1.59l.71-5a5,5,0,0,0,0-.77A3.34,3.34,0,0,0,107.74,85.21ZM105.9,93.5a7.35,7.35,0,0,1-1.82,1.83,3.7,3.7,0,0,1-2,.65c-1.34,0-2-.62-2-1.87a2.42,2.42,0,0,1,1.45-2.24,11.91,11.91,0,0,1,4.78-.87Z"/><path class="cls-1" d="M118.8,84.26a6.3,6.3,0,0,0-3.58,1.07l.91-6.48h-2.24L111.8,93.69a14.5,14.5,0,0,1-.44,2.09,4.13,4.13,0,0,1-.59,1.19,3.27,3.27,0,0,0,1.66.44c.5,0,.9-.47,1.2-1.4a3.88,3.88,0,0,0,1.54,1.17,5.34,5.34,0,0,0,2.16.42,5.49,5.49,0,0,0,3.4-1.06,6.37,6.37,0,0,0,2.14-2.9,11.19,11.19,0,0,0,.73-4.17,5.39,5.39,0,0,0-1.31-3.81A4.53,4.53,0,0,0,118.8,84.26Zm1.44,9.86a3.63,3.63,0,0,1-6.26.06l1-7.05a5.45,5.45,0,0,1,3.35-1.26,2.8,2.8,0,0,1,2.19.95,4,4,0,0,1,.83,2.7A8.78,8.78,0,0,1,120.24,94.12Z"/><polygon class="cls-1" points="139.05 83.83 137.41 83.83 136.66 89.01 131.65 89.01 131.44 90.55 136.45 90.55 135.75 95.72 137.39 95.72 138.11 90.55 143.15 90.55 143.36 89.01 138.32 89.01 139.05 83.83"/><path class="cls-1" d="M159.55,84.26a7.16,7.16,0,0,0-2.44.44,8.8,8.8,0,0,0-2.31,1.22l1-7.07h-2.2L151,97.36h2.2l1.38-9.78a9.31,9.31,0,0,1,2.16-1.18A5.88,5.88,0,0,1,158.8,86,1.84,1.84,0,0,1,160.91,88a5.49,5.49,0,0,1,0,.64l-1.21,8.7h2.2l1.26-9a4.53,4.53,0,0,0,0-.75,3.25,3.25,0,0,0-1-2.49A3.72,3.72,0,0,0,159.55,84.26Z"/><path class="cls-1" d="M174.84,84.49l-4.73,9.81-2-9.81H165.8l2.81,12.66a7.79,7.79,0,0,1-1.44,2.38,2.31,2.31,0,0,1-1.67.74,3.58,3.58,0,0,1-.87-.11,1.71,1.71,0,0,1-.65-.29,1.05,1.05,0,0,0-.59,1,1,1,0,0,0,.55.91,2.94,2.94,0,0,0,1.51.33,4.25,4.25,0,0,0,2.69-.86,8.32,8.32,0,0,0,2.13-2.86l6.93-13.86Z"/><path class="cls-1" d="M187,85.21a4.67,4.67,0,0,0-3.12-.95,8,8,0,0,0-3.21.64,8.58,8.58,0,0,0-2.57,1.67,2.61,2.61,0,0,0,.52.87.89.89,0,0,0,.62.33.48.48,0,0,0,.33-.12,10.17,10.17,0,0,1,1.88-1.25,4.5,4.5,0,0,1,2-.44,2.76,2.76,0,0,1,1.83.51,1.85,1.85,0,0,1,.6,1.51c0,.12,0,.34-.05.65l-.11.92a16.37,16.37,0,0,0-6.51,1.31,3.63,3.63,0,0,0-2.23,3.39,3.14,3.14,0,0,0,1,2.47,3.8,3.8,0,0,0,2.59.88,5.44,5.44,0,0,0,4.37-2c0,1.3.29,1.94,1,1.94a2.48,2.48,0,0,0,.88-.17,4,4,0,0,0,.85-.43,3.12,3.12,0,0,1-.35-.74,3.28,3.28,0,0,1-.12-1,12.23,12.23,0,0,1,.14-1.59l.71-5a5,5,0,0,0,0-.77A3.34,3.34,0,0,0,187,85.21Zm-1.84,8.29a7.35,7.35,0,0,1-1.82,1.83,3.7,3.7,0,0,1-2,.65c-1.34,0-2-.62-2-1.87a2.42,2.42,0,0,1,1.45-2.24,11.91,11.91,0,0,1,4.78-.87Z"/><polygon class="cls-1" points="190.47 97.36 192.68 97.36 195.27 78.85 193.07 78.85 190.47 97.36"/><path class="cls-1" d="M205.24,93.9A4.74,4.74,0,0,1,201.43,96a2.23,2.23,0,0,1-1.63-.52,2.13,2.13,0,0,1-.52-1.59,5,5,0,0,1,.07-.82l1.21-8.61h-2.22l-1.22,8.66a7.87,7.87,0,0,0-.07.94,3.36,3.36,0,0,0,1,2.59,4,4,0,0,0,2.81.92,5.79,5.79,0,0,0,2.32-.46,5,5,0,0,0,1.83-1.3,2.64,2.64,0,0,0,0,.45,1.51,1.51,0,0,0,.21.93.88.88,0,0,0,.71.26,3.73,3.73,0,0,0,1.52-.35,3.76,3.76,0,0,1-.14-1.1,8.76,8.76,0,0,1,.14-1.48l1.4-10.06h-2.22Z"/><path class="cls-1" d="M218.14,84.33a3.68,3.68,0,0,0-2,.63,5.48,5.48,0,0,0-1.66,1.66l.3-2.13h-2.22l-1.81,12.87H213l.93-6.78a5.91,5.91,0,0,1,1.35-3.13,3.63,3.63,0,0,1,4.11-.83,1.66,1.66,0,0,0,.44-.91l0-.24C219.83,84.71,219.27,84.33,218.14,84.33Z"/><path class="cls-1" d="M226.71,84.26a6.21,6.21,0,0,0-3.54,1,6.39,6.39,0,0,0-2.29,2.88,11.25,11.25,0,0,0-.8,4.42,5.13,5.13,0,0,0,1.26,3.76A4.89,4.89,0,0,0,225,97.6a6.09,6.09,0,0,0,3.51-1,6.49,6.49,0,0,0,2.31-2.92,11.3,11.3,0,0,0,.8-4.47,4.39,4.39,0,0,0-4.91-4.93Zm1.53,9.93a3.45,3.45,0,0,1-3.1,1.79,2.58,2.58,0,0,1-2.12-.83,3.91,3.91,0,0,1-.69-2.54,9.27,9.27,0,0,1,1.13-5,3.48,3.48,0,0,1,3.11-1.78,2.57,2.57,0,0,1,2.09.82,3.83,3.83,0,0,1,.69,2.5A9.48,9.48,0,0,1,228.24,94.19Z"/><path class="cls-1" d="M241.5,84.26a6.08,6.08,0,0,0-2.16.39A9.83,9.83,0,0,0,237,86l0-.24a4.74,4.74,0,0,0,0-.51c0-.56-.2-.84-.61-.84a6.09,6.09,0,0,0-1.8.42,3.83,3.83,0,0,1,.05.63,29.28,29.28,0,0,1-.33,3.37l-1.19,8.54h2.22l1.33-9.66a6.79,6.79,0,0,1,4-1.78,2.05,2.05,0,0,1,1.47.45,1.92,1.92,0,0,1,.47,1.44,5.88,5.88,0,0,1-.07.89L241.78,95a14.06,14.06,0,0,0-.16,1.56,1.41,1.41,0,0,0,.14.73.46.46,0,0,0,.42.21,4.77,4.77,0,0,0,1.8-.35,2.76,2.76,0,0,1-.09-.77,19.07,19.07,0,0,1,.21-2.06l.8-5.64c.06-.53.09-.91.09-1.13Q245,84.26,241.5,84.26Z"/><path class="cls-1" d="M251.52,79.25h-.23a1.35,1.35,0,0,0-1.48,1.31l-.05.25a2,2,0,0,0,0,.29c0,.68.38,1,1.15,1h.23a1.36,1.36,0,0,0,1.5-1.32l0-.25a1.91,1.91,0,0,0,0-.28C252.69,79.59,252.3,79.25,251.52,79.25Z"/><polygon class="cls-1" points="247.78 97.36 249.97 97.36 251.78 84.49 249.58 84.49 247.78 97.36"/><path class="cls-1" d="M263.72,85.19a5,5,0,0,0-1.37-.67,5.28,5.28,0,0,0-1.63-.26,6.42,6.42,0,0,0-3.64,1,6.86,6.86,0,0,0-2.45,2.92,10.44,10.44,0,0,0-.86,4.34,5.33,5.33,0,0,0,1.2,3.7,4.29,4.29,0,0,0,3.34,1.34,5.41,5.41,0,0,0,4-1.66V96c0,1,.25,1.45.75,1.45a4.16,4.16,0,0,0,1.71-.44,4.35,4.35,0,0,1-.19-1.24,14.57,14.57,0,0,1,.19-2l2.08-14.91h-2.22ZM262.47,94a5.55,5.55,0,0,1-1.72,1.5,4.19,4.19,0,0,1-2,.49Q256,96,256,92.49a9.82,9.82,0,0,1,.58-3.49,5.32,5.32,0,0,1,1.62-2.35,3.84,3.84,0,0,1,2.42-.83,4.12,4.12,0,0,1,1.62.33,3,3,0,0,1,1.21.84Z"/><path class="cls-1" d="M277.54,85.21a4.7,4.7,0,0,0-3.13-.95,8,8,0,0,0-3.2.64,8.76,8.76,0,0,0-2.58,1.67,2.62,2.62,0,0,0,.53.87.87.87,0,0,0,.62.33.52.52,0,0,0,.33-.12A10.17,10.17,0,0,1,272,86.4a4.46,4.46,0,0,1,2-.44,2.79,2.79,0,0,1,1.84.51,1.85,1.85,0,0,1,.6,1.51c0,.12,0,.34-.05.65l-.12.92a16.45,16.45,0,0,0-6.51,1.31,3.62,3.62,0,0,0-2.22,3.39,3.11,3.11,0,0,0,1,2.47,3.77,3.77,0,0,0,2.58.88,5.46,5.46,0,0,0,4.38-2c-.05,1.3.29,1.94,1,1.94a2.47,2.47,0,0,0,.87-.17,4.06,4.06,0,0,0,.86-.43,2.78,2.78,0,0,1-.35-.74,3.28,3.28,0,0,1-.12-1,12.23,12.23,0,0,1,.14-1.59l.7-5a4.73,4.73,0,0,0,0-.77A3.34,3.34,0,0,0,277.54,85.21ZM275.7,93.5a7.22,7.22,0,0,1-1.83,1.83,3.64,3.64,0,0,1-2,.65c-1.34,0-2-.62-2-1.87a2.43,2.43,0,0,1,1.46-2.24,11.85,11.85,0,0,1,4.77-.87Z"/><path class="cls-1" d="M289.18,84.86a6.13,6.13,0,0,0-2.83-.6,6.73,6.73,0,0,0-2.4.42,4.17,4.17,0,0,0-1.79,1.25,3.1,3.1,0,0,0-.68,2,2.79,2.79,0,0,0,.54,1.77,3.86,3.86,0,0,0,1.3,1.08,17.61,17.61,0,0,0,2,.81,11,11,0,0,1,2.07.94,1.4,1.4,0,0,1,.67,1.23,1.9,1.9,0,0,1-.8,1.63A3.71,3.71,0,0,1,285,96a4.23,4.23,0,0,1-2.21-.54A3.41,3.41,0,0,1,281.46,94a1.51,1.51,0,0,0-.93.44,1.24,1.24,0,0,0-.31.87,1.55,1.55,0,0,0,.61,1.17,4.29,4.29,0,0,0,1.67.85,8.36,8.36,0,0,0,2.38.32,6.37,6.37,0,0,0,3.91-1.08,3.49,3.49,0,0,0,1.42-3,2.73,2.73,0,0,0-.51-1.7,3.78,3.78,0,0,0-1.25-1,20.24,20.24,0,0,0-2-.82,9.61,9.61,0,0,1-2.15-1,1.54,1.54,0,0,1-.7-1.35,1.57,1.57,0,0,1,.72-1.36,3.41,3.41,0,0,1,1.92-.49A3.07,3.07,0,0,1,289,87.13a.74.74,0,0,0,.59.33,1.28,1.28,0,0,0,.64-.23,3.7,3.7,0,0,0,.71-.63A3.88,3.88,0,0,0,289.18,84.86Z"/><path class="cls-1" d="M299,84.26a6.63,6.63,0,0,0-3.59.94,6.15,6.15,0,0,0-2.32,2.74,10.27,10.27,0,0,0-.8,4.25,5.4,5.4,0,0,0,1.42,3.94,5.12,5.12,0,0,0,3.84,1.47,6.88,6.88,0,0,0,3.41-.8,5.4,5.4,0,0,0,2.19-2.36,2.54,2.54,0,0,0-1.36-.66.62.62,0,0,0-.52.31,3.9,3.9,0,0,1-1.48,1.42,4.51,4.51,0,0,1-2.1.43,2.84,2.84,0,0,1-2.3-1,4.24,4.24,0,0,1-.83-2.82c0-.39,0-.68,0-.87h9a17.86,17.86,0,0,0,.18-2.29,4.74,4.74,0,0,0-1.2-3.51A4.9,4.9,0,0,0,299,84.26Zm2.63,5.5h-6.86a5.49,5.49,0,0,1,1.45-2.92,3.67,3.67,0,0,1,2.67-1,2.81,2.81,0,0,1,2.09.73,2.89,2.89,0,0,1,.72,2.13A8.91,8.91,0,0,1,301.64,89.76Z"/><polygon class="cls-1" points="305.87 90.95 314.3 90.95 314.51 89.41 306.08 89.41 305.87 90.95"/><path class="cls-1" d="M324.86,84.26a6.17,6.17,0,0,0-2.17.39,10,10,0,0,0-2.3,1.34l0-.24c0-.25,0-.42,0-.51,0-.56-.21-.84-.61-.84a6.07,6.07,0,0,0-1.81.42,3,3,0,0,1,0,.63,29.28,29.28,0,0,1-.33,3.37l-1.19,8.54h2.22l1.34-9.66a6.79,6.79,0,0,1,4-1.78,2.06,2.06,0,0,1,1.48.45,2,2,0,0,1,.47,1.44,7.54,7.54,0,0,1-.07.89L325.14,95a15,15,0,0,0-.17,1.56,1.41,1.41,0,0,0,.14.73.49.49,0,0,0,.43.21,4.85,4.85,0,0,0,1.8-.35,2.72,2.72,0,0,1-.1-.77,17.44,17.44,0,0,1,.22-2.06l.79-5.64c.06-.53.09-.91.09-1.13Q328.34,84.26,324.86,84.26Z"/><path class="cls-1" d="M355.71,87.65a3.25,3.25,0,0,0-1-2.49,3.72,3.72,0,0,0-2.65-.9,7.16,7.16,0,0,0-2.44.44,9,9,0,0,0-2.31,1.22l1-7.07h-2.2l-2.6,18.51h2.2l1.38-9.78a9.52,9.52,0,0,1,2.16-1.18,5.89,5.89,0,0,1,2.08-.44,1.84,1.84,0,0,1,2.1,2.06c0,.11,0,.32,0,.64l-1.22,8.7h2.2l1.26-9A4.53,4.53,0,0,0,355.71,87.65Z"/><path class="cls-1" d="M338.25,90.26a25,25,0,0,1-3,4.95A18.24,18.24,0,0,1,333.76,91a21.25,21.25,0,0,1-.48-4.64c0-.61,0-1.25.07-1.9h-2.24c0,.42-.05,1-.05,1.82a23,23,0,0,0,.7,5.82,21.1,21.1,0,0,0,2.16,5.23H336a29.25,29.25,0,0,0,4-6,30.31,30.31,0,0,0,2.37-6.86h-2.3A28.75,28.75,0,0,1,338.25,90.26Z"/><path class="cls-1" d="M366.52,84.49l-4.73,9.81-2-9.81h-2.27l2.81,12.66a7.79,7.79,0,0,1-1.44,2.38,2.33,2.33,0,0,1-1.68.74,3.56,3.56,0,0,1-.86-.11,1.77,1.77,0,0,1-.66-.29,1,1,0,0,0-.58,1,1,1,0,0,0,.55.91,2.92,2.92,0,0,0,1.51.33,4.27,4.27,0,0,0,2.69-.86A8.58,8.58,0,0,0,362,98.35l6.93-13.86Z"/><path class="cls-3" d="M211.7,19.7c-8.92,0-15.3,4.8-16.67,12.53l-2.46,13.93c-1.36,7.73,3.33,12.54,12.25,12.54a23.53,23.53,0,0,0,3.08-.21,15.22,15.22,0,0,0,.75,1.34,4.87,4.87,0,0,0,1.5,1.5,3.8,3.8,0,0,0,2.06.52,4.83,4.83,0,0,0,4.06-2c-.93-1.16-1.72-2.22-2.4-3.18a14.28,14.28,0,0,0,7.63-10.49L224,32.23C225.31,24.5,220.62,19.7,211.7,19.7Zm6.65,10.42-3.13,17.75c-.2,1.16-2,2.91-4.42,4l-.33-.55a21.73,21.73,0,0,1-1.62-3.52h-5.33l1.72,4.53s.07.15.15.35c-6-.2-7.55-3.06-7.26-4.7l3.13-17.75c.3-1.7,3-5,9.59-5S218.65,28.42,218.35,30.12Z"/><path class="cls-3" d="M252.58,28.91a69.29,69.29,0,0,1-5,15.72,62.81,62.81,0,0,1-8.32,13.3h-5.64a46.1,46.1,0,0,1-4.59-11.69A55.82,55.82,0,0,1,227.55,33c0-1.79,0-3.15.1-4.06h6.13q-.24,3.06-.24,5.28a45.45,45.45,0,0,0,.91,9.36A38.14,38.14,0,0,0,237.27,52,54.6,54.6,0,0,0,243,41.28a60.13,60.13,0,0,0,3.34-12.37Z"/><path class="cls-3" d="M274.52,48.22a35.38,35.38,0,0,0-.44,4.7,7.09,7.09,0,0,0,.93,3.75,7.63,7.63,0,0,1-2.23,1.13,7.91,7.91,0,0,1-2.48.45q-2.35,0-2.36-4.12a10.12,10.12,0,0,1-8.73,4.33,7.17,7.17,0,0,1-5.23-2,7.49,7.49,0,0,1-2-5.6,7.91,7.91,0,0,1,4.47-7.39q4.47-2.41,13.15-2.85l.3-2.37a11.32,11.32,0,0,0,.05-1.16,4,4,0,0,0-1.06-3,4.74,4.74,0,0,0-3.36-1,8.36,8.36,0,0,0-3.83.87,26.53,26.53,0,0,0-3.88,2.5,1.3,1.3,0,0,1-.73.27,2,2,0,0,1-1.52-1,8.77,8.77,0,0,1-1.23-2.64,19.13,19.13,0,0,1,12.42-4.7c3,0,5.25.71,6.82,2.14a7.67,7.67,0,0,1,2.35,6,13,13,0,0,1-.09,1.74Zm-6.09.85.64-4.8q-5.94.21-8.46,1.74a4.75,4.75,0,0,0-2.53,4.27q0,3.8,3.48,3.8T268.43,49.07Z"/><path class="cls-3" d="M304.66,35.77c0,.49-.07,1.34-.2,2.53l-1.62,12.51a40.24,40.24,0,0,0-.39,4.12,8.34,8.34,0,0,0,.34,2.27,13.56,13.56,0,0,1-5,1,1.11,1.11,0,0,1-1-.58,4.4,4.4,0,0,1-.32-2,28.7,28.7,0,0,1,.25-3.11l1.81-13.93a14.78,14.78,0,0,0,.15-1.95,4,4,0,0,0-.84-2.83,3.52,3.52,0,0,0-2.65-.87Q292,33,288,36.3l-2.85,21.63h-5.94l2.55-19.42a71,71,0,0,0,.64-7.39,9.82,9.82,0,0,0-.1-1.37,16.47,16.47,0,0,1,5-1.05c.92,0,1.38.67,1.38,2a10.17,10.17,0,0,1-.05,1.06l-.1.63a22.77,22.77,0,0,1,4.76-3.11,10,10,0,0,1,4.12-.9Q304.66,28.38,304.66,35.77Z"/><path class="cls-3" d="M316.73,50.49c-.07.57-.1.94-.1,1.11a2.81,2.81,0,0,0,.61,2,2.54,2.54,0,0,0,1.89.63,10.51,10.51,0,0,0,4-.9,1.61,1.61,0,0,1,.73,1.59,2.46,2.46,0,0,1-.88,2A6.4,6.4,0,0,1,320.58,58a13.73,13.73,0,0,1-3.51.42,6.63,6.63,0,0,1-4.73-1.63,5.77,5.77,0,0,1-1.75-4.44c0-.24,0-.65.1-1.21l2.36-18h-4.42l.54-4.27h4.47l1-7.92h5.94l-1,7.92h5.74l-.54,4.27H319Z"/><path class="cls-3" d="M331.16,28.91h6l-3.78,29h-6Zm.54-5.63a5.32,5.32,0,0,1,.05-.9l.05-.69q.48-3.53,3.78-3.53h.58c1.9,0,2.85.89,2.85,2.69a6.08,6.08,0,0,1-.05.84l0,.69c-.33,2.36-1.59,3.53-3.78,3.53h-.59C332.65,25.91,331.7,25,331.7,23.28Z"/><path class="cls-3" d="M368.36,31.44q-3.67,0-5.3,1.06a8,8,0,0,1,1.37,4.59c0,3.66-1,6.43-3.14,8.31s-5.22,2.82-9.37,2.82a13.86,13.86,0,0,0-4.08.43c-.85.28-1.3.75-1.37,1.42s.36,1.12,1.18,1.35a21.89,21.89,0,0,0,4.86.34c3.56,0,6.29.63,8.17,1.9a6.17,6.17,0,0,1,2.82,5.44,8.19,8.19,0,0,1-3.61,7.12q-3.6,2.53-10.13,2.53c-3.8,0-6.72-.61-8.79-1.84a5.8,5.8,0,0,1-3.09-5.23,5.91,5.91,0,0,1,1.79-4.46,8.91,8.91,0,0,1,5.13-2.14v-.15a4.94,4.94,0,0,1-2.48-1.32,3.2,3.2,0,0,1-.9-2.27,3.91,3.91,0,0,1,1.22-2.83,7,7,0,0,1,3.24-1.76,7.76,7.76,0,0,1-3-2.88,8,8,0,0,1-1.05-4.09q0-5.49,3.24-8.44t9.17-3a11.3,11.3,0,0,1,5.89,1.48,12.77,12.77,0,0,1,3.1-2.56,6.2,6.2,0,0,1,3.09-1,2.1,2.1,0,0,1,1.72.66,3.38,3.38,0,0,1,.54,2.14A14.75,14.75,0,0,1,368.36,31.44Zm-24.25,29.5a2.86,2.86,0,0,0,1.4,2.64,8.84,8.84,0,0,0,4.4.85,10.86,10.86,0,0,0,5.74-1.27,4.06,4.06,0,0,0,2-3.64,2.76,2.76,0,0,0-1.57-2.59,11,11,0,0,0-5-.84Q344.11,56.09,344.11,60.94ZM358.3,36.82a4.17,4.17,0,0,0-1.08-3.14,4.81,4.81,0,0,0-3.39-1,5.48,5.48,0,0,0-4.39,1.75,7.63,7.63,0,0,0-1.5,5.12c0,2.88,1.48,4.32,4.42,4.32Q358.3,43.84,358.3,36.82Z"/><path class="cls-3" d="M382.53,20.54h-1.48l-.89,2.54c-.09.36-.22.81-.34,1.26h0a12.22,12.22,0,0,0-.33-1.3l-.87-2.5H377l-.38,5.12h1l.19-3c0-.45,0-1,0-1.43h.05c.11.45.29,1.07.38,1.45l.9,2.91h1.05l.93-2.84c.15-.47.3-1.07.43-1.52h.05c0,.56,0,1,0,1.43l.19,3h1Z"/><polygon class="cls-3" points="372.09 21.39 373.71 21.39 373.71 25.66 374.73 25.66 374.73 21.39 376.36 21.39 376.36 20.54 372.09 20.54 372.09 21.39"/><rect class="cls-3" x="127.36" y="107.21" width="0.64" height="32.36"/><path class="cls-1" d="M1.91,121.39a3.2,3.2,0,0,1-1.41-.81,1.67,1.67,0,0,1-.5-1.23,1.42,1.42,0,0,1,.49-1.17,2.24,2.24,0,0,1,1.43-.42,1.92,1.92,0,0,0,.53,1.52,2.19,2.19,0,0,0,1.59.55,2.49,2.49,0,0,0,1.55-.43,1.5,1.5,0,0,0,.54-1.24,1.31,1.31,0,0,0-.17-.69,1.72,1.72,0,0,0-.61-.52A9.62,9.62,0,0,0,4,116.36a8.57,8.57,0,0,1-1.83-.93,2.84,2.84,0,0,1-1-1.06A3.19,3.19,0,0,1,.93,113a3.08,3.08,0,0,1,.52-1.78A3.46,3.46,0,0,1,2.93,110a5.45,5.45,0,0,1,2.21-.42,4.82,4.82,0,0,1,2.65.7,3.12,3.12,0,0,1,1.37,1.91,3,3,0,0,1-.74.63,1.33,1.33,0,0,1-.67.26.61.61,0,0,1-.38-.1,1.66,1.66,0,0,1-.36-.44,2.34,2.34,0,0,0-.89-.82,2.57,2.57,0,0,0-1.21-.29,1.79,1.79,0,0,0-1.13.31,1.1,1.1,0,0,0-.39.91,1.28,1.28,0,0,0,.16.67,1.51,1.51,0,0,0,.57.5,10,10,0,0,0,1.25.57,12.46,12.46,0,0,1,2,1,2.92,2.92,0,0,1,1,1,2.7,2.7,0,0,1,.28,1.31,4.08,4.08,0,0,1-.56,2.15,3.76,3.76,0,0,1-1.61,1.41,5.65,5.65,0,0,1-2.44.5A7.22,7.22,0,0,1,1.91,121.39Z"/><path class="cls-1" d="M10.9,120.79a3.26,3.26,0,0,1-1-2.56,7.27,7.27,0,0,1,.06-1l1-7.54h2.39l-1,7.91q0,.3,0,.45a1.74,1.74,0,0,0,.43,1.28,1.72,1.72,0,0,0,1.27.44c1.29,0,2-.72,2.21-2.17l1-7.91h2.39l-1,7.54a5.06,5.06,0,0,1-1.49,3.3,4.91,4.91,0,0,1-3.4,1.09A4.13,4.13,0,0,1,10.9,120.79Z"/><path class="cls-1" d="M28.23,116.38a2.71,2.71,0,0,1,.41,1.44,3.39,3.39,0,0,1-1.13,2.72,4.69,4.69,0,0,1-3.15,1H20.18l1.52-11.78h3.72a4,4,0,0,1,1.76.37,2.76,2.76,0,0,1,1.63,2.56,3.35,3.35,0,0,1-.45,1.77,2.29,2.29,0,0,1-1.18,1A2.24,2.24,0,0,1,28.23,116.38Zm-2.92,3.15a1.24,1.24,0,0,0,.69-.64,2.76,2.76,0,0,0,.22-1.23,1.09,1.09,0,0,0-.42-1,2.62,2.62,0,0,0-1.44-.3H23.22l-.42,3.33H24A3.68,3.68,0,0,0,25.31,119.53Zm.59-5.37a1.93,1.93,0,0,0,.48-1.45,1,1,0,0,0-.41-.91,2.17,2.17,0,0,0-1.25-.29h-.87l-.4,3.1h1A2.05,2.05,0,0,0,25.9,114.16Z"/><path class="cls-1" d="M31,120.37a5.43,5.43,0,0,1-1.15-3.69,9.81,9.81,0,0,1,.68-3.82,5.08,5.08,0,0,1,5-3.3,5,5,0,0,1,2,.38A4.11,4.11,0,0,1,39,111a2.67,2.67,0,0,1-.53,1c-.27.32-.48.48-.65.48a.79.79,0,0,1-.46-.18,5.52,5.52,0,0,0-1.08-.71,2.26,2.26,0,0,0-.89-.19,2.34,2.34,0,0,0-1.63.64,4.16,4.16,0,0,0-1.06,1.83,9.31,9.31,0,0,0-.37,2.8c0,2.1.73,3.15,2.18,3.15a3.91,3.91,0,0,0,1.36-.22,3.11,3.11,0,0,0,1.06-.73.79.79,0,0,1,.56.29,1,1,0,0,1,.23.69,1.2,1.2,0,0,1-.48.89,3.47,3.47,0,0,1-1.27.67,5.47,5.47,0,0,1-1.68.26A4.1,4.1,0,0,1,31,120.37Z"/><path class="cls-1" d="M40.58,120.79a3.26,3.26,0,0,1-1-2.56,7.22,7.22,0,0,1,.07-1l1-7.54h2.39l-1,7.91q0,.3,0,.45a1.74,1.74,0,0,0,.44,1.28,1.72,1.72,0,0,0,1.27.44c1.29,0,2-.72,2.21-2.17l1-7.91h2.38l-1,7.54a5.1,5.1,0,0,1-1.49,3.3,4.91,4.91,0,0,1-3.4,1.09A4.16,4.16,0,0,1,40.58,120.79Z"/><path class="cls-1" d="M58.21,110.47a1.88,1.88,0,0,1-.27.83.65.65,0,0,1-.58.28H55.27L54,121.51H51.65l1.27-9.93H50.21l.23-1.85h7.81A2.87,2.87,0,0,1,58.21,110.47Z"/><path class="cls-1" d="M65.91,120.53c0,.44,0,.77,0,1H63.57c0-1,0-1.93-.08-2.91H59.24q-.35,1.11-.78,2.91H56.14a28.76,28.76,0,0,1,5.2-11.78h2.4A27.81,27.81,0,0,1,65.91,120.53Zm-2.56-3.78a22.21,22.21,0,0,0-1.06-5.12A20.25,20.25,0,0,0,60.94,114c-.39.82-.76,1.73-1.12,2.73Z"/><path class="cls-1" d="M77.11,109.73l-1.22,9.47c0,.27-.09.72-.14,1.33l0,.52c0,.31-.19.46-.45.46h-2l.08-.59a2.21,2.21,0,0,0,0-.32,3.77,3.77,0,0,0-.37-1.55l-2.7-5.72-1,8.18H66.87l1.51-11.78h2.14a.73.73,0,0,1,.32.06.61.61,0,0,1,.22.28l2.88,6,.82-6.36Z"/><path class="cls-1" d="M81.09,111.51l-.39,3h3.66l-.23,1.79H80.47L80,119.72h4.57a4.19,4.19,0,0,1-.35,1.4.72.72,0,0,1-.69.39H77.42l1.52-11.78h6.78l-.23,1.78Z"/><path class="cls-1" d="M87.19,120.43A5,5,0,0,1,86,116.92a10.49,10.49,0,0,1,.66-3.89,5.77,5.77,0,0,1,1.9-2.57,4.75,4.75,0,0,1,2.89-.9,4.26,4.26,0,0,1,3.28,1.21,4.86,4.86,0,0,1,1.13,3.45,10.52,10.52,0,0,1-.67,3.94,5.83,5.83,0,0,1-1.88,2.6,4.67,4.67,0,0,1-2.87.92A4.27,4.27,0,0,1,87.19,120.43Zm5.5-2.05a9,9,0,0,0,.78-4.16,3.58,3.58,0,0,0-.51-2.09,1.73,1.73,0,0,0-1.51-.72,2.45,2.45,0,0,0-2.25,1.39,8.93,8.93,0,0,0-.76,4.13,3.74,3.74,0,0,0,.51,2.16,1.68,1.68,0,0,0,1.49.74A2.46,2.46,0,0,0,92.69,118.38Z"/><path class="cls-1" d="M98,120.79a3.26,3.26,0,0,1-1-2.56,5.86,5.86,0,0,1,.07-1l1-7.54h2.38l-1,7.91q0,.3,0,.45a1.78,1.78,0,0,0,.43,1.28,1.73,1.73,0,0,0,1.27.44c1.29,0,2-.72,2.22-2.17l1-7.91h2.38l-1,7.54a5.11,5.11,0,0,1-1.5,3.3,4.88,4.88,0,0,1-3.39,1.09A4.16,4.16,0,0,1,98,120.79Z"/><path class="cls-1" d="M109.36,121.39a3.2,3.2,0,0,1-1.41-.81,1.71,1.71,0,0,1-.5-1.23,1.42,1.42,0,0,1,.49-1.17,2.24,2.24,0,0,1,1.43-.42,2,2,0,0,0,.53,1.52,2.19,2.19,0,0,0,1.59.55,2.49,2.49,0,0,0,1.55-.43,1.5,1.5,0,0,0,.54-1.24,1.31,1.31,0,0,0-.17-.69,1.72,1.72,0,0,0-.61-.52,10,10,0,0,0-1.32-.59,8.44,8.44,0,0,1-1.84-.93,2.84,2.84,0,0,1-1-1.06,3.19,3.19,0,0,1-.29-1.41,3.09,3.09,0,0,1,.53-1.78,3.37,3.37,0,0,1,1.47-1.2,5.45,5.45,0,0,1,2.21-.42,4.8,4.8,0,0,1,2.65.7,3.12,3.12,0,0,1,1.37,1.91,3,3,0,0,1-.74.63,1.34,1.34,0,0,1-.66.26.63.63,0,0,1-.39-.1,1.88,1.88,0,0,1-.36-.44,2.27,2.27,0,0,0-.89-.82,2.57,2.57,0,0,0-1.21-.29,1.81,1.81,0,0,0-1.13.31,1.1,1.1,0,0,0-.39.91,1.38,1.38,0,0,0,.16.67,1.47,1.47,0,0,0,.58.5,9.72,9.72,0,0,0,1.24.57,12.46,12.46,0,0,1,2,1,2.83,2.83,0,0,1,1,1,2.7,2.7,0,0,1,.28,1.31,4,4,0,0,1-.56,2.15,3.7,3.7,0,0,1-1.61,1.41,5.65,5.65,0,0,1-2.44.5A7.27,7.27,0,0,1,109.36,121.39Z"/><path class="cls-1" d="M44.24,127.1h2.38L45.1,138.88H42.72Z"/><path class="cls-1" d="M57.61,127.1l-1.22,9.47c0,.27-.09.71-.14,1.33l0,.52c0,.3-.18.46-.45.46h-2l.08-.59a2.73,2.73,0,0,0,0-.32,3.59,3.59,0,0,0-.37-1.55l-2.69-5.72-1.05,8.18H47.36l1.52-11.78H51a.66.66,0,0,1,.31.06.56.56,0,0,1,.23.28l2.88,6,.82-6.36Z"/><path class="cls-1" d="M58.1,138.9a2.78,2.78,0,0,1-1-.31c.13-1.09.39-1.63.79-1.63l.27,0,.24,0a3.77,3.77,0,0,0,1,.15,1.33,1.33,0,0,0,1-.4,2,2,0,0,0,.48-1.16L62,127.1h2.39l-1.1,8.53a4,4,0,0,1-.67,1.77A3.8,3.8,0,0,1,59.45,139,6.45,6.45,0,0,1,58.1,138.9Z"/><path class="cls-1" d="M68.23,128.88l-.39,3H71.5l-.24,1.78H67.61l-.43,3.4h4.56a4,4,0,0,1-.34,1.4.72.72,0,0,1-.69.39H64.56l1.52-11.78h6.78l-.23,1.78Z"/><path class="cls-1" d="M74.54,137.74a5.43,5.43,0,0,1-1.14-3.69,9.78,9.78,0,0,1,.67-3.82A5.39,5.39,0,0,1,76,127.78a5.3,5.3,0,0,1,3-.85,5,5,0,0,1,2,.38,4.23,4.23,0,0,1,1.54,1.1,2.86,2.86,0,0,1-.54,1c-.26.32-.48.48-.64.48a.77.77,0,0,1-.47-.19,5.55,5.55,0,0,0-1.08-.7,2.05,2.05,0,0,0-.88-.19,2.3,2.3,0,0,0-1.63.64,4,4,0,0,0-1.06,1.83,9.29,9.29,0,0,0-.38,2.8c0,2.1.73,3.14,2.19,3.14a3.67,3.67,0,0,0,1.35-.22,2.86,2.86,0,0,0,1.06-.72.76.76,0,0,1,.57.29,1,1,0,0,1,.22.69,1.2,1.2,0,0,1-.48.89,3.54,3.54,0,0,1-1.27.67,5.36,5.36,0,0,1-1.67.25A4.13,4.13,0,0,1,74.54,137.74Z"/><path class="cls-1" d="M91,127.84a1.88,1.88,0,0,1-.27.83.65.65,0,0,1-.58.28H88.07l-1.27,9.93H84.45L85.72,129H83l.23-1.85H91A3.31,3.31,0,0,1,91,127.84Z"/><path class="cls-1" d="M92.51,127.1H94.9l-1.52,11.78H91Z"/><path class="cls-1" d="M97,137.8a4.93,4.93,0,0,1-1.16-3.52,10.48,10.48,0,0,1,.66-3.88,5.77,5.77,0,0,1,1.9-2.57,4.75,4.75,0,0,1,2.89-.9,4.3,4.3,0,0,1,3.28,1.2,4.89,4.89,0,0,1,1.13,3.46,10.56,10.56,0,0,1-.67,3.94,5.77,5.77,0,0,1-1.89,2.6,4.63,4.63,0,0,1-2.86.91A4.26,4.26,0,0,1,97,137.8Zm5.5-2.05a9,9,0,0,0,.78-4.16,3.56,3.56,0,0,0-.51-2.09,1.73,1.73,0,0,0-1.51-.72A2.42,2.42,0,0,0,99,130.17a8.9,8.9,0,0,0-.76,4.13,3.79,3.79,0,0,0,.51,2.16,1.68,1.68,0,0,0,1.49.73A2.45,2.45,0,0,0,102.52,135.75Z"/><path class="cls-1" d="M116.44,127.1l-1.22,9.47c0,.27-.09.71-.14,1.33l0,.52c0,.3-.19.46-.45.46h-2l.08-.59a2.33,2.33,0,0,0,0-.32,3.74,3.74,0,0,0-.37-1.55l-2.7-5.72-1,8.18H106.2l1.51-11.78h2.14a.73.73,0,0,1,.32.06.56.56,0,0,1,.22.28l2.88,6,.82-6.36Z"/><path class="cls-1" d="M144.81,126.53v.8H141v-.8h1.42v-6.07a3.9,3.9,0,0,1-.63.38,1.52,1.52,0,0,1-.62.15.55.55,0,0,1-.41-.14.49.49,0,0,1-.15-.38.6.6,0,0,1,.06-.29,3.47,3.47,0,0,0,1.09-.32,4,4,0,0,0,1.05-.71h.68v7.38Z"/><path class="cls-1" d="M150.09,123.94a15.36,15.36,0,0,1-2.63,2.55h3.43v.84h-5v-.58a29.42,29.42,0,0,0,2.37-2.1,7.21,7.21,0,0,0,1.27-1.61,3.19,3.19,0,0,0,.4-1.51,1.58,1.58,0,0,0-.39-1.14,1.4,1.4,0,0,0-1.1-.41c-1,0-1.56.6-1.68,1.82a1.12,1.12,0,0,1-.67-.15.59.59,0,0,1-.19-.5,1.73,1.73,0,0,1,.31-1,2.13,2.13,0,0,1,.89-.74,3.11,3.11,0,0,1,1.34-.27,2.7,2.7,0,0,1,1.87.62,2.42,2.42,0,0,1,.68,1.86A3.72,3.72,0,0,1,150.09,123.94Z"/><path class="cls-1" d="M152.54,126.4a5,5,0,0,1-.79-3,5.65,5.65,0,0,1,.79-3.22,3,3,0,0,1,4.66,0,5.57,5.57,0,0,1,.79,3.22,5,5,0,0,1-.79,3,3.07,3.07,0,0,1-4.66,0Zm3.85-.65a4.7,4.7,0,0,0,.49-2.37,5.4,5.4,0,0,0-.49-2.57,1.62,1.62,0,0,0-1.52-.9c-1.34,0-2,1.15-2,3.47q0,3.21,2,3.21A1.64,1.64,0,0,0,156.39,125.75Z"/><path class="cls-1" d="M170.07,121.32a2,2,0,0,1,.53,1.43v4.58h-1.12v-4.55a1.44,1.44,0,0,0-.25-.93,1.07,1.07,0,0,0-.83-.28,2.14,2.14,0,0,0-1.6.8,1.63,1.63,0,0,1,0,.24v4.72h-1.09v-4.67a1.13,1.13,0,0,0-.27-.81,1,1,0,0,0-.76-.28,1.8,1.8,0,0,0-.84.21,3.41,3.41,0,0,0-.82.67v4.88h-1.11v-4.21a8.26,8.26,0,0,0-.14-2,2.05,2.05,0,0,1,.41-.16,1.54,1.54,0,0,1,.38-.07.35.35,0,0,1,.34.19,1.28,1.28,0,0,1,.12.57,2.84,2.84,0,0,1,.9-.63,2.71,2.71,0,0,1,1.06-.2,1.9,1.9,0,0,1,1,.24,1.63,1.63,0,0,1,.64.66,2.71,2.71,0,0,1,.94-.68,3,3,0,0,1,1.15-.22A1.85,1.85,0,0,1,170.07,121.32Z"/><path class="cls-1" d="M177.84,120.6a.89.89,0,0,1,.12.52,1.94,1.94,0,0,1,0,.27,2.35,2.35,0,0,0-1.18.22,2.08,2.08,0,0,1,.44,1.32,2,2,0,0,1-.68,1.68,3,3,0,0,1-2,.57,3.49,3.49,0,0,0-1,.1c-.21.06-.31.17-.31.32s.13.28.39.35a5,5,0,0,0,1.29.11,3.94,3.94,0,0,1,2.07.46,1.42,1.42,0,0,1,.73,1.29,1.57,1.57,0,0,1-.79,1.4,4.25,4.25,0,0,1-2.24.5,4.3,4.3,0,0,1-2.14-.44,1.39,1.39,0,0,1-.74-1.27,1.14,1.14,0,0,1,.35-.83,1.93,1.93,0,0,1,1-.49v0a1.16,1.16,0,0,1-.61-.35.84.84,0,0,1-.23-.59.7.7,0,0,1,.24-.52,1.39,1.39,0,0,1,.65-.34,2.11,2.11,0,0,1-.82-.74,1.86,1.86,0,0,1-.3-1,2.11,2.11,0,0,1,.69-1.7,3.09,3.09,0,0,1,2-.59,2.91,2.91,0,0,1,1.37.32,2.11,2.11,0,0,1,.63-.48,1.47,1.47,0,0,1,.68-.18A.49.49,0,0,1,177.84,120.6Zm-4.9,7.28c0,.67.57,1,1.73,1a3.21,3.21,0,0,0,1.44-.25.83.83,0,0,0,.49-.76.78.78,0,0,0-.45-.74,3.25,3.25,0,0,0-1.44-.23C173.53,126.91,172.94,127.23,172.94,127.88Zm2.79-3.84a1.82,1.82,0,0,0,0-2.13,1.93,1.93,0,0,0-2.19,0,1.47,1.47,0,0,0-.35,1.07c0,.93.48,1.39,1.44,1.39A1.57,1.57,0,0,0,175.73,124Z"/><path class="cls-1" d="M183.65,123.93h-2.51v-.77h2.51v-2.59h.82v2.59H187v.77h-2.51v2.58h-.82Z"/><path class="cls-1" d="M194.82,123.94a15.74,15.74,0,0,1-2.63,2.55h3.42v.84h-5v-.58a29.83,29.83,0,0,0,2.38-2.1,7.43,7.43,0,0,0,1.26-1.61,3.08,3.08,0,0,0,.4-1.51,1.57,1.57,0,0,0-.38-1.14,1.41,1.41,0,0,0-1.1-.41c-1,0-1.56.6-1.68,1.82a1.1,1.1,0,0,1-.67-.15.6.6,0,0,1-.2-.5,1.81,1.81,0,0,1,.31-1,2.26,2.26,0,0,1,.89-.74,3.19,3.19,0,0,1,1.35-.27,2.66,2.66,0,0,1,1.86.62,2.39,2.39,0,0,1,.69,1.86A3.78,3.78,0,0,1,194.82,123.94Z"/><path class="cls-1" d="M198.31,126.09a.68.68,0,0,1,.18.5v.16a3,3,0,0,1-.54,1.66,2.1,2.1,0,0,1-.31.39.45.45,0,0,1-.28.12.62.62,0,0,1-.41-.14,5,5,0,0,0,.55-.75,2,2,0,0,0,.24-.68h-.08a.56.56,0,0,1-.44-.18.67.67,0,0,1-.16-.46v-.15a.66.66,0,0,1,.17-.47.56.56,0,0,1,.44-.18h.18A.6.6,0,0,1,198.31,126.09Z"/><path class="cls-1" d="M200.57,126.4a5.05,5.05,0,0,1-.78-3,5.65,5.65,0,0,1,.78-3.22,3,3,0,0,1,4.67,0,5.65,5.65,0,0,1,.78,3.22,5.05,5.05,0,0,1-.78,3,3.08,3.08,0,0,1-4.67,0Zm3.85-.65a4.7,4.7,0,0,0,.49-2.37,5.4,5.4,0,0,0-.49-2.57,1.6,1.6,0,0,0-1.51-.9c-1.34,0-2,1.15-2,3.47q0,3.21,2,3.21A1.62,1.62,0,0,0,204.42,125.75Z"/><path class="cls-1" d="M207.53,126.4a5,5,0,0,1-.79-3,5.57,5.57,0,0,1,.79-3.22,3,3,0,0,1,4.66,0,5.65,5.65,0,0,1,.79,3.22,5,5,0,0,1-.79,3,3.07,3.07,0,0,1-4.66,0Zm3.85-.65a4.81,4.81,0,0,0,.49-2.37,5.53,5.53,0,0,0-.49-2.57,1.63,1.63,0,0,0-1.52-.9c-1.34,0-2,1.15-2,3.47q0,3.21,2,3.21A1.65,1.65,0,0,0,211.38,125.75Z"/><path class="cls-1" d="M214.48,126.4a5,5,0,0,1-.79-3,5.57,5.57,0,0,1,.79-3.22,3,3,0,0,1,4.66,0,5.57,5.57,0,0,1,.79,3.22,5,5,0,0,1-.79,3,3.07,3.07,0,0,1-4.66,0Zm3.85-.65a4.7,4.7,0,0,0,.49-2.37,5.4,5.4,0,0,0-.49-2.57,1.63,1.63,0,0,0-1.52-.9c-1.34,0-2,1.15-2,3.47q0,3.21,2,3.21A1.65,1.65,0,0,0,218.33,125.75Z"/><path class="cls-1" d="M229.23,127.21a1.48,1.48,0,0,1-.73.17.45.45,0,0,1-.4-.18,1.49,1.49,0,0,1-.14-.69,2.39,2.39,0,0,1-.9.68,2.85,2.85,0,0,1-1.21.25,2,2,0,0,1-1.51-.54,2.28,2.28,0,0,1-.51-1.62V120.9h1.11v4.3a1.77,1.77,0,0,0,.28,1.12,1.06,1.06,0,0,0,.89.34,1.89,1.89,0,0,0,1-.29,2.3,2.3,0,0,0,.8-.81V120.9h1.11v5A4,4,0,0,0,229.23,127.21Z"/><path class="cls-1" d="M236,126.72a1.85,1.85,0,0,0,.12.49,2.22,2.22,0,0,1-.88.17c-.15,0-.25-.08-.3-.26a4.29,4.29,0,0,1-.07-1V123a1.7,1.7,0,0,0-.27-1.07,1.06,1.06,0,0,0-.87-.32,2.89,2.89,0,0,0-1.87.88v4.84h-1.11v-4.27a7.84,7.84,0,0,0-.14-2,2.66,2.66,0,0,1,.87-.21c.25,0,.38.23.38.68v.12a4.11,4.11,0,0,1,1.06-.66,2.67,2.67,0,0,1,1.06-.21,1.91,1.91,0,0,1,1.5.55,2.38,2.38,0,0,1,.5,1.65v2.82C235.94,126.23,236,126.54,236,126.72Z"/><path class="cls-1" d="M237.58,119.07v-.13a.58.58,0,0,1,.66-.66h.11a.58.58,0,0,1,.66.66v.13a.58.58,0,0,1-.66.65h-.11A.58.58,0,0,1,237.58,119.07Zm.17,1.83h1.09v6.43h-1.09Z"/><path class="cls-1" d="M244,126.59a.49.49,0,0,1,.06.25.35.35,0,0,1-.18.33,1.12,1.12,0,0,1-.48.2,2.87,2.87,0,0,1-.67.07,1.78,1.78,0,0,1-1.25-.42,1.46,1.46,0,0,1-.47-1.14v-4.2h-1.13v-.78H241v-1.75h1.11v1.75h1.53v.78h-1.53v4a1,1,0,0,0,.19.68.72.72,0,0,0,.57.22,2.71,2.71,0,0,0,1-.2A.34.34,0,0,1,244,126.59Z"/><path class="cls-1" d="M245.57,127.27a2.71,2.71,0,0,1-.9-.46.82.82,0,0,1-.35-.63.53.53,0,0,1,.15-.37.63.63,0,0,1,.38-.19,2.29,2.29,0,0,0,.82.77,2.26,2.26,0,0,0,1.12.25,1.46,1.46,0,0,0,1-.3,1,1,0,0,0,.34-.79.73.73,0,0,0-.2-.52,1.6,1.6,0,0,0-.52-.33,7,7,0,0,0-.83-.26,7.32,7.32,0,0,1-1.1-.37,2,2,0,0,1-.72-.53,1.44,1.44,0,0,1-.3-1,1.54,1.54,0,0,1,.33-1,2,2,0,0,1,.84-.61,2.85,2.85,0,0,1,1.08-.21,3.09,3.09,0,0,1,1.39.31,2.43,2.43,0,0,1,1,.86,1.58,1.58,0,0,1-.31.32.51.51,0,0,1-.3.11.42.42,0,0,1-.32-.16,1.78,1.78,0,0,0-1.43-.65,1.39,1.39,0,0,0-.86.24.89.89,0,0,0-.31.75.66.66,0,0,0,.2.51,1.31,1.31,0,0,0,.5.3,5.69,5.69,0,0,0,.82.24c.46.13.84.25,1.12.36a1.83,1.83,0,0,1,.72.55,1.5,1.5,0,0,1,.31,1,1.68,1.68,0,0,1-.66,1.41,2.87,2.87,0,0,1-1.8.51A4.19,4.19,0,0,1,245.57,127.27Z"/><path class="cls-1" d="M255.25,117.85h.91L252.77,128h-.91Z"/><path class="cls-1" d="M267.54,121.32a2,2,0,0,1,.53,1.43v4.58h-1.13v-4.55a1.38,1.38,0,0,0-.25-.93,1,1,0,0,0-.82-.28,2.13,2.13,0,0,0-1.6.8,1.63,1.63,0,0,1,0,.24v4.72h-1.1v-4.67a1.13,1.13,0,0,0-.27-.81,1,1,0,0,0-.76-.28,1.79,1.79,0,0,0-.83.21,3.64,3.64,0,0,0-.83.67v4.88h-1.11v-4.21a7.75,7.75,0,0,0-.14-2,2.41,2.41,0,0,1,.42-.16,1.47,1.47,0,0,1,.38-.07.35.35,0,0,1,.34.19,1.17,1.17,0,0,1,.11.57,2.84,2.84,0,0,1,.9-.63,2.79,2.79,0,0,1,1.07-.2,1.9,1.9,0,0,1,1,.24,1.63,1.63,0,0,1,.64.66A2.71,2.71,0,0,1,265,121a3,3,0,0,1,1.15-.22A1.85,1.85,0,0,1,267.54,121.32Z"/><path class="cls-1" d="M274.57,126.45v.88h-4.81v-8.18h1.16v7.3Z"/></g></g></svg>