<svg xmlns="http://www.w3.org/2000/svg" xmlns:xlink="http://www.w3.org/1999/xlink" viewBox="0 0 208.05 56.25"><defs><style>.cls-1{isolation:isolate;}.cls-2{fill:url(#linear-gradient);}.cls-3{fill:url(#linear-gradient-2);}.cls-4{fill:url(#linear-gradient-3);}.cls-5{fill:url(#linear-gradient-4);}.cls-6{fill:url(#linear-gradient-5);}.cls-7{fill:#e6e6e6;}.cls-8{fill:url(#linear-gradient-6);}.cls-9{fill:url(#linear-gradient-7);}.cls-10{fill:url(#linear-gradient-8);}.cls-11{mix-blend-mode:multiply;fill:url(#radial-gradient);}.cls-12{fill:#fff;}</style><linearGradient id="linear-gradient" x1="104.02" y1="-2.38" x2="104.02" y2="61.36" gradientUnits="userSpaceOnUse"><stop offset="0" stop-color="#fff"/><stop offset="1" stop-color="#c4c3c3"/></linearGradient><linearGradient id="linear-gradient-2" x1="104.02" y1="-2.38" x2="104.02" y2="61.36" xlink:href="#linear-gradient"/><linearGradient id="linear-gradient-3" x1="104.02" y1="64.88" x2="104.02" y2="1.98" xlink:href="#linear-gradient"/><linearGradient id="linear-gradient-4" x1="104.02" y1="10.71" x2="104.02" y2="47.93" xlink:href="#linear-gradient"/><linearGradient id="linear-gradient-5" x1="104.02" y1="-2.38" x2="104.02" y2="61.36" xlink:href="#linear-gradient"/><linearGradient id="linear-gradient-6" x1="104.02" y1="-2.38" x2="104.02" y2="61.36" xlink:href="#linear-gradient"/><linearGradient id="linear-gradient-7" x1="104.02" y1="64.88" x2="104.02" y2="1.98" xlink:href="#linear-gradient"/><linearGradient id="linear-gradient-8" x1="104.02" y1="10.71" x2="104.02" y2="47.93" xlink:href="#linear-gradient"/><radialGradient id="radial-gradient" cx="15.65" cy="-5.76" r="92.54" gradientUnits="userSpaceOnUse"><stop offset="0" stop-color="#ffe1cd"/><stop offset="0.07" stop-color="#ffc2a0"/><stop offset="0.15" stop-color="#ffa778"/><stop offset="0.22" stop-color="#ff9057"/><stop offset="0.3" stop-color="#ff7e3d"/><stop offset="0.38" stop-color="#ff722a"/><stop offset="0.47" stop-color="#ff6a20"/><stop offset="0.56" stop-color="#ff681c"/><stop offset="0.66" stop-color="#ff6416"/><stop offset="0.95" stop-color="#ff6314"/></radialGradient></defs><g class="cls-1"><g id="Layer_2" data-name="Layer 2"><g id="Buttons"><path class="cls-2" d="M179.92,0H28.12a28.13,28.13,0,0,0,0,56.25h151.8a28.13,28.13,0,1,0,0-56.25Zm0,50.3H28.12A22.18,22.18,0,0,1,28.12,6h151.8a22.18,22.18,0,1,1,0,44.35Z"/><path class="cls-3" d="M179.92,6H28.12a22.18,22.18,0,0,0,0,44.35h151.8a22.18,22.18,0,1,0,0-44.35Zm0,43.16H28.12a21,21,0,0,1,0-42h151.8a21,21,0,0,1,0,42Z"/><path class="cls-4" d="M179.92,6H28.12a22.18,22.18,0,0,0,0,44.35h151.8a22.18,22.18,0,1,0,0-44.35Zm0,43.16H28.12a21,21,0,0,1,0-42h151.8a21,21,0,0,1,0,42Z"/><path class="cls-5" d="M179.92,14.29H28.12a13.84,13.84,0,1,0,0,27.67h151.8a13.84,13.84,0,1,0,0-27.67Z"/><path class="cls-6" d="M179.92,8.33H28.12a19.8,19.8,0,0,0,0,39.59h151.8a19.8,19.8,0,0,0,0-39.59Zm0,33.63H28.12a13.84,13.84,0,1,1,0-27.67h151.8a13.84,13.84,0,1,1,0,27.67Z"/><path class="cls-7" d="M179.92,8.33H28.12a19.8,19.8,0,0,0,0,39.59h151.8a19.8,19.8,0,0,0,0-39.59Z"/><path class="cls-8" d="M179.92,7.14H28.12a21,21,0,0,0,0,42h151.8a21,21,0,0,0,0-42Zm0,40.78H28.12a19.8,19.8,0,0,1,0-39.59h151.8a19.8,19.8,0,0,1,0,39.59Z"/><path class="cls-9" d="M179.92,7.14H28.12a21,21,0,0,0,0,42h151.8a21,21,0,0,0,0-42Zm0,40.78H28.12a19.8,19.8,0,0,1,0-39.59h151.8a19.8,19.8,0,0,1,0,39.59Z"/><path class="cls-10" d="M179.92,7.14H28.12a21,21,0,0,0,0,42h151.8a21,21,0,0,0,0-42Zm0,40.78H28.12a19.8,19.8,0,0,1,0-39.59h151.8a19.8,19.8,0,0,1,0,39.59Z"/><path class="cls-11" d="M179.92,0H28.12a28.13,28.13,0,0,0,0,56.25h151.8a28.13,28.13,0,1,0,0-56.25Z"/><path class="cls-12" d="M37.81,30.46,40.14,21h2.28l-3,12.18H36.3l-2.23-9.8-2.23,9.8H28.73L25.71,21H28l2.32,9.44L32.53,21H35.6Z"/><path class="cls-12" d="M50.21,33.2H48.38l-.16-.61a4.9,4.9,0,0,1-2.65.79c-1.63,0-2.33-1.11-2.33-2.65,0-1.81.79-2.5,2.6-2.5H48v-.94c0-1-.28-1.33-1.7-1.33a12.79,12.79,0,0,0-2.47.27l-.27-1.7a11.83,11.83,0,0,1,3.05-.42c2.8,0,3.62,1,3.62,3.22ZM48,29.83H46.33c-.73,0-.93.21-.93.88s.2.9.9.9A3.5,3.5,0,0,0,48,31.15Z"/><path class="cls-12" d="M57,33a6.14,6.14,0,0,1-2,.35c-1.63,0-2.45-.77-2.45-2.36V26.07H51.21V24.3h1.34V22.08l2.23-.31V24.3h2.28l-.14,1.77H54.78v4.66a.7.7,0,0,0,.8.79,4.31,4.31,0,0,0,1.12-.19Z"/><path class="cls-12" d="M57.94,30V27.53c0-2.39,1-3.42,3.84-3.42a7.7,7.7,0,0,1,2.18.33l-.28,1.83A7.81,7.81,0,0,0,61.84,26c-1.28,0-1.67.39-1.67,1.48V30c0,1.1.39,1.48,1.67,1.48a7.27,7.27,0,0,0,1.84-.24L64,33.05a7.44,7.44,0,0,1-2.18.33C59,33.38,57.94,32.36,57.94,30Z"/><path class="cls-12" d="M70.9,33.2V27c0-.47-.2-.71-.71-.71a6.12,6.12,0,0,0-2.32.75V33.2H65.64V20.66l2.23-.31V25a7.88,7.88,0,0,1,3.25-.86c1.48,0,2,1,2,2.64V33.2Z"/><path class="cls-12" d="M85.86,21h2.39L84.61,33.2h-3.4L77.58,21H80l2.94,10.15Z"/><path class="cls-12" d="M89.31,23V20.46h2.23V23Zm0,10.17V24.3h2.23v8.9Z"/><path class="cls-12" d="M93.37,27.26c0-2,.88-3.15,2.94-3.15a12,12,0,0,1,2.38.26V20.66l2.23-.31V33.2H99.15l-.22-.75a4.67,4.67,0,0,1-2.82.93c-1.79,0-2.74-1.06-2.74-3.09Zm5.32-1a9.65,9.65,0,0,0-2-.24c-.81,0-1.12.39-1.12,1.19v3.15c0,.73.27,1.13,1.1,1.13a3.21,3.21,0,0,0,2-.8Z"/><path class="cls-12" d="M106.68,31.55a9.39,9.39,0,0,0,2.72-.42l.35,1.68a9.42,9.42,0,0,1-3.27.57c-2.8,0-3.77-1.3-3.77-3.44V27.59c0-1.89.84-3.48,3.69-3.48s3.5,1.67,3.5,3.59v1.9h-5v.45C104.94,31.13,105.33,31.55,106.68,31.55Zm-1.74-3.74h2.84v-.44c0-.84-.26-1.43-1.36-1.43a1.29,1.29,0,0,0-1.48,1.43Z"/><path class="cls-12" d="M115,33.38c-3.05,0-3.87-1.68-3.87-3.51V27.62c0-1.83.82-3.51,3.87-3.51s3.88,1.68,3.88,3.51v2.25C118.89,31.7,118.07,33.38,115,33.38ZM115,26c-1.18,0-1.64.53-1.64,1.54v2.39c0,1,.46,1.54,1.64,1.54s1.65-.53,1.65-1.54V27.55C116.66,26.54,116.2,26,115,26Z"/><path class="cls-12" d="M131.07,33.2V28.06h-4.52V33.2h-2.3V21h2.3v5h4.52V21h2.3V33.2Z"/><path class="cls-12" d="M139.22,31.55a9.39,9.39,0,0,0,2.72-.42l.35,1.68a9.42,9.42,0,0,1-3.27.57c-2.8,0-3.77-1.3-3.77-3.44V27.59c0-1.89.84-3.48,3.69-3.48s3.5,1.67,3.5,3.59v1.9h-5v.45C137.48,31.13,137.87,31.55,139.22,31.55Zm-1.74-3.74h2.84v-.44c0-.84-.26-1.43-1.36-1.43a1.29,1.29,0,0,0-1.48,1.43Z"/><path class="cls-12" d="M148.67,26.16a17.56,17.56,0,0,0-2.36,1.3V33.2h-2.23V24.3H146l.15,1a9.82,9.82,0,0,1,2.34-1.17Z"/><path class="cls-12" d="M153.37,31.55a9.39,9.39,0,0,0,2.72-.42l.35,1.68a9.42,9.42,0,0,1-3.27.57c-2.8,0-3.77-1.3-3.77-3.44V27.59c0-1.89.84-3.48,3.69-3.48s3.49,1.67,3.49,3.59v1.9h-5v.45C151.63,31.13,152,31.55,153.37,31.55Zm-1.74-3.74h2.83v-.44c0-.84-.25-1.43-1.35-1.43a1.29,1.29,0,0,0-1.48,1.43Z"/><polygon class="cls-12" points="164.08 39.83 184.35 28.12 164.08 16.42 164.08 39.83"/></g></g></g></svg>